<svg width="323" height="342" viewBox="0 0 323 342" fill="none" xmlns="http://www.w3.org/2000/svg">
<rect width="323" height="342" fill="#3C93F9"/>
<path d="M80.9528 254.126H94.0828V257.012H85.0088V261.146H93.2248V264.032H85.0088V271H80.9528V254.126ZM96.77 253.866H100.566V256.934H96.77V253.866ZM96.77 258.416H100.566V271H96.77V258.416ZM104.004 258.416H107.748V259.95C108.043 258.754 109.386 258.156 111.778 258.156C113.39 258.156 114.517 258.451 115.158 259.04C115.817 259.612 116.146 260.522 116.146 261.77V271H112.35V262.264C112.35 261.779 112.298 261.415 112.194 261.172C112.107 260.929 111.917 260.756 111.622 260.652C111.345 260.548 110.911 260.496 110.322 260.496C109.577 260.496 109.031 260.548 108.684 260.652C108.337 260.739 108.103 260.903 107.982 261.146C107.861 261.389 107.8 261.761 107.8 262.264V271H104.004V258.416ZM123.029 271.26C121.85 271.26 120.966 271.156 120.377 270.948C119.805 270.723 119.397 270.333 119.155 269.778C118.929 269.206 118.817 268.357 118.817 267.23C118.817 266.225 118.938 265.436 119.181 264.864C119.441 264.292 119.848 263.885 120.403 263.642C120.975 263.382 121.755 263.252 122.743 263.252H127.007V262.394C127.007 261.857 126.929 261.458 126.773 261.198C126.634 260.938 126.365 260.756 125.967 260.652C125.585 260.548 125.005 260.496 124.225 260.496C123.15 260.496 121.677 260.6 119.805 260.808V258.416C121.174 258.243 122.777 258.156 124.615 258.156C126.227 258.156 127.466 258.277 128.333 258.52C129.217 258.763 129.849 259.179 130.231 259.768C130.612 260.357 130.803 261.215 130.803 262.342V271H127.085V269.856C126.79 270.359 126.391 270.714 125.889 270.922C125.386 271.147 124.433 271.26 123.029 271.26ZM124.511 268.894C125.273 268.894 125.819 268.868 126.149 268.816C126.391 268.781 126.556 268.729 126.643 268.66C126.747 268.591 126.833 268.478 126.903 268.322C126.972 268.201 127.007 268.019 127.007 267.776V265.332H124.407C123.817 265.332 123.401 265.375 123.159 265.462C122.916 265.531 122.751 265.687 122.665 265.93C122.578 266.155 122.535 266.563 122.535 267.152C122.535 267.724 122.578 268.123 122.665 268.348C122.751 268.573 122.916 268.721 123.159 268.79C123.419 268.859 123.869 268.894 124.511 268.894ZM134.143 258.416H137.887V259.95C138.181 258.754 139.525 258.156 141.917 258.156C143.529 258.156 144.655 258.451 145.297 259.04C145.955 259.612 146.285 260.522 146.285 261.77V271H142.489V262.264C142.489 261.779 142.437 261.415 142.333 261.172C142.246 260.929 142.055 260.756 141.761 260.652C141.483 260.548 141.05 260.496 140.461 260.496C139.715 260.496 139.169 260.548 138.823 260.652C138.476 260.739 138.242 260.903 138.121 261.146C137.999 261.389 137.939 261.761 137.939 262.264V271H134.143V258.416ZM154.909 276.72C153.939 276.72 153.15 276.521 152.543 276.122L153.115 274.926C153.635 275.238 154.173 275.394 154.727 275.394C155.542 275.394 155.949 275.091 155.949 274.484C155.949 273.825 155.299 273.496 153.999 273.496H152.959L153.271 273.002C153.341 272.898 153.427 272.759 153.531 272.586C153.635 272.43 153.774 272.239 153.947 272.014L154.467 271.234C153.705 271.217 153.046 271.147 152.491 271.026C151.954 270.905 151.425 270.705 150.905 270.428C149.796 269.839 149.241 268.669 149.241 266.918V262.732C149.241 261.588 149.501 260.635 150.021 259.872C150.212 259.595 150.489 259.343 150.853 259.118C151.235 258.875 151.616 258.685 151.997 258.546C152.309 258.442 152.725 258.355 153.245 258.286C153.765 258.217 154.225 258.173 154.623 258.156H156.001C156.972 258.156 158.246 258.312 159.823 258.624V261.12C158.038 260.704 156.669 260.496 155.715 260.496C153.965 260.496 153.089 261.085 153.089 262.264V266.892C153.089 268.227 154.051 268.894 155.975 268.894C156.911 268.894 158.255 268.703 160.005 268.322V270.818C158.636 271.061 157.388 271.199 156.261 271.234L155.507 272.3C156.27 272.352 156.877 272.543 157.327 272.872C157.795 273.219 158.029 273.713 158.029 274.354C158.029 275.099 157.726 275.68 157.119 276.096C156.513 276.512 155.776 276.72 154.909 276.72ZM165.71 271.26C164.532 271.26 163.648 271.156 163.058 270.948C162.486 270.723 162.079 270.333 161.836 269.778C161.611 269.206 161.498 268.357 161.498 267.23C161.498 266.225 161.62 265.436 161.862 264.864C162.122 264.292 162.53 263.885 163.084 263.642C163.656 263.382 164.436 263.252 165.424 263.252H169.688V262.394C169.688 261.857 169.61 261.458 169.454 261.198C169.316 260.938 169.047 260.756 168.648 260.652C168.267 260.548 167.686 260.496 166.906 260.496C165.832 260.496 164.358 260.6 162.486 260.808V258.416C163.856 258.243 165.459 258.156 167.296 258.156C168.908 258.156 170.148 258.277 171.014 258.52C171.898 258.763 172.531 259.179 172.912 259.768C173.294 260.357 173.484 261.215 173.484 262.342V271H169.766V269.856C169.472 270.359 169.073 270.714 168.57 270.922C168.068 271.147 167.114 271.26 165.71 271.26ZM167.192 268.894C167.955 268.894 168.501 268.868 168.83 268.816C169.073 268.781 169.238 268.729 169.324 268.66C169.428 268.591 169.515 268.478 169.584 268.322C169.654 268.201 169.688 268.019 169.688 267.776V265.332H167.088C166.499 265.332 166.083 265.375 165.84 265.462C165.598 265.531 165.433 265.687 165.346 265.93C165.26 266.155 165.216 266.563 165.216 267.152C165.216 267.724 165.26 268.123 165.346 268.348C165.433 268.573 165.598 268.721 165.84 268.79C166.1 268.859 166.551 268.894 167.192 268.894ZM181.53 271.26C180.178 271.26 178.523 271.13 176.564 270.87V268.348C178.973 268.712 180.646 268.894 181.582 268.894C182.379 268.894 182.969 268.816 183.35 268.66C183.731 268.504 183.922 268.218 183.922 267.802V267.022C183.922 266.589 183.801 266.285 183.558 266.112C183.315 265.921 182.839 265.826 182.128 265.826H180.49C179.155 265.826 178.124 265.566 177.396 265.046C176.668 264.509 176.304 263.729 176.304 262.706V261.172C176.304 260.08 176.824 259.309 177.864 258.858C178.904 258.39 180.473 258.156 182.57 258.156C183.402 258.156 184.893 258.234 187.042 258.39V260.808C184.338 260.6 182.813 260.496 182.466 260.496C181.443 260.496 180.776 260.565 180.464 260.704C180.187 260.86 180.048 261.146 180.048 261.562V262.238C180.048 262.463 180.161 262.663 180.386 262.836C180.611 262.992 180.941 263.07 181.374 263.07H183.038C186.123 263.07 187.666 264.075 187.666 266.086V267.672C187.666 268.279 187.553 268.807 187.328 269.258C187.103 269.709 186.808 270.064 186.444 270.324C186.097 270.567 185.647 270.757 185.092 270.896C184.555 271.035 183.991 271.13 183.402 271.182C182.865 271.234 182.241 271.26 181.53 271.26ZM201.105 254.126H206.045L212.129 271H208.021L206.513 266.554H200.351L198.869 271H194.865L201.105 254.126ZM205.629 263.85L203.497 257.506H203.393L201.261 263.85H205.629ZM213.844 258.416H217.432V259.664C217.657 259.109 218.099 258.719 218.758 258.494C219.416 258.269 220.396 258.156 221.696 258.156C222.788 258.156 223.663 258.243 224.322 258.416C224.998 258.589 225.509 258.867 225.856 259.248C226.185 259.629 226.41 260.054 226.532 260.522C226.653 260.973 226.714 261.597 226.714 262.394V266.528C226.714 267.776 226.532 268.738 226.168 269.414C225.804 270.09 225.24 270.567 224.478 270.844C223.732 271.121 222.71 271.26 221.41 271.26C220.162 271.26 219.26 271.156 218.706 270.948C218.151 270.74 217.796 270.333 217.64 269.726V276.408H213.844V258.416ZM220.24 268.894C220.985 268.894 221.548 268.842 221.93 268.738C222.311 268.634 222.571 268.452 222.71 268.192C222.848 267.932 222.918 267.542 222.918 267.022V262.368C222.918 261.796 222.857 261.389 222.736 261.146C222.614 260.886 222.372 260.713 222.008 260.626C221.644 260.539 221.046 260.496 220.214 260.496C219.503 260.496 218.957 260.557 218.576 260.678C218.212 260.799 217.96 260.99 217.822 261.25C217.7 261.51 217.64 261.883 217.64 262.368V267.022C217.64 267.542 217.7 267.932 217.822 268.192C217.96 268.452 218.212 268.634 218.576 268.738C218.94 268.842 219.494 268.894 220.24 268.894ZM229.687 258.416H233.275V259.664C233.501 259.109 233.943 258.719 234.601 258.494C235.26 258.269 236.239 258.156 237.539 258.156C238.631 258.156 239.507 258.243 240.165 258.416C240.841 258.589 241.353 258.867 241.699 259.248C242.029 259.629 242.254 260.054 242.375 260.522C242.497 260.973 242.557 261.597 242.557 262.394V266.528C242.557 267.776 242.375 268.738 242.011 269.414C241.647 270.09 241.084 270.567 240.321 270.844C239.576 271.121 238.553 271.26 237.253 271.26C236.005 271.26 235.104 271.156 234.549 270.948C233.995 270.74 233.639 270.333 233.483 269.726V276.408H229.687V258.416ZM236.083 268.894C236.829 268.894 237.392 268.842 237.773 268.738C238.155 268.634 238.415 268.452 238.553 268.192C238.692 267.932 238.761 267.542 238.761 267.022V262.368C238.761 261.796 238.701 261.389 238.579 261.146C238.458 260.886 238.215 260.713 237.851 260.626C237.487 260.539 236.889 260.496 236.057 260.496C235.347 260.496 234.801 260.557 234.419 260.678C234.055 260.799 233.804 260.99 233.665 261.25C233.544 261.51 233.483 261.883 233.483 262.368V267.022C233.483 267.542 233.544 267.932 233.665 268.192C233.804 268.452 234.055 268.634 234.419 268.738C234.783 268.842 235.338 268.894 236.083 268.894Z" fill="white"/>
<mask id="path-3-inside-1" fill="white">
<path fill-rule="evenodd" clip-rule="evenodd" d="M116.25 97C115.007 97 114 98.0074 114 99.25V109.707V133.427V227.75C114 228.993 115.007 230 116.25 230H126.151C127.394 230 128.401 228.993 128.401 227.75V163.924H136.025V227.75C136.025 228.993 137.033 230 138.275 230H148.177C149.419 230 150.427 228.993 150.427 227.75V163.924H200.739C211.785 163.924 220.739 154.969 220.739 143.924V140.204H150.427V133.427H200.739C211.785 133.427 220.739 124.472 220.739 113.427V109.707L150.427 109.707V99.25C150.427 98.0074 149.419 97 148.177 97H138.275C137.033 97 136.025 98.0074 136.025 99.25V109.707H128.401V99.25C128.401 98.0074 127.394 97 126.151 97H116.25ZM128.401 133.427V140.204H136.025V133.427H128.401Z"/>
</mask>
<path fill-rule="evenodd" clip-rule="evenodd" d="M116.25 97C115.007 97 114 98.0074 114 99.25V109.707V133.427V227.75C114 228.993 115.007 230 116.25 230H126.151C127.394 230 128.401 228.993 128.401 227.75V163.924H136.025V227.75C136.025 228.993 137.033 230 138.275 230H148.177C149.419 230 150.427 228.993 150.427 227.75V163.924H200.739C211.785 163.924 220.739 154.969 220.739 143.924V140.204H150.427V133.427H200.739C211.785 133.427 220.739 124.472 220.739 113.427V109.707L150.427 109.707V99.25C150.427 98.0074 149.419 97 148.177 97H138.275C137.033 97 136.025 98.0074 136.025 99.25V109.707H128.401V99.25C128.401 98.0074 127.394 97 126.151 97H116.25ZM128.401 133.427V140.204H136.025V133.427H128.401Z" fill="#F9C33C"/>
<path d="M128.401 163.924V161.424H125.901V163.924H128.401ZM136.025 163.924H138.525V161.424H136.025V163.924ZM150.427 163.924V161.424H147.927V163.924H150.427ZM220.739 140.204H223.239V137.704H220.739V140.204ZM150.427 140.204H147.927V142.704H150.427V140.204ZM150.427 133.427V130.927H147.927V133.427H150.427ZM220.739 109.707H223.239V107.207L220.739 107.207L220.739 109.707ZM150.427 109.707H147.927V112.207L150.427 112.207L150.427 109.707ZM136.025 109.707V112.207H138.525V109.707H136.025ZM128.401 109.707H125.901V112.207H128.401V109.707ZM128.401 133.427V130.927H125.901V133.427H128.401ZM128.401 140.204H125.901V142.704H128.401V140.204ZM136.025 140.204V142.704H138.525V140.204H136.025ZM136.025 133.427H138.525V130.927H136.025V133.427ZM116.5 99.25C116.5 99.3881 116.388 99.5 116.25 99.5V94.5C113.627 94.5 111.5 96.6266 111.5 99.25H116.5ZM116.5 109.707V99.25H111.5V109.707H116.5ZM116.5 133.427V109.707H111.5V133.427H116.5ZM116.5 227.75V133.427H111.5V227.75H116.5ZM116.25 227.5C116.388 227.5 116.5 227.612 116.5 227.75H111.5C111.5 230.373 113.627 232.5 116.25 232.5V227.5ZM126.151 227.5H116.25V232.5H126.151V227.5ZM125.901 227.75C125.901 227.612 126.013 227.5 126.151 227.5V232.5C128.775 232.5 130.901 230.373 130.901 227.75H125.901ZM125.901 163.924V227.75H130.901V163.924H125.901ZM136.025 161.424H128.401V166.424H136.025V161.424ZM138.525 227.75V163.924H133.525V227.75H138.525ZM138.275 227.5C138.414 227.5 138.525 227.612 138.525 227.75H133.525C133.525 230.373 135.652 232.5 138.275 232.5V227.5ZM148.177 227.5H138.275V232.5H148.177V227.5ZM147.927 227.75C147.927 227.612 148.039 227.5 148.177 227.5V232.5C150.8 232.5 152.927 230.373 152.927 227.75H147.927ZM147.927 163.924V227.75H152.927V163.924H147.927ZM200.739 161.424H150.427V166.424H200.739V161.424ZM218.239 143.924C218.239 153.589 210.404 161.424 200.739 161.424V166.424C213.165 166.424 223.239 156.35 223.239 143.924H218.239ZM218.239 140.204V143.924H223.239V140.204H218.239ZM150.427 142.704H220.739V137.704H150.427V142.704ZM147.927 133.427V140.204H152.927V133.427H147.927ZM200.739 130.927H150.427V135.927H200.739V130.927ZM218.239 113.427C218.239 123.092 210.404 130.927 200.739 130.927V135.927C213.165 135.927 223.239 125.853 223.239 113.427H218.239ZM218.239 109.707V113.427H223.239V109.707H218.239ZM150.427 112.207L220.739 112.207L220.739 107.207L150.427 107.207L150.427 112.207ZM147.927 99.25V109.707H152.927V99.25H147.927ZM148.177 99.5C148.039 99.5 147.927 99.3881 147.927 99.25H152.927C152.927 96.6266 150.8 94.5 148.177 94.5V99.5ZM138.275 99.5H148.177V94.5H138.275V99.5ZM138.525 99.25C138.525 99.3881 138.414 99.5 138.275 99.5V94.5C135.652 94.5 133.525 96.6266 133.525 99.25H138.525ZM138.525 109.707V99.25H133.525V109.707H138.525ZM128.401 112.207H136.025V107.207H128.401V112.207ZM125.901 99.25V109.707H130.901V99.25H125.901ZM126.151 99.5C126.013 99.5 125.901 99.3881 125.901 99.25H130.901C130.901 96.6266 128.775 94.5 126.151 94.5V99.5ZM116.25 99.5H126.151V94.5H116.25V99.5ZM125.901 133.427V140.204H130.901V133.427H125.901ZM128.401 142.704H136.025V137.704H128.401V142.704ZM138.525 140.204V133.427H133.525V140.204H138.525ZM136.025 130.927H128.401V135.927H136.025V130.927Z" fill="white" mask="url(#path-3-inside-1)"/>
</svg>
