<svg width="375" height="812" viewBox="0 0 375 812" fill="none" xmlns="http://www.w3.org/2000/svg">
<g clip-path="url(#clip0)">
<rect width="375" height="812" fill="white"/>
<rect x="120" y="799" width="135" height="5" rx="2.5" fill="#DCDCE6"/>
<path d="M78 0H297C294.894 0.602689 293.418 2.49525 293.345 4.68446L293.317 5.5618C293.317 19.0587 282.375 30 268.878 30H106.122C92.6249 30 81.6835 19.0587 81.6835 5.5618L81.6545 4.68447C81.5823 2.49525 80.1059 0.602689 78 0Z" fill="#DCDCE6"/>
<path opacity="0.35" d="M336.5 22C336.5 20.8034 337.47 19.8334 338.667 19.8334H355.333C356.53 19.8334 357.5 20.8034 357.5 22V28C357.5 29.1967 356.53 30.1667 355.333 30.1667H338.667C337.47 30.1667 336.5 29.1967 336.5 28V22Z" fill="#666666" stroke="#DCDCE6"/>
<path opacity="0.4" d="M359 23V27C359.805 26.6612 360.328 25.8731 360.328 25C360.328 24.1269 359.805 23.3388 359 23Z" fill="#666666"/>
<path d="M338 22.6667C338 21.9303 338.597 21.3334 339.333 21.3334H354.667C355.403 21.3334 356 21.9303 356 22.6667V27.3334C356 28.0698 355.403 28.6667 354.667 28.6667H339.333C338.597 28.6667 338 28.0698 338 27.3334V22.6667Z" fill="#666666"/>
<path fill-rule="evenodd" clip-rule="evenodd" d="M323.33 21.608C325.546 21.6081 327.677 22.4596 329.283 23.9863C329.404 24.1042 329.597 24.1027 329.716 23.983L330.872 22.8163C330.933 22.7556 330.966 22.6734 330.966 22.5878C330.965 22.5022 330.931 22.4204 330.87 22.3603C326.655 18.3208 320.005 18.3208 315.79 22.3603C315.729 22.4203 315.694 22.5021 315.693 22.5877C315.693 22.6733 315.726 22.7556 315.787 22.8163L316.943 23.983C317.062 24.1029 317.255 24.1044 317.376 23.9863C318.982 22.4595 321.114 21.608 323.33 21.608ZM323.33 25.4037C324.547 25.4036 325.721 25.8561 326.624 26.6733C326.746 26.7893 326.938 26.7868 327.057 26.6677L328.212 25.501C328.273 25.4398 328.307 25.3568 328.306 25.2705C328.305 25.1843 328.269 25.102 328.207 25.042C325.459 22.4856 321.203 22.4856 318.455 25.042C318.393 25.102 318.357 25.1843 318.357 25.2706C318.356 25.3569 318.39 25.4399 318.451 25.501L319.605 26.6677C319.724 26.7868 319.916 26.7893 320.038 26.6733C320.94 25.8567 322.113 25.4042 323.33 25.4037ZM325.643 27.9575C325.645 28.044 325.611 28.1274 325.549 28.188L323.552 30.2037C323.493 30.2629 323.413 30.2963 323.33 30.2963C323.247 30.2963 323.167 30.2629 323.108 30.2037L321.111 28.188C321.049 28.1274 321.015 28.0439 321.017 27.9574C321.019 27.8709 321.056 27.789 321.12 27.731C322.396 26.6521 324.264 26.6521 325.54 27.731C325.604 27.7891 325.641 27.871 325.643 27.9575Z" fill="#666666"/>
<path fill-rule="evenodd" clip-rule="evenodd" d="M309.667 19.6666H308.667C308.114 19.6666 307.667 20.1143 307.667 20.6666V29.3333C307.667 29.8856 308.114 30.3333 308.667 30.3333H309.667C310.219 30.3333 310.667 29.8856 310.667 29.3333V20.6666C310.667 20.1143 310.219 19.6666 309.667 19.6666ZM304 22H305C305.552 22 306 22.4477 306 23V29.3333C306 29.8856 305.552 30.3333 305 30.3333H304C303.448 30.3333 303 29.8856 303 29.3333V23C303 22.4477 303.448 22 304 22ZM300.333 24.3333H299.333C298.781 24.3333 298.333 24.781 298.333 25.3333V29.3333C298.333 29.8856 298.781 30.3333 299.333 30.3333H300.333C300.885 30.3333 301.333 29.8856 301.333 29.3333V25.3333C301.333 24.781 300.885 24.3333 300.333 24.3333ZM295.667 26.3333H294.667C294.114 26.3333 293.667 26.781 293.667 27.3333V29.3333C293.667 29.8856 294.114 30.3333 294.667 30.3333H295.667C296.219 30.3333 296.667 29.8856 296.667 29.3333V27.3333C296.667 26.781 296.219 26.3333 295.667 26.3333Z" fill="#666666"/>
<path d="M37.3208 30.2563C40.0088 30.2563 41.6055 28.1543 41.6055 24.5947C41.6055 23.2544 41.3491 22.1265 40.8584 21.2549C40.1479 19.8999 38.9248 19.1675 37.3794 19.1675C35.0796 19.1675 33.4536 20.7129 33.4536 22.8809C33.4536 24.917 34.9185 26.3965 36.9326 26.3965C38.1704 26.3965 39.1738 25.8179 39.6719 24.8145H39.6938C39.6938 24.8145 39.7231 24.8145 39.7305 24.8145C39.7451 24.8145 39.7964 24.8145 39.7964 24.8145C39.7964 27.2314 38.8809 28.6743 37.3354 28.6743C36.4272 28.6743 35.7241 28.1763 35.4824 27.3779H33.6001C33.915 29.1138 35.3872 30.2563 37.3208 30.2563ZM37.3867 24.895C36.1709 24.895 35.3066 24.0308 35.3066 22.8223C35.3066 21.6431 36.2148 20.7422 37.394 20.7422C38.5732 20.7422 39.4814 21.6577 39.4814 22.8516C39.4814 24.0308 38.5952 24.895 37.3867 24.895Z" fill="#666666"/>
<path d="M44.6966 30.1538C45.3924 30.1538 45.8685 29.6558 45.8685 28.9966C45.8685 28.3301 45.3924 27.8394 44.6966 27.8394C44.0081 27.8394 43.5247 28.3301 43.5247 28.9966C43.5247 29.6558 44.0081 30.1538 44.6966 30.1538ZM44.6966 24.6606C45.3924 24.6606 45.8685 24.1699 45.8685 23.5107C45.8685 22.8442 45.3924 22.3535 44.6966 22.3535C44.0081 22.3535 43.5247 22.8442 43.5247 23.5107C43.5247 24.1699 44.0081 24.6606 44.6966 24.6606Z" fill="#666666"/>
<path d="M52.7242 30H54.5333V28.0298H55.9615V26.4331H54.5333V19.4312H51.8673C49.9996 22.2437 48.5128 24.5947 47.5606 26.3452V28.0298H52.7242V30ZM49.3111 26.3672C50.5416 24.1992 51.6402 22.4634 52.651 20.9692H52.7535V26.4771H49.3111V26.3672Z" fill="#666666"/>
<path d="M59.9901 30H61.8798V19.4312H59.9975L57.2362 21.3647V23.1812L59.8656 21.3354H59.9901V30Z" fill="#666666"/>
<path d="M78 435.361V459.771H83.1075V435.361H78ZM81.1074 439.58H86.072C87.4292 439.58 88.5007 439.883 89.2865 440.487C90.0722 441.068 90.4651 441.952 90.4651 443.137C90.4651 444.3 90.0722 445.183 89.2865 445.787C88.5007 446.392 87.4292 446.694 86.072 446.694H81.1074V450.913H86.072C88.0483 450.913 89.727 450.6 91.108 449.972C92.5129 449.344 93.5844 448.449 94.3225 447.287C95.0607 446.101 95.4297 444.718 95.4297 443.137C95.4297 441.533 95.0607 440.15 94.3225 438.988C93.5844 437.825 92.5129 436.93 91.108 436.303C89.727 435.675 88.0483 435.361 86.072 435.361H81.1074V439.58Z" fill="#32B768"/>
<path d="M98.9526 432.571V459.771H103.596V432.571H98.9526Z" fill="#32B768"/>
<path d="M111.447 454.784C111.447 454.319 111.554 453.935 111.768 453.633C111.982 453.308 112.316 453.064 112.768 452.901C113.221 452.715 113.804 452.622 114.518 452.622C115.399 452.622 116.233 452.738 117.019 452.971C117.828 453.203 118.554 453.552 119.197 454.017V451.925C118.959 451.646 118.566 451.355 118.019 451.053C117.471 450.751 116.792 450.495 115.983 450.286C115.197 450.076 114.28 449.972 113.233 449.972C111.185 449.972 109.601 450.425 108.482 451.332C107.363 452.238 106.804 453.471 106.804 455.028C106.804 456.121 107.065 457.051 107.589 457.818C108.137 458.562 108.851 459.131 109.732 459.526C110.613 459.922 111.566 460.119 112.59 460.119C113.59 460.119 114.542 459.945 115.447 459.596C116.376 459.247 117.126 458.724 117.697 458.027C118.292 457.33 118.59 456.469 118.59 455.447L118.019 453.354C118.019 454.121 117.84 454.784 117.483 455.342C117.126 455.877 116.661 456.295 116.09 456.597C115.518 456.876 114.876 457.016 114.161 457.016C113.661 457.016 113.197 456.934 112.768 456.772C112.363 456.586 112.042 456.33 111.804 456.004C111.566 455.656 111.447 455.249 111.447 454.784ZM109.661 448.263C109.899 448.1 110.268 447.903 110.768 447.67C111.268 447.438 111.863 447.24 112.554 447.078C113.244 446.915 113.971 446.834 114.733 446.834C115.233 446.834 115.685 446.88 116.09 446.973C116.495 447.066 116.84 447.217 117.126 447.426C117.435 447.636 117.661 447.903 117.804 448.228C117.947 448.531 118.019 448.902 118.019 449.344V459.771H122.483V448.403C122.483 447.31 122.174 446.392 121.555 445.648C120.935 444.881 120.078 444.3 118.983 443.904C117.888 443.509 116.638 443.312 115.233 443.312C113.709 443.312 112.328 443.521 111.09 443.939C109.851 444.334 108.804 444.753 107.946 445.195L109.661 448.263Z" fill="#32B768"/>
<path d="M137.394 450.007V459.771H142.18V449.519C142.18 447.589 141.704 446.09 140.752 445.02C139.799 443.928 138.347 443.381 136.394 443.381C135.228 443.381 134.227 443.625 133.394 444.114C132.584 444.579 131.93 445.264 131.43 446.171V443.73H126.786V459.771H131.43V450.007C131.43 449.333 131.561 448.751 131.823 448.263C132.084 447.775 132.465 447.403 132.965 447.147C133.466 446.868 134.037 446.729 134.68 446.729C135.632 446.729 136.323 447.008 136.751 447.566C137.18 448.124 137.394 448.937 137.394 450.007Z" fill="#32B768"/>
<path d="M144.63 443.73V447.531H154.774V443.73H144.63ZM147.452 438.151V459.771H151.917V438.151H147.452Z" fill="#32B768"/>
<path d="M163.165 446.066L170.416 457.504L177.666 446.066L179.274 459.771H184.595L180.881 434.141L170.416 449.902L159.951 434.141L156.236 459.771H161.558L163.165 446.066Z" fill="#52665A"/>
<path d="M191.461 454.784C191.461 454.319 191.568 453.936 191.782 453.633C191.996 453.308 192.33 453.064 192.782 452.901C193.234 452.715 193.818 452.622 194.532 452.622C195.413 452.622 196.247 452.738 197.032 452.971C197.842 453.203 198.568 453.552 199.211 454.017V451.925C198.973 451.646 198.58 451.355 198.032 451.053C197.485 450.751 196.806 450.495 195.997 450.286C195.211 450.077 194.294 449.972 193.246 449.972C191.199 449.972 189.615 450.425 188.496 451.332C187.377 452.238 186.817 453.471 186.817 455.028C186.817 456.121 187.079 457.051 187.603 457.818C188.151 458.562 188.865 459.131 189.746 459.526C190.627 459.922 191.58 460.119 192.603 460.119C193.604 460.119 194.556 459.945 195.461 459.596C196.389 459.247 197.139 458.724 197.711 458.027C198.306 457.33 198.604 456.469 198.604 455.447L198.032 453.354C198.032 454.122 197.854 454.784 197.497 455.342C197.139 455.877 196.675 456.295 196.104 456.597C195.532 456.876 194.889 457.016 194.175 457.016C193.675 457.016 193.211 456.934 192.782 456.772C192.377 456.586 192.056 456.33 191.818 456.005C191.58 455.656 191.461 455.249 191.461 454.784ZM189.675 448.263C189.913 448.101 190.282 447.903 190.782 447.67C191.282 447.438 191.877 447.24 192.568 447.078C193.258 446.915 193.984 446.834 194.746 446.834C195.246 446.834 195.699 446.88 196.104 446.973C196.508 447.066 196.854 447.217 197.139 447.426C197.449 447.636 197.675 447.903 197.818 448.228C197.961 448.531 198.032 448.903 198.032 449.344V459.771H202.497V448.403C202.497 447.31 202.187 446.392 201.568 445.648C200.949 444.881 200.092 444.3 198.997 443.904C197.901 443.509 196.651 443.312 195.246 443.312C193.723 443.312 192.342 443.521 191.103 443.939C189.865 444.334 188.817 444.753 187.96 445.195L189.675 448.263Z" fill="#52665A"/>
<path d="M217.408 450.007V459.771H222.194V449.519C222.194 447.589 221.718 446.09 220.765 445.02C219.813 443.928 218.361 443.381 216.408 443.381C215.241 443.381 214.241 443.625 213.408 444.114C212.598 444.579 211.943 445.264 211.443 446.171V443.73H206.8V459.771H211.443V450.007C211.443 449.333 211.574 448.751 211.836 448.263C212.098 447.775 212.479 447.403 212.979 447.147C213.479 446.868 214.051 446.729 214.694 446.729C215.646 446.729 216.337 447.008 216.765 447.566C217.194 448.124 217.408 448.937 217.408 450.007Z" fill="#52665A"/>
<path d="M230.037 454.784C230.037 454.319 230.144 453.936 230.359 453.633C230.573 453.308 230.906 453.064 231.359 452.901C231.811 452.715 232.395 452.622 233.109 452.622C233.99 452.622 234.823 452.738 235.609 452.971C236.419 453.203 237.145 453.552 237.788 454.017V451.925C237.55 451.646 237.157 451.355 236.609 451.053C236.062 450.751 235.383 450.495 234.573 450.286C233.788 450.077 232.871 449.972 231.823 449.972C229.775 449.972 228.192 450.425 227.073 451.332C225.954 452.238 225.394 453.471 225.394 455.028C225.394 456.121 225.656 457.051 226.18 457.818C226.728 458.562 227.442 459.131 228.323 459.526C229.204 459.922 230.156 460.119 231.18 460.119C232.18 460.119 233.133 459.945 234.038 459.596C234.966 459.247 235.716 458.724 236.288 458.027C236.883 457.33 237.181 456.469 237.181 455.447L236.609 453.354C236.609 454.122 236.431 454.784 236.073 455.342C235.716 455.877 235.252 456.295 234.68 456.597C234.109 456.876 233.466 457.016 232.752 457.016C232.252 457.016 231.787 456.934 231.359 456.772C230.954 456.586 230.633 456.33 230.394 456.005C230.156 455.656 230.037 455.249 230.037 454.784ZM228.251 448.263C228.49 448.101 228.859 447.903 229.359 447.67C229.859 447.438 230.454 447.24 231.145 447.078C231.835 446.915 232.561 446.834 233.323 446.834C233.823 446.834 234.276 446.88 234.68 446.973C235.085 447.066 235.431 447.217 235.716 447.426C236.026 447.636 236.252 447.903 236.395 448.228C236.538 448.531 236.609 448.903 236.609 449.344V459.771H241.074V448.403C241.074 447.31 240.764 446.392 240.145 445.648C239.526 444.881 238.669 444.3 237.574 443.904C236.478 443.509 235.228 443.312 233.823 443.312C232.299 443.312 230.918 443.521 229.68 443.939C228.442 444.334 227.394 444.753 226.537 445.195L228.251 448.263Z" fill="#52665A"/>
<path d="M244.591 460.886C244.687 462.281 245.068 463.513 245.734 464.583C246.425 465.675 247.413 466.512 248.699 467.093C249.985 467.698 251.58 468 253.485 468C255.056 468 256.509 467.698 257.842 467.093C259.176 466.512 260.235 465.582 261.021 464.304C261.831 463.025 262.235 461.398 262.235 459.422V443.73H257.771V459.422C257.771 460.514 257.556 461.421 257.128 462.142C256.723 462.862 256.175 463.397 255.485 463.746C254.818 464.095 254.104 464.269 253.342 464.269C252.509 464.269 251.782 464.129 251.163 463.85C250.544 463.571 250.056 463.176 249.699 462.665C249.342 462.177 249.151 461.584 249.127 460.886H244.591ZM244.27 451.611C244.27 453.378 244.639 454.877 245.377 456.109C246.115 457.318 247.091 458.236 248.306 458.864C249.52 459.492 250.806 459.805 252.163 459.805C253.544 459.805 254.759 459.492 255.806 458.864C256.878 458.213 257.711 457.271 258.307 456.039C258.926 454.807 259.235 453.331 259.235 451.611C259.235 449.867 258.926 448.391 258.307 447.182C257.711 445.95 256.878 445.009 255.806 444.358C254.759 443.707 253.544 443.381 252.163 443.381C250.806 443.381 249.52 443.695 248.306 444.323C247.091 444.951 246.115 445.88 245.377 447.113C244.639 448.321 244.27 449.821 244.27 451.611ZM249.056 451.611C249.056 450.634 249.258 449.821 249.663 449.17C250.068 448.496 250.616 447.984 251.306 447.636C251.997 447.287 252.735 447.113 253.52 447.113C254.044 447.113 254.556 447.217 255.056 447.426C255.556 447.612 256.009 447.891 256.414 448.263C256.842 448.635 257.175 449.1 257.414 449.658C257.652 450.216 257.771 450.867 257.771 451.611C257.771 452.587 257.556 453.412 257.128 454.087C256.723 454.738 256.187 455.237 255.521 455.586C254.878 455.912 254.211 456.074 253.52 456.074C252.735 456.074 251.997 455.9 251.306 455.551C250.616 455.202 250.068 454.703 249.663 454.052C249.258 453.378 249.056 452.564 249.056 451.611Z" fill="#52665A"/>
<path d="M274.474 460.119C276.45 460.119 278.141 459.747 279.546 459.003C280.974 458.236 282.117 457.097 282.974 455.586L278.938 454.366C278.462 455.133 277.855 455.714 277.117 456.109C276.403 456.481 275.533 456.667 274.51 456.667C273.605 456.667 272.831 456.469 272.188 456.074C271.545 455.679 271.057 455.11 270.724 454.366C270.414 453.622 270.259 452.715 270.259 451.646C270.283 450.53 270.45 449.6 270.759 448.856C271.093 448.089 271.557 447.519 272.152 447.147C272.771 446.752 273.533 446.555 274.438 446.555C275.176 446.555 275.819 446.717 276.367 447.043C276.915 447.368 277.331 447.81 277.617 448.368C277.927 448.926 278.081 449.6 278.081 450.39C278.081 450.553 278.034 450.762 277.938 451.018C277.867 451.25 277.784 451.436 277.688 451.576L278.938 449.972H268.259V452.762H282.974C282.998 452.622 283.01 452.436 283.01 452.204C283.034 451.971 283.046 451.75 283.046 451.541C283.046 449.821 282.713 448.356 282.046 447.147C281.379 445.915 280.403 444.985 279.117 444.358C277.855 443.707 276.319 443.381 274.51 443.381C272.7 443.381 271.128 443.73 269.795 444.427C268.462 445.102 267.426 446.066 266.688 447.322C265.973 448.554 265.616 450.03 265.616 451.75C265.616 453.447 265.973 454.924 266.688 456.179C267.426 457.411 268.462 458.376 269.795 459.073C271.128 459.771 272.688 460.119 274.474 460.119Z" fill="#52665A"/>
<path d="M291.071 443.73H286.535V459.771H291.071V443.73ZM295.893 448.438L298 444.602C297.667 444.183 297.226 443.87 296.678 443.66C296.155 443.451 295.595 443.346 295 443.346C294.143 443.346 293.309 443.649 292.5 444.253C291.69 444.834 291.035 445.625 290.535 446.624C290.035 447.601 289.785 448.728 289.785 450.007L291.071 451.262C291.071 450.495 291.166 449.844 291.357 449.309C291.571 448.751 291.881 448.321 292.285 448.019C292.69 447.717 293.178 447.566 293.75 447.566C294.226 447.566 294.619 447.647 294.928 447.81C295.262 447.949 295.583 448.159 295.893 448.438Z" fill="#52665A"/>
<g clip-path="url(#clip1)">
<path d="M213.245 344.105C201.126 344.105 191.267 353.929 191.267 366.004V368.258H193.528C205.647 368.258 215.506 358.433 215.506 346.358V344.105H213.245Z" fill="#00C063"/>
<path d="M173.455 351.26H171.194V353.513C171.194 365.588 181.053 375.412 193.172 375.412H195.433V373.159C195.433 361.084 185.574 351.26 173.455 351.26Z" fill="#00C063"/>
<path d="M211.786 390.617C208.214 386.647 202.234 380.002 194.738 379.381C183.231 378.429 175.69 385.043 175.375 385.325L176.766 386.87H176.766L178.157 388.415C178.17 388.404 178.443 388.164 178.951 387.796L186.888 391.157L194.38 394.539L195.651 400.657L209.923 394.746C210.145 394.981 210.352 395.194 210.544 395.38L213.444 392.398C213.032 392.001 212.455 391.359 211.786 390.617Z" fill="#2B7A4B"/>
<path d="M221.905 395.083C221.188 393.364 219.843 392.026 218.116 391.316C216.389 390.606 214.489 390.608 212.763 391.322L197.429 397.672C197.444 396.746 197.273 395.816 196.914 394.926C196.184 393.12 194.784 391.727 192.971 391.004L178.836 385.366C175.706 384.117 172.266 384.139 169.15 385.429L162.133 388.335L162.933 390.252L162.944 391.003L162.933 391.01L163.052 402.655L162.271 404.579L185.204 413.809C186.771 414.438 188.413 414.753 190.056 414.753C191.745 414.753 193.433 414.42 195.037 413.756L218.131 404.192C219.856 403.478 221.199 402.137 221.912 400.416C222.625 398.696 222.622 396.802 221.905 395.083Z" fill="#F9D5A5"/>
<path d="M162.991 396.701L163.052 396.551L162.987 390.229L162.933 390.252L162.944 391.003L162.933 391.01L162.991 396.701Z" fill="#F9BE77"/>
<path d="M165.016 382.749H151.333V410.605H165.016V382.749Z" fill="#32B768"/>
<path d="M165.155 379.823H160.989V412.159H165.155V379.823Z" fill="white"/>
<path d="M207.181 354.77L204.169 351.901L191.267 365.382V368.161L182.531 359.056L179.519 361.925L191.267 374.169V381.361H195.433V367.014L207.181 354.77Z" fill="#73E6A1"/>
</g>
</g>
<defs>
<clipPath id="clip0">
<rect width="375" height="812" rx="30" fill="white"/>
</clipPath>
<clipPath id="clip1">
<rect width="71.1111" height="70.8571" fill="white" transform="translate(151.333 344)"/>
</clipPath>
</defs>
</svg>
