<svg width="375" height="812" viewBox="0 0 375 812" fill="none" xmlns="http://www.w3.org/2000/svg">
<rect width="375" height="812" rx="30" fill="white"/>
<rect x="120" y="799" width="135" height="5" rx="2.5" fill="#DCDCE6"/>
<path d="M78 0H297C294.894 0.602689 293.418 2.49525 293.345 4.68446L293.317 5.5618C293.317 19.0587 282.375 30 268.878 30H106.122C92.6249 30 81.6835 19.0587 81.6835 5.5618L81.6545 4.68447C81.5823 2.49525 80.1059 0.602689 78 0Z" fill="#DCDCE6"/>
<path opacity="0.35" d="M336.5 22C336.5 20.8034 337.47 19.8334 338.667 19.8334H355.333C356.53 19.8334 357.5 20.8034 357.5 22V28C357.5 29.1967 356.53 30.1667 355.333 30.1667H338.667C337.47 30.1667 336.5 29.1967 336.5 28V22Z" fill="#666666" stroke="#DCDCE6"/>
<path opacity="0.4" d="M359 23V27C359.805 26.6613 360.328 25.8732 360.328 25C360.328 24.1269 359.805 23.3388 359 23Z" fill="#666666"/>
<path d="M338 22.6667C338 21.9303 338.597 21.3334 339.333 21.3334H354.667C355.403 21.3334 356 21.9303 356 22.6667V27.3334C356 28.0698 355.403 28.6667 354.667 28.6667H339.333C338.597 28.6667 338 28.0698 338 27.3334V22.6667Z" fill="#666666"/>
<path fill-rule="evenodd" clip-rule="evenodd" d="M323.33 21.608C325.546 21.6081 327.677 22.4596 329.283 23.9863C329.404 24.1042 329.598 24.1027 329.717 23.983L330.873 22.8163C330.933 22.7556 330.967 22.6734 330.966 22.5878C330.966 22.5022 330.931 22.4204 330.87 22.3603C326.655 18.3208 320.005 18.3208 315.79 22.3603C315.729 22.4203 315.694 22.5021 315.694 22.5877C315.693 22.6733 315.727 22.7556 315.787 22.8163L316.943 23.983C317.062 24.1029 317.256 24.1044 317.377 23.9863C318.983 22.4595 321.114 21.608 323.33 21.608ZM323.33 25.4037C324.548 25.4036 325.722 25.8561 326.624 26.6733C326.746 26.7893 326.939 26.7868 327.058 26.6677L328.212 25.501C328.273 25.4398 328.307 25.3568 328.306 25.2705C328.305 25.1843 328.27 25.102 328.208 25.042C325.459 22.4856 321.204 22.4856 318.455 25.042C318.393 25.102 318.358 25.1843 318.357 25.2706C318.356 25.3569 318.39 25.4399 318.451 25.501L319.605 26.6677C319.724 26.7868 319.917 26.7893 320.039 26.6733C320.941 25.8567 322.114 25.4042 323.33 25.4037ZM325.643 27.9575C325.645 28.044 325.611 28.1274 325.549 28.188L323.552 30.2037C323.493 30.2629 323.414 30.2963 323.33 30.2963C323.247 30.2963 323.167 30.2629 323.109 30.2037L321.111 28.188C321.049 28.1274 321.015 28.0439 321.017 27.9574C321.019 27.8709 321.056 27.789 321.121 27.731C322.396 26.6521 324.264 26.6521 325.54 27.731C325.604 27.7891 325.642 27.871 325.643 27.9575Z" fill="#666666"/>
<path fill-rule="evenodd" clip-rule="evenodd" d="M309.667 19.6666H308.667C308.114 19.6666 307.667 20.1143 307.667 20.6666V29.3333C307.667 29.8856 308.114 30.3333 308.667 30.3333H309.667C310.219 30.3333 310.667 29.8856 310.667 29.3333V20.6666C310.667 20.1143 310.219 19.6666 309.667 19.6666ZM304 22H305C305.552 22 306 22.4477 306 23V29.3333C306 29.8856 305.552 30.3333 305 30.3333H304C303.448 30.3333 303 29.8856 303 29.3333V23C303 22.4477 303.448 22 304 22ZM300.333 24.3333H299.333C298.781 24.3333 298.333 24.781 298.333 25.3333V29.3333C298.333 29.8856 298.781 30.3333 299.333 30.3333H300.333C300.886 30.3333 301.333 29.8856 301.333 29.3333V25.3333C301.333 24.781 300.886 24.3333 300.333 24.3333ZM295.667 26.3333H294.667C294.114 26.3333 293.667 26.781 293.667 27.3333V29.3333C293.667 29.8856 294.114 30.3333 294.667 30.3333H295.667C296.219 30.3333 296.667 29.8856 296.667 29.3333V27.3333C296.667 26.781 296.219 26.3333 295.667 26.3333Z" fill="#666666"/>
<path d="M37.3207 30.2563C40.0087 30.2563 41.6053 28.1543 41.6053 24.5947C41.6053 23.2544 41.349 22.1265 40.8583 21.2549C40.1478 19.8999 38.9247 19.1675 37.3793 19.1675C35.0795 19.1675 33.4535 20.7129 33.4535 22.8809C33.4535 24.917 34.9183 26.3965 36.9325 26.3965C38.1703 26.3965 39.1737 25.8179 39.6718 24.8145H39.6937C39.6937 24.8145 39.723 24.8145 39.7303 24.8145C39.745 24.8145 39.7963 24.8145 39.7963 24.8145C39.7963 27.2314 38.8807 28.6743 37.3353 28.6743C36.4271 28.6743 35.724 28.1763 35.4823 27.3779H33.6C33.9149 29.1138 35.3871 30.2563 37.3207 30.2563ZM37.3866 24.895C36.1708 24.895 35.3065 24.0308 35.3065 22.8223C35.3065 21.6431 36.2147 20.7422 37.3939 20.7422C38.5731 20.7422 39.4813 21.6577 39.4813 22.8516C39.4813 24.0308 38.5951 24.895 37.3866 24.895Z" fill="#666666"/>
<path d="M44.6965 30.1538C45.3923 30.1538 45.8683 29.6558 45.8683 28.9966C45.8683 28.3301 45.3923 27.8394 44.6965 27.8394C44.008 27.8394 43.5246 28.3301 43.5246 28.9966C43.5246 29.6558 44.008 30.1538 44.6965 30.1538ZM44.6965 24.6606C45.3923 24.6606 45.8683 24.1699 45.8683 23.5107C45.8683 22.8442 45.3923 22.3535 44.6965 22.3535C44.008 22.3535 43.5246 22.8442 43.5246 23.5107C43.5246 24.1699 44.008 24.6606 44.6965 24.6606Z" fill="#666666"/>
<path d="M52.7241 30H54.5332V28.0298H55.9614V26.4331H54.5332V19.4312H51.8672C49.9995 22.2437 48.5127 24.5947 47.5605 26.3452V28.0298H52.7241V30ZM49.311 26.3672C50.5415 24.1992 51.6401 22.4634 52.6509 20.9692H52.7534V26.4771H49.311V26.3672Z" fill="#666666"/>
<path d="M59.99 30H61.8797V19.4312H59.9973L57.2361 21.3647V23.1812L59.8655 21.3354H59.99V30Z" fill="#666666"/>
<rect x="72" y="365" width="231" height="56" rx="16" fill="#32B768"/>
<path d="M152.629 392.05C152.629 391.2 152.816 390.463 153.19 389.84C153.576 389.205 154.074 388.718 154.686 388.378C155.298 388.027 155.967 387.851 156.692 387.851C157.259 387.851 157.769 387.925 158.222 388.072C158.687 388.219 159.101 388.423 159.463 388.684C159.826 388.933 160.143 389.217 160.415 389.534V387.154C159.928 386.735 159.39 386.417 158.8 386.202C158.222 385.987 157.497 385.879 156.624 385.879C155.752 385.879 154.936 386.032 154.176 386.338C153.428 386.633 152.777 387.058 152.221 387.613C151.666 388.157 151.23 388.809 150.912 389.568C150.606 390.316 150.453 391.143 150.453 392.05C150.453 392.945 150.606 393.773 150.912 394.532C151.23 395.28 151.666 395.932 152.221 396.487C152.777 397.042 153.428 397.467 154.176 397.762C154.936 398.057 155.752 398.204 156.624 398.204C157.497 398.204 158.222 398.096 158.8 397.881C159.39 397.666 159.928 397.354 160.415 396.946V394.549C160.143 394.878 159.826 395.172 159.463 395.433C159.101 395.682 158.687 395.881 158.222 396.028C157.769 396.175 157.259 396.249 156.692 396.249C155.967 396.249 155.298 396.073 154.686 395.722C154.074 395.371 153.576 394.883 153.19 394.26C152.816 393.625 152.629 392.889 152.629 392.05ZM162.139 394.09C162.139 394.883 162.321 395.592 162.683 396.215C163.057 396.827 163.562 397.309 164.196 397.66C164.842 398 165.562 398.17 166.355 398.17C167.16 398.17 167.88 398 168.514 397.66C169.149 397.309 169.648 396.827 170.01 396.215C170.384 395.592 170.571 394.883 170.571 394.09C170.571 393.285 170.384 392.577 170.01 391.965C169.648 391.353 169.149 390.877 168.514 390.537C167.88 390.186 167.16 390.01 166.355 390.01C165.562 390.01 164.842 390.186 164.196 390.537C163.562 390.877 163.057 391.353 162.683 391.965C162.321 392.577 162.139 393.285 162.139 394.09ZM164.026 394.09C164.026 393.603 164.128 393.172 164.332 392.798C164.536 392.424 164.814 392.135 165.165 391.931C165.517 391.727 165.913 391.625 166.355 391.625C166.797 391.625 167.194 391.727 167.545 391.931C167.897 392.135 168.174 392.424 168.378 392.798C168.582 393.172 168.684 393.603 168.684 394.09C168.684 394.577 168.582 395.008 168.378 395.382C168.174 395.745 167.897 396.034 167.545 396.249C167.194 396.453 166.797 396.555 166.355 396.555C165.913 396.555 165.517 396.453 165.165 396.249C164.814 396.034 164.536 395.745 164.332 395.382C164.128 395.008 164.026 394.577 164.026 394.09ZM177.362 393.24V398H179.249V393.019C179.249 392.09 179.017 391.359 178.552 390.826C178.087 390.282 177.413 390.01 176.529 390.01C175.996 390.01 175.532 390.123 175.135 390.35C174.75 390.577 174.432 390.922 174.183 391.387V390.18H172.33V398H174.183V393.24C174.183 392.889 174.251 392.583 174.387 392.322C174.534 392.05 174.738 391.846 174.999 391.71C175.26 391.563 175.566 391.489 175.917 391.489C176.404 391.489 176.767 391.636 177.005 391.931C177.243 392.226 177.362 392.662 177.362 393.24ZM180.948 390.18V391.795H185.436V390.18H180.948ZM185.249 386.712L186.099 385.284C186.008 385.171 185.883 385.057 185.725 384.944C185.566 384.819 185.373 384.717 185.147 384.638C184.92 384.559 184.654 384.519 184.348 384.519C183.792 384.519 183.328 384.627 182.954 384.842C182.58 385.057 182.291 385.369 182.087 385.777C181.894 386.174 181.798 386.678 181.798 387.29V398H183.617V387.647C183.617 387.318 183.651 387.052 183.719 386.848C183.787 386.644 183.877 386.497 183.991 386.406C184.115 386.315 184.263 386.27 184.433 386.27C184.569 386.27 184.71 386.298 184.858 386.355C185.005 386.412 185.135 386.531 185.249 386.712ZM186.772 387.069C186.772 387.375 186.885 387.641 187.112 387.868C187.35 388.083 187.622 388.191 187.928 388.191C188.256 388.191 188.534 388.083 188.761 387.868C188.987 387.641 189.101 387.375 189.101 387.069C189.101 386.752 188.987 386.485 188.761 386.27C188.534 386.055 188.256 385.947 187.928 385.947C187.622 385.947 187.35 386.055 187.112 386.27C186.885 386.485 186.772 386.752 186.772 387.069ZM187.027 390.18V398H188.846V390.18H187.027ZM193.191 390.18H191.372V398H193.191V390.18ZM195.52 392.135L196.421 390.588C196.24 390.373 196.024 390.22 195.775 390.129C195.526 390.038 195.259 389.993 194.976 389.993C194.579 389.993 194.194 390.14 193.82 390.435C193.457 390.718 193.157 391.104 192.919 391.591C192.692 392.067 192.579 392.617 192.579 393.24L193.191 393.597C193.191 393.223 193.231 392.9 193.31 392.628C193.401 392.345 193.542 392.124 193.735 391.965C193.928 391.806 194.177 391.727 194.483 391.727C194.71 391.727 194.897 391.761 195.044 391.829C195.203 391.897 195.361 391.999 195.52 392.135ZM208.884 393.019C208.884 392.384 208.787 391.84 208.595 391.387C208.413 390.934 208.141 390.594 207.779 390.367C207.416 390.129 206.951 390.01 206.385 390.01C205.863 390.01 205.393 390.129 204.974 390.367C204.566 390.594 204.22 390.939 203.937 391.404C203.767 390.951 203.489 390.605 203.104 390.367C202.73 390.129 202.259 390.01 201.693 390.01C201.183 390.01 200.746 390.123 200.384 390.35C200.021 390.565 199.721 390.888 199.483 391.319V390.18H197.681V398H199.483V393.24C199.483 392.866 199.545 392.549 199.67 392.288C199.806 392.027 199.987 391.829 200.214 391.693C200.452 391.557 200.724 391.489 201.03 391.489C201.483 391.489 201.812 391.636 202.016 391.931C202.231 392.214 202.339 392.651 202.339 393.24V398H204.175V393.24C204.175 392.866 204.237 392.549 204.362 392.288C204.498 392.027 204.679 391.829 204.906 391.693C205.144 391.557 205.421 391.489 205.739 391.489C206.181 391.489 206.504 391.636 206.708 391.931C206.923 392.214 207.031 392.651 207.031 393.24V398H208.884V393.019ZM212.367 395.569C212.367 395.32 212.424 395.11 212.537 394.94C212.662 394.77 212.843 394.64 213.081 394.549C213.319 394.447 213.631 394.396 214.016 394.396C214.458 394.396 214.877 394.453 215.274 394.566C215.671 394.679 216.045 394.861 216.396 395.11V394.175C216.294 394.05 216.118 393.914 215.869 393.767C215.62 393.608 215.302 393.472 214.917 393.359C214.543 393.246 214.095 393.189 213.574 393.189C212.599 393.189 211.846 393.416 211.313 393.869C210.78 394.311 210.514 394.912 210.514 395.671C210.514 396.204 210.639 396.657 210.888 397.031C211.137 397.405 211.472 397.688 211.891 397.881C212.31 398.074 212.764 398.17 213.251 398.17C213.704 398.17 214.146 398.091 214.577 397.932C215.019 397.762 215.382 397.507 215.665 397.167C215.96 396.827 216.107 396.408 216.107 395.909L215.835 394.889C215.835 395.286 215.744 395.626 215.563 395.909C215.382 396.192 215.138 396.413 214.832 396.572C214.537 396.719 214.203 396.793 213.829 396.793C213.546 396.793 213.291 396.748 213.064 396.657C212.849 396.566 212.679 396.43 212.554 396.249C212.429 396.056 212.367 395.83 212.367 395.569ZM211.789 392.22C211.914 392.141 212.089 392.044 212.316 391.931C212.543 391.806 212.815 391.704 213.132 391.625C213.461 391.534 213.806 391.489 214.169 391.489C214.407 391.489 214.628 391.512 214.832 391.557C215.036 391.602 215.212 391.676 215.359 391.778C215.518 391.88 215.637 392.01 215.716 392.169C215.795 392.328 215.835 392.532 215.835 392.781V398H217.637V392.424C217.637 391.903 217.495 391.461 217.212 391.098C216.94 390.735 216.555 390.463 216.056 390.282C215.557 390.089 214.991 389.993 214.356 389.993C213.619 389.993 212.973 390.095 212.418 390.299C211.863 390.503 211.404 390.713 211.041 390.928L211.789 392.22ZM221.596 390.18H219.777V398H221.596V390.18ZM223.925 392.135L224.826 390.588C224.645 390.373 224.43 390.22 224.18 390.129C223.931 390.038 223.665 389.993 223.381 389.993C222.985 389.993 222.599 390.14 222.225 390.435C221.863 390.718 221.562 391.104 221.324 391.591C221.098 392.067 220.984 392.617 220.984 393.24L221.596 393.597C221.596 393.223 221.636 392.9 221.715 392.628C221.806 392.345 221.948 392.124 222.14 391.965C222.333 391.806 222.582 391.727 222.888 391.727C223.115 391.727 223.302 391.761 223.449 391.829C223.608 391.897 223.767 391.999 223.925 392.135Z" fill="white"/>
<path d="M106.725 201.6C106.725 200.48 106.973 199.512 107.469 198.696C107.981 197.88 108.645 197.256 109.461 196.824C110.277 196.376 111.165 196.152 112.125 196.152C112.925 196.152 113.637 196.256 114.261 196.464C114.885 196.672 115.445 196.952 115.941 197.304C116.453 197.656 116.893 198.04 117.261 198.456V194.592C116.573 194.048 115.821 193.624 115.005 193.32C114.205 193.016 113.189 192.864 111.957 192.864C110.677 192.864 109.485 193.072 108.381 193.488C107.293 193.904 106.341 194.504 105.525 195.288C104.725 196.072 104.101 197 103.653 198.072C103.221 199.128 103.005 200.304 103.005 201.6C103.005 202.896 103.221 204.08 103.653 205.152C104.101 206.208 104.725 207.128 105.525 207.912C106.341 208.696 107.293 209.296 108.381 209.712C109.485 210.128 110.677 210.336 111.957 210.336C113.189 210.336 114.205 210.184 115.005 209.88C115.821 209.576 116.573 209.152 117.261 208.608V204.744C116.893 205.16 116.453 205.544 115.941 205.896C115.445 206.248 114.885 206.528 114.261 206.736C113.637 206.944 112.925 207.048 112.125 207.048C111.165 207.048 110.277 206.832 109.461 206.4C108.645 205.952 107.981 205.32 107.469 204.504C106.973 203.672 106.725 202.704 106.725 201.6ZM119.644 204.48C119.644 205.616 119.908 206.624 120.436 207.504C120.98 208.368 121.708 209.04 122.62 209.52C123.548 210 124.596 210.24 125.764 210.24C126.932 210.24 127.972 210 128.884 209.52C129.812 209.04 130.54 208.368 131.068 207.504C131.612 206.624 131.884 205.616 131.884 204.48C131.884 203.328 131.612 202.32 131.068 201.456C130.54 200.592 129.812 199.92 128.884 199.44C127.972 198.96 126.932 198.72 125.764 198.72C124.596 198.72 123.548 198.96 122.62 199.44C121.708 199.92 120.98 200.592 120.436 201.456C119.908 202.32 119.644 203.328 119.644 204.48ZM122.812 204.48C122.812 203.856 122.94 203.304 123.196 202.824C123.468 202.344 123.828 201.976 124.276 201.72C124.724 201.464 125.22 201.336 125.764 201.336C126.308 201.336 126.804 201.464 127.252 201.72C127.7 201.976 128.052 202.344 128.308 202.824C128.58 203.304 128.716 203.856 128.716 204.48C128.716 205.104 128.58 205.656 128.308 206.136C128.052 206.6 127.7 206.968 127.252 207.24C126.804 207.496 126.308 207.624 125.764 207.624C125.22 207.624 124.724 207.496 124.276 207.24C123.828 206.968 123.468 206.6 123.196 206.136C122.94 205.656 122.812 205.104 122.812 204.48ZM150.536 202.944C150.536 202.048 150.408 201.288 150.152 200.664C149.912 200.024 149.536 199.544 149.024 199.224C148.512 198.888 147.848 198.72 147.032 198.72C146.28 198.72 145.608 198.88 145.016 199.2C144.44 199.52 143.952 199.992 143.552 200.616C143.312 199.992 142.928 199.52 142.4 199.2C141.872 198.88 141.2 198.72 140.384 198.72C139.648 198.72 139.016 198.88 138.488 199.2C137.96 199.52 137.536 199.984 137.216 200.592V198.96H134.216V210H137.216V203.28C137.216 202.8 137.296 202.392 137.456 202.056C137.616 201.704 137.84 201.448 138.128 201.288C138.416 201.112 138.752 201.024 139.136 201.024C139.712 201.024 140.128 201.216 140.384 201.6C140.64 201.968 140.768 202.528 140.768 203.28V210H143.864V203.28C143.864 202.8 143.944 202.392 144.104 202.056C144.264 201.704 144.488 201.448 144.776 201.288C145.064 201.112 145.4 201.024 145.784 201.024C146.36 201.024 146.776 201.216 147.032 201.6C147.288 201.968 147.416 202.528 147.416 203.28V210H150.536V202.944ZM152.854 204.48C152.854 205.616 153.118 206.624 153.646 207.504C154.191 208.368 154.919 209.04 155.831 209.52C156.759 210 157.807 210.24 158.975 210.24C160.143 210.24 161.183 210 162.095 209.52C163.023 209.04 163.751 208.368 164.279 207.504C164.823 206.624 165.095 205.616 165.095 204.48C165.095 203.328 164.823 202.32 164.279 201.456C163.751 200.592 163.023 199.92 162.095 199.44C161.183 198.96 160.143 198.72 158.975 198.72C157.807 198.72 156.759 198.96 155.831 199.44C154.919 199.92 154.191 200.592 153.646 201.456C153.118 202.32 152.854 203.328 152.854 204.48ZM156.023 204.48C156.023 203.856 156.151 203.304 156.407 202.824C156.679 202.344 157.039 201.976 157.487 201.72C157.935 201.464 158.431 201.336 158.975 201.336C159.519 201.336 160.015 201.464 160.463 201.72C160.911 201.976 161.263 202.344 161.519 202.824C161.791 203.304 161.927 203.856 161.927 204.48C161.927 205.104 161.791 205.656 161.519 206.136C161.263 206.6 160.911 206.968 160.463 207.24C160.015 207.496 159.519 207.624 158.975 207.624C158.431 207.624 157.935 207.496 157.487 207.24C157.039 206.968 156.679 206.6 156.407 206.136C156.151 205.656 156.023 205.104 156.023 204.48ZM177.67 215.28V198.96H174.55V215.28H177.67ZM186.742 204.48C186.742 203.216 186.494 202.152 185.998 201.288C185.502 200.408 184.846 199.744 184.03 199.296C183.23 198.848 182.366 198.624 181.438 198.624C180.494 198.624 179.67 198.864 178.966 199.344C178.278 199.824 177.742 200.504 177.358 201.384C176.99 202.248 176.806 203.28 176.806 204.48C176.806 205.664 176.99 206.696 177.358 207.576C177.742 208.456 178.278 209.136 178.966 209.616C179.67 210.096 180.494 210.336 181.438 210.336C182.366 210.336 183.23 210.112 184.03 209.664C184.846 209.216 185.502 208.552 185.998 207.672C186.494 206.792 186.742 205.728 186.742 204.48ZM183.526 204.48C183.526 205.136 183.39 205.696 183.118 206.16C182.846 206.624 182.478 206.976 182.014 207.216C181.566 207.456 181.07 207.576 180.526 207.576C180.062 207.576 179.606 207.464 179.158 207.24C178.726 207 178.366 206.648 178.078 206.184C177.806 205.72 177.67 205.152 177.67 204.48C177.67 203.808 177.806 203.24 178.078 202.776C178.366 202.312 178.726 201.968 179.158 201.744C179.606 201.504 180.062 201.384 180.526 201.384C181.07 201.384 181.566 201.504 182.014 201.744C182.478 201.984 182.846 202.336 183.118 202.8C183.39 203.264 183.526 203.824 183.526 204.48ZM188.315 204.48C188.315 205.616 188.579 206.624 189.107 207.504C189.651 208.368 190.379 209.04 191.291 209.52C192.219 210 193.267 210.24 194.435 210.24C195.603 210.24 196.643 210 197.555 209.52C198.483 209.04 199.211 208.368 199.739 207.504C200.283 206.624 200.555 205.616 200.555 204.48C200.555 203.328 200.283 202.32 199.739 201.456C199.211 200.592 198.483 199.92 197.555 199.44C196.643 198.96 195.603 198.72 194.435 198.72C193.267 198.72 192.219 198.96 191.291 199.44C190.379 199.92 189.651 200.592 189.107 201.456C188.579 202.32 188.315 203.328 188.315 204.48ZM191.483 204.48C191.483 203.856 191.611 203.304 191.867 202.824C192.139 202.344 192.499 201.976 192.947 201.72C193.395 201.464 193.891 201.336 194.435 201.336C194.979 201.336 195.475 201.464 195.923 201.72C196.371 201.976 196.723 202.344 196.979 202.824C197.251 203.304 197.387 203.856 197.387 204.48C197.387 205.104 197.251 205.656 196.979 206.136C196.723 206.6 196.371 206.968 195.923 207.24C195.475 207.496 194.979 207.624 194.435 207.624C193.891 207.624 193.395 207.496 192.947 207.24C192.499 206.968 192.139 206.6 191.867 206.136C191.611 205.656 191.483 205.104 191.483 204.48ZM211.216 191.28V210H214.336V191.28H211.216ZM202.144 204.48C202.144 205.696 202.392 206.736 202.888 207.6C203.384 208.464 204.04 209.12 204.856 209.568C205.672 210.016 206.536 210.24 207.448 210.24C208.376 210.24 209.192 210.008 209.896 209.544C210.616 209.08 211.176 208.416 211.576 207.552C211.992 206.688 212.2 205.664 212.2 204.48C212.2 203.28 211.992 202.256 211.576 201.408C211.176 200.544 210.616 199.88 209.896 199.416C209.192 198.952 208.376 198.72 207.448 198.72C206.536 198.72 205.672 198.944 204.856 199.392C204.04 199.84 203.384 200.496 202.888 201.36C202.392 202.208 202.144 203.248 202.144 204.48ZM205.36 204.48C205.36 203.824 205.496 203.256 205.768 202.776C206.04 202.296 206.408 201.928 206.872 201.672C207.336 201.416 207.832 201.288 208.36 201.288C208.824 201.288 209.272 201.416 209.704 201.672C210.152 201.912 210.512 202.272 210.784 202.752C211.072 203.232 211.216 203.808 211.216 204.48C211.216 205.152 211.072 205.728 210.784 206.208C210.512 206.688 210.152 207.056 209.704 207.312C209.272 207.552 208.824 207.672 208.36 207.672C207.832 207.672 207.336 207.544 206.872 207.288C206.408 207.032 206.04 206.664 205.768 206.184C205.496 205.704 205.36 205.136 205.36 204.48ZM222.533 210.24C223.861 210.24 224.997 209.984 225.941 209.472C226.901 208.944 227.669 208.16 228.245 207.12L225.533 206.28C225.213 206.808 224.805 207.208 224.309 207.48C223.829 207.736 223.245 207.864 222.557 207.864C221.949 207.864 221.429 207.728 220.997 207.456C220.565 207.184 220.237 206.792 220.013 206.28C219.805 205.768 219.701 205.144 219.701 204.408C219.717 203.64 219.829 203 220.037 202.488C220.261 201.96 220.573 201.568 220.973 201.312C221.389 201.04 221.901 200.904 222.509 200.904C223.005 200.904 223.437 201.016 223.805 201.24C224.173 201.464 224.453 201.768 224.645 202.152C224.853 202.536 224.957 203 224.957 203.544C224.957 203.656 224.925 203.8 224.861 203.976C224.813 204.136 224.757 204.264 224.693 204.36L225.533 203.256H218.357V205.176H228.245C228.261 205.08 228.269 204.952 228.269 204.792C228.285 204.632 228.293 204.48 228.293 204.336C228.293 203.152 228.069 202.144 227.621 201.312C227.173 200.464 226.517 199.824 225.653 199.392C224.805 198.944 223.773 198.72 222.557 198.72C221.341 198.72 220.285 198.96 219.389 199.44C218.493 199.904 217.797 200.568 217.301 201.432C216.821 202.28 216.581 203.296 216.581 204.48C216.581 205.648 216.821 206.664 217.301 207.528C217.797 208.376 218.493 209.04 219.389 209.52C220.285 210 221.333 210.24 222.533 210.24ZM246.958 202.944C246.958 202.048 246.83 201.288 246.574 200.664C246.334 200.024 245.958 199.544 245.446 199.224C244.934 198.888 244.27 198.72 243.454 198.72C242.702 198.72 242.03 198.88 241.438 199.2C240.862 199.52 240.374 199.992 239.974 200.616C239.734 199.992 239.35 199.52 238.822 199.2C238.294 198.88 237.622 198.72 236.806 198.72C236.07 198.72 235.438 198.88 234.91 199.2C234.382 199.52 233.958 199.984 233.638 200.592V198.96H230.638V210H233.638V203.28C233.638 202.8 233.718 202.392 233.878 202.056C234.038 201.704 234.262 201.448 234.55 201.288C234.838 201.112 235.174 201.024 235.558 201.024C236.134 201.024 236.55 201.216 236.806 201.6C237.062 201.968 237.19 202.528 237.19 203.28V210H240.286V203.28C240.286 202.8 240.366 202.392 240.526 202.056C240.686 201.704 240.91 201.448 241.198 201.288C241.486 201.112 241.822 201.024 242.206 201.024C242.782 201.024 243.198 201.216 243.454 201.6C243.71 201.968 243.838 202.528 243.838 203.28V210H246.958V202.944ZM249.276 204.48C249.276 205.616 249.54 206.624 250.068 207.504C250.612 208.368 251.34 209.04 252.252 209.52C253.18 210 254.228 210.24 255.396 210.24C256.564 210.24 257.604 210 258.516 209.52C259.444 209.04 260.172 208.368 260.7 207.504C261.244 206.624 261.516 205.616 261.516 204.48C261.516 203.328 261.244 202.32 260.7 201.456C260.172 200.592 259.444 199.92 258.516 199.44C257.604 198.96 256.564 198.72 255.396 198.72C254.228 198.72 253.18 198.96 252.252 199.44C251.34 199.92 250.612 200.592 250.068 201.456C249.54 202.32 249.276 203.328 249.276 204.48ZM252.444 204.48C252.444 203.856 252.572 203.304 252.828 202.824C253.1 202.344 253.46 201.976 253.908 201.72C254.356 201.464 254.852 201.336 255.396 201.336C255.94 201.336 256.436 201.464 256.884 201.72C257.332 201.976 257.684 202.344 257.94 202.824C258.212 203.304 258.348 203.856 258.348 204.48C258.348 205.104 258.212 205.656 257.94 206.136C257.684 206.6 257.332 206.968 256.884 207.24C256.436 207.496 255.94 207.624 255.396 207.624C254.852 207.624 254.356 207.496 253.908 207.24C253.46 206.968 253.1 206.6 252.828 206.136C252.572 205.656 252.444 205.104 252.444 204.48ZM264.401 206.184L262.889 208.128C263.305 208.528 263.769 208.904 264.281 209.256C264.809 209.592 265.393 209.864 266.033 210.072C266.689 210.28 267.409 210.384 268.193 210.384C269.457 210.384 270.449 210.08 271.169 209.472C271.889 208.848 272.249 207.984 272.249 206.88C272.249 206.208 272.097 205.664 271.793 205.248C271.489 204.832 271.081 204.488 270.569 204.216C270.073 203.928 269.529 203.672 268.937 203.448C268.457 203.24 268.025 203.064 267.641 202.92C267.273 202.776 266.985 202.616 266.777 202.44C266.585 202.248 266.489 202.032 266.489 201.792C266.489 201.52 266.585 201.32 266.777 201.192C266.985 201.048 267.265 200.976 267.617 200.976C268.145 200.976 268.681 201.112 269.225 201.384C269.785 201.656 270.265 202.008 270.665 202.44L272.033 200.52C271.681 200.168 271.273 199.864 270.809 199.608C270.345 199.336 269.841 199.12 269.297 198.96C268.753 198.8 268.169 198.72 267.545 198.72C266.809 198.72 266.137 198.84 265.529 199.08C264.937 199.304 264.465 199.648 264.113 200.112C263.761 200.56 263.585 201.112 263.585 201.768C263.585 202.456 263.737 203.024 264.041 203.472C264.361 203.904 264.761 204.256 265.241 204.528C265.721 204.784 266.217 205.008 266.729 205.2C267.273 205.376 267.721 205.544 268.073 205.704C268.425 205.864 268.689 206.048 268.865 206.256C269.057 206.448 269.153 206.688 269.153 206.976C269.153 207.296 269.041 207.552 268.817 207.744C268.593 207.92 268.273 208.008 267.857 208.008C267.537 208.008 267.193 207.944 266.825 207.816C266.473 207.688 266.097 207.496 265.697 207.24C265.297 206.968 264.865 206.616 264.401 206.184ZM115.849 236.48C115.849 235.856 115.993 235.304 116.281 234.824C116.569 234.344 116.953 233.968 117.433 233.696C117.929 233.408 118.473 233.264 119.065 233.264C119.513 233.264 119.961 233.336 120.409 233.48C120.857 233.624 121.265 233.832 121.633 234.104C122.017 234.36 122.305 234.664 122.497 235.016V231.824C122.113 231.488 121.609 231.224 120.985 231.032C120.377 230.824 119.665 230.72 118.849 230.72C117.681 230.72 116.625 230.96 115.681 231.44C114.753 231.92 114.017 232.592 113.473 233.456C112.945 234.32 112.681 235.328 112.681 236.48C112.681 237.616 112.945 238.624 113.473 239.504C114.017 240.368 114.753 241.04 115.681 241.52C116.625 242 117.681 242.24 118.849 242.24C119.665 242.24 120.377 242.144 120.985 241.952C121.609 241.744 122.113 241.464 122.497 241.112V237.92C122.305 238.272 122.025 238.584 121.657 238.856C121.305 239.112 120.905 239.32 120.457 239.48C120.009 239.624 119.545 239.696 119.065 239.696C118.473 239.696 117.929 239.56 117.433 239.288C116.953 239.016 116.569 238.64 116.281 238.16C115.993 237.68 115.849 237.12 115.849 236.48ZM128.359 223.28H125.239V242H128.359V223.28ZM132.367 235.28V242H135.487V234.824C135.487 233.912 135.351 233.144 135.079 232.52C134.807 231.88 134.391 231.4 133.831 231.08C133.271 230.76 132.559 230.6 131.695 230.6C130.831 230.6 130.103 230.808 129.511 231.224C128.919 231.64 128.471 232.2 128.167 232.904C127.879 233.608 127.735 234.4 127.735 235.28H128.359C128.359 234.816 128.447 234.416 128.623 234.08C128.799 233.744 129.055 233.488 129.391 233.312C129.727 233.12 130.111 233.024 130.543 233.024C131.199 233.024 131.663 233.216 131.935 233.6C132.223 233.984 132.367 234.544 132.367 235.28ZM140.76 238.568C140.76 238.248 140.832 237.984 140.976 237.776C141.12 237.552 141.344 237.384 141.648 237.272C141.952 237.144 142.344 237.08 142.824 237.08C143.416 237.08 143.976 237.16 144.504 237.32C145.048 237.48 145.536 237.72 145.968 238.04V236.6C145.808 236.408 145.544 236.208 145.176 236C144.808 235.792 144.352 235.616 143.808 235.472C143.28 235.328 142.664 235.256 141.96 235.256C140.584 235.256 139.52 235.568 138.768 236.192C138.016 236.816 137.64 237.664 137.64 238.736C137.64 239.488 137.816 240.128 138.168 240.656C138.536 241.168 139.016 241.56 139.608 241.832C140.2 242.104 140.84 242.24 141.528 242.24C142.2 242.24 142.84 242.12 143.448 241.88C144.072 241.64 144.576 241.28 144.96 240.8C145.36 240.32 145.56 239.728 145.56 239.024L145.176 237.584C145.176 238.112 145.056 238.568 144.816 238.952C144.576 239.32 144.264 239.608 143.88 239.816C143.496 240.008 143.064 240.104 142.584 240.104C142.248 240.104 141.936 240.048 141.648 239.936C141.376 239.808 141.16 239.632 141 239.408C140.84 239.168 140.76 238.888 140.76 238.568ZM139.56 234.08C139.72 233.968 139.968 233.832 140.304 233.672C140.64 233.512 141.04 233.376 141.504 233.264C141.968 233.152 142.456 233.096 142.968 233.096C143.304 233.096 143.608 233.128 143.88 233.192C144.152 233.256 144.384 233.36 144.576 233.504C144.784 233.648 144.936 233.832 145.032 234.056C145.128 234.264 145.176 234.52 145.176 234.824V242H148.176V234.176C148.176 233.424 147.968 232.792 147.552 232.28C147.136 231.752 146.56 231.352 145.824 231.08C145.088 230.808 144.248 230.672 143.304 230.672C142.28 230.672 141.352 230.816 140.52 231.104C139.688 231.376 138.984 231.664 138.408 231.968L139.56 234.08ZM167.387 234.944C167.387 234.048 167.259 233.288 167.003 232.664C166.763 232.024 166.387 231.544 165.875 231.224C165.363 230.888 164.699 230.72 163.883 230.72C163.131 230.72 162.459 230.88 161.867 231.2C161.291 231.52 160.803 231.992 160.403 232.616C160.163 231.992 159.779 231.52 159.251 231.2C158.723 230.88 158.051 230.72 157.235 230.72C156.499 230.72 155.867 230.88 155.339 231.2C154.811 231.52 154.387 231.984 154.067 232.592V230.96H151.067V242H154.067V235.28C154.067 234.8 154.147 234.392 154.307 234.056C154.467 233.704 154.691 233.448 154.979 233.288C155.267 233.112 155.603 233.024 155.987 233.024C156.563 233.024 156.979 233.216 157.235 233.6C157.491 233.968 157.619 234.528 157.619 235.28V242H160.715V235.28C160.715 234.8 160.795 234.392 160.955 234.056C161.115 233.704 161.339 233.448 161.627 233.288C161.915 233.112 162.251 233.024 162.635 233.024C163.211 233.024 163.627 233.216 163.883 233.6C164.139 233.968 164.267 234.528 164.267 235.28V242H167.387V234.944ZM172.658 238.568C172.658 238.248 172.73 237.984 172.874 237.776C173.018 237.552 173.242 237.384 173.546 237.272C173.85 237.144 174.242 237.08 174.722 237.08C175.314 237.08 175.874 237.16 176.402 237.32C176.946 237.48 177.434 237.72 177.866 238.04V236.6C177.706 236.408 177.442 236.208 177.074 236C176.706 235.792 176.25 235.616 175.706 235.472C175.178 235.328 174.562 235.256 173.858 235.256C172.482 235.256 171.418 235.568 170.666 236.192C169.914 236.816 169.538 237.664 169.538 238.736C169.538 239.488 169.714 240.128 170.066 240.656C170.434 241.168 170.914 241.56 171.506 241.832C172.098 242.104 172.738 242.24 173.426 242.24C174.098 242.24 174.738 242.12 175.346 241.88C175.97 241.64 176.474 241.28 176.858 240.8C177.258 240.32 177.458 239.728 177.458 239.024L177.074 237.584C177.074 238.112 176.954 238.568 176.714 238.952C176.474 239.32 176.162 239.608 175.778 239.816C175.394 240.008 174.962 240.104 174.482 240.104C174.146 240.104 173.834 240.048 173.546 239.936C173.274 239.808 173.058 239.632 172.898 239.408C172.738 239.168 172.658 238.888 172.658 238.568ZM171.458 234.08C171.618 233.968 171.866 233.832 172.202 233.672C172.538 233.512 172.938 233.376 173.402 233.264C173.866 233.152 174.354 233.096 174.866 233.096C175.202 233.096 175.506 233.128 175.778 233.192C176.05 233.256 176.282 233.36 176.474 233.504C176.682 233.648 176.834 233.832 176.93 234.056C177.026 234.264 177.074 234.52 177.074 234.824V242H180.074V234.176C180.074 233.424 179.866 232.792 179.45 232.28C179.034 231.752 178.458 231.352 177.722 231.08C176.986 230.808 176.146 230.672 175.202 230.672C174.178 230.672 173.25 230.816 172.418 231.104C171.586 231.376 170.882 231.664 170.306 231.968L171.458 234.08ZM186.014 230.96H182.966V242H186.014V230.96ZM189.254 234.2L190.67 231.56C190.446 231.272 190.15 231.056 189.782 230.912C189.43 230.768 189.054 230.696 188.654 230.696C188.078 230.696 187.518 230.904 186.974 231.32C186.43 231.72 185.99 232.264 185.654 232.952C185.318 233.624 185.15 234.4 185.15 235.28L186.014 236.144C186.014 235.616 186.078 235.168 186.206 234.8C186.35 234.416 186.558 234.12 186.83 233.912C187.102 233.704 187.43 233.6 187.814 233.6C188.134 233.6 188.398 233.656 188.606 233.768C188.83 233.864 189.046 234.008 189.254 234.2ZM197.929 230.96L203.977 243.152L210.025 230.96H206.689L203.977 237.608L201.265 230.96H197.929ZM210.417 236.48C210.417 237.616 210.681 238.624 211.209 239.504C211.753 240.368 212.481 241.04 213.393 241.52C214.321 242 215.369 242.24 216.537 242.24C217.705 242.24 218.745 242 219.657 241.52C220.585 241.04 221.313 240.368 221.841 239.504C222.385 238.624 222.657 237.616 222.657 236.48C222.657 235.328 222.385 234.32 221.841 233.456C221.313 232.592 220.585 231.92 219.657 231.44C218.745 230.96 217.705 230.72 216.537 230.72C215.369 230.72 214.321 230.96 213.393 231.44C212.481 231.92 211.753 232.592 211.209 233.456C210.681 234.32 210.417 235.328 210.417 236.48ZM213.585 236.48C213.585 235.856 213.713 235.304 213.969 234.824C214.241 234.344 214.601 233.976 215.049 233.72C215.497 233.464 215.993 233.336 216.537 233.336C217.081 233.336 217.577 233.464 218.025 233.72C218.473 233.976 218.825 234.344 219.081 234.824C219.353 235.304 219.489 235.856 219.489 236.48C219.489 237.104 219.353 237.656 219.081 238.136C218.825 238.6 218.473 238.968 218.025 239.24C217.577 239.496 217.081 239.624 216.537 239.624C215.993 239.624 215.497 239.496 215.049 239.24C214.601 238.968 214.241 238.6 213.969 238.136C213.713 237.656 213.585 237.104 213.585 236.48ZM227.341 236.48C227.341 235.856 227.485 235.304 227.773 234.824C228.061 234.344 228.445 233.968 228.925 233.696C229.421 233.408 229.965 233.264 230.557 233.264C231.005 233.264 231.453 233.336 231.901 233.48C232.349 233.624 232.757 233.832 233.125 234.104C233.509 234.36 233.797 234.664 233.989 235.016V231.824C233.605 231.488 233.101 231.224 232.477 231.032C231.869 230.824 231.157 230.72 230.341 230.72C229.173 230.72 228.117 230.96 227.173 231.44C226.245 231.92 225.509 232.592 224.965 233.456C224.437 234.32 224.173 235.328 224.173 236.48C224.173 237.616 224.437 238.624 224.965 239.504C225.509 240.368 226.245 241.04 227.173 241.52C228.117 242 229.173 242.24 230.341 242.24C231.157 242.24 231.869 242.144 232.477 241.952C233.101 241.744 233.605 241.464 233.989 241.112V237.92C233.797 238.272 233.517 238.584 233.149 238.856C232.797 239.112 232.397 239.32 231.949 239.48C231.501 239.624 231.037 239.696 230.557 239.696C229.965 239.696 229.421 239.56 228.925 239.288C228.445 239.016 228.061 238.64 227.773 238.16C227.485 237.68 227.341 237.12 227.341 236.48ZM237.763 237.176H247.651C247.683 237 247.699 236.84 247.699 236.696C247.699 236.552 247.699 236.432 247.699 236.336C247.699 235.168 247.475 234.168 247.027 233.336C246.579 232.504 245.923 231.864 245.059 231.416C244.211 230.952 243.179 230.72 241.963 230.72C240.859 230.72 239.891 230.912 239.059 231.296C238.227 231.68 237.563 232.216 237.067 232.904C236.571 233.592 236.243 234.392 236.083 235.304C236.051 235.496 236.027 235.688 236.011 235.88C235.995 236.072 235.987 236.272 235.987 236.48C235.987 237.584 236.219 238.576 236.683 239.456C237.163 240.32 237.851 241 238.747 241.496C239.643 241.992 240.707 242.24 241.939 242.24C242.963 242.24 243.827 242.112 244.531 241.856C245.251 241.6 245.859 241.24 246.355 240.776C246.851 240.296 247.283 239.744 247.651 239.12L244.939 238.28C244.747 238.6 244.507 238.88 244.219 239.12C243.931 239.36 243.603 239.544 243.235 239.672C242.867 239.8 242.443 239.864 241.963 239.864C241.419 239.864 240.931 239.752 240.499 239.528C240.067 239.288 239.723 238.92 239.467 238.424C239.227 237.912 239.107 237.264 239.107 236.48L239.155 235.856C239.155 235.248 239.275 234.72 239.515 234.272C239.755 233.824 240.083 233.488 240.499 233.264C240.915 233.024 241.387 232.904 241.915 232.904C242.427 232.904 242.851 233 243.187 233.192C243.523 233.384 243.787 233.656 243.979 234.008C244.171 234.36 244.299 234.776 244.363 235.256H237.763V237.176ZM241.963 227.144L244.291 229.28L246.427 227.792L241.963 224.432L237.523 227.792L239.635 229.28L241.963 227.144ZM258.564 230C258.564 230.464 258.404 230.944 258.084 231.44C257.764 231.92 257.276 232.328 256.62 232.664C255.98 232.984 255.18 233.144 254.22 233.144H253.476L253.956 237.416H256.428L256.572 235.112C257.436 235 258.26 234.72 259.044 234.272C259.828 233.824 260.46 233.24 260.94 232.52C261.436 231.8 261.684 230.96 261.684 230C261.684 229.2 261.524 228.488 261.204 227.864C260.9 227.224 260.468 226.68 259.908 226.232C259.364 225.768 258.74 225.416 258.036 225.176C257.348 224.936 256.62 224.816 255.852 224.816C254.908 224.816 254.068 224.936 253.332 225.176C252.596 225.416 251.94 225.76 251.364 226.208C250.788 226.656 250.244 227.2 249.732 227.84L251.916 229.544C252.348 228.888 252.884 228.384 253.524 228.032C254.164 227.664 254.86 227.48 255.612 227.48C256.22 227.48 256.74 227.584 257.172 227.792C257.62 227.984 257.964 228.264 258.204 228.632C258.444 229 258.564 229.456 258.564 230ZM253.26 240.728C253.26 241.208 253.444 241.624 253.812 241.976C254.196 242.328 254.668 242.504 255.228 242.504C255.804 242.504 256.276 242.328 256.644 241.976C257.012 241.624 257.196 241.208 257.196 240.728C257.196 240.248 257.012 239.832 256.644 239.48C256.276 239.128 255.804 238.952 255.228 238.952C254.668 238.952 254.196 239.128 253.812 239.48C253.444 239.832 253.26 240.248 253.26 240.728Z" fill="#52665A"/>
<line x1="56" y1="324.5" x2="319" y2="324.5" stroke="#CFCFCF"/>
<path d="M156.258 308.768C156.507 309.176 156.955 309.38 157.601 309.38C157.862 309.38 158.117 309.261 158.366 309.023C158.627 308.796 158.757 308.405 158.757 307.85V295.1H160.117V308.02C160.117 308.949 159.885 309.635 159.42 310.077C158.955 310.519 158.321 310.74 157.516 310.74C157.063 310.74 156.649 310.638 156.275 310.434C155.89 310.241 155.635 310.06 155.51 309.89L156.258 308.768ZM165.782 307.17C165.057 307.17 164.411 307 163.844 306.66C163.289 306.309 162.852 305.827 162.535 305.215C162.229 304.603 162.076 303.895 162.076 303.09C162.076 302.274 162.235 301.56 162.552 300.948C162.881 300.336 163.334 299.86 163.912 299.52C164.501 299.18 165.181 299.01 165.952 299.01C167.097 299.01 167.998 299.367 168.655 300.081C169.312 300.795 169.641 301.775 169.641 303.022C169.641 303.101 169.635 303.186 169.624 303.277C169.624 303.356 169.624 303.407 169.624 303.43H163.47C163.527 304.212 163.77 304.818 164.201 305.249C164.632 305.68 165.215 305.895 165.952 305.895C167.017 305.895 167.833 305.425 168.4 304.484L169.505 305.181C168.689 306.507 167.448 307.17 165.782 307.17ZM165.952 300.2C165.283 300.2 164.739 300.381 164.32 300.744C163.901 301.095 163.634 301.605 163.521 302.274H168.162C168.117 301.651 167.89 301.152 167.482 300.778C167.085 300.393 166.575 300.2 165.952 300.2ZM170.91 299.18H171.675V296.29C171.675 295.361 171.873 294.675 172.27 294.233C172.667 293.791 173.222 293.57 173.936 293.57C174.299 293.57 174.605 293.644 174.854 293.791C175.115 293.927 175.307 294.08 175.432 294.25L174.684 295.372C174.571 295.179 174.435 295.06 174.276 295.015C174.129 294.958 173.987 294.93 173.851 294.93C173.602 294.93 173.403 295.043 173.256 295.27C173.109 295.497 173.035 295.893 173.035 296.46V299.18H174.82V300.455H173.035V307H171.675V300.455H170.91V299.18ZM175.774 299.18H176.539V296.29C176.539 295.361 176.738 294.675 177.134 294.233C177.531 293.791 178.086 293.57 178.8 293.57C179.163 293.57 179.469 293.644 179.718 293.791C179.979 293.927 180.172 294.08 180.296 294.25L179.548 295.372C179.435 295.179 179.299 295.06 179.14 295.015C178.993 294.958 178.851 294.93 178.715 294.93C178.466 294.93 178.268 295.043 178.12 295.27C177.973 295.497 177.899 295.893 177.899 296.46V299.18H179.684V300.455H177.899V307H176.539V300.455H175.774V299.18ZM184.259 307.17C183.534 307.17 182.888 307 182.321 306.66C181.766 306.309 181.33 305.827 181.012 305.215C180.706 304.603 180.553 303.895 180.553 303.09C180.553 302.274 180.712 301.56 181.029 300.948C181.358 300.336 181.811 299.86 182.389 299.52C182.979 299.18 183.659 299.01 184.429 299.01C185.574 299.01 186.475 299.367 187.132 300.081C187.79 300.795 188.118 301.775 188.118 303.022C188.118 303.101 188.113 303.186 188.101 303.277C188.101 303.356 188.101 303.407 188.101 303.43H181.947C182.004 304.212 182.248 304.818 182.678 305.249C183.109 305.68 183.693 305.895 184.429 305.895C185.495 305.895 186.311 305.425 186.877 304.484L187.982 305.181C187.166 306.507 185.925 307.17 184.259 307.17ZM184.429 300.2C183.761 300.2 183.217 300.381 182.797 300.744C182.378 301.095 182.112 301.605 181.998 302.274H186.639C186.594 301.651 186.367 301.152 185.959 300.778C185.563 300.393 185.053 300.2 184.429 300.2ZM193.706 300.676C193.524 300.54 193.36 300.444 193.213 300.387C193.065 300.319 192.878 300.285 192.652 300.285C192.142 300.285 191.796 300.472 191.615 300.846C191.433 301.209 191.343 301.673 191.343 302.24V307H189.983V299.18H191.343V300.081C191.558 299.752 191.813 299.492 192.108 299.299C192.402 299.106 192.697 299.01 192.992 299.01C193.275 299.01 193.536 299.05 193.774 299.129C194.023 299.197 194.25 299.339 194.454 299.554L193.706 300.676ZM196.133 304.603C196.371 304.966 196.66 305.277 197 305.538C197.351 305.799 197.77 305.929 198.258 305.929C198.643 305.929 198.943 305.844 199.159 305.674C199.385 305.493 199.499 305.249 199.499 304.943C199.499 304.671 199.408 304.444 199.227 304.263C199.057 304.07 198.836 303.912 198.564 303.787C198.292 303.651 198.003 303.526 197.697 303.413C197.357 303.277 197.011 303.118 196.66 302.937C196.32 302.744 196.031 302.501 195.793 302.206C195.566 301.9 195.453 301.52 195.453 301.067C195.453 300.602 195.572 300.217 195.81 299.911C196.059 299.605 196.376 299.378 196.762 299.231C197.158 299.084 197.566 299.01 197.986 299.01C198.609 299.01 199.176 299.157 199.686 299.452C200.196 299.747 200.57 300.109 200.808 300.54L199.72 301.237C199.504 300.942 199.232 300.699 198.904 300.506C198.586 300.313 198.224 300.217 197.816 300.217C197.532 300.217 197.289 300.279 197.085 300.404C196.881 300.529 196.779 300.721 196.779 300.982C196.779 301.299 196.943 301.56 197.272 301.764C197.612 301.957 197.991 302.138 198.411 302.308C198.864 302.489 199.278 302.688 199.652 302.903C200.026 303.107 200.32 303.356 200.536 303.651C200.762 303.946 200.876 304.325 200.876 304.79C200.876 305.47 200.626 306.037 200.128 306.49C199.64 306.943 198.994 307.17 198.19 307.17C197.668 307.17 197.198 307.079 196.779 306.898C196.359 306.705 196.002 306.462 195.708 306.167C195.424 305.872 195.209 305.572 195.062 305.266L196.133 304.603ZM201.986 303.09C201.986 302.297 202.162 301.594 202.513 300.982C202.876 300.37 203.363 299.888 203.975 299.537C204.587 299.186 205.273 299.01 206.032 299.01C206.803 299.01 207.488 299.186 208.089 299.537C208.701 299.888 209.183 300.37 209.534 300.982C209.897 301.594 210.078 302.297 210.078 303.09C210.078 303.872 209.897 304.575 209.534 305.198C209.183 305.81 208.701 306.292 208.089 306.643C207.488 306.994 206.803 307.17 206.032 307.17C205.273 307.17 204.587 306.994 203.975 306.643C203.363 306.292 202.876 305.81 202.513 305.198C202.162 304.575 201.986 303.872 201.986 303.09ZM203.363 303.09C203.363 303.634 203.476 304.116 203.703 304.535C203.941 304.954 204.258 305.289 204.655 305.538C205.063 305.776 205.522 305.895 206.032 305.895C206.542 305.895 206.995 305.776 207.392 305.538C207.8 305.289 208.117 304.954 208.344 304.535C208.582 304.116 208.701 303.634 208.701 303.09C208.701 302.546 208.582 302.064 208.344 301.645C208.117 301.214 207.8 300.88 207.392 300.642C206.995 300.404 206.542 300.285 206.032 300.285C205.522 300.285 205.063 300.404 204.655 300.642C204.258 300.88 203.941 301.214 203.703 301.645C203.476 302.064 203.363 302.546 203.363 303.09ZM216.961 302.24C216.961 300.937 216.406 300.285 215.295 300.285C214.706 300.285 214.224 300.466 213.85 300.829C213.488 301.192 213.306 301.662 213.306 302.24V307H211.946V299.18H213.306V300.404C213.816 299.475 214.593 299.01 215.635 299.01C216.463 299.01 217.114 299.288 217.59 299.843C218.078 300.387 218.321 301.129 218.321 302.07V307H216.961V302.24Z" fill="#5C6660"/>
<path d="M206 144C206 153.941 197.941 162 188 162C178.06 162 170 153.941 170 144C170 134.06 178.06 126 188 126C197.941 126 206 134.06 206 144Z" fill="#FFCC4D"/>
<path d="M198.457 143.797C198.397 143.662 196.958 140.5 194 140.5C191.043 140.5 189.603 143.662 189.543 143.797C189.451 144.004 189.511 144.246 189.688 144.388C189.863 144.53 190.114 144.535 190.298 144.402C190.31 144.393 191.56 143.5 194 143.5C196.426 143.5 197.674 144.381 197.702 144.401C197.79 144.467 197.896 144.5 198 144.5C198.11 144.5 198.221 144.463 198.312 144.391C198.489 144.249 198.55 144.005 198.457 143.797ZM186.457 143.797C186.397 143.662 184.958 140.5 182 140.5C179.043 140.5 177.603 143.662 177.543 143.797C177.451 144.004 177.511 144.246 177.687 144.388C177.863 144.53 178.114 144.535 178.297 144.402C178.31 144.393 179.559 143.5 182 143.5C184.426 143.5 185.674 144.381 185.702 144.401C185.79 144.467 185.896 144.5 186 144.5C186.11 144.5 186.221 144.463 186.312 144.391C186.49 144.249 186.549 144.005 186.457 143.797ZM188 148C184.377 148 181.973 147.578 179 147C178.321 146.869 177 147 177 149C177 153 181.595 158 188 158C194.404 158 199 153 199 149C199 147 197.679 146.868 197 147C194.027 147.578 191.623 148 188 148Z" fill="#664500"/>
<path d="M179 149C179 149 182 150 188 150C194 150 197 149 197 149C197 149 195 153 188 153C181 153 179 149 179 149Z" fill="white"/>
<rect width="375" height="291" transform="translate(0 521)" fill="#CCCED3"/>
<g filter="url(#filter0_b)">
<rect y="521" width="375" height="291" fill="#D1D5DB"/>
</g>
<rect x="121" y="799" width="134" height="5" rx="2.5" fill="black"/>
<path fill-rule="evenodd" clip-rule="evenodd" d="M330.833 772.332C331.294 772.332 331.667 772.705 331.667 773.165C331.667 773.193 331.665 773.22 331.663 773.247V775.542H331.658V775.549C331.658 775.564 331.659 775.58 331.661 775.596C331.662 775.61 331.663 775.624 331.663 775.639V775.952H331.678C331.926 778.916 334.351 781.226 337.324 781.329H337.66C340.634 781.228 343.06 778.917 343.307 775.952H343.327V773.175L343.333 773.175L343.333 773.165C343.333 772.705 343.706 772.332 344.167 772.332C344.627 772.332 345 772.705 345 773.165C345 773.189 344.999 773.213 344.997 773.236V775.282H344.987H344.987C344.989 779.111 342.128 782.336 338.327 782.79V785.323H341.467V785.334C341.478 785.333 341.489 785.333 341.5 785.333C341.96 785.333 342.333 785.706 342.333 786.167C342.333 786.627 341.96 787 341.5 787C341.489 787 341.478 787 341.467 786.999V787H333.53V786.999C333.52 787 333.51 787 333.5 787C333.04 787 332.667 786.627 332.667 786.167C332.667 785.706 333.04 785.333 333.5 785.333C333.51 785.333 333.52 785.333 333.53 785.334V785.323H336.677V782.79C332.867 782.347 329.995 779.118 330 775.282C330 775.262 330.002 775.243 330.003 775.225L330.003 775.225C330.005 775.209 330.006 775.194 330.006 775.179V773.268C330.002 773.235 330 773.2 330 773.165C330 772.705 330.373 772.332 330.833 772.332ZM341.993 773.879C341.993 774.382 341.993 774.912 341.967 775.415C341.946 775.869 341.877 776.32 341.76 776.759C341.499 777.681 340.943 778.491 340.177 779.066C338.605 780.306 336.388 780.306 334.817 779.066C334.048 778.493 333.492 777.682 333.233 776.759C333.115 776.32 333.046 775.869 333.026 775.415C332.997 774.912 333 774.382 333 773.879V769.665C333 769.165 333.003 766.955 333 766.581C333.013 766.125 333.092 765.672 333.233 765.238C333.767 763.324 335.51 762 337.497 762C339.484 762 341.227 763.324 341.761 765.238C341.886 765.676 341.964 766.126 341.994 766.581C342.024 767.085 341.994 769.165 341.994 769.665V773.879H341.993ZM340.327 774.665C340.327 774.985 340.32 775.092 340.3 775.412C340.288 775.703 340.245 775.991 340.17 776.272C340.01 776.862 339.663 777.384 339.18 777.759C338.191 778.528 336.806 778.528 335.817 777.759C335.332 777.385 334.983 776.863 334.823 776.272C334.75 775.991 334.706 775.703 334.693 775.412C334.677 775.092 334.673 774.985 334.673 774.665C334.673 770.232 334.653 766.945 334.68 766.591C334.699 766.3 334.747 766.012 334.823 765.731C334.983 765.14 335.332 764.618 335.817 764.244C336.806 763.475 338.191 763.475 339.18 764.244C339.663 764.619 340.01 765.141 340.17 765.731C340.255 766.011 340.308 766.3 340.33 766.591C340.353 766.971 340.327 770.218 340.327 774.665Z" fill="#50555C"/>
<path fill-rule="evenodd" clip-rule="evenodd" d="M38.5 761C45.9558 761 52 767.044 52 774.5C52 781.956 45.9558 788 38.5 788C31.0442 788 25 781.956 25 774.5C25 767.044 31.0442 761 38.5 761ZM38.5 762.573C45.0871 762.573 50.4264 767.914 50.4259 774.501C50.4254 781.088 45.0853 786.427 38.4982 786.427C31.9111 786.427 26.5714 781.087 26.5714 774.5C26.5715 771.336 27.8283 768.303 30.0654 766.066C32.3025 763.829 35.3365 762.572 38.5 762.573ZM34.2293 768.644C33.812 768.639 33.4102 768.802 33.1137 769.096C32.8173 769.389 32.651 769.79 32.6521 770.207C32.6521 771.078 33.3582 771.784 34.2293 771.784C35.1003 771.784 35.8064 771.078 35.8064 770.207C35.8075 769.79 35.6413 769.389 35.3448 769.096C35.0484 768.802 34.6465 768.639 34.2293 768.644ZM47.4967 776.825C46.7779 780.71 43.0286 783.953 38.4983 783.953C34.0042 783.953 30.2768 780.757 29.5157 776.917C29.3615 775.958 30.1465 775.732 30.886 775.911C33.3597 776.626 35.9251 776.974 38.5 776.943C41.0691 776.973 43.6286 776.626 46.0971 775.914C46.816 775.732 47.5858 775.938 47.4967 776.825ZM45.0563 777.365C44.9861 777.392 44.9149 777.413 44.843 777.436C44.8356 777.44 45.0731 777.362 45.0661 777.365C42.9315 777.953 40.725 778.238 38.5111 778.212C35.8692 778.212 33.5063 777.919 31.8803 777.335C30.7014 776.984 30.9275 778.371 31.7561 778.796C33.8758 779.761 36.182 780.248 38.5108 780.221C41.281 780.221 43.7495 779.576 45.3799 778.742C46.1515 778.246 46.304 776.916 45.0563 777.365ZM42.7795 768.644C42.3622 768.639 41.9603 768.802 41.6638 769.096C41.3673 769.389 41.201 769.79 41.202 770.207C41.1937 770.776 41.4925 771.305 41.9839 771.592C42.4754 771.879 43.0833 771.879 43.5747 771.592C44.0662 771.305 44.365 770.776 44.3566 770.207C44.3577 769.79 44.1914 769.389 43.8949 769.096C43.5985 768.802 43.1967 768.639 42.7795 768.644Z" fill="#50555C"/>
<g filter="url(#filter1_d)">
<path fill-rule="evenodd" clip-rule="evenodd" d="M284 698.36C284 695.784 284 694.496 284.501 693.512C284.942 692.646 285.646 691.942 286.512 691.501C287.496 691 288.784 691 291.36 691H364.64C367.216 691 368.504 691 369.488 691.501C370.354 691.942 371.058 692.646 371.499 693.512C372 694.496 372 695.784 372 698.36V725.64C372 728.216 372 729.504 371.499 730.488C371.058 731.354 370.354 732.058 369.488 732.499C368.504 733 367.216 733 364.64 733H291.36C288.784 733 287.496 733 286.512 732.499C285.646 732.058 284.942 731.354 284.501 730.488C284 729.504 284 728.216 284 725.64V698.36Z" fill="#ADB3BC"/>
</g>
<path d="M328.355 713.641V712.266H323.785V713.5H326.957V713.773C326.957 715.68 325.59 716.969 323.574 716.969C321.308 716.969 319.902 715.203 319.902 712.359C319.902 709.555 321.332 707.758 323.566 707.758C325.238 707.758 326.371 708.562 326.855 710.086H328.285C327.879 707.852 326.066 706.461 323.566 706.461C320.48 706.461 318.457 708.797 318.457 712.359C318.457 715.969 320.449 718.266 323.566 718.266C326.449 718.266 328.355 716.422 328.355 713.641ZM333.817 718.148C336.215 718.148 337.699 716.492 337.699 713.789C337.699 711.078 336.215 709.43 333.817 709.43C331.418 709.43 329.934 711.078 329.934 713.789C329.934 716.492 331.418 718.148 333.817 718.148ZM333.817 716.938C332.223 716.938 331.324 715.781 331.324 713.789C331.324 711.789 332.223 710.641 333.817 710.641C335.41 710.641 336.309 711.789 336.309 713.789C336.309 715.781 335.41 716.938 333.817 716.938Z" fill="black"/>
<g filter="url(#filter2_d)">
<path fill-rule="evenodd" clip-rule="evenodd" d="M96 698.36C96 695.784 96 694.496 96.5014 693.512C96.9424 692.646 97.6461 691.942 98.5116 691.501C99.4956 691 100.784 691 103.36 691H270.64C273.216 691 274.504 691 275.488 691.501C276.354 691.942 277.058 692.646 277.499 693.512C278 694.496 278 695.784 278 698.36V725.64C278 728.216 278 729.504 277.499 730.488C277.058 731.354 276.354 732.058 275.488 732.499C274.504 733 273.216 733 270.64 733H103.36C100.784 733 99.4956 733 98.5116 732.499C97.6461 732.058 96.9424 731.354 96.5014 730.488C96 729.504 96 728.216 96 725.64V698.36Z" fill="#FCFCFE"/>
</g>
<path d="M166.187 711.883C166.187 713.102 166.906 713.781 168.484 714.164L169.929 714.516C170.827 714.734 171.265 715.125 171.265 715.703C171.265 716.477 170.452 717.016 169.32 717.016C168.242 717.016 167.57 716.562 167.343 715.852H165.96C166.109 717.25 167.398 718.148 169.273 718.148C171.187 718.148 172.648 717.109 172.648 715.602C172.648 714.391 171.882 713.703 170.296 713.32L168.999 713.008C168.007 712.766 167.538 712.406 167.538 711.828C167.538 711.078 168.32 710.57 169.32 710.57C170.335 710.57 170.992 711.016 171.171 711.688H172.499C172.32 710.305 171.093 709.43 169.327 709.43C167.538 709.43 166.187 710.484 166.187 711.883ZM178.539 709.43C177.39 709.43 176.382 710.016 175.843 710.984H175.718V709.578H174.437V720.812H175.781V716.734H175.906C176.367 717.625 177.336 718.148 178.539 718.148C180.679 718.148 182.078 716.422 182.078 713.789C182.078 711.141 180.687 709.43 178.539 709.43ZM178.218 716.938C176.703 716.938 175.742 715.719 175.742 713.789C175.742 711.852 176.703 710.641 178.226 710.641C179.765 710.641 180.687 711.82 180.687 713.789C180.687 715.758 179.765 716.938 178.218 716.938ZM186.211 718.148C187.336 718.148 188.258 717.656 188.805 716.758H188.93V718H190.211V712.234C190.211 710.484 189.062 709.43 187.008 709.43C185.211 709.43 183.883 710.32 183.703 711.672H185.062C185.25 711.008 185.953 710.625 186.961 710.625C188.219 710.625 188.867 711.195 188.867 712.234V713L186.438 713.148C184.477 713.266 183.367 714.133 183.367 715.641C183.367 717.18 184.578 718.148 186.211 718.148ZM186.461 716.969C185.484 716.969 184.758 716.469 184.758 715.609C184.758 714.766 185.32 714.32 186.602 714.234L188.867 714.086V714.859C188.867 716.062 187.844 716.969 186.461 716.969ZM199.344 712.156C199.11 710.656 197.86 709.43 195.813 709.43C193.453 709.43 191.953 711.133 191.953 713.758C191.953 716.438 193.461 718.148 195.821 718.148C197.844 718.148 199.102 717.008 199.344 715.461H197.985C197.735 716.414 196.946 716.938 195.813 716.938C194.313 716.938 193.344 715.703 193.344 713.758C193.344 711.852 194.297 710.641 195.813 710.641C197.024 710.641 197.766 711.32 197.985 712.156H199.344ZM206.587 715.82C206.235 716.562 205.501 716.961 204.415 716.961C202.985 716.961 202.055 715.906 201.985 714.242V714.18H208.04V713.664C208.04 711.047 206.657 709.43 204.383 709.43C202.071 709.43 200.587 711.148 200.587 713.797C200.587 716.461 202.048 718.148 204.383 718.148C206.227 718.148 207.54 717.258 207.93 715.82H206.587ZM204.368 710.617C205.704 710.617 206.594 711.602 206.626 713.094H201.985C202.087 711.602 203.024 710.617 204.368 710.617Z" fill="black"/>
<g filter="url(#filter3_d)">
<path fill-rule="evenodd" clip-rule="evenodd" d="M3 698.36C3 695.784 3 694.496 3.50137 693.512C3.94239 692.646 4.6461 691.942 5.51164 691.501C6.49564 691 7.78376 691 10.36 691H82.64C85.2162 691 86.5044 691 87.4884 691.501C88.3539 691.942 89.0576 692.646 89.4986 693.512C90 694.496 90 695.784 90 698.36V725.64C90 728.216 90 729.504 89.4986 730.488C89.0576 731.354 88.3539 732.058 87.4884 732.499C86.5044 733 85.2162 733 82.64 733H10.36C7.78376 733 6.49564 733 5.51164 732.499C4.6461 732.058 3.94239 731.354 3.50137 730.488C3 729.504 3 728.216 3 725.64V698.36Z" fill="#ADB3BC"/>
</g>
<path d="M37.1872 718H38.5934V706.727H37.195L34.195 708.883V710.367L37.0622 708.289H37.1872V718ZM41.5703 709.906H42.9297C42.9297 708.57 43.8281 707.688 45.1797 707.688C46.5078 707.688 47.3125 708.578 47.3125 709.773C47.3125 710.766 46.8906 711.352 45.4531 712.906L41.6406 717.031V718H48.9375V716.734H43.5938V716.609L46.1562 713.961C48.1875 711.859 48.75 710.922 48.75 709.625C48.75 707.797 47.2422 706.461 45.2734 706.461C43.1172 706.461 41.5703 707.898 41.5703 709.906ZM53.3597 712.805H54.7581C56.3441 712.805 57.3206 713.617 57.3206 714.922C57.3206 716.188 56.2659 717.039 54.7816 717.039C53.3284 717.039 52.3128 716.281 52.1878 715.094H50.8284C50.93 717.008 52.5081 718.266 54.7972 718.266C57.0394 718.266 58.7659 716.852 58.7659 714.961C58.7659 713.391 57.7972 712.398 56.3363 712.164V712.039C57.4925 711.703 58.3363 710.805 58.3441 709.445C58.3519 707.867 57.0706 706.461 54.8441 706.461C52.5628 706.461 51.1644 707.812 51.0238 709.648H52.3909C52.5081 708.383 53.3909 707.688 54.7503 707.688C56.1097 707.688 56.9144 708.547 56.9144 709.602C56.9144 710.773 55.9925 711.602 54.6956 711.602H53.3597V712.805Z" fill="black"/>
<g filter="url(#filter4_d)">
<path fill-rule="evenodd" clip-rule="evenodd" d="M330 644.36C330 641.784 330 640.496 330.501 639.512C330.942 638.646 331.646 637.942 332.512 637.501C333.496 637 334.784 637 337.36 637H364.64C367.216 637 368.504 637 369.488 637.501C370.354 637.942 371.058 638.646 371.499 639.512C372 640.496 372 641.784 372 644.36V671.64C372 674.216 372 675.504 371.499 676.488C371.058 677.354 370.354 678.058 369.488 678.499C368.504 679 367.216 679 364.64 679H337.36C334.784 679 333.496 679 332.512 678.499C331.646 678.058 330.942 677.354 330.501 676.488C330 675.504 330 674.216 330 671.64V644.36Z" fill="#ADB3BC"/>
</g>
<path fill-rule="evenodd" clip-rule="evenodd" d="M343.213 653.778C343.198 653.792 343.169 653.82 343.136 653.852C343.113 653.875 343.094 653.894 343.055 653.932L340.912 656.076C340.856 656.134 340.817 656.174 340.727 656.264C340.676 656.315 340.639 656.354 340.559 656.439C340.411 656.582 340.254 656.754 340.107 656.935C339.969 657.081 339.859 657.252 339.781 657.438C339.622 657.922 339.622 658.392 339.764 658.829L339.783 658.88C339.861 659.065 339.971 659.233 340.107 659.379C340.254 659.559 340.411 659.731 340.576 659.893C340.639 659.96 340.676 659.999 340.727 660.05L340.912 660.236L342.866 662.193C342.958 662.284 343.002 662.328 343.054 662.378C343.11 662.436 343.168 662.494 343.226 662.549C343.237 662.559 345.727 665.047 345.727 665.047C345.804 665.124 345.866 665.185 346.006 665.319C346.021 665.334 346.043 665.357 346.05 665.364C346.086 665.402 346.107 665.424 346.121 665.438C346.411 665.728 346.745 665.973 347.11 666.162C347.484 666.348 347.874 666.476 348.276 666.547C348.655 666.609 349.031 666.642 349.408 666.648C349.473 666.649 349.527 666.65 349.647 666.651C349.763 666.652 349.814 666.653 349.876 666.654L357.297 666.654C357.374 666.653 357.425 666.652 357.543 666.651C357.664 666.65 357.718 666.649 357.788 666.648C358.166 666.641 358.545 666.607 358.919 666.545C359.33 666.476 359.725 666.345 360.094 666.158C360.465 665.969 360.804 665.722 361.098 665.427C361.391 665.134 361.636 664.796 361.825 664.427C362.013 664.053 362.141 663.66 362.21 663.254C362.273 662.875 362.306 662.495 362.31 662.113C362.314 662.035 362.315 661.96 362.317 661.794C362.318 661.715 362.319 661.68 362.32 661.638L362.32 654.648C362.319 654.594 362.318 654.559 362.317 654.482L362.316 654.401C362.315 654.3 362.313 654.224 362.31 654.148C362.306 653.789 362.274 653.413 362.214 653.042C362.142 652.63 362.014 652.24 361.832 651.875C361.641 651.502 361.398 651.168 361.106 650.877C360.816 650.584 360.479 650.338 360.11 650.15C359.743 649.966 359.355 649.838 358.955 649.767C358.572 649.706 358.195 649.674 357.818 649.67C357.693 649.664 357.583 649.663 357.338 649.663C357.258 649.662 357.164 649.661 357.059 649.66C356.98 649.66 356.917 649.66 356.775 649.66H350.452C350.169 649.66 350.04 649.661 349.878 649.663C349.645 649.663 349.534 649.664 349.392 649.67C349.033 649.674 348.657 649.706 348.285 649.766C347.874 649.838 347.484 649.966 347.119 650.148C346.745 650.341 346.411 650.586 346.12 650.877C346.107 650.891 346.086 650.912 346.051 650.949C346.043 650.957 346.006 650.995 346.006 650.995C345.866 651.13 345.804 651.19 345.727 651.267L345.406 651.588L343.271 653.726C343.253 653.741 343.233 653.758 343.213 653.778ZM356.775 650.919C356.915 650.919 356.977 650.919 357.054 650.919C357.154 650.92 357.243 650.921 357.328 650.922C357.566 650.922 357.665 650.923 357.785 650.928C358.119 650.932 358.434 650.959 358.747 651.009C359.016 651.056 359.288 651.146 359.542 651.274C359.789 651.399 360.017 651.566 360.215 651.765C360.415 651.965 360.581 652.193 360.709 652.443C360.833 652.693 360.923 652.967 360.973 653.25C361.021 653.551 361.048 653.865 361.052 654.181C361.055 654.261 361.056 654.328 361.058 654.42L361.059 654.498C361.06 654.579 361.06 654.615 361.061 654.661L361.061 661.625C361.06 661.659 361.06 661.696 361.059 661.777C361.057 661.932 361.055 662 361.052 662.082C361.048 662.417 361.021 662.733 360.969 663.046C360.921 663.326 360.831 663.601 360.703 663.858C360.576 664.105 360.407 664.337 360.206 664.539C360.006 664.74 359.776 664.907 359.524 665.036C359.268 665.165 358.995 665.256 358.712 665.304C358.401 665.355 358.083 665.384 357.764 665.389C357.699 665.39 357.647 665.391 357.53 665.392C357.409 665.393 357.354 665.394 357.285 665.396L349.889 665.395C349.833 665.394 349.779 665.393 349.659 665.392C349.543 665.391 349.492 665.39 349.43 665.389C349.111 665.385 348.797 665.357 348.486 665.306C348.211 665.258 347.937 665.167 347.68 665.04C347.439 664.915 347.21 664.747 347.011 664.548L346.962 664.496C346.913 664.445 346.892 664.423 346.868 664.402C346.742 664.281 346.685 664.225 346.617 664.157L344.122 661.662C344.099 661.641 344.085 661.628 344.076 661.62C344.031 661.577 343.994 661.539 343.959 661.502C343.887 661.432 343.847 661.393 343.757 661.303L341.803 659.346L341.617 659.16C341.578 659.121 341.547 659.089 341.476 659.013C341.321 658.86 341.191 658.717 341.069 658.567L341.031 658.524C340.999 658.491 340.973 658.454 340.953 658.413C340.904 658.245 340.905 658.067 340.953 657.899C340.972 657.86 340.997 657.824 341.028 657.793L341.071 657.745C341.191 657.596 341.319 657.454 341.456 657.321C341.547 657.226 341.578 657.193 341.617 657.155C341.715 657.056 341.759 657.012 341.814 656.954L343.757 655.011L343.945 654.823C343.983 654.785 343.999 654.769 344.02 654.749L344.061 654.711L344.061 654.711L344.061 654.711C344.091 654.684 344.108 654.669 344.125 654.653L346.297 652.478L346.617 652.157C346.685 652.089 346.742 652.034 346.868 651.913C346.892 651.891 346.913 651.869 346.96 651.82L347.011 651.767C347.21 651.567 347.439 651.4 347.689 651.27C347.937 651.147 348.211 651.057 348.494 651.007C348.795 650.959 349.109 650.932 349.424 650.928C349.562 650.923 349.661 650.922 349.889 650.922C350.052 650.919 350.176 650.919 350.452 650.919H356.775ZM350.813 661.488C350.762 661.538 350.701 661.579 350.632 661.607C350.421 661.695 350.177 661.646 350.015 661.484C349.795 661.263 349.795 660.905 350.015 660.684C350.047 660.652 350.082 660.624 350.12 660.601L352.564 658.154L350.015 655.608L350.023 655.6C349.973 655.549 349.932 655.489 349.904 655.42C349.816 655.208 349.865 654.964 350.027 654.802C350.248 654.582 350.606 654.582 350.827 654.802C350.859 654.834 350.887 654.87 350.91 654.907L353.362 657.356L355.837 654.878C355.856 654.851 355.877 654.826 355.9 654.802C356.061 654.64 356.304 654.592 356.515 654.679C356.726 654.766 356.864 654.972 356.864 655.2C356.864 655.353 356.803 655.495 356.699 655.599L356.706 655.605L354.16 658.153L356.644 660.633C356.667 660.649 356.688 660.667 356.709 660.687C356.871 660.849 356.919 661.091 356.832 661.303C356.745 661.514 356.539 661.652 356.311 661.652C356.158 661.652 356.016 661.59 355.912 661.487L355.906 661.493L353.362 658.952L350.821 661.496L350.813 661.488Z" fill="black"/>
<g filter="url(#filter5_d)">
<rect x="3" y="637" width="42" height="42" rx="4.6" fill="#FCFCFE"/>
</g>
<path d="M32.8001 659.664H28.603V663.633C28.603 663.713 28.603 663.787 28.603 663.863C28.603 663.93 28.603 663.993 28.6004 664.06C28.5985 664.203 28.5861 664.345 28.5634 664.487C28.5386 664.627 28.4937 664.762 28.4301 664.89C28.3649 665.017 28.2799 665.133 28.1781 665.233C28.0759 665.333 27.9591 665.417 27.8319 665.483C27.7029 665.546 27.566 665.591 27.425 665.616C27.2835 665.638 27.1406 665.651 26.9974 665.653C26.9307 665.653 26.8661 665.656 26.8008 665.656H21.4016C21.335 665.656 21.2707 665.653 21.205 665.653C21.0618 665.651 20.919 665.638 20.7775 665.616C20.6365 665.591 20.4997 665.546 20.3709 665.483C20.2436 665.417 20.1269 665.333 20.0246 665.233C19.9228 665.133 19.8377 665.017 19.7727 664.89C19.7091 664.762 19.6642 664.627 19.6394 664.487C19.6165 664.345 19.604 664.203 19.6021 664.06C19.6021 663.993 19.5994 663.93 19.5994 663.863C19.5994 663.787 19.5994 663.713 19.5994 663.633V659.664H15.336C14.9048 659.664 14.3516 658.735 14.8695 658.218C15.3097 657.781 22.2288 650.883 23.6768 649.447C23.7832 649.316 23.9335 649.228 24.0997 649.2H24.111C24.2548 649.208 24.3883 649.277 24.4776 649.39C25.9256 650.826 32.8684 657.781 33.309 658.218C33.8272 658.735 33.3933 659.664 32.8001 659.664Z" fill="black"/>
<g filter="url(#filter6_d)">
<rect x="285" y="637" width="32" height="42" rx="4.6" fill="#FCFCFE"/>
</g>
<path d="M308.811 666V650.147H306.515L301.088 663.374H300.912L295.485 650.147H293.189V666H295.034V653.893H295.166L300.165 666H301.835L306.834 653.893H306.966V666H308.811Z" fill="black"/>
<g filter="url(#filter7_d)">
<rect x="247" y="637" width="32" height="42" rx="4.6" fill="#FCFCFE"/>
</g>
<path d="M259.127 666V653.706H259.303L267.906 666H269.828V650.147H267.873V662.484H267.697L259.094 650.147H257.172V666H259.127Z" fill="black"/>
<g filter="url(#filter8_d)">
<rect x="209" y="637" width="32" height="42" rx="4.6" fill="#FCFCFE"/>
</g>
<path d="M226.313 666C229.686 666 231.685 664.341 231.685 661.551C231.685 659.452 230.312 657.969 228.148 657.694V657.519C229.675 657.244 230.883 655.75 230.883 654.102C230.883 651.674 229.104 650.147 226.192 650.147H220.128V666H226.313ZM222.105 651.894H225.775C227.741 651.894 228.884 652.827 228.884 654.442C228.884 656.123 227.664 656.98 225.269 656.98H222.105V651.894ZM222.105 664.253V658.683H225.83C228.356 658.683 229.653 659.617 229.653 661.452C229.653 663.286 228.4 664.253 226.016 664.253H222.105Z" fill="black"/>
<g filter="url(#filter9_d)">
<rect x="172" y="637" width="32" height="42" rx="4.6" fill="#FCFCFE"/>
</g>
<path d="M188.978 666L194.823 650.147H192.746L188.088 663.44H187.912L183.254 650.147H181.177L187.022 666H188.978Z" fill="black"/>
<g filter="url(#filter10_d)">
<rect x="134" y="637" width="32" height="42" rx="4.6" fill="#FCFCFE"/>
</g>
<path d="M150.852 666.374C154.224 666.374 156.729 664.495 157.257 661.583H155.246C154.741 663.418 153.06 664.55 150.852 664.55C147.797 664.55 145.886 662.056 145.886 658.079C145.886 654.102 147.797 651.597 150.841 651.597C153.027 651.597 154.719 652.882 155.246 654.926H157.257C156.784 651.872 154.18 649.773 150.841 649.773C146.534 649.773 143.853 652.959 143.853 658.079C143.853 663.188 146.545 666.374 150.852 666.374Z" fill="black"/>
<g filter="url(#filter11_d)">
<rect x="97" y="637" width="32" height="42" rx="4.6" fill="#FCFCFE"/>
</g>
<path d="M106.353 666H108.594L112.824 659.749H113L117.153 666H119.526L114.154 658.112L119.647 650.147H117.395L113.154 656.453H112.978L108.803 650.147H106.419L111.781 658.024L106.353 666Z" fill="black"/>
<g filter="url(#filter12_d)">
<rect x="59" y="637" width="32" height="42" rx="4.6" fill="#FCFCFE"/>
</g>
<path d="M69.6333 666H81.3557V664.22H72.2371V664.044L81.1689 651.553V650.147H69.9409V651.927H78.6091V652.102L69.6333 664.594V666Z" fill="black"/>
<g filter="url(#filter13_d)">
<rect x="322" y="583" width="32" height="42" rx="4.6" fill="#FCFCFE"/>
</g>
<path d="M343.751 610.22H336.105V596.147H334.127V612H343.751V610.22Z" fill="black"/>
<g filter="url(#filter14_d)">
<rect x="284" y="583" width="32" height="42" rx="4.6" fill="#FCFCFE"/>
</g>
<path d="M297.083 612V606.463L298.984 604.365L304.708 612H307.268L300.346 602.991L306.685 596.147H304.202L297.259 603.848H297.083V596.147H295.106V612H297.083Z" fill="black"/>
<g filter="url(#filter15_d)">
<rect x="247" y="583" width="32" height="42" rx="4.6" fill="#FCFCFE"/>
</g>
<path d="M258.391 608.298C258.391 610.726 260.259 612.374 262.918 612.374C265.785 612.374 267.532 610.605 267.532 607.583V596.147H265.554V607.573C265.554 609.517 264.599 610.55 262.907 610.55C261.413 610.55 260.402 609.627 260.358 608.298H258.391Z" fill="black"/>
<g filter="url(#filter16_d)">
<rect x="209" y="583" width="32" height="42" rx="4.6" fill="#FCFCFE"/>
</g>
<path d="M231.828 612V596.147H229.851V603.002H221.149V596.147H219.172V612H221.149V604.782H229.851V612H231.828Z" fill="black"/>
<g filter="url(#filter17_d)">
<rect x="172" y="583" width="32" height="42" rx="4.6" fill="#FCFCFE"/>
</g>
<path d="M195.421 605.87V603.936H188.994V605.672H193.455V606.056C193.455 608.737 191.532 610.55 188.698 610.55C185.512 610.55 183.534 608.067 183.534 604.068C183.534 600.124 185.545 597.597 188.687 597.597C191.038 597.597 192.631 598.729 193.312 600.871H195.323C194.751 597.729 192.202 595.773 188.687 595.773C184.347 595.773 181.502 599.058 181.502 604.068C181.502 609.144 184.303 612.374 188.687 612.374C192.741 612.374 195.421 609.781 195.421 605.87Z" fill="black"/>
<g filter="url(#filter18_d)">
<rect x="134" y="583" width="32" height="42" rx="4.6" fill="#FCFCFE"/>
</g>
<path d="M148.061 612V605.134H155.081V603.376H148.061V597.927H155.708V596.147H146.083V612H148.061Z" fill="black"/>
<g filter="url(#filter19_d)">
<rect x="97" y="583" width="32" height="42" rx="4.6" fill="#FCFCFE"/>
</g>
<path d="M107.348 596.147V612H112.786C117.499 612 120.268 609.067 120.268 604.068C120.268 599.08 117.488 596.147 112.786 596.147H107.348ZM109.325 597.927H112.654C116.17 597.927 118.246 600.212 118.246 604.09C118.246 607.957 116.192 610.22 112.654 610.22H109.325V597.927Z" fill="black"/>
<g filter="url(#filter20_d)">
<rect x="59" y="583" width="32" height="42" rx="4.6" fill="#FCFCFE"/>
</g>
<path d="M69.5894 607.858C69.7981 610.594 72.1162 612.374 75.478 612.374C79.1035 612.374 81.3997 610.517 81.3997 607.605C81.3997 605.276 80.0813 604.002 76.7964 603.178L75.1375 602.739C72.9512 602.178 72.0833 601.464 72.0833 600.223C72.0833 598.619 73.4785 597.564 75.5879 597.564C77.5654 597.564 78.9058 598.531 79.1804 600.157H81.1689C81.0042 597.597 78.719 595.773 75.6538 595.773C72.303 595.773 70.0508 597.597 70.0508 600.289C70.0508 602.541 71.2922 603.837 74.1597 604.562L76.1921 605.09C78.3784 605.639 79.3672 606.496 79.3672 607.847C79.3672 609.418 77.7961 610.572 75.6648 610.572C73.4126 610.572 71.8306 609.517 71.5889 607.858H69.5894Z" fill="black"/>
<g filter="url(#filter21_d)">
<rect x="22" y="583" width="32" height="42" rx="4.6" fill="#FCFCFE"/>
</g>
<path d="M42.7461 612H44.8225L38.9778 596.147H37.0222L31.1775 612H33.2539L34.8469 607.463H41.1531L42.7461 612ZM37.9121 598.707H38.0879L40.5708 605.782H35.4292L37.9121 598.707Z" fill="black"/>
<g filter="url(#filter22_d)">
<rect x="340" y="529" width="32" height="42" rx="4.6" fill="#FCFCFE"/>
</g>
<path d="M351.369 542.147V558H353.347V552.342H357.335C360.312 552.342 362.433 550.244 362.433 547.277C362.433 544.256 360.356 542.147 357.357 542.147H351.369ZM353.347 543.905H356.841C359.137 543.905 360.4 545.102 360.4 547.277C360.4 549.376 359.093 550.584 356.841 550.584H353.347V543.905Z" fill="black"/>
<g filter="url(#filter23_d)">
<rect x="303" y="529" width="32" height="42" rx="4.6" fill="#FCFCFE"/>
</g>
<path d="M319 541.773C314.518 541.773 311.727 544.97 311.727 550.068C311.727 555.144 314.452 558.374 319 558.374C323.526 558.374 326.273 555.133 326.273 550.068C326.273 544.981 323.504 541.773 319 541.773ZM319 543.597C322.241 543.597 324.24 546.102 324.24 550.068C324.24 554.001 322.252 556.55 319 556.55C315.704 556.55 313.76 554.001 313.76 550.068C313.76 546.102 315.77 543.597 319 543.597Z" fill="black"/>
<g filter="url(#filter24_d)">
<rect x="265" y="529" width="32" height="42" rx="4.6" fill="#FCFCFE"/>
</g>
<path d="M282.489 558V542.147H280.511V558H282.489Z" fill="black"/>
<g filter="url(#filter25_d)">
<rect x="228" y="529" width="32" height="42" rx="4.6" fill="#FCFCFE"/>
</g>
<path d="M240.182 542.147H238.205V552.551C238.205 555.935 240.567 558.374 244.5 558.374C248.433 558.374 250.795 555.935 250.795 552.551V542.147H248.818V552.419C248.818 554.814 247.247 556.55 244.5 556.55C241.753 556.55 240.182 554.814 240.182 552.419V542.147Z" fill="black"/>
<g filter="url(#filter26_d)">
<rect x="190" y="529" width="32" height="42" rx="4.6" fill="#FCFCFE"/>
</g>
<path d="M207.489 558V551.177L213.114 542.147H210.862L206.588 549.189H206.412L202.138 542.147H199.886L205.511 551.177V558H207.489Z" fill="black"/>
<g filter="url(#filter27_d)">
<rect x="153" y="529" width="32" height="42" rx="4.6" fill="#FCFCFE"/>
</g>
<path d="M170.489 558V543.927H175.597V542.147H163.403V543.927H168.511V558H170.489Z" fill="black"/>
<g filter="url(#filter28_d)">
<rect x="115" y="529" width="32" height="42" rx="4.6" fill="#FCFCFE"/>
</g>
<path d="M128.149 551.727H132.049L135.444 558H137.762L134.093 551.419C136.081 550.793 137.279 549.079 137.279 546.871C137.279 544.014 135.279 542.147 132.225 542.147H126.172V558H128.149V551.727ZM128.149 543.905H131.961C134.005 543.905 135.235 545.036 135.235 546.937C135.235 548.881 134.082 549.969 132.049 549.969H128.149V543.905Z" fill="black"/>
<g filter="url(#filter29_d)">
<rect x="78" y="529" width="32" height="42" rx="4.6" fill="#FCFCFE"/>
</g>
<path d="M99.1416 556.22H91.2974V550.771H98.7351V549.013H91.2974V543.927H99.1416V542.147H89.3198V558H99.1416V556.22Z" fill="black"/>
<g filter="url(#filter30_d)">
<rect x="40" y="529" width="32" height="42" rx="4.6" fill="#FCFCFE"/>
</g>
<path d="M55.9341 545.487H56.0659L59.7134 558H61.5811L65.8987 542.147H63.8333L60.6802 555.034H60.5483L56.9998 542.147H55.0002L51.4517 555.034H51.3198L48.1667 542.147H46.1013L50.4189 558H52.2866L55.9341 545.487Z" fill="black"/>
<g filter="url(#filter31_d)">
<rect x="3" y="529" width="32" height="42" rx="4.6" fill="#FCFCFE"/>
</g>
<path d="M19.011 558.374C20.0327 558.374 20.9995 558.209 21.8455 557.89L23.2407 559.791H25.46L23.4495 557C25.2512 555.704 26.262 553.232 26.262 550.079C26.262 544.97 23.4714 541.773 19.011 541.773C14.5286 541.773 11.7271 544.959 11.7271 550.079C11.7271 555.22 14.4956 558.374 19.011 558.374ZM19.022 556.55C15.77 556.55 13.7595 554.078 13.7595 550.079C13.7595 546.091 15.781 543.597 19.011 543.597C22.219 543.597 24.2295 546.102 24.2295 550.079C24.2295 552.496 23.5374 554.385 22.2959 555.374L20.8567 553.463H18.6155L20.7139 556.308C20.1646 556.473 19.6042 556.55 19.022 556.55Z" fill="black"/>
<defs>
<filter id="filter0_b" x="-108.731" y="412.269" width="592.463" height="508.463" filterUnits="userSpaceOnUse" color-interpolation-filters="sRGB">
<feFlood flood-opacity="0" result="BackgroundImageFix"/>
<feGaussianBlur in="BackgroundImage" stdDeviation="54.3656"/>
<feComposite in2="SourceAlpha" operator="in" result="effect1_backgroundBlur"/>
<feBlend mode="normal" in="SourceGraphic" in2="effect1_backgroundBlur" result="shape"/>
</filter>
<filter id="filter1_d" x="284" y="691" width="88" height="43" filterUnits="userSpaceOnUse" color-interpolation-filters="sRGB">
<feFlood flood-opacity="0" result="BackgroundImageFix"/>
<feColorMatrix in="SourceAlpha" type="matrix" values="0 0 0 0 0 0 0 0 0 0 0 0 0 0 0 0 0 0 127 0"/>
<feOffset dy="1"/>
<feColorMatrix type="matrix" values="0 0 0 0 0.537255 0 0 0 0 0.541176 0 0 0 0 0.552941 0 0 0 1 0"/>
<feBlend mode="normal" in2="BackgroundImageFix" result="effect1_dropShadow"/>
<feBlend mode="normal" in="SourceGraphic" in2="effect1_dropShadow" result="shape"/>
</filter>
<filter id="filter2_d" x="96" y="691" width="182" height="43" filterUnits="userSpaceOnUse" color-interpolation-filters="sRGB">
<feFlood flood-opacity="0" result="BackgroundImageFix"/>
<feColorMatrix in="SourceAlpha" type="matrix" values="0 0 0 0 0 0 0 0 0 0 0 0 0 0 0 0 0 0 127 0"/>
<feOffset dy="1"/>
<feColorMatrix type="matrix" values="0 0 0 0 0.537255 0 0 0 0 0.541176 0 0 0 0 0.552941 0 0 0 1 0"/>
<feBlend mode="normal" in2="BackgroundImageFix" result="effect1_dropShadow"/>
<feBlend mode="normal" in="SourceGraphic" in2="effect1_dropShadow" result="shape"/>
</filter>
<filter id="filter3_d" x="3" y="691" width="87" height="43" filterUnits="userSpaceOnUse" color-interpolation-filters="sRGB">
<feFlood flood-opacity="0" result="BackgroundImageFix"/>
<feColorMatrix in="SourceAlpha" type="matrix" values="0 0 0 0 0 0 0 0 0 0 0 0 0 0 0 0 0 0 127 0"/>
<feOffset dy="1"/>
<feColorMatrix type="matrix" values="0 0 0 0 0.537255 0 0 0 0 0.541176 0 0 0 0 0.552941 0 0 0 1 0"/>
<feBlend mode="normal" in2="BackgroundImageFix" result="effect1_dropShadow"/>
<feBlend mode="normal" in="SourceGraphic" in2="effect1_dropShadow" result="shape"/>
</filter>
<filter id="filter4_d" x="330" y="637" width="42" height="43" filterUnits="userSpaceOnUse" color-interpolation-filters="sRGB">
<feFlood flood-opacity="0" result="BackgroundImageFix"/>
<feColorMatrix in="SourceAlpha" type="matrix" values="0 0 0 0 0 0 0 0 0 0 0 0 0 0 0 0 0 0 127 0"/>
<feOffset dy="1"/>
<feColorMatrix type="matrix" values="0 0 0 0 0.537255 0 0 0 0 0.541176 0 0 0 0 0.552941 0 0 0 1 0"/>
<feBlend mode="normal" in2="BackgroundImageFix" result="effect1_dropShadow"/>
<feBlend mode="normal" in="SourceGraphic" in2="effect1_dropShadow" result="shape"/>
</filter>
<filter id="filter5_d" x="3" y="637" width="42" height="43" filterUnits="userSpaceOnUse" color-interpolation-filters="sRGB">
<feFlood flood-opacity="0" result="BackgroundImageFix"/>
<feColorMatrix in="SourceAlpha" type="matrix" values="0 0 0 0 0 0 0 0 0 0 0 0 0 0 0 0 0 0 127 0"/>
<feOffset dy="1"/>
<feColorMatrix type="matrix" values="0 0 0 0 0.537255 0 0 0 0 0.541176 0 0 0 0 0.552941 0 0 0 1 0"/>
<feBlend mode="normal" in2="BackgroundImageFix" result="effect1_dropShadow"/>
<feBlend mode="normal" in="SourceGraphic" in2="effect1_dropShadow" result="shape"/>
</filter>
<filter id="filter6_d" x="285" y="637" width="32" height="43" filterUnits="userSpaceOnUse" color-interpolation-filters="sRGB">
<feFlood flood-opacity="0" result="BackgroundImageFix"/>
<feColorMatrix in="SourceAlpha" type="matrix" values="0 0 0 0 0 0 0 0 0 0 0 0 0 0 0 0 0 0 127 0"/>
<feOffset dy="1"/>
<feColorMatrix type="matrix" values="0 0 0 0 0.537255 0 0 0 0 0.541176 0 0 0 0 0.552941 0 0 0 1 0"/>
<feBlend mode="normal" in2="BackgroundImageFix" result="effect1_dropShadow"/>
<feBlend mode="normal" in="SourceGraphic" in2="effect1_dropShadow" result="shape"/>
</filter>
<filter id="filter7_d" x="247" y="637" width="32" height="43" filterUnits="userSpaceOnUse" color-interpolation-filters="sRGB">
<feFlood flood-opacity="0" result="BackgroundImageFix"/>
<feColorMatrix in="SourceAlpha" type="matrix" values="0 0 0 0 0 0 0 0 0 0 0 0 0 0 0 0 0 0 127 0"/>
<feOffset dy="1"/>
<feColorMatrix type="matrix" values="0 0 0 0 0.537255 0 0 0 0 0.541176 0 0 0 0 0.552941 0 0 0 1 0"/>
<feBlend mode="normal" in2="BackgroundImageFix" result="effect1_dropShadow"/>
<feBlend mode="normal" in="SourceGraphic" in2="effect1_dropShadow" result="shape"/>
</filter>
<filter id="filter8_d" x="209" y="637" width="32" height="43" filterUnits="userSpaceOnUse" color-interpolation-filters="sRGB">
<feFlood flood-opacity="0" result="BackgroundImageFix"/>
<feColorMatrix in="SourceAlpha" type="matrix" values="0 0 0 0 0 0 0 0 0 0 0 0 0 0 0 0 0 0 127 0"/>
<feOffset dy="1"/>
<feColorMatrix type="matrix" values="0 0 0 0 0.537255 0 0 0 0 0.541176 0 0 0 0 0.552941 0 0 0 1 0"/>
<feBlend mode="normal" in2="BackgroundImageFix" result="effect1_dropShadow"/>
<feBlend mode="normal" in="SourceGraphic" in2="effect1_dropShadow" result="shape"/>
</filter>
<filter id="filter9_d" x="172" y="637" width="32" height="43" filterUnits="userSpaceOnUse" color-interpolation-filters="sRGB">
<feFlood flood-opacity="0" result="BackgroundImageFix"/>
<feColorMatrix in="SourceAlpha" type="matrix" values="0 0 0 0 0 0 0 0 0 0 0 0 0 0 0 0 0 0 127 0"/>
<feOffset dy="1"/>
<feColorMatrix type="matrix" values="0 0 0 0 0.537255 0 0 0 0 0.541176 0 0 0 0 0.552941 0 0 0 1 0"/>
<feBlend mode="normal" in2="BackgroundImageFix" result="effect1_dropShadow"/>
<feBlend mode="normal" in="SourceGraphic" in2="effect1_dropShadow" result="shape"/>
</filter>
<filter id="filter10_d" x="134" y="637" width="32" height="43" filterUnits="userSpaceOnUse" color-interpolation-filters="sRGB">
<feFlood flood-opacity="0" result="BackgroundImageFix"/>
<feColorMatrix in="SourceAlpha" type="matrix" values="0 0 0 0 0 0 0 0 0 0 0 0 0 0 0 0 0 0 127 0"/>
<feOffset dy="1"/>
<feColorMatrix type="matrix" values="0 0 0 0 0.537255 0 0 0 0 0.541176 0 0 0 0 0.552941 0 0 0 1 0"/>
<feBlend mode="normal" in2="BackgroundImageFix" result="effect1_dropShadow"/>
<feBlend mode="normal" in="SourceGraphic" in2="effect1_dropShadow" result="shape"/>
</filter>
<filter id="filter11_d" x="97" y="637" width="32" height="43" filterUnits="userSpaceOnUse" color-interpolation-filters="sRGB">
<feFlood flood-opacity="0" result="BackgroundImageFix"/>
<feColorMatrix in="SourceAlpha" type="matrix" values="0 0 0 0 0 0 0 0 0 0 0 0 0 0 0 0 0 0 127 0"/>
<feOffset dy="1"/>
<feColorMatrix type="matrix" values="0 0 0 0 0.537255 0 0 0 0 0.541176 0 0 0 0 0.552941 0 0 0 1 0"/>
<feBlend mode="normal" in2="BackgroundImageFix" result="effect1_dropShadow"/>
<feBlend mode="normal" in="SourceGraphic" in2="effect1_dropShadow" result="shape"/>
</filter>
<filter id="filter12_d" x="59" y="637" width="32" height="43" filterUnits="userSpaceOnUse" color-interpolation-filters="sRGB">
<feFlood flood-opacity="0" result="BackgroundImageFix"/>
<feColorMatrix in="SourceAlpha" type="matrix" values="0 0 0 0 0 0 0 0 0 0 0 0 0 0 0 0 0 0 127 0"/>
<feOffset dy="1"/>
<feColorMatrix type="matrix" values="0 0 0 0 0.537255 0 0 0 0 0.541176 0 0 0 0 0.552941 0 0 0 1 0"/>
<feBlend mode="normal" in2="BackgroundImageFix" result="effect1_dropShadow"/>
<feBlend mode="normal" in="SourceGraphic" in2="effect1_dropShadow" result="shape"/>
</filter>
<filter id="filter13_d" x="322" y="583" width="32" height="43" filterUnits="userSpaceOnUse" color-interpolation-filters="sRGB">
<feFlood flood-opacity="0" result="BackgroundImageFix"/>
<feColorMatrix in="SourceAlpha" type="matrix" values="0 0 0 0 0 0 0 0 0 0 0 0 0 0 0 0 0 0 127 0"/>
<feOffset dy="1"/>
<feColorMatrix type="matrix" values="0 0 0 0 0.537255 0 0 0 0 0.541176 0 0 0 0 0.552941 0 0 0 1 0"/>
<feBlend mode="normal" in2="BackgroundImageFix" result="effect1_dropShadow"/>
<feBlend mode="normal" in="SourceGraphic" in2="effect1_dropShadow" result="shape"/>
</filter>
<filter id="filter14_d" x="284" y="583" width="32" height="43" filterUnits="userSpaceOnUse" color-interpolation-filters="sRGB">
<feFlood flood-opacity="0" result="BackgroundImageFix"/>
<feColorMatrix in="SourceAlpha" type="matrix" values="0 0 0 0 0 0 0 0 0 0 0 0 0 0 0 0 0 0 127 0"/>
<feOffset dy="1"/>
<feColorMatrix type="matrix" values="0 0 0 0 0.537255 0 0 0 0 0.541176 0 0 0 0 0.552941 0 0 0 1 0"/>
<feBlend mode="normal" in2="BackgroundImageFix" result="effect1_dropShadow"/>
<feBlend mode="normal" in="SourceGraphic" in2="effect1_dropShadow" result="shape"/>
</filter>
<filter id="filter15_d" x="247" y="583" width="32" height="43" filterUnits="userSpaceOnUse" color-interpolation-filters="sRGB">
<feFlood flood-opacity="0" result="BackgroundImageFix"/>
<feColorMatrix in="SourceAlpha" type="matrix" values="0 0 0 0 0 0 0 0 0 0 0 0 0 0 0 0 0 0 127 0"/>
<feOffset dy="1"/>
<feColorMatrix type="matrix" values="0 0 0 0 0.537255 0 0 0 0 0.541176 0 0 0 0 0.552941 0 0 0 1 0"/>
<feBlend mode="normal" in2="BackgroundImageFix" result="effect1_dropShadow"/>
<feBlend mode="normal" in="SourceGraphic" in2="effect1_dropShadow" result="shape"/>
</filter>
<filter id="filter16_d" x="209" y="583" width="32" height="43" filterUnits="userSpaceOnUse" color-interpolation-filters="sRGB">
<feFlood flood-opacity="0" result="BackgroundImageFix"/>
<feColorMatrix in="SourceAlpha" type="matrix" values="0 0 0 0 0 0 0 0 0 0 0 0 0 0 0 0 0 0 127 0"/>
<feOffset dy="1"/>
<feColorMatrix type="matrix" values="0 0 0 0 0.537255 0 0 0 0 0.541176 0 0 0 0 0.552941 0 0 0 1 0"/>
<feBlend mode="normal" in2="BackgroundImageFix" result="effect1_dropShadow"/>
<feBlend mode="normal" in="SourceGraphic" in2="effect1_dropShadow" result="shape"/>
</filter>
<filter id="filter17_d" x="172" y="583" width="32" height="43" filterUnits="userSpaceOnUse" color-interpolation-filters="sRGB">
<feFlood flood-opacity="0" result="BackgroundImageFix"/>
<feColorMatrix in="SourceAlpha" type="matrix" values="0 0 0 0 0 0 0 0 0 0 0 0 0 0 0 0 0 0 127 0"/>
<feOffset dy="1"/>
<feColorMatrix type="matrix" values="0 0 0 0 0.537255 0 0 0 0 0.541176 0 0 0 0 0.552941 0 0 0 1 0"/>
<feBlend mode="normal" in2="BackgroundImageFix" result="effect1_dropShadow"/>
<feBlend mode="normal" in="SourceGraphic" in2="effect1_dropShadow" result="shape"/>
</filter>
<filter id="filter18_d" x="134" y="583" width="32" height="43" filterUnits="userSpaceOnUse" color-interpolation-filters="sRGB">
<feFlood flood-opacity="0" result="BackgroundImageFix"/>
<feColorMatrix in="SourceAlpha" type="matrix" values="0 0 0 0 0 0 0 0 0 0 0 0 0 0 0 0 0 0 127 0"/>
<feOffset dy="1"/>
<feColorMatrix type="matrix" values="0 0 0 0 0.537255 0 0 0 0 0.541176 0 0 0 0 0.552941 0 0 0 1 0"/>
<feBlend mode="normal" in2="BackgroundImageFix" result="effect1_dropShadow"/>
<feBlend mode="normal" in="SourceGraphic" in2="effect1_dropShadow" result="shape"/>
</filter>
<filter id="filter19_d" x="97" y="583" width="32" height="43" filterUnits="userSpaceOnUse" color-interpolation-filters="sRGB">
<feFlood flood-opacity="0" result="BackgroundImageFix"/>
<feColorMatrix in="SourceAlpha" type="matrix" values="0 0 0 0 0 0 0 0 0 0 0 0 0 0 0 0 0 0 127 0"/>
<feOffset dy="1"/>
<feColorMatrix type="matrix" values="0 0 0 0 0.537255 0 0 0 0 0.541176 0 0 0 0 0.552941 0 0 0 1 0"/>
<feBlend mode="normal" in2="BackgroundImageFix" result="effect1_dropShadow"/>
<feBlend mode="normal" in="SourceGraphic" in2="effect1_dropShadow" result="shape"/>
</filter>
<filter id="filter20_d" x="59" y="583" width="32" height="43" filterUnits="userSpaceOnUse" color-interpolation-filters="sRGB">
<feFlood flood-opacity="0" result="BackgroundImageFix"/>
<feColorMatrix in="SourceAlpha" type="matrix" values="0 0 0 0 0 0 0 0 0 0 0 0 0 0 0 0 0 0 127 0"/>
<feOffset dy="1"/>
<feColorMatrix type="matrix" values="0 0 0 0 0.537255 0 0 0 0 0.541176 0 0 0 0 0.552941 0 0 0 1 0"/>
<feBlend mode="normal" in2="BackgroundImageFix" result="effect1_dropShadow"/>
<feBlend mode="normal" in="SourceGraphic" in2="effect1_dropShadow" result="shape"/>
</filter>
<filter id="filter21_d" x="22" y="583" width="32" height="43" filterUnits="userSpaceOnUse" color-interpolation-filters="sRGB">
<feFlood flood-opacity="0" result="BackgroundImageFix"/>
<feColorMatrix in="SourceAlpha" type="matrix" values="0 0 0 0 0 0 0 0 0 0 0 0 0 0 0 0 0 0 127 0"/>
<feOffset dy="1"/>
<feColorMatrix type="matrix" values="0 0 0 0 0.537255 0 0 0 0 0.541176 0 0 0 0 0.552941 0 0 0 1 0"/>
<feBlend mode="normal" in2="BackgroundImageFix" result="effect1_dropShadow"/>
<feBlend mode="normal" in="SourceGraphic" in2="effect1_dropShadow" result="shape"/>
</filter>
<filter id="filter22_d" x="340" y="529" width="32" height="43" filterUnits="userSpaceOnUse" color-interpolation-filters="sRGB">
<feFlood flood-opacity="0" result="BackgroundImageFix"/>
<feColorMatrix in="SourceAlpha" type="matrix" values="0 0 0 0 0 0 0 0 0 0 0 0 0 0 0 0 0 0 127 0"/>
<feOffset dy="1"/>
<feColorMatrix type="matrix" values="0 0 0 0 0.537255 0 0 0 0 0.541176 0 0 0 0 0.552941 0 0 0 1 0"/>
<feBlend mode="normal" in2="BackgroundImageFix" result="effect1_dropShadow"/>
<feBlend mode="normal" in="SourceGraphic" in2="effect1_dropShadow" result="shape"/>
</filter>
<filter id="filter23_d" x="303" y="529" width="32" height="43" filterUnits="userSpaceOnUse" color-interpolation-filters="sRGB">
<feFlood flood-opacity="0" result="BackgroundImageFix"/>
<feColorMatrix in="SourceAlpha" type="matrix" values="0 0 0 0 0 0 0 0 0 0 0 0 0 0 0 0 0 0 127 0"/>
<feOffset dy="1"/>
<feColorMatrix type="matrix" values="0 0 0 0 0.537255 0 0 0 0 0.541176 0 0 0 0 0.552941 0 0 0 1 0"/>
<feBlend mode="normal" in2="BackgroundImageFix" result="effect1_dropShadow"/>
<feBlend mode="normal" in="SourceGraphic" in2="effect1_dropShadow" result="shape"/>
</filter>
<filter id="filter24_d" x="265" y="529" width="32" height="43" filterUnits="userSpaceOnUse" color-interpolation-filters="sRGB">
<feFlood flood-opacity="0" result="BackgroundImageFix"/>
<feColorMatrix in="SourceAlpha" type="matrix" values="0 0 0 0 0 0 0 0 0 0 0 0 0 0 0 0 0 0 127 0"/>
<feOffset dy="1"/>
<feColorMatrix type="matrix" values="0 0 0 0 0.537255 0 0 0 0 0.541176 0 0 0 0 0.552941 0 0 0 1 0"/>
<feBlend mode="normal" in2="BackgroundImageFix" result="effect1_dropShadow"/>
<feBlend mode="normal" in="SourceGraphic" in2="effect1_dropShadow" result="shape"/>
</filter>
<filter id="filter25_d" x="228" y="529" width="32" height="43" filterUnits="userSpaceOnUse" color-interpolation-filters="sRGB">
<feFlood flood-opacity="0" result="BackgroundImageFix"/>
<feColorMatrix in="SourceAlpha" type="matrix" values="0 0 0 0 0 0 0 0 0 0 0 0 0 0 0 0 0 0 127 0"/>
<feOffset dy="1"/>
<feColorMatrix type="matrix" values="0 0 0 0 0.537255 0 0 0 0 0.541176 0 0 0 0 0.552941 0 0 0 1 0"/>
<feBlend mode="normal" in2="BackgroundImageFix" result="effect1_dropShadow"/>
<feBlend mode="normal" in="SourceGraphic" in2="effect1_dropShadow" result="shape"/>
</filter>
<filter id="filter26_d" x="190" y="529" width="32" height="43" filterUnits="userSpaceOnUse" color-interpolation-filters="sRGB">
<feFlood flood-opacity="0" result="BackgroundImageFix"/>
<feColorMatrix in="SourceAlpha" type="matrix" values="0 0 0 0 0 0 0 0 0 0 0 0 0 0 0 0 0 0 127 0"/>
<feOffset dy="1"/>
<feColorMatrix type="matrix" values="0 0 0 0 0.537255 0 0 0 0 0.541176 0 0 0 0 0.552941 0 0 0 1 0"/>
<feBlend mode="normal" in2="BackgroundImageFix" result="effect1_dropShadow"/>
<feBlend mode="normal" in="SourceGraphic" in2="effect1_dropShadow" result="shape"/>
</filter>
<filter id="filter27_d" x="153" y="529" width="32" height="43" filterUnits="userSpaceOnUse" color-interpolation-filters="sRGB">
<feFlood flood-opacity="0" result="BackgroundImageFix"/>
<feColorMatrix in="SourceAlpha" type="matrix" values="0 0 0 0 0 0 0 0 0 0 0 0 0 0 0 0 0 0 127 0"/>
<feOffset dy="1"/>
<feColorMatrix type="matrix" values="0 0 0 0 0.537255 0 0 0 0 0.541176 0 0 0 0 0.552941 0 0 0 1 0"/>
<feBlend mode="normal" in2="BackgroundImageFix" result="effect1_dropShadow"/>
<feBlend mode="normal" in="SourceGraphic" in2="effect1_dropShadow" result="shape"/>
</filter>
<filter id="filter28_d" x="115" y="529" width="32" height="43" filterUnits="userSpaceOnUse" color-interpolation-filters="sRGB">
<feFlood flood-opacity="0" result="BackgroundImageFix"/>
<feColorMatrix in="SourceAlpha" type="matrix" values="0 0 0 0 0 0 0 0 0 0 0 0 0 0 0 0 0 0 127 0"/>
<feOffset dy="1"/>
<feColorMatrix type="matrix" values="0 0 0 0 0.537255 0 0 0 0 0.541176 0 0 0 0 0.552941 0 0 0 1 0"/>
<feBlend mode="normal" in2="BackgroundImageFix" result="effect1_dropShadow"/>
<feBlend mode="normal" in="SourceGraphic" in2="effect1_dropShadow" result="shape"/>
</filter>
<filter id="filter29_d" x="78" y="529" width="32" height="43" filterUnits="userSpaceOnUse" color-interpolation-filters="sRGB">
<feFlood flood-opacity="0" result="BackgroundImageFix"/>
<feColorMatrix in="SourceAlpha" type="matrix" values="0 0 0 0 0 0 0 0 0 0 0 0 0 0 0 0 0 0 127 0"/>
<feOffset dy="1"/>
<feColorMatrix type="matrix" values="0 0 0 0 0.537255 0 0 0 0 0.541176 0 0 0 0 0.552941 0 0 0 1 0"/>
<feBlend mode="normal" in2="BackgroundImageFix" result="effect1_dropShadow"/>
<feBlend mode="normal" in="SourceGraphic" in2="effect1_dropShadow" result="shape"/>
</filter>
<filter id="filter30_d" x="40" y="529" width="32" height="43" filterUnits="userSpaceOnUse" color-interpolation-filters="sRGB">
<feFlood flood-opacity="0" result="BackgroundImageFix"/>
<feColorMatrix in="SourceAlpha" type="matrix" values="0 0 0 0 0 0 0 0 0 0 0 0 0 0 0 0 0 0 127 0"/>
<feOffset dy="1"/>
<feColorMatrix type="matrix" values="0 0 0 0 0.537255 0 0 0 0 0.541176 0 0 0 0 0.552941 0 0 0 1 0"/>
<feBlend mode="normal" in2="BackgroundImageFix" result="effect1_dropShadow"/>
<feBlend mode="normal" in="SourceGraphic" in2="effect1_dropShadow" result="shape"/>
</filter>
<filter id="filter31_d" x="3" y="529" width="32" height="43" filterUnits="userSpaceOnUse" color-interpolation-filters="sRGB">
<feFlood flood-opacity="0" result="BackgroundImageFix"/>
<feColorMatrix in="SourceAlpha" type="matrix" values="0 0 0 0 0 0 0 0 0 0 0 0 0 0 0 0 0 0 127 0"/>
<feOffset dy="1"/>
<feColorMatrix type="matrix" values="0 0 0 0 0.537255 0 0 0 0 0.541176 0 0 0 0 0.552941 0 0 0 1 0"/>
<feBlend mode="normal" in2="BackgroundImageFix" result="effect1_dropShadow"/>
<feBlend mode="normal" in="SourceGraphic" in2="effect1_dropShadow" result="shape"/>
</filter>
</defs>
</svg>
