<svg width="323" height="342" viewBox="0 0 323 342" fill="none" xmlns="http://www.w3.org/2000/svg">
<rect width="323" height="342" fill="#5965E0"/>
<g opacity="0.08">
<path d="M160.38 22.3748H215.92L169.716 242H114.175L160.38 22.3748Z" fill="url(#paint0_linear)"/>
<path d="M242.232 22.3748H297.636L261.724 194.88H206.306L242.232 22.3748Z" fill="url(#paint1_linear)"/>
<path d="M77.9977 22.3748H133.403L97.4905 194.88H42.0725L77.9977 22.3748Z" fill="url(#paint2_linear)"/>
</g>
<path d="M145.902 285.608L142.529 301.908H133.744L137.117 285.608C137.381 284.327 137.228 284.09 135.983 284.09H132.811C131.574 284.09 131.315 284.327 131.054 285.575C131.054 285.575 131.054 285.597 131.054 285.608L127.681 301.908H118.888L122.263 285.608C122.528 284.327 122.374 284.09 121.127 284.09H117.956C116.708 284.09 116.457 284.329 116.193 285.608L112.818 301.908H104.033L109.21 276.886H116.346L117.477 279.036C118.128 278.332 118.916 277.777 119.789 277.407C120.662 277.036 121.602 276.859 122.546 276.886H124.367C127.803 276.886 130.121 278.42 130.951 281.012C132.486 278.129 134.712 276.886 137.399 276.886H139.223C144.385 276.886 147.009 280.309 145.902 285.608Z" fill="white"/>
<path d="M172.693 285.608L171.126 293.187C170.029 298.485 165.985 301.908 160.818 301.908H154.164C149.005 301.908 146.38 298.483 147.477 293.184L149.044 285.608C150.139 280.309 154.182 276.886 159.352 276.886H166.017C171.165 276.886 173.793 280.309 172.693 285.608ZM163.9 285.608C164.164 284.327 164.011 284.09 162.766 284.09H159.595C158.347 284.09 158.096 284.329 157.832 285.608L156.262 293.184C155.998 294.465 156.154 294.701 157.399 294.701H160.57C161.815 294.701 162.069 294.463 162.333 293.184L163.9 285.608Z" fill="white"/>
<path d="M227.52 283.615C227.198 285.038 226.422 286.309 225.315 287.226L220.841 291.026C219.768 291.953 218.418 292.474 217.017 292.503H210.822L210.682 293.173C210.417 294.454 210.571 294.691 211.818 294.691H225.223L223.732 301.898H208.573C203.414 301.898 200.789 298.472 201.886 293.173L203.453 285.597C204.55 280.298 208.594 276.875 213.761 276.875H220.431C225.577 276.886 228.238 280.13 227.52 283.615ZM218.317 285.608C218.581 284.327 218.428 284.091 217.181 284.091H214.009C212.767 284.088 212.503 284.329 212.238 285.608L211.71 288.217H216.943C217.177 288.207 217.402 288.118 217.584 287.965C217.765 287.811 217.892 287.602 217.947 287.367L218.317 285.608Z" fill="white"/>
<path d="M237.397 297.66C236.91 300.008 235.105 301.911 232.375 301.911C229.645 301.911 228.63 300.011 229.117 297.66C229.603 295.31 231.408 293.412 234.138 293.412C236.868 293.412 237.875 295.31 237.397 297.66Z" fill="#4CD62B"/>
<path d="M256.246 276.886L254.755 284.088L251.055 301.906H242.273L245.973 284.088H241.588L243.081 276.884L256.246 276.886ZM249.723 272.215C248.201 270.477 248.666 267.497 250.756 265.561C252.847 263.626 255.778 263.468 257.308 265.208C258.838 266.948 258.365 269.929 256.275 271.864C254.184 273.8 251.248 273.957 249.723 272.215Z" fill="white"/>
<path d="M270.343 280.488L267.716 293.184C267.452 294.465 267.605 294.702 268.85 294.702H274.313L272.822 301.909H265.61C260.451 301.909 257.824 298.483 258.92 293.184L261.547 280.488H258.225L259.716 273.281H263.046L264.267 267.38H273.06L271.839 273.281H278.753L277.254 280.488H270.343Z" fill="white"/>
<path d="M69.7493 267.671H80.8971L71.6231 313H60.4753L69.7493 267.671Z" fill="white"/>
<path d="M86.106 267.671H97.2538L90.0281 303.187H78.8777L86.106 267.671Z" fill="white"/>
<path d="M53.2283 267.671H64.3761L57.1504 303.187H46L53.2283 267.671Z" fill="white"/>
<path d="M205.224 276.886L188.936 301.909H179.95L174.009 276.886H183.632L186.219 293.317L195.602 276.9L205.224 276.886Z" fill="white"/>
<defs>
<linearGradient id="paint0_linear" x1="165.048" y1="22.3748" x2="165.048" y2="242" gradientUnits="userSpaceOnUse">
<stop stop-opacity="0"/>
<stop offset="1"/>
</linearGradient>
<linearGradient id="paint1_linear" x1="251.971" y1="22.3748" x2="251.971" y2="194.88" gradientUnits="userSpaceOnUse">
<stop stop-opacity="0"/>
<stop offset="1"/>
</linearGradient>
<linearGradient id="paint2_linear" x1="87.7375" y1="22.3748" x2="87.7375" y2="194.88" gradientUnits="userSpaceOnUse">
<stop stop-opacity="0"/>
<stop offset="1"/>
</linearGradient>
</defs>
</svg>
