<svg width="323" height="342" viewBox="0 0 323 342" fill="none" xmlns="http://www.w3.org/2000/svg">
<rect width="323" height="342" fill="#F0F0F5"/>
<path d="M51.5 342C64.4797 198.812 244.5 256.5 323 52.5V342H147H51.5Z" fill="#34CB79"/>
<path d="M132.545 187.824V152.544H156.371V159.213H140.487V166.136H154.589V172.653H140.487V181.155H157.542V187.824H132.545Z" fill="#322153"/>
<path d="M161.04 174.435C161.04 172.5 161.346 170.684 161.957 168.987C162.602 167.256 163.518 165.763 164.706 164.507C165.894 163.217 167.336 162.199 169.033 161.453C170.73 160.706 172.665 160.333 174.837 160.333C176.262 160.333 177.569 160.468 178.756 160.74C179.945 160.977 181.098 161.334 182.218 161.809L180.64 167.867C179.927 167.596 179.148 167.358 178.298 167.155C177.45 166.951 176.5 166.849 175.448 166.849C173.208 166.849 171.528 167.545 170.408 168.936C169.322 170.328 168.778 172.161 168.778 174.435C168.778 176.844 169.288 178.711 170.306 180.035C171.358 181.358 173.174 182.02 175.753 182.02C176.67 182.02 177.654 181.935 178.705 181.765C179.759 181.596 180.726 181.324 181.607 180.951L182.676 187.162C181.795 187.535 180.691 187.857 179.367 188.129C178.044 188.401 176.585 188.536 174.99 188.536C172.546 188.536 170.442 188.18 168.677 187.467C166.912 186.721 165.453 185.719 164.298 184.464C163.178 183.208 162.347 181.732 161.804 180.035C161.295 178.304 161.04 176.437 161.04 174.435Z" fill="#322153"/>
<path d="M211.523 174.384C211.523 176.488 211.218 178.422 210.607 180.187C209.996 181.918 209.113 183.412 207.959 184.667C206.804 185.889 205.414 186.839 203.785 187.518C202.189 188.197 200.39 188.536 198.389 188.536C196.419 188.536 194.621 188.197 192.992 187.518C191.397 186.839 190.022 185.889 188.869 184.667C187.714 183.412 186.815 181.918 186.17 180.187C185.524 178.422 185.203 176.488 185.203 174.384C185.203 172.279 185.524 170.362 186.17 168.631C186.848 166.9 187.764 165.424 188.919 164.202C190.106 162.98 191.498 162.03 193.094 161.351C194.723 160.672 196.487 160.333 198.389 160.333C200.323 160.333 202.087 160.672 203.683 161.351C205.312 162.03 206.703 162.98 207.858 164.202C209.011 165.424 209.91 166.9 210.556 168.631C211.2 170.362 211.523 172.279 211.523 174.384ZM203.785 174.384C203.785 172.042 203.309 170.209 202.359 168.885C201.443 167.528 200.119 166.849 198.389 166.849C196.658 166.849 195.317 167.528 194.367 168.885C193.415 170.209 192.941 172.042 192.941 174.384C192.941 176.725 193.415 178.592 194.367 179.984C195.317 181.341 196.658 182.02 198.389 182.02C200.119 182.02 201.443 181.341 202.359 179.984C203.309 178.592 203.785 176.725 203.785 174.384Z" fill="#322153"/>
<path d="M228.089 188.333C225.884 188.299 224.085 188.061 222.692 187.62C221.335 187.179 220.249 186.568 219.434 185.787C218.655 184.973 218.111 184.005 217.805 182.885C217.535 181.732 217.398 180.442 217.398 179.016V149.54L224.983 148.318V177.489C224.983 178.168 225.034 178.779 225.136 179.322C225.238 179.865 225.426 180.323 225.696 180.696C226.002 181.07 226.426 181.375 226.969 181.613C227.513 181.85 228.242 182.003 229.158 182.071L228.089 188.333Z" fill="#322153"/>
<path d="M232.233 174.638C232.233 172.262 232.59 170.192 233.302 168.427C234.05 166.628 235.017 165.135 236.204 163.947C237.392 162.759 238.75 161.86 240.277 161.249C241.839 160.638 243.433 160.333 245.062 160.333C248.865 160.333 251.868 161.504 254.073 163.845C256.28 166.153 257.382 169.564 257.382 174.078C257.382 174.519 257.366 175.012 257.331 175.555C257.298 176.064 257.265 176.522 257.23 176.929H240.022C240.192 178.49 240.923 179.729 242.211 180.645C243.502 181.562 245.232 182.02 247.404 182.02C248.796 182.02 250.153 181.901 251.477 181.664C252.835 181.392 253.938 181.07 254.786 180.696L255.804 186.856C255.397 187.06 254.854 187.264 254.175 187.467C253.497 187.671 252.734 187.841 251.884 187.976C251.07 188.146 250.188 188.282 249.237 188.384C248.287 188.485 247.337 188.536 246.386 188.536C243.977 188.536 241.872 188.18 240.073 187.467C238.309 186.755 236.832 185.787 235.644 184.565C234.491 183.31 233.625 181.833 233.048 180.136C232.505 178.439 232.233 176.607 232.233 174.638ZM250.051 171.736C250.018 171.092 249.899 170.464 249.695 169.853C249.526 169.242 249.237 168.699 248.83 168.224C248.457 167.748 247.964 167.358 247.353 167.053C246.777 166.747 246.047 166.595 245.164 166.595C244.316 166.595 243.586 166.747 242.975 167.053C242.364 167.324 241.855 167.697 241.448 168.173C241.04 168.648 240.719 169.208 240.48 169.853C240.277 170.464 240.124 171.092 240.022 171.736H250.051Z" fill="#322153"/>
<path d="M262.982 154.376L270.568 153.155V161.045H279.681V167.358H270.568V176.776C270.568 178.372 270.838 179.644 271.382 180.595C271.958 181.545 273.096 182.02 274.793 182.02C275.608 182.02 276.438 181.952 277.288 181.816C278.169 181.647 278.968 181.426 279.681 181.155L280.75 187.06C279.833 187.433 278.815 187.756 277.695 188.027C276.575 188.299 275.201 188.435 273.572 188.435C271.5 188.435 269.787 188.163 268.43 187.62C267.071 187.043 265.986 186.262 265.172 185.278C264.357 184.26 263.779 183.038 263.441 181.613C263.135 180.187 262.982 178.609 262.982 176.878V154.376Z" fill="#322153"/>
<path d="M295.095 182.529C295.843 182.529 296.555 182.512 297.235 182.478C297.912 182.444 298.455 182.393 298.864 182.325V176.573C298.558 176.505 298.098 176.437 297.488 176.369C296.877 176.301 296.317 176.267 295.808 176.267C295.095 176.267 294.417 176.318 293.771 176.42C293.16 176.488 292.618 176.641 292.142 176.878C291.668 177.116 291.294 177.438 291.024 177.845C290.752 178.253 290.615 178.762 290.615 179.373C290.615 180.561 291.006 181.392 291.786 181.867C292.6 182.308 293.704 182.529 295.095 182.529ZM294.484 160.333C296.724 160.333 298.592 160.587 300.086 161.096C301.578 161.605 302.766 162.335 303.648 163.285C304.564 164.236 305.21 165.39 305.584 166.747C305.956 168.105 306.142 169.615 306.142 171.278V187.06C305.057 187.297 303.547 187.569 301.613 187.874C299.677 188.214 297.335 188.384 294.586 188.384C292.856 188.384 291.278 188.231 289.853 187.925C288.461 187.62 287.255 187.128 286.237 186.449C285.219 185.736 284.439 184.82 283.895 183.7C283.352 182.58 283.08 181.205 283.08 179.576C283.08 178.015 283.386 176.692 283.998 175.605C284.643 174.519 285.491 173.654 286.544 173.009C287.595 172.364 288.8 171.906 290.158 171.635C291.515 171.329 292.923 171.176 294.384 171.176C295.367 171.176 296.232 171.227 296.979 171.329C297.76 171.397 298.388 171.499 298.864 171.635V170.922C298.864 169.632 298.472 168.597 297.693 167.816C296.912 167.036 295.555 166.645 293.619 166.645C292.33 166.645 291.057 166.747 289.8 166.951C288.545 167.121 287.459 167.375 286.544 167.715L285.575 161.605C286.017 161.47 286.56 161.334 287.206 161.198C287.883 161.028 288.614 160.893 289.393 160.791C290.174 160.655 290.989 160.553 291.838 160.485C292.72 160.384 293.603 160.333 294.484 160.333Z" fill="#322153"/>
<path d="M41.294 136.943L34.0158 150.841C33.5458 151.739 33.8553 152.861 34.7118 153.365L46.1083 160.078C46.9767 160.59 48.0807 160.275 48.5745 159.376L62.5048 134.001H46.0637C44.0736 134.001 42.2431 135.13 41.294 136.943Z" fill="#29A361"/>
<path d="M62.5042 134L48.5745 159.375C48.0798 160.274 46.9765 160.59 46.1085 160.079L43.1338 158.327C43.8591 158.448 44.6135 158.103 44.9975 157.402L57.8473 134H62.5042Z" fill="#248F55"/>
<path d="M77.7465 147.458L72.7265 137.101C71.8056 135.2 69.9289 134.001 67.8771 134.001H53.3628L64.5068 153.595C64.4704 153.612 64.4336 153.629 64.397 153.646C63.6961 153.973 63.7247 155.015 64.4424 155.3L74.0653 159.13C74.5112 159.308 75.0115 159.077 75.1827 158.615L78.8922 148.604C79.1665 147.863 78.4463 147.149 77.7465 147.458Z" fill="#34CB79"/>
<path d="M78.8921 148.603L75.1815 158.614C75.0111 159.077 74.5099 159.308 74.0645 159.13L71.1528 157.97L74.6239 148.603C74.8211 148.072 74.506 147.554 74.0538 147.419C73.6232 147.289 73.2555 146.997 73.0543 146.582L68.458 137.1C67.5375 135.201 65.6615 134 63.6089 134H67.8771C69.9283 134 71.8043 135.201 72.7262 137.1L77.7458 147.458C78.4466 147.149 79.1657 147.863 78.8921 148.603Z" fill="#2FB86E"/>
<path d="M68.0491 187.39C67.9139 186.815 67.198 186.568 66.7611 187.021L59.2399 194.815C58.9399 195.126 58.9399 195.63 59.2399 195.941L66.7901 203.765C67.2241 204.215 67.9326 203.975 68.0752 203.41H79.1781C81.2223 203.41 83.093 202.22 84.0178 200.33L90.3532 187.39H68.0491V187.39Z" fill="#29A361"/>
<path d="M77.4218 187.39L81.0219 193.035C81.8358 194.311 81.9258 195.942 81.2578 197.307L79.7771 200.33C78.8538 202.219 76.9822 203.41 74.9387 203.41H79.178C81.2215 203.41 83.0929 202.219 84.018 200.33L90.3529 187.39H77.4218V187.39Z" fill="#248F55"/>
<path d="M52.8972 201.922V188.148C52.8972 187.112 52.0873 186.273 51.0882 186.273H21.2898L28.9584 200.863C29.9089 202.671 31.737 203.797 33.7241 203.797H51.0882C52.0871 203.797 52.8972 202.958 52.8972 201.922Z" fill="#29A361"/>
<path d="M33.9274 186.274L27.3097 197.727L21.2898 186.274H33.9274Z" fill="#248F55"/>
<path d="M52.8967 188.148V201.923C52.8967 202.958 52.087 203.797 51.0884 203.797H46.342C47.3408 203.797 48.1506 202.958 48.1506 201.923V188.148C48.1506 187.113 47.3408 186.274 46.342 186.274H51.0884C52.087 186.274 52.8967 187.113 52.8967 188.148Z" fill="#248F55"/>
<path d="M38.3393 174.101L37.0012 163.665C36.935 163.15 36.4781 162.787 35.9806 162.856L25.8716 164.248C25.1103 164.353 24.8266 165.312 25.348 165.846L18.9681 175.376C17.7983 177.123 17.6796 179.405 18.6612 181.272L25.6038 194.481L36.8768 174.967C36.8807 174.97 36.8846 174.973 36.8887 174.976C37.5321 175.482 38.4456 174.931 38.3393 174.101Z" fill="#34CB79"/>
<path d="M36.888 174.976C36.8848 174.973 36.8804 174.97 36.8772 174.967L25.6039 194.48L23.2854 190.07L32.461 174.184L32.7154 173.743C32.8546 173.503 33.1265 173.399 33.3924 173.452C33.3937 173.452 33.3951 173.452 33.3964 173.453C33.9622 173.557 34.5424 173.069 34.4555 172.398L33.2801 163.227L35.9796 162.856C36.4776 162.787 36.9354 163.151 37.0015 163.665L38.3397 174.102C38.446 174.932 37.5317 175.483 36.888 174.976Z" fill="#2FB86E"/>
<path d="M93.4026 174.659L84.6755 161.554C84.1403 160.75 83.0989 160.507 82.2826 160.995L70.9095 167.796C70.0069 168.336 69.7299 169.553 70.3045 170.454L86.3374 195.592L93.776 180.398C94.6763 178.559 94.5331 176.356 93.4026 174.659Z" fill="#34CB79"/>
<path d="M93.7757 180.398L86.3359 195.592L83.8408 191.678L89.363 180.398C90.2633 178.559 90.1204 176.357 88.9896 174.659L80.5713 162.02L82.2828 160.996C83.0988 160.507 84.1405 160.75 84.6752 161.555L93.4024 174.659C94.5331 176.357 94.676 178.559 93.7757 180.398Z" fill="#2FB86E"/>
</svg>
