<svg id="visual" viewBox="0 0 1800 250" width="1800" height="250" xmlns="http://www.w3.org/2000/svg" xmlns:xlink="http://www.w3.org/1999/xlink" version="1.1"><path d="M0 129L42.8 121.5C85.7 114 171.3 99 257 91.3C342.7 83.7 428.3 83.3 514 81C599.7 78.7 685.3 74.3 771.2 86.7C857 99 943 128 1028.8 130.7C1114.7 133.3 1200.3 109.7 1286 100.5C1371.7 91.3 1457.3 96.7 1543 97C1628.7 97.3 1714.3 92.7 1757.2 90.3L1800 88L1800 251L1757.2 251C1714.3 251 1628.7 251 1543 251C1457.3 251 1371.7 251 1286 251C1200.3 251 1114.7 251 1028.8 251C943 251 857 251 771.2 251C685.3 251 599.7 251 514 251C428.3 251 342.7 251 257 251C171.3 251 85.7 251 42.8 251L0 251Z" fill="#273036"></path><path d="M0 125L42.8 124.2C85.7 123.3 171.3 121.7 257 127C342.7 132.3 428.3 144.7 514 152C599.7 159.3 685.3 161.7 771.2 155C857 148.3 943 132.7 1028.8 128.5C1114.7 124.3 1200.3 131.7 1286 132.3C1371.7 133 1457.3 127 1543 125.3C1628.7 123.7 1714.3 126.3 1757.2 127.7L1800 129L1800 251L1757.2 251C1714.3 251 1628.7 251 1543 251C1457.3 251 1371.7 251 1286 251C1200.3 251 1114.7 251 1028.8 251C943 251 857 251 771.2 251C685.3 251 599.7 251 514 251C428.3 251 342.7 251 257 251C171.3 251 85.7 251 42.8 251L0 251Z" fill="#21292e"></path><path d="M0 141L42.8 150.3C85.7 159.7 171.3 178.3 257 180C342.7 181.7 428.3 166.3 514 164.8C599.7 163.3 685.3 175.7 771.2 177.5C857 179.3 943 170.7 1028.8 167.7C1114.7 164.7 1200.3 167.3 1286 169.8C1371.7 172.3 1457.3 174.7 1543 173.5C1628.7 172.3 1714.3 167.7 1757.2 165.3L1800 163L1800 251L1757.2 251C1714.3 251 1628.7 251 1543 251C1457.3 251 1371.7 251 1286 251C1200.3 251 1114.7 251 1028.8 251C943 251 857 251 771.2 251C685.3 251 599.7 251 514 251C428.3 251 342.7 251 257 251C171.3 251 85.7 251 42.8 251L0 251Z" fill="#1c2227"></path><path d="M0 167L42.8 170.2C85.7 173.3 171.3 179.7 257 184.8C342.7 190 428.3 194 514 192.3C599.7 190.7 685.3 183.3 771.2 181.3C857 179.3 943 182.7 1028.8 189.3C1114.7 196 1200.3 206 1286 206.7C1371.7 207.3 1457.3 198.7 1543 192.3C1628.7 186 1714.3 182 1757.2 180L1800 178L1800 251L1757.2 251C1714.3 251 1628.7 251 1543 251C1457.3 251 1371.7 251 1286 251C1200.3 251 1114.7 251 1028.8 251C943 251 857 251 771.2 251C685.3 251 599.7 251 514 251C428.3 251 342.7 251 257 251C171.3 251 85.7 251 42.8 251L0 251Z" fill="#171b1f"></path><path d="M0 232L42.8 227.2C85.7 222.3 171.3 212.7 257 207C342.7 201.3 428.3 199.7 514 204C599.7 208.3 685.3 218.7 771.2 224.2C857 229.7 943 230.3 1028.8 230C1114.7 229.7 1200.3 228.3 1286 225C1371.7 221.7 1457.3 216.3 1543 212C1628.7 207.7 1714.3 204.3 1757.2 202.7L1800 201L1800 251L1757.2 251C1714.3 251 1628.7 251 1543 251C1457.3 251 1371.7 251 1286 251C1200.3 251 1114.7 251 1028.8 251C943 251 857 251 771.2 251C685.3 251 599.7 251 514 251C428.3 251 342.7 251 257 251C171.3 251 85.7 251 42.8 251L0 251Z" fill="#111518"></path></svg>