<svg id="visual" viewBox="0 0 1800 250" width="1800" height="250" xmlns="http://www.w3.org/2000/svg" xmlns:xlink="http://www.w3.org/1999/xlink" version="1.1"><path d="M0 155L42.8 154.8C85.7 154.7 171.3 154.3 257 151.7C342.7 149 428.3 144 514 135C599.7 126 685.3 113 771.2 102.2C857 91.3 943 82.7 1028.8 92.8C1114.7 103 1200.3 132 1286 131.8C1371.7 131.7 1457.3 102.3 1543 93C1628.7 83.7 1714.3 94.3 1757.2 99.7L1800 105L1800 251L1757.2 251C1714.3 251 1628.7 251 1543 251C1457.3 251 1371.7 251 1286 251C1200.3 251 1114.7 251 1028.8 251C943 251 857 251 771.2 251C685.3 251 599.7 251 514 251C428.3 251 342.7 251 257 251C171.3 251 85.7 251 42.8 251L0 251Z" fill="#273036"></path><path d="M0 123L42.8 124.3C85.7 125.7 171.3 128.3 257 124.8C342.7 121.3 428.3 111.7 514 106.7C599.7 101.7 685.3 101.3 771.2 113.7C857 126 943 151 1028.8 156.8C1114.7 162.7 1200.3 149.3 1286 139.3C1371.7 129.3 1457.3 122.7 1543 119C1628.7 115.3 1714.3 114.7 1757.2 114.3L1800 114L1800 251L1757.2 251C1714.3 251 1628.7 251 1543 251C1457.3 251 1371.7 251 1286 251C1200.3 251 1114.7 251 1028.8 251C943 251 857 251 771.2 251C685.3 251 599.7 251 514 251C428.3 251 342.7 251 257 251C171.3 251 85.7 251 42.8 251L0 251Z" fill="#21292e"></path><path d="M0 168L42.8 162.5C85.7 157 171.3 146 257 145.5C342.7 145 428.3 155 514 163.8C599.7 172.7 685.3 180.3 771.2 183.2C857 186 943 184 1028.8 181.8C1114.7 179.7 1200.3 177.3 1286 173.3C1371.7 169.3 1457.3 163.7 1543 164C1628.7 164.3 1714.3 170.7 1757.2 173.8L1800 177L1800 251L1757.2 251C1714.3 251 1628.7 251 1543 251C1457.3 251 1371.7 251 1286 251C1200.3 251 1114.7 251 1028.8 251C943 251 857 251 771.2 251C685.3 251 599.7 251 514 251C428.3 251 342.7 251 257 251C171.3 251 85.7 251 42.8 251L0 251Z" fill="#1c2227"></path><path d="M0 193L42.8 188.7C85.7 184.3 171.3 175.7 257 176.3C342.7 177 428.3 187 514 188.7C599.7 190.3 685.3 183.7 771.2 178.8C857 174 943 171 1028.8 177.7C1114.7 184.3 1200.3 200.7 1286 200.3C1371.7 200 1457.3 183 1543 174C1628.7 165 1714.3 164 1757.2 163.5L1800 163L1800 251L1757.2 251C1714.3 251 1628.7 251 1543 251C1457.3 251 1371.7 251 1286 251C1200.3 251 1114.7 251 1028.8 251C943 251 857 251 771.2 251C685.3 251 599.7 251 514 251C428.3 251 342.7 251 257 251C171.3 251 85.7 251 42.8 251L0 251Z" fill="#171b1f"></path><path d="M0 193L42.8 196.3C85.7 199.7 171.3 206.3 257 213C342.7 219.7 428.3 226.3 514 225.8C599.7 225.3 685.3 217.7 771.2 215.8C857 214 943 218 1028.8 218.5C1114.7 219 1200.3 216 1286 212.8C1371.7 209.7 1457.3 206.3 1543 209.7C1628.7 213 1714.3 223 1757.2 228L1800 233L1800 251L1757.2 251C1714.3 251 1628.7 251 1543 251C1457.3 251 1371.7 251 1286 251C1200.3 251 1114.7 251 1028.8 251C943 251 857 251 771.2 251C685.3 251 599.7 251 514 251C428.3 251 342.7 251 257 251C171.3 251 85.7 251 42.8 251L0 251Z" fill="#111518"></path></svg>