<svg width="38" height="38" viewBox="0 0 38 38" fill="none" xmlns="http://www.w3.org/2000/svg">
<path fill-rule="evenodd" clip-rule="evenodd" d="M0 19C0 8.50659 8.50659 0 19 0C29.4934 0 38 8.50659 38 19C38 29.4934 29.4934 38 19 38C8.50659 38 0 29.4934 0 19ZM17.606 11.7402L17.6061 7.6H12.6439C9.86278 7.6 7.6 9.86278 7.6 12.6439V17.4172H11.7402V12.6439C11.7402 12.1456 12.1456 11.7402 12.6439 11.7402H17.606ZM30.4 25.2133V20.44H26.2598V25.2133C26.2598 25.7117 25.8545 26.117 25.3561 26.117H20.3939V30.2572H25.3561C28.1372 30.2572 30.4 27.9945 30.4 25.2133Z" fill="white"/>
</svg>
