<svg width="69" height="65" viewBox="0 0 69 65" fill="none" xmlns="http://www.w3.org/2000/svg">
<path fill-rule="evenodd" clip-rule="evenodd" d="M34.5001 47.85C25.6746 47.85 16.728 42.8168 9.70933 32.5C16.728 22.1832 25.6746 17.15 34.5001 17.15C43.3256 17.15 52.2722 22.1832 59.2909 32.5C52.2722 42.8169 43.3256 47.85 34.5001 47.85ZM61.1251 32.0024C53.8176 20.9884 44.2214 15.35 34.5001 15.35C24.7788 15.35 15.1826 20.9884 7.87514 32.0024C7.67508 32.304 7.67508 32.696 7.87514 32.9976C15.1826 44.0116 24.7788 49.65 34.5001 49.65C44.2214 49.65 53.8176 44.0116 61.1251 32.9976C61.3251 32.696 61.3251 32.304 61.1251 32.0024ZM34.5 43.3333C40.8513 43.3333 46 38.4831 46 32.5C46 26.5169 40.8513 21.6667 34.5 21.6667C28.1487 21.6667 23 26.5169 23 32.5C23 38.4831 28.1487 43.3333 34.5 43.3333Z" fill="white"/>
</svg>
