<svg width="38" height="38" viewBox="0 0 38 38" fill="none" xmlns="http://www.w3.org/2000/svg">
<path fill-rule="evenodd" clip-rule="evenodd" d="M19.0002 0C8.50804 0 0 8.7215 0 19.4809C0 28.0882 5.44412 35.3906 12.9935 37.9665C13.943 38.1469 14.2916 37.5439 14.2916 37.0294C14.2916 36.5648 14.274 35.0302 14.2659 33.4024C8.97999 34.5808 7.86461 31.1038 7.86461 31.1038C7.00031 28.8521 5.75498 28.2533 5.75498 28.2533C4.0311 27.0442 5.88493 27.0691 5.88493 27.0691C7.79287 27.2062 8.7975 29.0766 8.7975 29.0766C10.4921 32.0549 13.2423 31.1938 14.3266 30.6961C14.4971 29.4373 14.9895 28.5772 15.5329 28.0911C11.3127 27.5985 6.87634 25.928 6.87634 18.4634C6.87634 16.3365 7.61856 14.5986 8.834 13.2344C8.63672 12.7434 7.98637 10.7623 9.01806 8.07888C9.01806 8.07888 10.6136 7.5553 14.2445 10.0758C15.7601 9.64414 17.3855 9.42767 19.0002 9.42025C20.6149 9.42767 22.2415 9.64414 23.76 10.0758C27.3864 7.5553 28.9797 8.07888 28.9797 8.07888C30.0139 10.7623 29.3633 12.7434 29.166 13.2344C30.3843 14.5986 31.1215 16.3365 31.1215 18.4634C31.1215 25.9458 26.6766 27.5933 22.4457 28.0756C23.1272 28.6801 23.7345 29.8657 23.7345 31.6832C23.7345 34.2895 23.7124 36.3874 23.7124 37.0294C23.7124 37.5478 24.0544 38.1552 25.0175 37.9639C32.5628 35.3851 38 28.0853 38 19.4809C38 8.7215 29.4932 0 19.0002 0Z" fill="#F2F2F2"/>
<path fill-rule="evenodd" clip-rule="evenodd" d="M7.19632 27.9704C7.15448 28.0675 7.00597 28.0962 6.87068 28.0298C6.73287 27.9662 6.65547 27.8343 6.70015 27.7372C6.74105 27.6375 6.88987 27.6101 7.02736 27.6762C7.16549 27.7401 7.24415 27.8733 7.19632 27.9704Z" fill="#F2F2F2"/>
<path fill-rule="evenodd" clip-rule="evenodd" d="M7.96592 28.8505C7.87531 28.9366 7.69817 28.8966 7.57798 28.7605C7.4537 28.6247 7.43041 28.443 7.52229 28.3556C7.61573 28.2695 7.78752 28.3098 7.91212 28.4456C8.0364 28.583 8.06063 28.7634 7.96592 28.8505Z" fill="#F2F2F2"/>
<path fill-rule="evenodd" clip-rule="evenodd" d="M8.71507 29.9725C8.59865 30.0554 8.4083 29.9776 8.29062 29.8044C8.17421 29.6312 8.17421 29.4234 8.29314 29.3402C8.41113 29.257 8.59865 29.3318 8.7179 29.5037C8.834 29.6796 8.834 29.8876 8.71507 29.9725Z" fill="#F2F2F2"/>
<path fill-rule="evenodd" clip-rule="evenodd" d="M9.7414 31.0564C9.63726 31.1742 9.41544 31.1426 9.25309 30.9819C9.08696 30.8248 9.04071 30.6019 9.14517 30.4841C9.25057 30.3661 9.47365 30.3993 9.63726 30.5586C9.80213 30.7154 9.85247 30.94 9.7414 31.0564Z" fill="#F2F2F2"/>
<path fill-rule="evenodd" clip-rule="evenodd" d="M11.1573 31.6858C11.1113 31.8384 10.8977 31.9078 10.6825 31.8429C10.4676 31.7761 10.3269 31.5974 10.3704 31.4432C10.415 31.2897 10.6296 31.2174 10.8464 31.2868C11.061 31.3532 11.2019 31.5306 11.1573 31.6858Z" fill="#F2F2F2"/>
<path fill-rule="evenodd" clip-rule="evenodd" d="M12.7122 31.8026C12.7175 31.9632 12.535 32.0965 12.3091 32.0991C12.082 32.1045 11.8982 31.9745 11.8957 31.8165C11.8957 31.6542 12.0741 31.5223 12.3013 31.5184C12.5272 31.5139 12.7122 31.6429 12.7122 31.8026Z" fill="#F2F2F2"/>
<path fill-rule="evenodd" clip-rule="evenodd" d="M14.1592 31.55C14.1862 31.7068 14.0292 31.8678 13.8049 31.9103C13.5844 31.952 13.3802 31.8552 13.3522 31.6997C13.3248 31.539 13.4846 31.378 13.7049 31.3364C13.9295 31.2964 14.1306 31.3906 14.1592 31.55Z" fill="#F2F2F2"/>
</svg>
