<svg width="38" height="38" viewBox="0 0 38 38" fill="none" xmlns="http://www.w3.org/2000/svg">
<path fill-rule="evenodd" clip-rule="evenodd" d="M19 0C8.50662 0 0 8.50662 0 19C0 29.4934 8.50662 38 19 38C29.4934 38 38 29.4934 38 19C38 8.50662 29.4934 0 19 0ZM18.9714 20.5986L11.874 15.4466V26.3071H10.6882C10.0276 26.3071 9.50246 25.782 9.50246 25.1213V13.1116C9.50246 13.0613 9.50555 13.0141 9.51141 12.97C9.53294 12.7815 9.60166 12.5972 9.72271 12.434C10.1123 11.9089 10.8746 11.7903 11.4166 12.1799L18.9884 17.6851L26.6109 12.1122C27.136 11.7225 27.8814 11.8411 28.271 12.3832C28.4781 12.6623 28.5416 13.0036 28.4742 13.3207V25.1383C28.4742 25.782 27.9491 26.3071 27.2885 26.3071H26.1028V15.4207L18.9714 20.5986Z" fill="white"/>
</svg>
