<svg width="38" height="38" viewBox="0 0 38 38" fill="none" xmlns="http://www.w3.org/2000/svg">
<path fill-rule="evenodd" clip-rule="evenodd" d="M0 19C0 8.50659 8.50659 0 19 0C29.4934 0 38 8.50659 38 19C38 29.4934 29.4934 38 19 38C8.50659 38 0 29.4934 0 19ZM13.4271 15.7366H9.12128V28.6738H13.4271V15.7366ZM13.7107 11.7346C13.6828 10.4662 12.7757 9.5 11.3027 9.5C9.82967 9.5 8.86668 10.4662 8.86668 11.7346C8.86668 12.9768 9.80121 13.9708 11.2468 13.9708H11.2743C12.7757 13.9708 13.7107 12.9768 13.7107 11.7346ZM28.9555 21.256C28.9555 17.2823 26.8313 15.4328 23.9979 15.4328C21.7118 15.4328 20.6883 16.6885 20.1168 17.5694V15.737H15.8105C15.8672 16.9509 15.8105 28.6742 15.8105 28.6742H20.1168V21.449C20.1168 21.0623 20.1447 20.6766 20.2586 20.3998C20.5698 19.6273 21.2783 18.8276 22.4679 18.8276C24.0266 18.8276 24.6497 20.0139 24.6497 21.7524V28.6738H28.9553L28.9555 21.256Z" fill="#F59D19"/>
</svg>
