<svg id="enkl1cu1l371" xmlns="http://www.w3.org/2000/svg" xmlns:xlink="http://www.w3.org/1999/xlink" viewBox="0 0 450 450" shape-rendering="geometricPrecision" text-rendering="geometricPrecision"><style><![CDATA[#enkl1cu1l373_to {animation: enkl1cu1l373_to__to 3000ms linear infinite normal forwards}@keyframes enkl1cu1l373_to__to { 0% {transform: translate(-47.750000px,206.354996px)} 20% {transform: translate(32.790747px,206.354996px)} 33.333333% {transform: translate(82.486101px,206.354996px)} 53.333333% {transform: translate(116.646000px,206.354996px)} 100% {transform: translate(116.646000px,206.354996px)} }#enkl1cu1l374_ts {animation: enkl1cu1l374_ts__ts 3000ms linear infinite normal forwards}@keyframes enkl1cu1l374_ts__ts { 0% {transform: translate(207.523994px,233.317993px) scale(0.500000,0.500000)} 20% {transform: translate(207.523994px,233.317993px) scale(0.800000,0.800000)} 33.333333% {transform: translate(207.523994px,233.317993px) scale(0.600000,0.600000)} 53.333333% {transform: translate(207.523994px,233.317993px) scale(1,1)} 66.666667% {transform: translate(207.523994px,233.317993px) scale(0.600000,0.600000)} 86.666667% {transform: translate(207.523994px,233.317993px) scale(0.800000,0.800000)} 100% {transform: translate(207.523994px,233.317993px) scale(0.500000,0.500000)} }#enkl1cu1l375_to {animation: enkl1cu1l375_to__to 3000ms linear infinite normal forwards}@keyframes enkl1cu1l375_to__to { 0% {transform: translate(508px,238.230003px)} 20% {transform: translate(422.318355px,238.230003px)} 33.333333% {transform: translate(360.627570px,238.230003px)} 53.333333% {transform: translate(298.936786px,238.230003px)} 100% {transform: translate(298.936786px,238.230003px)} }]]></style><rect id="enkl1cu1l372" width="450" height="450" rx="0" ry="0" fill="#111518" stroke="none" stroke-width="1"/><g id="enkl1cu1l373_to" transform="translate(-47.750000,206.354996)"><path id="enkl1cu1l373" d="M174.500000,160.980000L79,160.980000L153.500000,255.230000" transform="translate(-126.750000,-208.104996)" fill="none" stroke="rgb(255,255,255)" stroke-width="4"/></g><g id="enkl1cu1l374_ts" transform="translate(207.523994,233.317993) scale(0.500000,0.500000)"><path id="enkl1cu1l374" d="M191.660920,198.119664C195.201178,193.671647,201.464712,190.630656,210.451521,188.996691C214.354883,188.361260,218.349020,188.043545,222.433933,188.043545C226.518847,188.043545,230.739924,188.406648,235.097164,189.132855C237.457337,186.500355,239.862897,185.184105,242.313845,185.184105C242.949276,185.184105,243.357767,185.365657,243.539319,185.728761C243.811646,186.001088,243.811646,186.318804,243.539319,186.681907C243.266991,187.045010,242.631560,187.408114,241.633026,187.771217C240.725267,188.043545,239.635957,188.724364,238.365095,189.813674C241.451474,190.721432,243.584706,191.493027,244.764793,192.128458C245.944879,192.673113,246.807249,193.399320,247.351904,194.307078C247.987335,195.214837,248.305051,195.850268,248.305051,196.213371C248.305051,197.030354,247.034189,197.030354,244.492465,196.213371C242.041517,195.396389,239.136690,194.760958,235.777983,194.307078C234.144018,198.210440,232.419277,203.566215,230.603760,210.374404C228.788243,217.182593,227.698933,221.267506,227.335829,222.629144C232.237725,221.449058,235.505656,220.859015,237.139621,220.859015C238.864362,220.859015,239.908285,220.995178,240.271388,221.267506C240.634491,221.449058,240.816043,221.721385,240.816043,222.084489C240.906819,222.447592,240.861431,222.765307,240.679879,223.037635C240.498328,223.219187,240.180612,223.219187,239.726733,223.037635C239.363629,222.856083,238.637423,222.765307,237.548112,222.765307C236.458802,222.765307,234.416346,223.173799,231.420743,223.990781C228.425139,224.716988,226.655010,225.851686,226.110355,227.394876C217.758977,250.361166,207.138203,266.337715,194.248032,275.324525C188.529153,279.409438,183.309542,281.451895,178.589198,281.451895C176.864457,281.451895,175.230491,281.179567,173.687302,280.634912C169.057734,279.091722,166.742949,275.642240,166.742949,270.286465C166.742949,265.021466,169.511613,259.211811,175.048940,252.857502C186.214369,240.058107,201.283160,230.662806,220.255313,224.671600C220.527641,223.854618,221.390011,221.176730,222.842425,216.637938C226.019579,206.289491,228.969795,198.755095,231.693070,194.034751C230.603760,194.034751,228.969795,194.034751,226.791174,194.034751C224.612554,194.034751,221.526175,194.261690,217.532037,194.715570C207.274366,195.895656,199.966910,198.482768,195.609670,202.476905C193.340273,204.655525,192.205575,207.151861,192.205575,209.965913C192.205575,211.327550,192.568679,212.553024,193.294885,213.642334C194.111868,214.731645,194.883463,215.503239,195.609670,215.957119C196.789756,216.774101,198.378333,217.681860,200.375402,218.680394C201.464712,219.497377,201.691652,219.996644,201.056221,220.178196C200.783893,220.178196,200.466178,220.132808,200.103074,220.042032C197.924454,219.588153,195.609670,218.271903,193.158722,216.093282C190.707774,213.914662,189.436912,211.418326,189.346136,208.604275C189.073808,207.605740,188.937645,206.788758,188.937645,206.153327C188.937645,203.157724,189.845403,200.479836,191.660920,198.119664ZM173.823466,269.333319C173.823466,270.331853,173.914241,271.330387,174.095793,272.328922C175.003552,275.778404,177.272948,277.503145,180.903982,277.503145C186.259757,277.503145,191.887860,273.917499,197.788290,266.746207C206.502772,256.125432,213.719452,242.962934,219.438330,227.258712C203.552557,232.432935,190.980101,240.829702,181.720965,252.449010C176.455965,258.894096,173.823466,264.522198,173.823466,269.333319Z" transform="translate(-207.523994,-233.317993)" fill="rgb(255,255,255)" stroke="none" stroke-width="1"/></g><g id="enkl1cu1l375_to" transform="translate(508,238.230003)"><path id="enkl1cu1l375" d="M236,159.230000L331.500000,159.230000L215.500000,317.230000" transform="translate(-273.500000,-238.230003)" fill="none" stroke="rgb(255,255,255)" stroke-width="4"/></g></svg>