<svg width="321" height="300" viewBox="0 0 321 300" fill="none" xmlns="http://www.w3.org/2000/svg">
<path d="M119.5 88.9803L24 88.9803L98.5 183.23" stroke="white" stroke-width="4"/>
<path d="M181 87.2303L276.5 87.2302L160.5 245.23" stroke="white" stroke-width="4"/>
<path d="M135.748 124.094C139.492 119.39 146.116 116.174 155.62 114.446C159.748 113.774 163.972 113.438 168.292 113.438C172.612 113.438 177.076 113.822 181.684 114.59C184.18 111.806 186.724 110.414 189.316 110.414C189.988 110.414 190.42 110.606 190.612 110.99C190.9 111.278 190.9 111.614 190.612 111.998C190.324 112.382 189.652 112.766 188.596 113.15C187.636 113.438 186.484 114.158 185.14 115.31C188.404 116.27 190.66 117.086 191.908 117.758C193.156 118.334 194.068 119.102 194.644 120.062C195.316 121.022 195.652 121.694 195.652 122.078C195.652 122.942 194.308 122.942 191.62 122.078C189.028 121.214 185.956 120.542 182.404 120.062C180.676 124.19 178.852 129.854 176.932 137.054C175.012 144.254 173.86 148.574 173.476 150.014C178.66 148.766 182.116 148.142 183.844 148.142C185.668 148.142 186.772 148.286 187.156 148.574C187.54 148.766 187.732 149.054 187.732 149.438C187.828 149.822 187.78 150.158 187.588 150.446C187.396 150.638 187.06 150.638 186.58 150.446C186.196 150.254 185.428 150.158 184.276 150.158C183.124 150.158 180.964 150.59 177.796 151.454C174.628 152.222 172.756 153.422 172.18 155.054C163.348 179.342 152.116 196.238 138.484 205.742C132.436 210.062 126.916 212.222 121.924 212.222C120.1 212.222 118.372 211.934 116.74 211.358C111.844 209.726 109.396 206.078 109.396 200.414C109.396 194.846 112.324 188.702 118.18 181.982C129.988 168.446 145.924 158.51 165.988 152.174C166.276 151.31 167.188 148.478 168.724 143.678C172.084 132.734 175.204 124.766 178.084 119.774C176.932 119.774 175.204 119.774 172.9 119.774C170.596 119.774 167.332 120.014 163.108 120.494C152.26 121.742 144.532 124.478 139.924 128.702C137.524 131.006 136.324 133.646 136.324 136.622C136.324 138.062 136.708 139.358 137.476 140.51C138.34 141.662 139.156 142.478 139.924 142.958C141.172 143.822 142.852 144.782 144.964 145.838C146.116 146.702 146.356 147.23 145.684 147.422C145.396 147.422 145.06 147.374 144.676 147.278C142.372 146.798 139.924 145.406 137.332 143.102C134.74 140.798 133.396 138.158 133.3 135.182C133.012 134.126 132.868 133.262 132.868 132.59C132.868 129.422 133.828 126.59 135.748 124.094ZM116.884 199.406C116.884 200.462 116.98 201.518 117.172 202.574C118.132 206.222 120.532 208.046 124.372 208.046C130.036 208.046 135.988 204.254 142.228 196.67C151.444 185.438 159.076 171.518 165.124 154.91C148.324 160.382 135.028 169.262 125.236 181.55C119.668 188.366 116.884 194.318 116.884 199.406Z" fill="white"/>
</svg>
