<svg width="649" height="163" viewBox="0 0 649 163" fill="none" xmlns="http://www.w3.org/2000/svg">
<path d="M5.328 24.528C5.38133 25.8293 5.632 26.896 6.08 27.728C6.528 28.5493 7.12 29.1573 7.856 29.552C8.592 29.936 9.392 30.128 10.256 30.128C11.12 30.128 11.8987 30 12.592 29.744C13.296 29.488 14.016 29.1093 14.752 28.608L16.016 30.384C15.2267 31.0027 14.3253 31.488 13.312 31.84C12.3093 32.192 11.28 32.368 10.224 32.368C8.592 32.368 7.2 32 6.048 31.264C4.896 30.528 4.016 29.504 3.408 28.192C2.81067 26.8693 2.512 25.3387 2.512 23.6C2.512 21.8933 2.816 20.3787 3.424 19.056C4.032 17.7333 4.88533 16.6933 5.984 15.936C7.08267 15.1787 8.37867 14.8 9.872 14.8C11.2907 14.8 12.512 15.136 13.536 15.808C14.56 16.4693 15.344 17.4187 15.888 18.656C16.4427 19.8827 16.72 21.3493 16.72 23.056C16.72 23.344 16.7147 23.616 16.704 23.872C16.6933 24.1173 16.6773 24.336 16.656 24.528H5.328ZM9.904 17.008C8.656 17.008 7.61067 17.4507 6.768 18.336C5.936 19.2213 5.46133 20.592 5.344 22.448H14.128C14.096 20.6453 13.7013 19.2907 12.944 18.384C12.1867 17.4667 11.1733 17.008 9.904 17.008ZM24.0355 32H20.9635L27.1875 23.104L21.7315 15.152H24.9155L28.8195 21.424L32.7715 15.152H35.8435L30.4035 22.992L36.6115 32H33.3155L28.7075 24.768L24.0355 32ZM49.127 14.8C50.6203 14.8 51.8097 15.1627 52.695 15.888C53.591 16.6133 54.2363 17.6373 54.631 18.96C55.0257 20.272 55.223 21.808 55.223 23.568C55.223 25.264 54.983 26.7787 54.503 28.112C54.0337 29.4347 53.319 30.4747 52.359 31.232C51.399 31.9893 50.1883 32.368 48.727 32.368C46.8817 32.368 45.399 31.7173 44.279 30.416V38.448L41.591 38.784V15.152H43.879L44.103 17.504C44.7217 16.64 45.4577 15.9733 46.311 15.504C47.175 15.0347 48.1137 14.8 49.127 14.8ZM48.487 16.96C47.559 16.96 46.7377 17.2427 46.023 17.808C45.319 18.3627 44.7377 18.9813 44.279 19.664V28.016C44.7163 28.6667 45.2657 29.184 45.927 29.568C46.599 29.9413 47.335 30.128 48.135 30.128C49.5323 30.128 50.583 29.5947 51.287 28.528C51.991 27.4613 52.343 25.8027 52.343 23.552C52.343 22.08 52.2043 20.8587 51.927 19.888C51.6497 18.9067 51.2283 18.176 50.663 17.696C50.0977 17.2053 49.3723 16.96 48.487 16.96ZM67.1945 14.8C68.7838 14.8 70.1118 15.1627 71.1785 15.888C72.2558 16.6027 73.0612 17.616 73.5945 18.928C74.1385 20.24 74.4105 21.7867 74.4105 23.568C74.4105 25.2853 74.1332 26.8053 73.5785 28.128C73.0238 29.4507 72.2078 30.4907 71.1305 31.248C70.0638 31.9947 68.7412 32.368 67.1625 32.368C65.5838 32.368 64.2558 32.0053 63.1785 31.28C62.1012 30.5547 61.2852 29.536 60.7305 28.224C60.1865 26.9013 59.9145 25.36 59.9145 23.6C59.9145 21.8613 60.1918 20.3307 60.7465 19.008C61.3012 17.6853 62.1172 16.656 63.1945 15.92C64.2825 15.1733 65.6158 14.8 67.1945 14.8ZM67.1945 16.992C65.7438 16.992 64.6452 17.5307 63.8985 18.608C63.1625 19.6747 62.7945 21.3387 62.7945 23.6C62.7945 25.8187 63.1572 27.4667 63.8825 28.544C64.6185 29.6213 65.7118 30.16 67.1625 30.16C68.6132 30.16 69.7012 29.6213 70.4265 28.544C71.1625 27.4667 71.5305 25.808 71.5305 23.568C71.5305 21.328 71.1678 19.6747 70.4425 18.608C69.7172 17.5307 68.6345 16.992 67.1945 16.992ZM80.126 32V29.936H82.75V17.216H80.126V15.152H84.798L85.294 19.136C85.9447 17.7493 86.734 16.6773 87.662 15.92C88.59 15.1627 89.8167 14.784 91.342 14.784C91.8113 14.784 92.2273 14.8213 92.59 14.896C92.9633 14.96 93.342 15.0453 93.726 15.152L92.942 17.552C92.59 17.456 92.27 17.3867 91.982 17.344C91.694 17.2907 91.3633 17.264 90.99 17.264C89.6993 17.264 88.59 17.7227 87.662 18.64C86.734 19.5573 85.9927 20.944 85.438 22.8V29.936H88.862V32H80.126ZM91.134 20.848V17.184L91.406 15.152H93.726L93.342 20.848H91.134ZM112.53 31.152C111.954 31.536 111.255 31.8347 110.434 32.048C109.612 32.2613 108.807 32.368 108.018 32.368C106.204 32.368 104.807 31.8933 103.826 30.944C102.844 29.9947 102.354 28.7733 102.354 27.28V17.232H98.4815V15.152H102.354V11.328L105.042 11.008V15.152H110.866L110.546 17.232H105.042V27.248C105.042 28.1867 105.287 28.9013 105.778 29.392C106.279 29.8827 107.106 30.128 108.258 30.128C108.887 30.128 109.468 30.0533 110.002 29.904C110.535 29.7547 111.031 29.5627 111.49 29.328L112.53 31.152ZM147.609 8.032L150.297 8.368V32H147.945L147.689 29.776C147.059 30.672 146.334 31.328 145.513 31.744C144.702 32.16 143.833 32.368 142.905 32.368C141.443 32.368 140.238 32 139.289 31.264C138.339 30.528 137.635 29.504 137.177 28.192C136.718 26.8693 136.489 25.3387 136.489 23.6C136.489 21.9147 136.75 20.4107 137.273 19.088C137.795 17.7547 138.547 16.7093 139.529 15.952C140.521 15.184 141.71 14.8 143.097 14.8C144.067 14.8 144.921 14.9707 145.657 15.312C146.393 15.6427 147.043 16.1333 147.609 16.784V8.032ZM143.801 16.96C142.393 16.96 141.31 17.5093 140.553 18.608C139.795 19.7067 139.417 21.3707 139.417 23.6C139.417 25.0507 139.571 26.2667 139.881 27.248C140.19 28.2293 140.643 28.9653 141.241 29.456C141.849 29.9467 142.59 30.192 143.465 30.192C144.425 30.192 145.241 29.92 145.913 29.376C146.595 28.832 147.161 28.2187 147.609 27.536V19.12C147.15 18.4373 146.595 17.9093 145.945 17.536C145.294 17.152 144.579 16.96 143.801 16.96ZM158.828 24.528C158.881 25.8293 159.132 26.896 159.58 27.728C160.028 28.5493 160.62 29.1573 161.356 29.552C162.092 29.936 162.892 30.128 163.756 30.128C164.62 30.128 165.399 30 166.092 29.744C166.796 29.488 167.516 29.1093 168.252 28.608L169.516 30.384C168.727 31.0027 167.825 31.488 166.812 31.84C165.809 32.192 164.78 32.368 163.724 32.368C162.092 32.368 160.7 32 159.548 31.264C158.396 30.528 157.516 29.504 156.908 28.192C156.311 26.8693 156.012 25.3387 156.012 23.6C156.012 21.8933 156.316 20.3787 156.924 19.056C157.532 17.7333 158.385 16.6933 159.484 15.936C160.583 15.1787 161.879 14.8 163.372 14.8C164.791 14.8 166.012 15.136 167.036 15.808C168.06 16.4693 168.844 17.4187 169.388 18.656C169.943 19.8827 170.22 21.3493 170.22 23.056C170.22 23.344 170.215 23.616 170.204 23.872C170.193 24.1173 170.177 24.336 170.156 24.528H158.828ZM163.404 17.008C162.156 17.008 161.111 17.4507 160.268 18.336C159.436 19.2213 158.961 20.592 158.844 22.448H167.628C167.596 20.6453 167.201 19.2907 166.444 18.384C165.687 17.4667 164.673 17.008 163.404 17.008ZM185.856 8.032C186.762 8.032 187.584 8.112 188.32 8.272C189.056 8.432 189.754 8.656 190.416 8.944L189.552 10.944C189.008 10.7093 188.432 10.5333 187.824 10.416C187.216 10.2987 186.586 10.24 185.936 10.24C184.762 10.24 183.877 10.4693 183.28 10.928C182.693 11.3867 182.4 12.0907 182.4 13.04V16.464H188.112L187.824 18.576H182.4V32H179.712V18.576H175.696V16.464H179.712V13.104C179.712 12.0587 179.978 11.1573 180.512 10.4C181.056 9.64267 181.792 9.06133 182.72 8.656C183.648 8.24 184.693 8.032 185.856 8.032ZM207.155 28.32C207.155 28.992 207.267 29.4827 207.491 29.792C207.715 30.1013 208.062 30.3307 208.531 30.48L207.875 32.368C207.15 32.272 206.515 32.0427 205.971 31.68C205.427 31.3067 205.032 30.7467 204.787 30C204.179 30.7787 203.422 31.3707 202.515 31.776C201.608 32.1707 200.606 32.368 199.507 32.368C197.822 32.368 196.494 31.8933 195.523 30.944C194.552 29.9947 194.067 28.736 194.067 27.168C194.067 25.4293 194.744 24.096 196.099 23.168C197.454 22.24 199.411 21.776 201.971 21.776H204.451V20.368C204.451 19.152 204.094 18.2933 203.379 17.792C202.675 17.28 201.694 17.024 200.435 17.024C199.88 17.024 199.23 17.0933 198.483 17.232C197.736 17.36 196.926 17.5787 196.051 17.888L195.347 15.856C196.382 15.472 197.352 15.2 198.259 15.04C199.166 14.88 200.03 14.8 200.851 14.8C202.952 14.8 204.526 15.2907 205.571 16.272C206.627 17.2427 207.155 18.5653 207.155 20.24V28.32ZM200.195 30.32C201.027 30.32 201.822 30.112 202.579 29.696C203.336 29.2693 203.96 28.6827 204.451 27.936V23.6H202.019C200.163 23.6 198.851 23.92 198.083 24.56C197.326 25.2 196.947 26.0587 196.947 27.136C196.947 28.1813 197.214 28.976 197.747 29.52C198.291 30.0533 199.107 30.32 200.195 30.32ZM216.967 15.152V27.088C216.967 28.1973 217.196 28.9973 217.655 29.488C218.113 29.9787 218.828 30.224 219.799 30.224C220.727 30.224 221.601 29.9627 222.423 29.44C223.255 28.9067 223.9 28.2773 224.359 27.552V15.152H227.047V32H224.759L224.535 29.728C223.873 30.5813 223.057 31.2373 222.087 31.696C221.116 32.144 220.135 32.368 219.142 32.368C217.511 32.368 216.289 31.936 215.479 31.072C214.679 30.1973 214.279 28.976 214.279 27.408V15.152H216.967ZM240.026 8.368V27.84C240.026 28.672 240.282 29.264 240.794 29.616C241.317 29.9573 241.989 30.128 242.81 30.128C243.322 30.128 243.807 30.0747 244.266 29.968C244.725 29.8613 245.183 29.7173 245.642 29.536L246.362 31.504C245.903 31.728 245.333 31.9253 244.65 32.096C243.978 32.2773 243.215 32.368 242.362 32.368C240.869 32.368 239.658 31.9573 238.73 31.136C237.802 30.304 237.338 29.1573 237.338 27.696V10.496H232.17V8.368H240.026ZM266.03 31.152C265.454 31.536 264.755 31.8347 263.934 32.048C263.112 32.2613 262.307 32.368 261.518 32.368C259.704 32.368 258.307 31.8933 257.326 30.944C256.344 29.9947 255.854 28.7733 255.854 27.28V17.232H251.982V15.152H255.854V11.328L258.542 11.008V15.152H264.366L264.046 17.232H258.542V27.248C258.542 28.1867 258.787 28.9013 259.278 29.392C259.779 29.8827 260.606 30.128 261.758 30.128C262.387 30.128 262.968 30.0533 263.502 29.904C264.035 29.7547 264.531 29.5627 264.99 29.328L266.03 31.152ZM300.981 8.032C301.887 8.032 302.709 8.112 303.445 8.272C304.181 8.432 304.879 8.656 305.541 8.944L304.677 10.944C304.133 10.7093 303.557 10.5333 302.949 10.416C302.341 10.2987 301.711 10.24 301.061 10.24C299.887 10.24 299.002 10.4693 298.405 10.928C297.818 11.3867 297.525 12.0907 297.525 13.04V16.464H303.237L302.949 18.576H297.525V32H294.837V18.576H290.821V16.464H294.837V13.104C294.837 12.0587 295.103 11.1573 295.637 10.4C296.181 9.64267 296.917 9.06133 297.845 8.656C298.773 8.24 299.818 8.032 300.981 8.032ZM312.904 15.152V27.088C312.904 28.1973 313.133 28.9973 313.592 29.488C314.051 29.9787 314.765 30.224 315.736 30.224C316.664 30.224 317.539 29.9627 318.36 29.44C319.192 28.9067 319.837 28.2773 320.296 27.552V15.152H322.984V32H320.696L320.472 29.728C319.811 30.5813 318.995 31.2373 318.024 31.696C317.053 32.144 316.072 32.368 315.08 32.368C313.448 32.368 312.227 31.936 311.416 31.072C310.616 30.1973 310.216 28.976 310.216 27.408V15.152H312.904ZM329.404 32V15.152H331.692L331.9 17.488C332.582 16.624 333.436 15.9627 334.46 15.504C335.494 15.0347 336.497 14.8 337.468 14.8C339.121 14.8 340.321 15.2373 341.068 16.112C341.825 16.9867 342.204 18.2027 342.204 19.76V32H339.516V21.744C339.516 20.592 339.452 19.664 339.324 18.96C339.196 18.2453 338.929 17.728 338.524 17.408C338.118 17.0773 337.489 16.912 336.636 16.912C335.974 16.912 335.35 17.056 334.764 17.344C334.188 17.632 333.67 17.9947 333.212 18.432C332.764 18.8587 332.39 19.2907 332.092 19.728V32H329.404ZM356.207 30.048C357.05 30.048 357.834 29.9093 358.559 29.632C359.295 29.3547 359.972 29.0027 360.591 28.576L361.903 30.336C361.167 30.9653 360.282 31.4613 359.247 31.824C358.212 32.1867 357.199 32.368 356.207 32.368C354.532 32.368 353.103 32.0107 351.919 31.296C350.746 30.5707 349.85 29.5573 349.231 28.256C348.612 26.944 348.303 25.408 348.303 23.648C348.303 21.9627 348.612 20.4533 349.231 19.12C349.86 17.776 350.762 16.72 351.935 15.952C353.119 15.184 354.554 14.8 356.239 14.8C357.316 14.8 358.324 14.9653 359.263 15.296C360.212 15.616 361.082 16.1013 361.871 16.752L360.559 18.544C359.844 18.0427 359.124 17.6693 358.399 17.424C357.684 17.168 356.954 17.04 356.207 17.04C354.756 17.04 353.562 17.584 352.623 18.672C351.684 19.76 351.215 21.4187 351.215 23.648C351.215 25.1413 351.428 26.3627 351.855 27.312C352.292 28.2507 352.884 28.944 353.631 29.392C354.388 29.8293 355.247 30.048 356.207 30.048ZM381.155 31.152C380.579 31.536 379.88 31.8347 379.059 32.048C378.237 32.2613 377.432 32.368 376.643 32.368C374.829 32.368 373.432 31.8933 372.451 30.944C371.469 29.9947 370.979 28.7733 370.979 27.28V17.232H367.107V15.152H370.979V11.328L373.667 11.008V15.152H379.491L379.171 17.232H373.667V27.248C373.667 28.1867 373.912 28.9013 374.403 29.392C374.904 29.8827 375.731 30.128 376.883 30.128C377.512 30.128 378.093 30.0533 378.627 29.904C379.16 29.7547 379.656 29.5627 380.115 29.328L381.155 31.152ZM395.494 15.152V29.872H400.246V32H387.606V29.872H392.806V17.28H387.766V15.152H395.494ZM393.35 7.264C393.947 7.264 394.422 7.44533 394.774 7.808C395.137 8.17067 395.318 8.61333 395.318 9.136C395.318 9.68 395.137 10.1387 394.774 10.512C394.422 10.8747 393.947 11.056 393.35 11.056C392.785 11.056 392.321 10.8747 391.958 10.512C391.595 10.1387 391.414 9.68 391.414 9.136C391.414 8.61333 391.595 8.17067 391.958 7.808C392.321 7.44533 392.785 7.264 393.35 7.264ZM412.57 14.8C414.159 14.8 415.487 15.1627 416.554 15.888C417.631 16.6027 418.436 17.616 418.97 18.928C419.514 20.24 419.786 21.7867 419.786 23.568C419.786 25.2853 419.508 26.8053 418.954 28.128C418.399 29.4507 417.583 30.4907 416.506 31.248C415.439 31.9947 414.116 32.368 412.538 32.368C410.959 32.368 409.631 32.0053 408.554 31.28C407.476 30.5547 406.66 29.536 406.106 28.224C405.562 26.9013 405.289 25.36 405.289 23.6C405.289 21.8613 405.567 20.3307 406.122 19.008C406.676 17.6853 407.492 16.656 408.57 15.92C409.658 15.1733 410.991 14.8 412.57 14.8ZM412.57 16.992C411.119 16.992 410.02 17.5307 409.274 18.608C408.538 19.6747 408.17 21.3387 408.17 23.6C408.17 25.8187 408.532 27.4667 409.258 28.544C409.994 29.6213 411.087 30.16 412.538 30.16C413.988 30.16 415.076 29.6213 415.802 28.544C416.538 27.4667 416.906 25.808 416.906 23.568C416.906 21.328 416.543 19.6747 415.818 18.608C415.092 17.5307 414.01 16.992 412.57 16.992ZM425.341 32V15.152H427.629L427.837 17.488C428.52 16.624 429.373 15.9627 430.397 15.504C431.432 15.0347 432.434 14.8 433.405 14.8C435.058 14.8 436.258 15.2373 437.005 16.112C437.762 16.9867 438.141 18.2027 438.141 19.76V32H435.453V21.744C435.453 20.592 435.389 19.664 435.261 18.96C435.133 18.2453 434.866 17.728 434.461 17.408C434.056 17.0773 433.426 16.912 432.573 16.912C431.912 16.912 431.288 17.056 430.701 17.344C430.125 17.632 429.608 17.9947 429.149 18.432C428.701 18.8587 428.328 19.2907 428.029 19.728V32H425.341ZM41.751 74V71.936H44.375V59.216H41.751V57.152H46.423L46.919 61.136C47.5697 59.7493 48.359 58.6773 49.287 57.92C50.215 57.1627 51.4417 56.784 52.967 56.784C53.4363 56.784 53.8523 56.8213 54.215 56.896C54.5883 56.96 54.967 57.0453 55.351 57.152L54.567 59.552C54.215 59.456 53.895 59.3867 53.607 59.344C53.319 59.2907 52.9883 59.264 52.615 59.264C51.3243 59.264 50.215 59.7227 49.287 60.64C48.359 61.5573 47.6177 62.944 47.063 64.8V71.936H50.487V74H41.751ZM52.759 62.848V59.184L53.031 57.152H55.351L54.967 62.848H52.759ZM62.8905 66.528C62.9438 67.8293 63.1945 68.896 63.6425 69.728C64.0905 70.5493 64.6825 71.1573 65.4185 71.552C66.1545 71.936 66.9545 72.128 67.8185 72.128C68.6825 72.128 69.4612 72 70.1545 71.744C70.8585 71.488 71.5785 71.1093 72.3145 70.608L73.5785 72.384C72.7892 73.0027 71.8878 73.488 70.8745 73.84C69.8718 74.192 68.8425 74.368 67.7865 74.368C66.1545 74.368 64.7625 74 63.6105 73.264C62.4585 72.528 61.5785 71.504 60.9705 70.192C60.3732 68.8693 60.0745 67.3387 60.0745 65.6C60.0745 63.8933 60.3785 62.3787 60.9865 61.056C61.5945 59.7333 62.4478 58.6933 63.5465 57.936C64.6452 57.1787 65.9412 56.8 67.4345 56.8C68.8532 56.8 70.0745 57.136 71.0985 57.808C72.1225 58.4693 72.9065 59.4187 73.4505 60.656C74.0052 61.8827 74.2825 63.3493 74.2825 65.056C74.2825 65.344 74.2772 65.616 74.2665 65.872C74.2558 66.1173 74.2398 66.336 74.2185 66.528H62.8905ZM67.4665 59.008C66.2185 59.008 65.1732 59.4507 64.3305 60.336C63.4985 61.2213 63.0238 62.592 62.9065 64.448H71.6905C71.6585 62.6453 71.2638 61.2907 70.5065 60.384C69.7492 59.4667 68.7358 59.008 67.4665 59.008ZM93.342 73.152C92.766 73.536 92.0673 73.8347 91.246 74.048C90.4247 74.2613 89.6193 74.368 88.83 74.368C87.0167 74.368 85.6193 73.8933 84.638 72.944C83.6567 71.9947 83.166 70.7733 83.166 69.28V59.232H79.294V57.152H83.166V53.328L85.854 53.008V57.152H91.678L91.358 59.232H85.854V69.248C85.854 70.1867 86.0993 70.9013 86.59 71.392C87.0913 71.8827 87.918 72.128 89.07 72.128C89.6993 72.128 90.2807 72.0533 90.814 71.904C91.3473 71.7547 91.8433 71.5627 92.302 71.328L93.342 73.152ZM101.842 57.152V69.088C101.842 70.1973 102.071 70.9973 102.53 71.488C102.988 71.9787 103.703 72.224 104.674 72.224C105.602 72.224 106.476 71.9627 107.298 71.44C108.13 70.9067 108.775 70.2773 109.234 69.552V57.152H111.922V74H109.634L109.41 71.728C108.748 72.5813 107.932 73.2373 106.962 73.696C105.991 74.144 105.01 74.368 104.017 74.368C102.386 74.368 101.164 73.936 100.354 73.072C99.5535 72.1973 99.1535 70.976 99.1535 69.408V57.152H101.842ZM118.501 74V71.936H121.125V59.216H118.501V57.152H123.173L123.669 61.136C124.32 59.7493 125.109 58.6773 126.037 57.92C126.965 57.1627 128.192 56.784 129.717 56.784C130.186 56.784 130.602 56.8213 130.965 56.896C131.338 56.96 131.717 57.0453 132.101 57.152L131.317 59.552C130.965 59.456 130.645 59.3867 130.357 59.344C130.069 59.2907 129.738 59.264 129.365 59.264C128.074 59.264 126.965 59.7227 126.037 60.64C125.109 61.5573 124.368 62.944 123.813 64.8V71.936H127.237V74H118.501ZM129.509 62.848V59.184L129.781 57.152H132.101L131.717 62.848H129.509ZM137.529 74V57.152H139.817L140.025 59.488C140.707 58.624 141.561 57.9627 142.585 57.504C143.619 57.0347 144.622 56.8 145.593 56.8C147.246 56.8 148.446 57.2373 149.193 58.112C149.95 58.9867 150.329 60.2027 150.329 61.76V74H147.641V63.744C147.641 62.592 147.577 61.664 147.449 60.96C147.321 60.2453 147.054 59.728 146.649 59.408C146.243 59.0773 145.614 58.912 144.761 58.912C144.099 58.912 143.475 59.056 142.889 59.344C142.313 59.632 141.795 59.9947 141.337 60.432C140.889 60.8587 140.515 61.2907 140.217 61.728V74H137.529Z" fill="#DA68BA"/>
<path d="M524.863 20.8C524.863 22.464 525.007 23.9573 525.295 25.28C525.583 26.592 526.009 27.7973 526.575 28.896C527.14 29.984 527.849 31.0187 528.703 32C529.567 32.992 530.569 33.9947 531.711 35.008L530.303 36.48C528.575 35.0613 527.092 33.6107 525.855 32.128C524.628 30.6453 523.684 28.992 523.023 27.168C522.372 25.344 522.047 23.2213 522.047 20.8C522.047 18.368 522.372 16.24 523.023 14.416C523.684 12.592 524.628 10.9387 525.855 9.456C527.092 7.97333 528.575 6.528 530.303 5.12L531.711 6.592C530.559 7.616 529.551 8.624 528.687 9.616C527.833 10.5973 527.124 11.632 526.559 12.72C525.993 13.7973 525.567 14.9973 525.279 16.32C525.001 17.632 524.863 19.1253 524.863 20.8ZM549.65 20.8C549.65 19.1253 549.506 17.632 549.218 16.32C548.941 14.9973 548.519 13.7973 547.954 12.72C547.389 11.632 546.674 10.5973 545.81 9.616C544.957 8.624 543.954 7.616 542.802 6.592L544.21 5.12C545.949 6.528 547.431 7.97333 548.658 9.456C549.885 10.9387 550.823 12.592 551.474 14.416C552.135 16.24 552.466 18.368 552.466 20.8C552.466 23.2213 552.135 25.344 551.474 27.168C550.823 28.992 549.885 30.6453 548.658 32.128C547.431 33.6107 545.949 35.0613 544.21 36.48L542.802 35.008C543.943 33.9947 544.941 32.992 545.794 32C546.658 31.0187 547.373 29.984 547.938 28.896C548.503 27.7973 548.93 26.592 549.218 25.28C549.506 23.9573 549.65 22.464 549.65 20.8ZM590.073 5.264V7.376C589.294 7.376 588.585 7.456 587.945 7.616C587.316 7.76533 586.825 8.02667 586.473 8.4C586.132 8.77333 585.988 9.28533 586.041 9.936L586.713 16.496C586.809 17.392 586.756 18.1333 586.553 18.72C586.35 19.3067 586.009 19.7653 585.529 20.096C585.06 20.4267 584.457 20.6613 583.721 20.8C584.468 20.928 585.081 21.152 585.561 21.472C586.041 21.7813 586.377 22.2293 586.569 22.816C586.761 23.392 586.809 24.1547 586.713 25.104L586.041 31.664C585.988 32.3253 586.132 32.8427 586.473 33.216C586.814 33.5893 587.305 33.8507 587.945 34C588.585 34.1493 589.294 34.224 590.073 34.224V36.336C589.177 36.336 588.318 36.256 587.497 36.096C586.676 35.9467 585.95 35.6853 585.321 35.312C584.692 34.9387 584.217 34.4267 583.897 33.776C583.577 33.136 583.47 32.3253 583.577 31.344L584.217 25.264C584.302 24.528 584.233 23.9093 584.009 23.408C583.796 22.9067 583.326 22.528 582.601 22.272C581.886 22.0053 580.814 21.872 579.385 21.872V19.728C580.814 19.728 581.886 19.6 582.601 19.344C583.326 19.088 583.796 18.7093 584.009 18.208C584.233 17.7067 584.302 17.0933 584.217 16.368L583.577 10.256C583.47 9.27467 583.577 8.464 583.897 7.824C584.217 7.17333 584.686 6.66133 585.305 6.288C585.934 5.91467 586.66 5.65333 587.481 5.504C588.313 5.344 589.177 5.264 590.073 5.264ZM187.808 54.992L189.104 57.056L177.808 63.984L189.104 70.976L187.664 72.944L175.504 65.344V62.592L187.808 54.992ZM402.249 52.016L419.354 62.592V65.344L407.21 72.944L405.754 70.96L417.05 63.984L400.953 54.048L402.249 52.016ZM390.793 77.296L388.617 76.336L402.313 48.096L404.458 49.152L390.793 77.296ZM4.752 89.264C5.648 89.264 6.50667 89.344 7.328 89.504C8.14933 89.6533 8.87467 89.9147 9.504 90.288C10.1333 90.6613 10.608 91.1733 10.928 91.824C11.2587 92.464 11.3653 93.2747 11.248 94.256L10.608 100.368C10.5227 101.093 10.6133 101.707 10.88 102.208C11.1573 102.709 11.6587 103.088 12.384 103.344C13.1093 103.6 14.128 103.728 15.44 103.728V105.872C14.1387 105.872 13.12 106.005 12.384 106.272C11.6587 106.528 11.1573 106.907 10.88 107.408C10.6133 107.909 10.5227 108.528 10.608 109.264L11.248 115.344C11.3547 116.325 11.248 117.136 10.928 117.776C10.608 118.427 10.1333 118.939 9.504 119.312C8.88533 119.685 8.16 119.947 7.328 120.096C6.50667 120.256 5.648 120.336 4.752 120.336V118.224C5.53067 118.224 6.23467 118.149 6.864 118C7.504 117.851 8 117.589 8.352 117.216C8.704 116.843 8.848 116.325 8.784 115.664L8.112 109.104C8.016 108.155 8.06933 107.392 8.272 106.816C8.47467 106.229 8.83733 105.781 9.36 105.472C9.89333 105.163 10.592 104.949 11.456 104.832C10.624 104.693 9.94133 104.453 9.408 104.112C8.88533 103.771 8.51733 103.307 8.304 102.72C8.09067 102.133 8.02667 101.392 8.112 100.496L8.784 93.936C8.848 93.2853 8.704 92.7733 8.352 92.4C8 92.0267 7.50933 91.7653 6.88 91.616C6.25067 91.456 5.54133 91.376 4.752 91.376V89.264Z" fill="white"/>
<path d="M474.372 26.384H465.652L463.892 32H461.156L468.324 9.968H471.876L479.044 32H476.132L474.372 26.384ZM466.372 24.08H473.652L470.036 12.304L466.372 24.08ZM490.44 14.8C491.933 14.8 493.122 15.1627 494.008 15.888C494.904 16.6133 495.549 17.6373 495.944 18.96C496.338 20.272 496.536 21.808 496.536 23.568C496.536 25.264 496.296 26.7787 495.816 28.112C495.346 29.4347 494.632 30.4747 493.672 31.232C492.712 31.9893 491.501 32.368 490.04 32.368C488.194 32.368 486.712 31.7173 485.592 30.416V38.448L482.904 38.784V15.152H485.192L485.416 17.504C486.034 16.64 486.77 15.9733 487.624 15.504C488.488 15.0347 489.426 14.8 490.44 14.8ZM489.8 16.96C488.872 16.96 488.05 17.2427 487.336 17.808C486.632 18.3627 486.05 18.9813 485.592 19.664V28.016C486.029 28.6667 486.578 29.184 487.24 29.568C487.912 29.9413 488.648 30.128 489.448 30.128C490.845 30.128 491.896 29.5947 492.6 28.528C493.304 27.4613 493.656 25.8027 493.656 23.552C493.656 22.08 493.517 20.8587 493.24 19.888C492.962 18.9067 492.541 18.176 491.976 17.696C491.41 17.2053 490.685 16.96 489.8 16.96ZM509.627 14.8C511.12 14.8 512.31 15.1627 513.195 15.888C514.091 16.6133 514.736 17.6373 515.131 18.96C515.526 20.272 515.723 21.808 515.723 23.568C515.723 25.264 515.483 26.7787 515.003 28.112C514.534 29.4347 513.819 30.4747 512.859 31.232C511.899 31.9893 510.688 32.368 509.227 32.368C507.382 32.368 505.899 31.7173 504.779 30.416V38.448L502.091 38.784V15.152H504.379L504.603 17.504C505.222 16.64 505.958 15.9733 506.811 15.504C507.675 15.0347 508.614 14.8 509.627 14.8ZM508.987 16.96C508.059 16.96 507.238 17.2427 506.523 17.808C505.819 18.3627 505.238 18.9813 504.779 19.664V28.016C505.216 28.6667 505.766 29.184 506.427 29.568C507.099 29.9413 507.835 30.128 508.635 30.128C510.032 30.128 511.083 29.5947 511.787 28.528C512.491 27.4613 512.843 25.8027 512.843 23.552C512.843 22.08 512.704 20.8587 512.427 19.888C512.15 18.9067 511.728 18.176 511.163 17.696C510.598 17.2053 509.872 16.96 508.987 16.96Z" fill="#2FEC85"/>
<path d="M203.331 51.616C204.771 51.616 205.976 51.7973 206.947 52.16C207.918 52.5227 208.84 53.056 209.715 53.76L208.163 55.568C207.47 54.9813 206.734 54.5653 205.955 54.32C205.187 54.064 204.382 53.936 203.539 53.936C202.334 53.936 201.219 54.224 200.195 54.8C199.171 55.3653 198.344 56.3093 197.715 57.632C197.096 58.944 196.787 60.7253 196.787 62.976C196.787 65.1627 197.08 66.9173 197.667 68.24C198.264 69.5627 199.07 70.5173 200.083 71.104C201.096 71.6907 202.227 71.984 203.475 71.984C204.712 71.984 205.726 71.7973 206.515 71.424C207.315 71.0507 208.008 70.624 208.595 70.144L210.035 71.968C209.363 72.6187 208.488 73.184 207.411 73.664C206.334 74.1333 205.011 74.368 203.443 74.368C201.662 74.368 200.046 73.9307 198.595 73.056C197.155 72.1813 196.014 70.9013 195.171 69.216C194.328 67.52 193.907 65.44 193.907 62.976C193.907 60.5013 194.334 58.4213 195.187 56.736C196.051 55.0507 197.198 53.776 198.627 52.912C200.067 52.048 201.635 51.616 203.331 51.616ZM220.695 56.8C222.284 56.8 223.612 57.1627 224.679 57.888C225.756 58.6027 226.561 59.616 227.095 60.928C227.639 62.24 227.911 63.7867 227.911 65.568C227.911 67.2853 227.633 68.8053 227.079 70.128C226.524 71.4507 225.708 72.4907 224.631 73.248C223.564 73.9947 222.241 74.368 220.663 74.368C219.084 74.368 217.756 74.0053 216.679 73.28C215.601 72.5547 214.785 71.536 214.231 70.224C213.687 68.9013 213.414 67.36 213.414 65.6C213.414 63.8613 213.692 62.3307 214.247 61.008C214.801 59.6853 215.617 58.656 216.695 57.92C217.783 57.1733 219.116 56.8 220.695 56.8ZM220.695 58.992C219.244 58.992 218.145 59.5307 217.399 60.608C216.663 61.6747 216.295 63.3387 216.295 65.6C216.295 67.8187 216.657 69.4667 217.383 70.544C218.119 71.6213 219.212 72.16 220.663 72.16C222.113 72.16 223.201 71.6213 223.927 70.544C224.663 69.4667 225.031 67.808 225.031 65.568C225.031 63.328 224.668 61.6747 223.943 60.608C223.217 59.5307 222.135 58.992 220.695 58.992ZM244.57 56.8C245.114 56.8 245.631 56.9173 246.122 57.152C246.623 57.3867 247.034 57.84 247.354 58.512C247.674 59.184 247.834 60.1653 247.834 61.456V74H245.338V61.888C245.338 60.832 245.274 60.0693 245.146 59.6C245.018 59.1307 244.65 58.896 244.042 58.896C243.541 58.896 243.039 59.056 242.538 59.376C242.047 59.6853 241.567 60.1973 241.098 60.912V74H238.586V61.888C238.586 60.832 238.522 60.0693 238.394 59.6C238.266 59.1307 237.898 58.896 237.29 58.896C236.767 58.896 236.261 59.056 235.77 59.376C235.29 59.6853 234.815 60.1973 234.346 60.912V74H231.866V57.152H233.978L234.138 59.104C234.597 58.4533 235.109 57.9093 235.674 57.472C236.25 57.024 236.959 56.8 237.802 56.8C238.442 56.8 239.045 56.9547 239.61 57.264C240.175 57.5627 240.591 58.1493 240.858 59.024C241.317 58.3627 241.834 57.8293 242.41 57.424C242.986 57.008 243.706 56.8 244.57 56.8ZM260.19 56.8C261.683 56.8 262.872 57.1627 263.758 57.888C264.654 58.6133 265.299 59.6373 265.694 60.96C266.088 62.272 266.286 63.808 266.286 65.568C266.286 67.264 266.046 68.7787 265.566 70.112C265.096 71.4347 264.382 72.4747 263.422 73.232C262.462 73.9893 261.251 74.368 259.79 74.368C257.944 74.368 256.462 73.7173 255.342 72.416V80.448L252.654 80.784V57.152H254.942L255.166 59.504C255.784 58.64 256.52 57.9733 257.374 57.504C258.238 57.0347 259.176 56.8 260.19 56.8ZM259.55 58.96C258.622 58.96 257.8 59.2427 257.086 59.808C256.382 60.3627 255.8 60.9813 255.342 61.664V70.016C255.779 70.6667 256.328 71.184 256.99 71.568C257.662 71.9413 258.398 72.128 259.198 72.128C260.595 72.128 261.646 71.5947 262.35 70.528C263.054 69.4613 263.406 67.8027 263.406 65.552C263.406 64.08 263.267 62.8587 262.99 61.888C262.712 60.9067 262.291 60.176 261.726 59.696C261.16 59.2053 260.435 58.96 259.55 58.96ZM278.257 56.8C279.846 56.8 281.174 57.1627 282.241 57.888C283.318 58.6027 284.124 59.616 284.657 60.928C285.201 62.24 285.473 63.7867 285.473 65.568C285.473 67.2853 285.196 68.8053 284.641 70.128C284.086 71.4507 283.27 72.4907 282.193 73.248C281.126 73.9947 279.804 74.368 278.225 74.368C276.646 74.368 275.318 74.0053 274.241 73.28C273.164 72.5547 272.348 71.536 271.793 70.224C271.249 68.9013 270.977 67.36 270.977 65.6C270.977 63.8613 271.254 62.3307 271.809 61.008C272.364 59.6853 273.18 58.656 274.257 57.92C275.345 57.1733 276.678 56.8 278.257 56.8ZM278.257 58.992C276.806 58.992 275.708 59.5307 274.961 60.608C274.225 61.6747 273.857 63.3387 273.857 65.6C273.857 67.8187 274.22 69.4667 274.945 70.544C275.681 71.6213 276.774 72.16 278.225 72.16C279.676 72.16 280.764 71.6213 281.489 70.544C282.225 69.4667 282.593 67.808 282.593 65.568C282.593 63.328 282.23 61.6747 281.505 60.608C280.78 59.5307 279.697 58.992 278.257 58.992ZM291.029 74V57.152H293.317L293.525 59.488C294.207 58.624 295.061 57.9627 296.085 57.504C297.119 57.0347 298.122 56.8 299.093 56.8C300.746 56.8 301.946 57.2373 302.693 58.112C303.45 58.9867 303.829 60.2027 303.829 61.76V74H301.141V63.744C301.141 62.592 301.077 61.664 300.949 60.96C300.821 60.2453 300.554 59.728 300.149 59.408C299.743 59.0773 299.114 58.912 298.261 58.912C297.599 58.912 296.975 59.056 296.389 59.344C295.813 59.632 295.295 59.9947 294.837 60.432C294.389 60.8587 294.015 61.2907 293.717 61.728V74H291.029ZM312.328 66.528C312.381 67.8293 312.632 68.896 313.08 69.728C313.528 70.5493 314.12 71.1573 314.856 71.552C315.592 71.936 316.392 72.128 317.256 72.128C318.12 72.128 318.899 72 319.592 71.744C320.296 71.488 321.016 71.1093 321.752 70.608L323.016 72.384C322.227 73.0027 321.325 73.488 320.312 73.84C319.309 74.192 318.28 74.368 317.224 74.368C315.592 74.368 314.2 74 313.048 73.264C311.896 72.528 311.016 71.504 310.408 70.192C309.811 68.8693 309.512 67.3387 309.512 65.6C309.512 63.8933 309.816 62.3787 310.424 61.056C311.032 59.7333 311.885 58.6933 312.984 57.936C314.083 57.1787 315.379 56.8 316.872 56.8C318.291 56.8 319.512 57.136 320.536 57.808C321.56 58.4693 322.344 59.4187 322.888 60.656C323.443 61.8827 323.72 63.3493 323.72 65.056C323.72 65.344 323.715 65.616 323.704 65.872C323.693 66.1173 323.677 66.336 323.656 66.528H312.328ZM316.904 59.008C315.656 59.008 314.611 59.4507 313.768 60.336C312.936 61.2213 312.461 62.592 312.344 64.448H321.128C321.096 62.6453 320.701 61.2907 319.944 60.384C319.187 59.4667 318.173 59.008 316.904 59.008ZM329.404 74V57.152H331.692L331.9 59.488C332.582 58.624 333.436 57.9627 334.46 57.504C335.494 57.0347 336.497 56.8 337.468 56.8C339.121 56.8 340.321 57.2373 341.068 58.112C341.825 58.9867 342.204 60.2027 342.204 61.76V74H339.516V63.744C339.516 62.592 339.452 61.664 339.324 60.96C339.196 60.2453 338.929 59.728 338.524 59.408C338.118 59.0773 337.489 58.912 336.636 58.912C335.974 58.912 335.35 59.056 334.764 59.344C334.188 59.632 333.67 59.9947 333.212 60.432C332.764 60.8587 332.39 61.2907 332.092 61.728V74H329.404ZM361.967 73.152C361.391 73.536 360.692 73.8347 359.871 74.048C359.05 74.2613 358.244 74.368 357.455 74.368C355.642 74.368 354.244 73.8933 353.263 72.944C352.282 71.9947 351.791 70.7733 351.791 69.28V59.232H347.919V57.152H351.791V53.328L354.479 53.008V57.152H360.303L359.983 59.232H354.479V69.248C354.479 70.1867 354.724 70.9013 355.215 71.392C355.716 71.8827 356.543 72.128 357.695 72.128C358.324 72.128 358.906 72.0533 359.439 71.904C359.972 71.7547 360.468 71.5627 360.927 71.328L361.967 73.152Z" fill="#51EAFF"/>
</svg>
