<svg width="532" height="205" viewBox="0 0 532 205" fill="none" xmlns="http://www.w3.org/2000/svg">
<path d="M6.768 29.536C6.768 29.0133 6.89067 28.544 7.136 28.128C7.38133 27.7013 7.712 27.3653 8.128 27.12C8.55467 26.864 9.03467 26.736 9.568 26.736C10.112 26.736 10.5973 26.864 11.024 27.12C11.4507 27.3653 11.7867 27.7013 12.032 28.128C12.2773 28.544 12.4 29.0133 12.4 29.536C12.4 30.0587 12.2773 30.5387 12.032 30.976C11.7867 31.4027 11.4507 31.744 11.024 32C10.5973 32.2453 10.112 32.368 9.568 32.368C9.03467 32.368 8.55467 32.2453 8.128 32C7.712 31.744 7.38133 31.4027 7.136 30.976C6.89067 30.5387 6.768 30.0587 6.768 29.536ZM30.0195 30.048C30.8622 30.048 31.6462 29.9093 32.3715 29.632C33.1075 29.3547 33.7848 29.0027 34.4035 28.576L35.7155 30.336C34.9795 30.9653 34.0942 31.4613 33.0595 31.824C32.0248 32.1867 31.0115 32.368 30.0195 32.368C28.3448 32.368 26.9155 32.0107 25.7315 31.296C24.5582 30.5707 23.6622 29.5573 23.0435 28.256C22.4248 26.944 22.1155 25.408 22.1155 23.648C22.1155 21.9627 22.4248 20.4533 23.0435 19.12C23.6728 17.776 24.5742 16.72 25.7475 15.952C26.9315 15.184 28.3662 14.8 30.0515 14.8C31.1288 14.8 32.1368 14.9653 33.0755 15.296C34.0248 15.616 34.8942 16.1013 35.6835 16.752L34.3715 18.544C33.6568 18.0427 32.9368 17.6693 32.2115 17.424C31.4968 17.168 30.7662 17.04 30.0195 17.04C28.5688 17.04 27.3742 17.584 26.4355 18.672C25.4968 19.76 25.0275 21.4187 25.0275 23.648C25.0275 25.1413 25.2408 26.3627 25.6675 27.312C26.1048 28.2507 26.6968 28.944 27.4435 29.392C28.2008 29.8293 29.0595 30.048 30.0195 30.048ZM48.007 14.8C49.5963 14.8 50.9243 15.1627 51.991 15.888C53.0683 16.6027 53.8737 17.616 54.407 18.928C54.951 20.24 55.223 21.7867 55.223 23.568C55.223 25.2853 54.9457 26.8053 54.391 28.128C53.8363 29.4507 53.0203 30.4907 51.943 31.248C50.8763 31.9947 49.5537 32.368 47.975 32.368C46.3963 32.368 45.0683 32.0053 43.991 31.28C42.9137 30.5547 42.0977 29.536 41.543 28.224C40.999 26.9013 40.727 25.36 40.727 23.6C40.727 21.8613 41.0043 20.3307 41.559 19.008C42.1137 17.6853 42.9297 16.656 44.007 15.92C45.095 15.1733 46.4283 14.8 48.007 14.8ZM48.007 16.992C46.5563 16.992 45.4577 17.5307 44.711 18.608C43.975 19.6747 43.607 21.3387 43.607 23.6C43.607 25.8187 43.9697 27.4667 44.695 28.544C45.431 29.6213 46.5243 30.16 47.975 30.16C49.4257 30.16 50.5137 29.6213 51.239 28.544C51.975 27.4667 52.343 25.808 52.343 23.568C52.343 21.328 51.9803 19.6747 51.255 18.608C50.5297 17.5307 49.447 16.992 48.007 16.992ZM60.7785 32V15.152H63.0665L63.2745 17.488C63.9572 16.624 64.8105 15.9627 65.8345 15.504C66.8692 15.0347 67.8718 14.8 68.8425 14.8C70.4958 14.8 71.6958 15.2373 72.4425 16.112C73.1998 16.9867 73.5785 18.2027 73.5785 19.76V32H70.8905V21.744C70.8905 20.592 70.8265 19.664 70.6985 18.96C70.5705 18.2453 70.3038 17.728 69.8985 17.408C69.4932 17.0773 68.8638 16.912 68.0105 16.912C67.3492 16.912 66.7252 17.056 66.1385 17.344C65.5625 17.632 65.0452 17.9947 64.5865 18.432C64.1385 18.8587 63.7652 19.2907 63.4665 19.728V32H60.7785ZM93.342 31.152C92.766 31.536 92.0673 31.8347 91.246 32.048C90.4247 32.2613 89.6193 32.368 88.83 32.368C87.0167 32.368 85.6193 31.8933 84.638 30.944C83.6567 29.9947 83.166 28.7733 83.166 27.28V17.232H79.294V15.152H83.166V11.328L85.854 11.008V15.152H91.678L91.358 17.232H85.854V27.248C85.854 28.1867 86.0993 28.9013 86.59 29.392C87.0913 29.8827 87.918 30.128 89.07 30.128C89.6993 30.128 90.2807 30.0533 90.814 29.904C91.3473 29.7547 91.8433 29.5627 92.302 29.328L93.342 31.152ZM111.218 28.32C111.218 28.992 111.33 29.4827 111.554 29.792C111.778 30.1013 112.124 30.3307 112.594 30.48L111.938 32.368C111.212 32.272 110.578 32.0427 110.034 31.68C109.49 31.3067 109.095 30.7467 108.85 30C108.242 30.7787 107.484 31.3707 106.578 31.776C105.671 32.1707 104.668 32.368 103.57 32.368C101.884 32.368 100.556 31.8933 99.5855 30.944C98.6148 29.9947 98.1295 28.736 98.1295 27.168C98.1295 25.4293 98.8068 24.096 100.161 23.168C101.516 22.24 103.474 21.776 106.034 21.776H108.514V20.368C108.514 19.152 108.156 18.2933 107.442 17.792C106.738 17.28 105.756 17.024 104.498 17.024C103.943 17.024 103.292 17.0933 102.546 17.232C101.799 17.36 100.988 17.5787 100.114 17.888L99.4095 15.856C100.444 15.472 101.415 15.2 102.322 15.04C103.228 14.88 104.092 14.8 104.914 14.8C107.015 14.8 108.588 15.2907 109.634 16.272C110.69 17.2427 111.218 18.5653 111.218 20.24V28.32ZM104.258 30.32C105.09 30.32 105.884 30.112 106.642 29.696C107.399 29.2693 108.023 28.6827 108.514 27.936V23.6H106.082C104.226 23.6 102.914 23.92 102.146 24.56C101.388 25.2 101.01 26.0587 101.01 27.136C101.01 28.1813 101.276 28.976 101.81 29.52C102.354 30.0533 103.17 30.32 104.258 30.32ZM126.869 15.152V29.872H131.621V32H118.981V29.872H124.181V17.28H119.141V15.152H126.869ZM124.725 7.264C125.322 7.264 125.797 7.44533 126.149 7.808C126.512 8.17067 126.693 8.61333 126.693 9.136C126.693 9.68 126.512 10.1387 126.149 10.512C125.797 10.8747 125.322 11.056 124.725 11.056C124.16 11.056 123.696 10.8747 123.333 10.512C122.97 10.1387 122.789 9.68 122.789 9.136C122.789 8.61333 122.97 8.17067 123.333 7.808C123.696 7.44533 124.16 7.264 124.725 7.264ZM137.529 32V15.152H139.817L140.025 17.488C140.707 16.624 141.561 15.9627 142.585 15.504C143.619 15.0347 144.622 14.8 145.593 14.8C147.246 14.8 148.446 15.2373 149.193 16.112C149.95 16.9867 150.329 18.2027 150.329 19.76V32H147.641V21.744C147.641 20.592 147.577 19.664 147.449 18.96C147.321 18.2453 147.054 17.728 146.649 17.408C146.243 17.0773 145.614 16.912 144.761 16.912C144.099 16.912 143.475 17.056 142.889 17.344C142.313 17.632 141.795 17.9947 141.337 18.432C140.889 18.8587 140.515 19.2907 140.217 19.728V32H137.529ZM158.828 24.528C158.881 25.8293 159.132 26.896 159.58 27.728C160.028 28.5493 160.62 29.1573 161.356 29.552C162.092 29.936 162.892 30.128 163.756 30.128C164.62 30.128 165.399 30 166.092 29.744C166.796 29.488 167.516 29.1093 168.252 28.608L169.516 30.384C168.727 31.0027 167.825 31.488 166.812 31.84C165.809 32.192 164.78 32.368 163.724 32.368C162.092 32.368 160.7 32 159.548 31.264C158.396 30.528 157.516 29.504 156.908 28.192C156.311 26.8693 156.012 25.3387 156.012 23.6C156.012 21.8933 156.316 20.3787 156.924 19.056C157.532 17.7333 158.385 16.6933 159.484 15.936C160.583 15.1787 161.879 14.8 163.372 14.8C164.791 14.8 166.012 15.136 167.036 15.808C168.06 16.4693 168.844 17.4187 169.388 18.656C169.943 19.8827 170.22 21.3493 170.22 23.056C170.22 23.344 170.215 23.616 170.204 23.872C170.193 24.1173 170.177 24.336 170.156 24.528H158.828ZM163.404 17.008C162.156 17.008 161.111 17.4507 160.268 18.336C159.436 19.2213 158.961 20.592 158.844 22.448H167.628C167.596 20.6453 167.201 19.2907 166.444 18.384C165.687 17.4667 164.673 17.008 163.404 17.008ZM176.064 32V29.936H178.688V17.216H176.064V15.152H180.736L181.232 19.136C181.882 17.7493 182.672 16.6773 183.6 15.92C184.528 15.1627 185.754 14.784 187.28 14.784C187.749 14.784 188.165 14.8213 188.528 14.896C188.901 14.96 189.28 15.0453 189.664 15.152L188.88 17.552C188.528 17.456 188.208 17.3867 187.92 17.344C187.632 17.2907 187.301 17.264 186.928 17.264C185.637 17.264 184.528 17.7227 183.6 18.64C182.672 19.5573 181.93 20.944 181.376 22.8V29.936H184.8V32H176.064ZM187.072 20.848V17.184L187.344 15.152H189.664L189.28 20.848H187.072Z" fill="#2FEC85"/>
<path d="M225.511 5.264V7.376C224.732 7.376 224.023 7.456 223.383 7.616C222.753 7.76533 222.263 8.02667 221.911 8.4C221.569 8.77333 221.425 9.28533 221.479 9.936L222.151 16.496C222.247 17.392 222.193 18.1333 221.991 18.72C221.788 19.3067 221.447 19.7653 220.967 20.096C220.497 20.4267 219.895 20.6613 219.159 20.8C219.905 20.928 220.519 21.152 220.999 21.472C221.479 21.7813 221.815 22.2293 222.007 22.816C222.199 23.392 222.247 24.1547 222.151 25.104L221.479 31.664C221.425 32.3253 221.569 32.8427 221.911 33.216C222.252 33.5893 222.743 33.8507 223.383 34C224.023 34.1493 224.732 34.224 225.511 34.224V36.336C224.615 36.336 223.756 36.256 222.935 36.096C222.113 35.9467 221.388 35.6853 220.759 35.312C220.129 34.9387 219.655 34.4267 219.335 33.776C219.015 33.136 218.908 32.3253 219.015 31.344L219.655 25.264C219.74 24.528 219.671 23.9093 219.447 23.408C219.233 22.9067 218.764 22.528 218.039 22.272C217.324 22.0053 216.252 21.872 214.823 21.872V19.728C216.252 19.728 217.324 19.6 218.039 19.344C218.764 19.088 219.233 18.7093 219.447 18.208C219.671 17.7067 219.74 17.0933 219.655 16.368L219.015 10.256C218.908 9.27467 219.015 8.464 219.335 7.824C219.655 7.17333 220.124 6.66133 220.743 6.288C221.372 5.91467 222.097 5.65333 222.919 5.504C223.751 5.344 224.615 5.264 225.511 5.264ZM297.381 68.704C298.127 68.704 298.746 68.96 299.237 69.472C299.738 69.9733 299.989 70.5707 299.989 71.264C299.989 71.6587 299.941 72.0533 299.845 72.448C299.759 72.8427 299.594 73.296 299.349 73.808L296.757 79.76H294.325L295.861 73.408C295.157 72.9173 294.805 72.208 294.805 71.28C294.805 70.5653 295.05 69.9573 295.541 69.456C296.042 68.9547 296.655 68.704 297.381 68.704ZM297.381 57.648C298.127 57.648 298.746 57.8987 299.237 58.4C299.738 58.9013 299.989 59.5093 299.989 60.224C299.989 60.928 299.738 61.5413 299.237 62.064C298.746 62.576 298.127 62.832 297.381 62.832C296.655 62.832 296.042 62.576 295.541 62.064C295.05 61.5413 294.805 60.928 294.805 60.224C294.805 59.7333 294.917 59.296 295.141 58.912C295.365 58.528 295.674 58.224 296.069 58C296.463 57.7653 296.901 57.648 297.381 57.648ZM489.256 110.704C490.002 110.704 490.621 110.96 491.112 111.472C491.613 111.973 491.864 112.571 491.864 113.264C491.864 113.659 491.816 114.053 491.72 114.448C491.634 114.843 491.469 115.296 491.224 115.808L488.632 121.76H486.2L487.736 115.408C487.032 114.917 486.68 114.208 486.68 113.28C486.68 112.565 486.925 111.957 487.416 111.456C487.917 110.955 488.53 110.704 489.256 110.704ZM489.256 99.648C490.002 99.648 490.621 99.8987 491.112 100.4C491.613 100.901 491.864 101.509 491.864 102.224C491.864 102.928 491.613 103.541 491.112 104.064C490.621 104.576 490.002 104.832 489.256 104.832C488.53 104.832 487.917 104.576 487.416 104.064C486.925 103.541 486.68 102.928 486.68 102.224C486.68 101.733 486.792 101.296 487.016 100.912C487.24 100.528 487.549 100.224 487.944 100C488.338 99.7653 488.776 99.648 489.256 99.648ZM412.506 152.704C413.252 152.704 413.871 152.96 414.362 153.472C414.863 153.973 415.114 154.571 415.114 155.264C415.114 155.659 415.066 156.053 414.97 156.448C414.884 156.843 414.719 157.296 414.474 157.808L411.882 163.76H409.45L410.986 157.408C410.282 156.917 409.93 156.208 409.93 155.28C409.93 154.565 410.175 153.957 410.666 153.456C411.167 152.955 411.78 152.704 412.506 152.704ZM412.506 141.648C413.252 141.648 413.871 141.899 414.362 142.4C414.863 142.901 415.114 143.509 415.114 144.224C415.114 144.928 414.863 145.541 414.362 146.064C413.871 146.576 413.252 146.832 412.506 146.832C411.78 146.832 411.167 146.576 410.666 146.064C410.175 145.541 409.93 144.928 409.93 144.224C409.93 143.733 410.042 143.296 410.266 142.912C410.49 142.528 410.799 142.224 411.194 142C411.588 141.765 412.026 141.648 412.506 141.648ZM4.752 173.264C5.648 173.264 6.50667 173.344 7.328 173.504C8.14933 173.653 8.87467 173.915 9.504 174.288C10.1333 174.661 10.608 175.173 10.928 175.824C11.2587 176.464 11.3653 177.275 11.248 178.256L10.608 184.368C10.5227 185.093 10.6133 185.707 10.88 186.208C11.1573 186.709 11.6587 187.088 12.384 187.344C13.1093 187.6 14.128 187.728 15.44 187.728V189.872C14.1387 189.872 13.12 190.005 12.384 190.272C11.6587 190.528 11.1573 190.907 10.88 191.408C10.6133 191.909 10.5227 192.528 10.608 193.264L11.248 199.344C11.3547 200.325 11.248 201.136 10.928 201.776C10.608 202.427 10.1333 202.939 9.504 203.312C8.88533 203.685 8.16 203.947 7.328 204.096C6.50667 204.256 5.648 204.336 4.752 204.336V202.224C5.53067 202.224 6.23467 202.149 6.864 202C7.504 201.851 8 201.589 8.352 201.216C8.704 200.843 8.848 200.325 8.784 199.664L8.112 193.104C8.016 192.155 8.06933 191.392 8.272 190.816C8.47467 190.229 8.83733 189.781 9.36 189.472C9.89333 189.163 10.592 188.949 11.456 188.832C10.624 188.693 9.94133 188.453 9.408 188.112C8.88533 187.771 8.51733 187.307 8.304 186.72C8.09067 186.133 8.02667 185.392 8.112 184.496L8.784 177.936C8.848 177.285 8.704 176.773 8.352 176.4C8 176.027 7.50933 175.765 6.88 175.616C6.25067 175.456 5.54133 175.376 4.752 175.376V173.264Z" fill="white"/>
<path d="M51.671 50.032L54.359 50.368V74H52.007L51.751 71.776C51.1217 72.672 50.3963 73.328 49.575 73.744C48.7643 74.16 47.895 74.368 46.967 74.368C45.5057 74.368 44.3003 74 43.351 73.264C42.4017 72.528 41.6977 71.504 41.239 70.192C40.7803 68.8693 40.551 67.3387 40.551 65.6C40.551 63.9147 40.8123 62.4107 41.335 61.088C41.8577 59.7547 42.6097 58.7093 43.591 57.952C44.583 57.184 45.7723 56.8 47.159 56.8C48.1297 56.8 48.983 56.9707 49.719 57.312C50.455 57.6427 51.1057 58.1333 51.671 58.784V50.032ZM47.863 58.96C46.455 58.96 45.3723 59.5093 44.615 60.608C43.8577 61.7067 43.479 63.3707 43.479 65.6C43.479 67.0507 43.6337 68.2667 43.943 69.248C44.2523 70.2293 44.7057 70.9653 45.303 71.456C45.911 71.9467 46.6523 72.192 47.527 72.192C48.487 72.192 49.303 71.92 49.975 71.376C50.6577 70.832 51.223 70.2187 51.671 69.536V61.12C51.2123 60.4373 50.6577 59.9093 50.007 59.536C49.3563 59.152 48.6417 58.96 47.863 58.96ZM69.3065 57.152V71.872H74.0585V74H61.4185V71.872H66.6185V59.28H61.5785V57.152H69.3065ZM67.1625 49.264C67.7598 49.264 68.2345 49.4453 68.5865 49.808C68.9492 50.1707 69.1305 50.6133 69.1305 51.136C69.1305 51.68 68.9492 52.1387 68.5865 52.512C68.2345 52.8747 67.7598 53.056 67.1625 53.056C66.5972 53.056 66.1332 52.8747 65.7705 52.512C65.4078 52.1387 65.2265 51.68 65.2265 51.136C65.2265 50.6133 65.4078 50.1707 65.7705 49.808C66.1332 49.4453 66.5972 49.264 67.1625 49.264ZM85.694 72.144C86.9847 72.144 88.0033 71.904 88.75 71.424C89.5073 70.9333 89.886 70.2827 89.886 69.472C89.886 68.96 89.79 68.5173 89.598 68.144C89.4167 67.7707 89.038 67.4347 88.462 67.136C87.886 66.8373 87.0007 66.5387 85.806 66.24C84.6433 65.952 83.63 65.6213 82.766 65.248C81.9127 64.864 81.246 64.368 80.766 63.76C80.2967 63.152 80.062 62.3627 80.062 61.392C80.062 60.4427 80.3287 59.6267 80.862 58.944C81.406 58.2507 82.158 57.7227 83.118 57.36C84.078 56.9867 85.1927 56.8 86.462 56.8C87.8167 56.8 88.9953 56.9813 89.998 57.344C91.0113 57.696 91.87 58.1333 92.574 58.656L91.39 60.48C90.75 60.0427 90.046 59.6853 89.278 59.408C88.51 59.12 87.582 58.976 86.494 58.976C85.1713 58.976 84.2327 59.184 83.678 59.6C83.1233 60.0053 82.846 60.5333 82.846 61.184C82.846 61.6747 82.9793 62.0853 83.246 62.416C83.5233 62.736 83.9873 63.0293 84.638 63.296C85.2887 63.552 86.1847 63.8347 87.326 64.144C88.4247 64.432 89.3793 64.7787 90.19 65.184C91.0113 65.5893 91.6513 66.1227 92.11 66.784C92.5687 67.4453 92.798 68.2987 92.798 69.344C92.798 70.5387 92.4567 71.5093 91.774 72.256C91.0913 72.992 90.206 73.5307 89.118 73.872C88.0407 74.2027 86.8993 74.368 85.694 74.368C84.1687 74.368 82.8673 74.1493 81.79 73.712C80.7233 73.264 79.8273 72.7253 79.102 72.096L80.638 70.32C81.2993 70.864 82.0567 71.3067 82.91 71.648C83.774 71.9787 84.702 72.144 85.694 72.144ZM106.69 56.8C108.183 56.8 109.372 57.1627 110.258 57.888C111.154 58.6133 111.799 59.6373 112.194 60.96C112.588 62.272 112.786 63.808 112.786 65.568C112.786 67.264 112.546 68.7787 112.066 70.112C111.596 71.4347 110.882 72.4747 109.922 73.232C108.962 73.9893 107.751 74.368 106.29 74.368C104.444 74.368 102.962 73.7173 101.842 72.416V80.448L99.1535 80.784V57.152H101.442L101.666 59.504C102.284 58.64 103.02 57.9733 103.874 57.504C104.738 57.0347 105.676 56.8 106.69 56.8ZM106.05 58.96C105.122 58.96 104.3 59.2427 103.586 59.808C102.882 60.3627 102.3 60.9813 101.842 61.664V70.016C102.279 70.6667 102.828 71.184 103.49 71.568C104.162 71.9413 104.898 72.128 105.698 72.128C107.095 72.128 108.146 71.5947 108.85 70.528C109.554 69.4613 109.906 67.8027 109.906 65.552C109.906 64.08 109.767 62.8587 109.49 61.888C109.212 60.9067 108.791 60.176 108.226 59.696C107.66 59.2053 106.935 58.96 106.05 58.96ZM124.901 50.368V69.84C124.901 70.672 125.157 71.264 125.669 71.616C126.192 71.9573 126.864 72.128 127.685 72.128C128.197 72.128 128.682 72.0747 129.141 71.968C129.6 71.8613 130.058 71.7173 130.517 71.536L131.237 73.504C130.778 73.728 130.208 73.9253 129.525 74.096C128.853 74.2773 128.09 74.368 127.237 74.368C125.744 74.368 124.533 73.9573 123.605 73.136C122.677 72.304 122.213 71.1573 122.213 69.696V52.496H117.045V50.368H124.901ZM149.593 70.32C149.593 70.992 149.705 71.4827 149.929 71.792C150.153 72.1013 150.499 72.3307 150.969 72.48L150.312 74.368C149.587 74.272 148.953 74.0427 148.409 73.68C147.865 73.3067 147.47 72.7467 147.225 72C146.617 72.7787 145.859 73.3707 144.953 73.776C144.046 74.1707 143.043 74.368 141.945 74.368C140.259 74.368 138.931 73.8933 137.961 72.944C136.99 71.9947 136.505 70.736 136.505 69.168C136.505 67.4293 137.182 66.096 138.536 65.168C139.891 64.24 141.849 63.776 144.409 63.776H146.889V62.368C146.889 61.152 146.531 60.2933 145.817 59.792C145.113 59.28 144.131 59.024 142.873 59.024C142.318 59.024 141.667 59.0933 140.921 59.232C140.174 59.36 139.363 59.5787 138.489 59.888L137.785 57.856C138.819 57.472 139.79 57.2 140.697 57.04C141.603 56.88 142.467 56.8 143.289 56.8C145.39 56.8 146.963 57.2907 148.009 58.272C149.065 59.2427 149.593 60.5653 149.593 62.24V70.32ZM142.633 72.32C143.465 72.32 144.259 72.112 145.017 71.696C145.774 71.2693 146.398 70.6827 146.889 69.936V65.6H144.457C142.601 65.6 141.289 65.92 140.521 66.56C139.763 67.2 139.385 68.0587 139.385 69.136C139.385 70.1813 139.651 70.976 140.185 71.52C140.729 72.0533 141.545 72.32 142.633 72.32ZM170.732 57.152L164.812 74.112C164.417 75.2533 163.916 76.2987 163.308 77.248C162.711 78.1973 161.927 78.9813 160.956 79.6C159.996 80.2293 158.775 80.6187 157.292 80.768L156.876 78.624C158.039 78.432 158.956 78.1387 159.628 77.744C160.3 77.3493 160.828 76.8427 161.212 76.224C161.607 75.6053 161.953 74.864 162.252 74H161.356L155.468 57.152H158.348L163.18 71.952L167.948 57.152H170.732ZM52.615 99.152V113.296C52.615 115.173 52.1937 116.741 51.351 118C50.5083 119.269 49.287 120.288 47.687 121.056C46.087 121.824 44.151 122.4 41.879 122.784L41.431 120.704C43.095 120.427 44.567 120.011 45.847 119.456C47.127 118.901 48.1243 118.139 48.839 117.168C49.5643 116.208 49.927 114.976 49.927 113.472V101.28H42.919V99.152H52.615ZM50.103 91.264C50.7003 91.264 51.1803 91.4453 51.543 91.808C51.9057 92.1707 52.087 92.6133 52.087 93.136C52.087 93.68 51.9057 94.1387 51.543 94.512C51.1803 94.8747 50.7003 95.056 50.103 95.056C49.527 95.056 49.063 94.8747 48.711 94.512C48.359 94.1387 48.183 93.68 48.183 93.136C48.183 92.6133 48.359 92.1707 48.711 91.808C49.063 91.4453 49.527 91.264 50.103 91.264ZM63.4665 99.152V111.088C63.4665 112.197 63.6958 112.997 64.1545 113.488C64.6132 113.979 65.3278 114.224 66.2985 114.224C67.2265 114.224 68.1012 113.963 68.9225 113.44C69.7545 112.907 70.3998 112.277 70.8585 111.552V99.152H73.5465V116H71.2585L71.0345 113.728C70.3732 114.581 69.5572 115.237 68.5865 115.696C67.6158 116.144 66.6345 116.368 65.6425 116.368C64.0105 116.368 62.7892 115.936 61.9785 115.072C61.1785 114.197 60.7785 112.976 60.7785 111.408V99.152H63.4665ZM85.694 114.144C86.9847 114.144 88.0033 113.904 88.75 113.424C89.5073 112.933 89.886 112.283 89.886 111.472C89.886 110.96 89.79 110.517 89.598 110.144C89.4167 109.771 89.038 109.435 88.462 109.136C87.886 108.837 87.0007 108.539 85.806 108.24C84.6433 107.952 83.63 107.621 82.766 107.248C81.9127 106.864 81.246 106.368 80.766 105.76C80.2967 105.152 80.062 104.363 80.062 103.392C80.062 102.443 80.3287 101.627 80.862 100.944C81.406 100.251 82.158 99.7227 83.118 99.36C84.078 98.9867 85.1927 98.8 86.462 98.8C87.8167 98.8 88.9953 98.9813 89.998 99.344C91.0113 99.696 91.87 100.133 92.574 100.656L91.39 102.48C90.75 102.043 90.046 101.685 89.278 101.408C88.51 101.12 87.582 100.976 86.494 100.976C85.1713 100.976 84.2327 101.184 83.678 101.6C83.1233 102.005 82.846 102.533 82.846 103.184C82.846 103.675 82.9793 104.085 83.246 104.416C83.5233 104.736 83.9873 105.029 84.638 105.296C85.2887 105.552 86.1847 105.835 87.326 106.144C88.4247 106.432 89.3793 106.779 90.19 107.184C91.0113 107.589 91.6513 108.123 92.11 108.784C92.5687 109.445 92.798 110.299 92.798 111.344C92.798 112.539 92.4567 113.509 91.774 114.256C91.0913 114.992 90.206 115.531 89.118 115.872C88.0407 116.203 86.8993 116.368 85.694 116.368C84.1687 116.368 82.8673 116.149 81.79 115.712C80.7233 115.264 79.8273 114.725 79.102 114.096L80.638 112.32C81.2993 112.864 82.0567 113.307 82.91 113.648C83.774 113.979 84.702 114.144 85.694 114.144ZM112.53 115.152C111.954 115.536 111.255 115.835 110.434 116.048C109.612 116.261 108.807 116.368 108.018 116.368C106.204 116.368 104.807 115.893 103.826 114.944C102.844 113.995 102.354 112.773 102.354 111.28V101.232H98.4815V99.152H102.354V95.328L105.042 95.008V99.152H110.866L110.546 101.232H105.042V111.248C105.042 112.187 105.287 112.901 105.778 113.392C106.279 113.883 107.106 114.128 108.258 114.128C108.887 114.128 109.468 114.053 110.002 113.904C110.535 113.755 111.031 113.563 111.49 113.328L112.53 115.152ZM126.869 99.152V113.872H131.621V116H118.981V113.872H124.181V101.28H119.141V99.152H126.869ZM124.725 91.264C125.322 91.264 125.797 91.4453 126.149 91.808C126.512 92.1707 126.693 92.6133 126.693 93.136C126.693 93.68 126.512 94.1387 126.149 94.512C125.797 94.8747 125.322 95.056 124.725 95.056C124.16 95.056 123.696 94.8747 123.333 94.512C122.97 94.1387 122.789 93.68 122.789 93.136C122.789 92.6133 122.97 92.1707 123.333 91.808C123.696 91.4453 124.16 91.264 124.725 91.264ZM147.481 92.032C148.387 92.032 149.209 92.112 149.945 92.272C150.681 92.432 151.379 92.656 152.041 92.944L151.177 94.944C150.633 94.7093 150.057 94.5333 149.449 94.416C148.841 94.2987 148.211 94.24 147.561 94.24C146.387 94.24 145.502 94.4693 144.905 94.928C144.318 95.3867 144.025 96.0907 144.025 97.04V100.464H149.737L149.449 102.576H144.025V116H141.337V102.576H137.321V100.464H141.337V97.104C141.337 96.0587 141.603 95.1573 142.137 94.4C142.681 93.6427 143.417 93.0613 144.345 92.656C145.273 92.24 146.318 92.032 147.481 92.032ZM170.732 99.152L164.812 116.112C164.417 117.253 163.916 118.299 163.308 119.248C162.711 120.197 161.927 120.981 160.956 121.6C159.996 122.229 158.775 122.619 157.292 122.768L156.876 120.624C158.039 120.432 158.956 120.139 159.628 119.744C160.3 119.349 160.828 118.843 161.212 118.224C161.607 117.605 161.953 116.864 162.252 116H161.356L155.468 99.152H158.348L163.18 113.952L167.948 99.152H170.732ZM175.872 108.432V106.096H188.704V108.432H175.872ZM202.707 114.048C203.55 114.048 204.334 113.909 205.059 113.632C205.795 113.355 206.472 113.003 207.091 112.576L208.403 114.336C207.667 114.965 206.782 115.461 205.747 115.824C204.712 116.187 203.699 116.368 202.707 116.368C201.032 116.368 199.603 116.011 198.419 115.296C197.246 114.571 196.35 113.557 195.731 112.256C195.112 110.944 194.803 109.408 194.803 107.648C194.803 105.963 195.112 104.453 195.731 103.12C196.36 101.776 197.262 100.72 198.435 99.952C199.619 99.184 201.054 98.8 202.739 98.8C203.816 98.8 204.824 98.9653 205.763 99.296C206.712 99.616 207.582 100.101 208.371 100.752L207.059 102.544C206.344 102.043 205.624 101.669 204.899 101.424C204.184 101.168 203.454 101.04 202.707 101.04C201.256 101.04 200.062 101.584 199.123 102.672C198.184 103.76 197.715 105.419 197.715 107.648C197.715 109.141 197.928 110.363 198.355 111.312C198.792 112.251 199.384 112.944 200.131 113.392C200.888 113.829 201.747 114.048 202.707 114.048ZM220.695 98.8C222.284 98.8 223.612 99.1627 224.679 99.888C225.756 100.603 226.561 101.616 227.095 102.928C227.639 104.24 227.911 105.787 227.911 107.568C227.911 109.285 227.633 110.805 227.079 112.128C226.524 113.451 225.708 114.491 224.631 115.248C223.564 115.995 222.241 116.368 220.663 116.368C219.084 116.368 217.756 116.005 216.679 115.28C215.601 114.555 214.785 113.536 214.231 112.224C213.687 110.901 213.414 109.36 213.414 107.6C213.414 105.861 213.692 104.331 214.247 103.008C214.801 101.685 215.617 100.656 216.695 99.92C217.783 99.1733 219.116 98.8 220.695 98.8ZM220.695 100.992C219.244 100.992 218.145 101.531 217.399 102.608C216.663 103.675 216.295 105.339 216.295 107.6C216.295 109.819 216.657 111.467 217.383 112.544C218.119 113.621 219.212 114.16 220.663 114.16C222.113 114.16 223.201 113.621 223.927 112.544C224.663 111.467 225.031 109.808 225.031 107.568C225.031 105.328 224.668 103.675 223.943 102.608C223.217 101.531 222.135 100.992 220.695 100.992ZM233.466 116V99.152H235.754L235.962 101.488C236.645 100.624 237.498 99.9627 238.522 99.504C239.557 99.0347 240.559 98.8 241.53 98.8C243.183 98.8 244.383 99.2373 245.13 100.112C245.887 100.987 246.266 102.203 246.266 103.76V116H243.578V105.744C243.578 104.592 243.514 103.664 243.386 102.96C243.258 102.245 242.991 101.728 242.586 101.408C242.181 101.077 241.551 100.912 240.698 100.912C240.037 100.912 239.413 101.056 238.826 101.344C238.25 101.632 237.733 101.995 237.274 102.432C236.826 102.859 236.453 103.291 236.154 103.728V116H233.466ZM266.03 115.152C265.454 115.536 264.755 115.835 263.934 116.048C263.112 116.261 262.307 116.368 261.518 116.368C259.704 116.368 258.307 115.893 257.326 114.944C256.344 113.995 255.854 112.773 255.854 111.28V101.232H251.982V99.152H255.854V95.328L258.542 95.008V99.152H264.366L264.046 101.232H258.542V111.248C258.542 112.187 258.787 112.901 259.278 113.392C259.779 113.883 260.606 114.128 261.758 114.128C262.387 114.128 262.968 114.053 263.502 113.904C264.035 113.755 264.531 113.563 264.99 113.328L266.03 115.152ZM273.953 108.528C274.006 109.829 274.257 110.896 274.705 111.728C275.153 112.549 275.745 113.157 276.481 113.552C277.217 113.936 278.017 114.128 278.881 114.128C279.745 114.128 280.524 114 281.217 113.744C281.921 113.488 282.641 113.109 283.377 112.608L284.641 114.384C283.852 115.003 282.95 115.488 281.937 115.84C280.934 116.192 279.905 116.368 278.849 116.368C277.217 116.368 275.825 116 274.673 115.264C273.521 114.528 272.641 113.504 272.033 112.192C271.436 110.869 271.137 109.339 271.137 107.6C271.137 105.893 271.441 104.379 272.049 103.056C272.657 101.733 273.51 100.693 274.609 99.936C275.708 99.1787 277.004 98.8 278.497 98.8C279.916 98.8 281.137 99.136 282.161 99.808C283.185 100.469 283.969 101.419 284.513 102.656C285.068 103.883 285.345 105.349 285.345 107.056C285.345 107.344 285.34 107.616 285.329 107.872C285.318 108.117 285.302 108.336 285.281 108.528H273.953ZM278.529 101.008C277.281 101.008 276.236 101.451 275.393 102.336C274.561 103.221 274.086 104.592 273.969 106.448H282.753C282.721 104.645 282.326 103.291 281.569 102.384C280.812 101.467 279.798 101.008 278.529 101.008ZM291.029 116V99.152H293.317L293.525 101.488C294.207 100.624 295.061 99.9627 296.085 99.504C297.119 99.0347 298.122 98.8 299.093 98.8C300.746 98.8 301.946 99.2373 302.693 100.112C303.45 100.987 303.829 102.203 303.829 103.76V116H301.141V105.744C301.141 104.592 301.077 103.664 300.949 102.96C300.821 102.245 300.554 101.728 300.149 101.408C299.743 101.077 299.114 100.912 298.261 100.912C297.599 100.912 296.975 101.056 296.389 101.344C295.813 101.632 295.295 101.995 294.837 102.432C294.389 102.859 294.015 103.291 293.717 103.728V116H291.029ZM323.592 115.152C323.016 115.536 322.317 115.835 321.496 116.048C320.675 116.261 319.869 116.368 319.08 116.368C317.267 116.368 315.869 115.893 314.888 114.944C313.907 113.995 313.416 112.773 313.416 111.28V101.232H309.544V99.152H313.416V95.328L316.104 95.008V99.152H321.928L321.608 101.232H316.104V111.248C316.104 112.187 316.349 112.901 316.84 113.392C317.341 113.883 318.168 114.128 319.32 114.128C319.949 114.128 320.531 114.053 321.064 113.904C321.597 113.755 322.093 113.563 322.552 113.328L323.592 115.152ZM53.655 154.32C53.655 154.992 53.767 155.483 53.991 155.792C54.215 156.101 54.5617 156.331 55.031 156.48L54.375 158.368C53.6497 158.272 53.015 158.043 52.471 157.68C51.927 157.307 51.5323 156.747 51.287 156C50.679 156.779 49.9217 157.371 49.015 157.776C48.1083 158.171 47.1057 158.368 46.007 158.368C44.3217 158.368 42.9937 157.893 42.023 156.944C41.0523 155.995 40.567 154.736 40.567 153.168C40.567 151.429 41.2443 150.096 42.599 149.168C43.9537 148.24 45.911 147.776 48.471 147.776H50.951V146.368C50.951 145.152 50.5937 144.293 49.879 143.792C49.175 143.28 48.1937 143.024 46.935 143.024C46.3803 143.024 45.7297 143.093 44.983 143.232C44.2363 143.36 43.4257 143.579 42.551 143.888L41.847 141.856C42.8817 141.472 43.8523 141.2 44.759 141.04C45.6657 140.88 46.5297 140.8 47.351 140.8C49.4523 140.8 51.0257 141.291 52.071 142.272C53.127 143.243 53.655 144.565 53.655 146.24V154.32ZM46.695 156.32C47.527 156.32 48.3217 156.112 49.079 155.696C49.8363 155.269 50.4603 154.683 50.951 153.936V149.6H48.519C46.663 149.6 45.351 149.92 44.583 150.56C43.8257 151.2 43.447 152.059 43.447 153.136C43.447 154.181 43.7137 154.976 44.247 155.52C44.791 156.053 45.607 156.32 46.695 156.32ZM67.3385 134.368V153.84C67.3385 154.672 67.5945 155.264 68.1065 155.616C68.6292 155.957 69.3012 156.128 70.1225 156.128C70.6345 156.128 71.1198 156.075 71.5785 155.968C72.0372 155.861 72.4958 155.717 72.9545 155.536L73.6745 157.504C73.2158 157.728 72.6452 157.925 71.9625 158.096C71.2905 158.277 70.5278 158.368 69.6745 158.368C68.1812 158.368 66.9705 157.957 66.0425 157.136C65.1145 156.304 64.6505 155.157 64.6505 153.696V136.496H59.4825V134.368H67.3385ZM88.494 141.152V155.872H93.246V158H80.606V155.872H85.806V143.28H80.766V141.152H88.494ZM86.35 133.264C86.9473 133.264 87.422 133.445 87.774 133.808C88.1367 134.171 88.318 134.613 88.318 135.136C88.318 135.68 88.1367 136.139 87.774 136.512C87.422 136.875 86.9473 137.056 86.35 137.056C85.7847 137.056 85.3207 136.875 84.958 136.512C84.5953 136.139 84.414 135.68 84.414 135.136C84.414 134.613 84.5953 134.171 84.958 133.808C85.3207 133.445 85.7847 133.264 86.35 133.264ZM112.85 139.36L113.682 141.888C112.967 142.112 112.204 142.251 111.394 142.304C110.583 142.357 109.703 142.384 108.754 142.384C109.724 142.832 110.455 143.413 110.946 144.128C111.436 144.832 111.682 145.664 111.682 146.624C111.682 147.733 111.431 148.72 110.93 149.584C110.428 150.448 109.703 151.125 108.754 151.616C107.815 152.107 106.679 152.352 105.345 152.352C104.78 152.352 104.306 152.325 103.922 152.272C103.548 152.219 103.186 152.139 102.834 152.032C102.578 152.203 102.364 152.437 102.194 152.736C102.034 153.035 101.954 153.344 101.954 153.664C101.954 154.069 102.114 154.405 102.434 154.672C102.754 154.939 103.346 155.072 104.21 155.072H107.25C108.38 155.072 109.394 155.275 110.29 155.68C111.196 156.085 111.906 156.629 112.418 157.312C112.94 157.995 113.201 158.773 113.201 159.648C113.201 161.301 112.498 162.571 111.09 163.456C109.692 164.341 107.714 164.784 105.154 164.784C103.362 164.784 101.948 164.597 100.914 164.224C99.8788 163.861 99.1375 163.301 98.6895 162.544C98.2522 161.797 98.0335 160.853 98.0335 159.712H100.466C100.466 160.363 100.594 160.901 100.85 161.328C101.106 161.755 101.57 162.069 102.242 162.272C102.914 162.485 103.879 162.592 105.138 162.592C106.375 162.592 107.383 162.485 108.162 162.272C108.951 162.069 109.532 161.76 109.906 161.344C110.29 160.939 110.482 160.432 110.482 159.824C110.482 159.024 110.119 158.421 109.394 158.016C108.668 157.611 107.762 157.408 106.674 157.408H103.666C102.215 157.408 101.143 157.088 100.45 156.448C99.7668 155.808 99.4255 155.072 99.4255 154.24C99.4255 153.696 99.5802 153.168 99.8895 152.656C100.21 152.144 100.674 151.691 101.282 151.296C100.311 150.784 99.5962 150.149 99.1375 149.392C98.6788 148.635 98.4495 147.717 98.4495 146.64C98.4495 145.499 98.7322 144.491 99.2975 143.616C99.8628 142.731 100.652 142.037 101.666 141.536C102.679 141.035 103.847 140.784 105.17 140.784C106.588 140.773 107.74 140.715 108.626 140.608C109.511 140.491 110.268 140.325 110.898 140.112C111.538 139.899 112.188 139.648 112.85 139.36ZM105.17 142.752C103.815 142.752 102.812 143.12 102.162 143.856C101.522 144.581 101.202 145.509 101.202 146.64C101.202 147.781 101.532 148.72 102.194 149.456C102.855 150.192 103.868 150.56 105.234 150.56C106.428 150.56 107.335 150.213 107.954 149.52C108.583 148.827 108.898 147.861 108.898 146.624C108.898 145.355 108.583 144.395 107.954 143.744C107.335 143.083 106.407 142.752 105.17 142.752ZM118.341 158V141.152H120.629L120.837 143.488C121.52 142.624 122.373 141.963 123.397 141.504C124.432 141.035 125.434 140.8 126.405 140.8C128.058 140.8 129.258 141.237 130.005 142.112C130.762 142.987 131.141 144.203 131.141 145.76V158H128.453V147.744C128.453 146.592 128.389 145.664 128.261 144.96C128.133 144.245 127.866 143.728 127.461 143.408C127.056 143.077 126.426 142.912 125.573 142.912C124.912 142.912 124.288 143.056 123.701 143.344C123.125 143.632 122.608 143.995 122.149 144.432C121.701 144.859 121.328 145.291 121.029 145.728V158H118.341ZM137.497 150.432V148.096H150.329V150.432H137.497ZM165.244 141.152V155.872H169.996V158H157.356V155.872H162.556V143.28H157.516V141.152H165.244ZM163.1 133.264C163.697 133.264 164.172 133.445 164.524 133.808C164.887 134.171 165.068 134.613 165.068 135.136C165.068 135.68 164.887 136.139 164.524 136.512C164.172 136.875 163.697 137.056 163.1 137.056C162.535 137.056 162.071 136.875 161.708 136.512C161.345 136.139 161.164 135.68 161.164 135.136C161.164 134.613 161.345 134.171 161.708 133.808C162.071 133.445 162.535 133.264 163.1 133.264ZM189.28 157.152C188.704 157.536 188.005 157.835 187.184 158.048C186.362 158.261 185.557 158.368 184.768 158.368C182.954 158.368 181.557 157.893 180.576 156.944C179.594 155.995 179.104 154.773 179.104 153.28V143.232H175.232V141.152H179.104V137.328L181.792 137.008V141.152H187.616L187.296 143.232H181.792V153.248C181.792 154.187 182.037 154.901 182.528 155.392C183.029 155.883 183.856 156.128 185.008 156.128C185.637 156.128 186.218 156.053 186.752 155.904C187.285 155.755 187.781 155.563 188.24 155.328L189.28 157.152ZM197.203 150.528C197.256 151.829 197.507 152.896 197.955 153.728C198.403 154.549 198.995 155.157 199.731 155.552C200.467 155.936 201.267 156.128 202.131 156.128C202.995 156.128 203.774 156 204.467 155.744C205.171 155.488 205.891 155.109 206.627 154.608L207.891 156.384C207.102 157.003 206.2 157.488 205.187 157.84C204.184 158.192 203.155 158.368 202.099 158.368C200.467 158.368 199.075 158 197.923 157.264C196.771 156.528 195.891 155.504 195.283 154.192C194.686 152.869 194.387 151.339 194.387 149.6C194.387 147.893 194.691 146.379 195.299 145.056C195.907 143.733 196.76 142.693 197.859 141.936C198.958 141.179 200.254 140.8 201.747 140.8C203.166 140.8 204.387 141.136 205.411 141.808C206.435 142.469 207.219 143.419 207.763 144.656C208.318 145.883 208.595 147.349 208.595 149.056C208.595 149.344 208.59 149.616 208.579 149.872C208.568 150.117 208.552 150.336 208.531 150.528H197.203ZM201.779 143.008C200.531 143.008 199.486 143.451 198.643 144.336C197.811 145.221 197.336 146.592 197.219 148.448H206.003C205.971 146.645 205.576 145.291 204.819 144.384C204.062 143.467 203.048 143.008 201.779 143.008ZM225.383 140.8C225.927 140.8 226.444 140.917 226.935 141.152C227.436 141.387 227.847 141.84 228.167 142.512C228.487 143.184 228.647 144.165 228.647 145.456V158H226.151V145.888C226.151 144.832 226.087 144.069 225.959 143.6C225.831 143.131 225.463 142.896 224.855 142.896C224.353 142.896 223.852 143.056 223.351 143.376C222.86 143.685 222.38 144.197 221.911 144.912V158H219.399V145.888C219.399 144.832 219.335 144.069 219.207 143.6C219.079 143.131 218.711 142.896 218.103 142.896C217.58 142.896 217.073 143.056 216.583 143.376C216.103 143.685 215.628 144.197 215.159 144.912V158H212.679V141.152H214.791L214.951 143.104C215.409 142.453 215.921 141.909 216.487 141.472C217.063 141.024 217.772 140.8 218.615 140.8C219.255 140.8 219.857 140.955 220.423 141.264C220.988 141.563 221.404 142.149 221.671 143.024C222.129 142.363 222.647 141.829 223.223 141.424C223.799 141.008 224.519 140.8 225.383 140.8ZM239.194 156.144C240.485 156.144 241.503 155.904 242.25 155.424C243.007 154.933 243.386 154.283 243.386 153.472C243.386 152.96 243.29 152.517 243.098 152.144C242.917 151.771 242.538 151.435 241.962 151.136C241.386 150.837 240.501 150.539 239.306 150.24C238.143 149.952 237.13 149.621 236.266 149.248C235.413 148.864 234.746 148.368 234.266 147.76C233.797 147.152 233.562 146.363 233.562 145.392C233.562 144.443 233.829 143.627 234.362 142.944C234.906 142.251 235.658 141.723 236.618 141.36C237.578 140.987 238.693 140.8 239.962 140.8C241.317 140.8 242.495 140.981 243.498 141.344C244.511 141.696 245.37 142.133 246.074 142.656L244.89 144.48C244.25 144.043 243.546 143.685 242.778 143.408C242.01 143.12 241.082 142.976 239.994 142.976C238.671 142.976 237.733 143.184 237.178 143.6C236.623 144.005 236.346 144.533 236.346 145.184C236.346 145.675 236.479 146.085 236.746 146.416C237.023 146.736 237.487 147.029 238.138 147.296C238.789 147.552 239.685 147.835 240.826 148.144C241.925 148.432 242.879 148.779 243.69 149.184C244.511 149.589 245.151 150.123 245.61 150.784C246.069 151.445 246.298 152.299 246.298 153.344C246.298 154.539 245.957 155.509 245.274 156.256C244.591 156.992 243.706 157.531 242.618 157.872C241.541 158.203 240.399 158.368 239.194 158.368C237.669 158.368 236.367 158.149 235.29 157.712C234.223 157.264 233.327 156.725 232.602 156.096L234.138 154.32C234.799 154.864 235.557 155.307 236.41 155.648C237.274 155.979 238.202 156.144 239.194 156.144Z" fill="#51EAFF"/>
<path d="M179.68 71.76C179.68 71.0667 179.925 70.464 180.416 69.952C180.917 69.44 181.53 69.184 182.256 69.184C183.002 69.184 183.621 69.44 184.112 69.952C184.613 70.464 184.864 71.0667 184.864 71.76C184.864 72.4853 184.613 73.104 184.112 73.616C183.621 74.1173 183.002 74.368 182.256 74.368C181.53 74.368 180.917 74.1173 180.416 73.616C179.925 73.104 179.68 72.4853 179.68 71.76ZM179.68 60.224C179.68 59.7333 179.792 59.296 180.016 58.912C180.24 58.528 180.549 58.224 180.944 58C181.338 57.7653 181.776 57.648 182.256 57.648C183.002 57.648 183.621 57.8987 184.112 58.4C184.613 58.9013 184.864 59.5093 184.864 60.224C184.864 60.928 184.613 61.5413 184.112 62.064C183.621 62.576 183.002 62.832 182.256 62.832C181.53 62.832 180.917 62.576 180.416 62.064C179.925 61.5413 179.68 60.928 179.68 60.224ZM333.18 113.76C333.18 113.067 333.425 112.464 333.916 111.952C334.417 111.44 335.03 111.184 335.756 111.184C336.502 111.184 337.121 111.44 337.612 111.952C338.113 112.464 338.364 113.067 338.364 113.76C338.364 114.485 338.113 115.104 337.612 115.616C337.121 116.117 336.502 116.368 335.756 116.368C335.03 116.368 334.417 116.117 333.916 115.616C333.425 115.104 333.18 114.485 333.18 113.76ZM333.18 102.224C333.18 101.733 333.292 101.296 333.516 100.912C333.74 100.528 334.049 100.224 334.444 100C334.838 99.7653 335.276 99.648 335.756 99.648C336.502 99.648 337.121 99.8987 337.612 100.4C338.113 100.901 338.364 101.509 338.364 102.224C338.364 102.928 338.113 103.541 337.612 104.064C337.121 104.576 336.502 104.832 335.756 104.832C335.03 104.832 334.417 104.576 333.916 104.064C333.425 103.541 333.18 102.928 333.18 102.224ZM256.43 155.76C256.43 155.067 256.675 154.464 257.166 153.952C257.667 153.44 258.28 153.184 259.006 153.184C259.752 153.184 260.371 153.44 260.862 153.952C261.363 154.464 261.614 155.067 261.614 155.76C261.614 156.485 261.363 157.104 260.862 157.616C260.371 158.117 259.752 158.368 259.006 158.368C258.28 158.368 257.667 158.117 257.166 157.616C256.675 157.104 256.43 156.485 256.43 155.76ZM256.43 144.224C256.43 143.733 256.542 143.296 256.766 142.912C256.99 142.528 257.299 142.224 257.694 142C258.088 141.765 258.526 141.648 259.006 141.648C259.752 141.648 260.371 141.899 260.862 142.4C261.363 142.901 261.614 143.509 261.614 144.224C261.614 144.928 261.363 145.541 260.862 146.064C260.371 146.576 259.752 146.832 259.006 146.832C258.28 146.832 257.667 146.576 257.166 146.064C256.675 145.541 256.43 144.928 256.43 144.224Z" fill="#DA68BA"/>
<path d="M224.231 50.032C225.137 50.032 225.959 50.112 226.695 50.272C227.431 50.432 228.129 50.656 228.791 50.944L227.927 52.944C227.383 52.7093 226.807 52.5333 226.199 52.416C225.591 52.2987 224.961 52.24 224.311 52.24C223.137 52.24 222.252 52.4693 221.655 52.928C221.068 53.3867 220.775 54.0907 220.775 55.04V58.464H226.487L226.199 60.576H220.775V74H218.087V60.576H214.071V58.464H218.087V55.104C218.087 54.0587 218.353 53.1573 218.887 52.4C219.431 51.6427 220.167 51.0613 221.095 50.656C222.023 50.24 223.068 50.032 224.231 50.032ZM240.026 50.368V69.84C240.026 70.672 240.282 71.264 240.794 71.616C241.317 71.9573 241.989 72.128 242.81 72.128C243.322 72.128 243.807 72.0747 244.266 71.968C244.725 71.8613 245.183 71.7173 245.642 71.536L246.362 73.504C245.903 73.728 245.333 73.9253 244.65 74.096C243.978 74.2773 243.215 74.368 242.362 74.368C240.869 74.368 239.658 73.9573 238.73 73.136C237.802 72.304 237.338 71.1573 237.338 69.696V52.496H232.17V50.368H240.026ZM254.766 66.528C254.819 67.8293 255.07 68.896 255.518 69.728C255.966 70.5493 256.558 71.1573 257.294 71.552C258.03 71.936 258.83 72.128 259.694 72.128C260.558 72.128 261.336 72 262.03 71.744C262.734 71.488 263.454 71.1093 264.19 70.608L265.454 72.384C264.664 73.0027 263.763 73.488 262.75 73.84C261.747 74.192 260.718 74.368 259.662 74.368C258.03 74.368 256.638 74 255.486 73.264C254.334 72.528 253.454 71.504 252.846 70.192C252.248 68.8693 251.95 67.3387 251.95 65.6C251.95 63.8933 252.254 62.3787 252.862 61.056C253.47 59.7333 254.323 58.6933 255.422 57.936C256.52 57.1787 257.816 56.8 259.31 56.8C260.728 56.8 261.95 57.136 262.974 57.808C263.998 58.4693 264.782 59.4187 265.326 60.656C265.88 61.8827 266.158 63.3493 266.158 65.056C266.158 65.344 266.152 65.616 266.142 65.872C266.131 66.1173 266.115 66.336 266.094 66.528H254.766ZM259.342 59.008C258.094 59.008 257.048 59.4507 256.206 60.336C255.374 61.2213 254.899 62.592 254.782 64.448H263.566C263.534 62.6453 263.139 61.2907 262.382 60.384C261.624 59.4667 260.611 59.008 259.342 59.008ZM273.473 74H270.401L276.625 65.104L271.169 57.152H274.353L278.257 63.424L282.209 57.152H285.281L279.841 64.992L286.049 74H282.753L278.145 66.768L273.473 74ZM298.645 156.048C299.487 156.048 300.271 155.909 300.997 155.632C301.733 155.355 302.41 155.003 303.029 154.576L304.34 156.336C303.605 156.965 302.719 157.461 301.685 157.824C300.65 158.187 299.637 158.368 298.645 158.368C296.97 158.368 295.541 158.011 294.357 157.296C293.183 156.571 292.287 155.557 291.669 154.256C291.05 152.944 290.741 151.408 290.741 149.648C290.741 147.963 291.05 146.453 291.669 145.12C292.298 143.776 293.199 142.72 294.373 141.952C295.557 141.184 296.991 140.8 298.677 140.8C299.754 140.8 300.762 140.965 301.701 141.296C302.65 141.616 303.519 142.101 304.309 142.752L302.997 144.544C302.282 144.043 301.562 143.669 300.837 143.424C300.122 143.168 299.391 143.04 298.645 143.04C297.194 143.04 295.999 143.584 295.061 144.672C294.122 145.76 293.653 147.419 293.653 149.648C293.653 151.141 293.866 152.363 294.293 153.312C294.73 154.251 295.322 154.944 296.069 155.392C296.826 155.829 297.685 156.048 298.645 156.048ZM312.328 150.528C312.381 151.829 312.632 152.896 313.08 153.728C313.528 154.549 314.12 155.157 314.856 155.552C315.592 155.936 316.392 156.128 317.256 156.128C318.12 156.128 318.899 156 319.592 155.744C320.296 155.488 321.016 155.109 321.752 154.608L323.016 156.384C322.227 157.003 321.325 157.488 320.312 157.84C319.309 158.192 318.28 158.368 317.224 158.368C315.592 158.368 314.2 158 313.048 157.264C311.896 156.528 311.016 155.504 310.408 154.192C309.811 152.869 309.512 151.339 309.512 149.6C309.512 147.893 309.816 146.379 310.424 145.056C311.032 143.733 311.885 142.693 312.984 141.936C314.083 141.179 315.379 140.8 316.872 140.8C318.291 140.8 319.512 141.136 320.536 141.808C321.56 142.469 322.344 143.419 322.888 144.656C323.443 145.883 323.72 147.349 323.72 149.056C323.72 149.344 323.715 149.616 323.704 149.872C323.693 150.117 323.677 150.336 323.656 150.528H312.328ZM316.904 143.008C315.656 143.008 314.611 143.451 313.768 144.336C312.936 145.221 312.461 146.592 312.344 148.448H321.128C321.096 146.645 320.701 145.291 319.944 144.384C319.187 143.467 318.173 143.008 316.904 143.008ZM329.404 158V141.152H331.692L331.9 143.488C332.582 142.624 333.436 141.963 334.46 141.504C335.494 141.035 336.497 140.8 337.468 140.8C339.121 140.8 340.321 141.237 341.068 142.112C341.825 142.987 342.204 144.203 342.204 145.76V158H339.516V147.744C339.516 146.592 339.452 145.664 339.324 144.96C339.196 144.245 338.929 143.728 338.524 143.408C338.118 143.077 337.489 142.912 336.636 142.912C335.974 142.912 335.35 143.056 334.764 143.344C334.188 143.632 333.67 143.995 333.212 144.432C332.764 144.859 332.39 145.291 332.092 145.728V158H329.404ZM361.967 157.152C361.391 157.536 360.692 157.835 359.871 158.048C359.05 158.261 358.244 158.368 357.455 158.368C355.642 158.368 354.244 157.893 353.263 156.944C352.282 155.995 351.791 154.773 351.791 153.28V143.232H347.919V141.152H351.791V137.328L354.479 137.008V141.152H360.303L359.983 143.232H354.479V153.248C354.479 154.187 354.724 154.901 355.215 155.392C355.716 155.883 356.543 156.128 357.695 156.128C358.324 156.128 358.906 156.053 359.439 155.904C359.972 155.755 360.468 155.563 360.927 155.328L361.967 157.152ZM369.891 150.528C369.944 151.829 370.195 152.896 370.643 153.728C371.091 154.549 371.683 155.157 372.419 155.552C373.155 155.936 373.955 156.128 374.819 156.128C375.683 156.128 376.461 156 377.155 155.744C377.859 155.488 378.579 155.109 379.315 154.608L380.579 156.384C379.789 157.003 378.888 157.488 377.875 157.84C376.872 158.192 375.843 158.368 374.787 158.368C373.155 158.368 371.763 158 370.611 157.264C369.459 156.528 368.579 155.504 367.971 154.192C367.373 152.869 367.075 151.339 367.075 149.6C367.075 147.893 367.379 146.379 367.987 145.056C368.595 143.733 369.448 142.693 370.547 141.936C371.645 141.179 372.941 140.8 374.435 140.8C375.853 140.8 377.075 141.136 378.099 141.808C379.123 142.469 379.907 143.419 380.451 144.656C381.005 145.883 381.283 147.349 381.283 149.056C381.283 149.344 381.277 149.616 381.267 149.872C381.256 150.117 381.24 150.336 381.219 150.528H369.891ZM374.467 143.008C373.219 143.008 372.173 143.451 371.331 144.336C370.499 145.221 370.024 146.592 369.907 148.448H378.691C378.659 146.645 378.264 145.291 377.507 144.384C376.749 143.467 375.736 143.008 374.467 143.008ZM387.126 158V155.936H389.75V143.216H387.126V141.152H391.798L392.294 145.136C392.945 143.749 393.734 142.677 394.662 141.92C395.59 141.163 396.817 140.784 398.342 140.784C398.811 140.784 399.227 140.821 399.59 140.896C399.963 140.96 400.342 141.045 400.726 141.152L399.942 143.552C399.59 143.456 399.27 143.387 398.982 143.344C398.694 143.291 398.363 143.264 397.99 143.264C396.699 143.264 395.59 143.723 394.662 144.64C393.734 145.557 392.993 146.944 392.438 148.8V155.936H395.862V158H387.126ZM398.134 146.848V143.184L398.406 141.152H400.726L400.342 146.848H398.134Z" fill="#977EFA"/>
<path d="M375.395 114.048C376.237 114.048 377.021 113.909 377.747 113.632C378.483 113.355 379.16 113.003 379.779 112.576L381.09 114.336C380.355 114.965 379.469 115.461 378.435 115.824C377.4 116.187 376.387 116.368 375.395 116.368C373.72 116.368 372.291 116.011 371.107 115.296C369.933 114.571 369.037 113.557 368.419 112.256C367.8 110.944 367.491 109.408 367.491 107.648C367.491 105.963 367.8 104.453 368.419 103.12C369.048 101.776 369.949 100.72 371.123 99.952C372.307 99.184 373.741 98.8 375.427 98.8C376.504 98.8 377.512 98.9653 378.451 99.296C379.4 99.616 380.269 100.101 381.059 100.752L379.747 102.544C379.032 102.043 378.312 101.669 377.587 101.424C376.872 101.168 376.141 101.04 375.395 101.04C373.944 101.04 372.749 101.584 371.811 102.672C370.872 103.76 370.403 105.419 370.403 107.648C370.403 109.141 370.616 110.363 371.043 111.312C371.48 112.251 372.072 112.944 372.819 113.392C373.576 113.829 374.435 114.048 375.395 114.048ZM389.078 108.528C389.131 109.829 389.382 110.896 389.83 111.728C390.278 112.549 390.87 113.157 391.606 113.552C392.342 113.936 393.142 114.128 394.006 114.128C394.87 114.128 395.649 114 396.342 113.744C397.046 113.488 397.766 113.109 398.502 112.608L399.766 114.384C398.977 115.003 398.075 115.488 397.062 115.84C396.059 116.192 395.03 116.368 393.974 116.368C392.342 116.368 390.95 116 389.798 115.264C388.646 114.528 387.766 113.504 387.158 112.192C386.561 110.869 386.262 109.339 386.262 107.6C386.262 105.893 386.566 104.379 387.174 103.056C387.782 101.733 388.635 100.693 389.734 99.936C390.833 99.1787 392.129 98.8 393.622 98.8C395.041 98.8 396.262 99.136 397.286 99.808C398.31 100.469 399.094 101.419 399.638 102.656C400.193 103.883 400.47 105.349 400.47 107.056C400.47 107.344 400.465 107.616 400.454 107.872C400.443 108.117 400.427 108.336 400.406 108.528H389.078ZM393.654 101.008C392.406 101.008 391.361 101.451 390.518 102.336C389.686 103.221 389.211 104.592 389.094 106.448H397.878C397.846 104.645 397.451 103.291 396.694 102.384C395.937 101.467 394.923 101.008 393.654 101.008ZM406.154 116V99.152H408.442L408.65 101.488C409.332 100.624 410.186 99.9627 411.21 99.504C412.244 99.0347 413.247 98.8 414.218 98.8C415.871 98.8 417.071 99.2373 417.818 100.112C418.575 100.987 418.954 102.203 418.954 103.76V116H416.266V105.744C416.266 104.592 416.202 103.664 416.074 102.96C415.946 102.245 415.679 101.728 415.274 101.408C414.868 101.077 414.239 100.912 413.386 100.912C412.724 100.912 412.1 101.056 411.514 101.344C410.938 101.632 410.42 101.995 409.962 102.432C409.514 102.859 409.14 103.291 408.842 103.728V116H406.154ZM438.717 115.152C438.141 115.536 437.442 115.835 436.621 116.048C435.8 116.261 434.994 116.368 434.205 116.368C432.392 116.368 430.994 115.893 430.013 114.944C429.032 113.995 428.541 112.773 428.541 111.28V101.232H424.669V99.152H428.541V95.328L431.229 95.008V99.152H437.053L436.733 101.232H431.229V111.248C431.229 112.187 431.474 112.901 431.965 113.392C432.466 113.883 433.293 114.128 434.445 114.128C435.074 114.128 435.656 114.053 436.189 113.904C436.722 113.755 437.218 113.563 437.677 113.328L438.717 115.152ZM446.641 108.528C446.694 109.829 446.945 110.896 447.393 111.728C447.841 112.549 448.433 113.157 449.169 113.552C449.905 113.936 450.705 114.128 451.569 114.128C452.433 114.128 453.211 114 453.905 113.744C454.609 113.488 455.329 113.109 456.065 112.608L457.329 114.384C456.539 115.003 455.638 115.488 454.625 115.84C453.622 116.192 452.593 116.368 451.537 116.368C449.905 116.368 448.513 116 447.361 115.264C446.209 114.528 445.329 113.504 444.721 112.192C444.123 110.869 443.825 109.339 443.825 107.6C443.825 105.893 444.129 104.379 444.737 103.056C445.345 101.733 446.198 100.693 447.297 99.936C448.395 99.1787 449.691 98.8 451.185 98.8C452.603 98.8 453.825 99.136 454.849 99.808C455.873 100.469 456.657 101.419 457.201 102.656C457.755 103.883 458.033 105.349 458.033 107.056C458.033 107.344 458.027 107.616 458.017 107.872C458.006 108.117 457.99 108.336 457.969 108.528H446.641ZM451.217 101.008C449.969 101.008 448.923 101.451 448.081 102.336C447.249 103.221 446.774 104.592 446.657 106.448H455.441C455.409 104.645 455.014 103.291 454.257 102.384C453.499 101.467 452.486 101.008 451.217 101.008ZM463.876 116V113.936H466.5V101.216H463.876V99.152H468.548L469.044 103.136C469.695 101.749 470.484 100.677 471.412 99.92C472.34 99.1627 473.567 98.784 475.092 98.784C475.561 98.784 475.977 98.8213 476.34 98.896C476.713 98.96 477.092 99.0453 477.476 99.152L476.692 101.552C476.34 101.456 476.02 101.387 475.732 101.344C475.444 101.291 475.113 101.264 474.74 101.264C473.449 101.264 472.34 101.723 471.412 102.64C470.484 103.557 469.743 104.944 469.188 106.8V113.936H472.612V116H463.876ZM474.884 104.848V101.184L475.156 99.152H477.476L477.092 104.848H474.884Z" fill="#977EFA"/>
</svg>
