<svg width="532" height="203" viewBox="0 0 532 203" fill="none" xmlns="http://www.w3.org/2000/svg">
<path d="M10.832 30.048C11.6747 30.048 12.4587 29.9093 13.184 29.632C13.92 29.3547 14.5973 29.0027 15.216 28.576L16.528 30.336C15.792 30.9653 14.9067 31.4613 13.872 31.824C12.8373 32.1867 11.824 32.368 10.832 32.368C9.15733 32.368 7.728 32.0107 6.544 31.296C5.37067 30.5707 4.47467 29.5573 3.856 28.256C3.23733 26.944 2.928 25.408 2.928 23.648C2.928 21.9627 3.23733 20.4533 3.856 19.12C4.48533 17.776 5.38667 16.72 6.56 15.952C7.744 15.184 9.17867 14.8 10.864 14.8C11.9413 14.8 12.9493 14.9653 13.888 15.296C14.8373 15.616 15.7067 16.1013 16.496 16.752L15.184 18.544C14.4693 18.0427 13.7493 17.6693 13.024 17.424C12.3093 17.168 11.5787 17.04 10.832 17.04C9.38133 17.04 8.18667 17.584 7.248 18.672C6.30933 19.76 5.84 21.4187 5.84 23.648C5.84 25.1413 6.05333 26.3627 6.48 27.312C6.91733 28.2507 7.50933 28.944 8.256 29.392C9.01333 29.8293 9.872 30.048 10.832 30.048ZM28.8195 14.8C30.4088 14.8 31.7368 15.1627 32.8035 15.888C33.8808 16.6027 34.6862 17.616 35.2195 18.928C35.7635 20.24 36.0355 21.7867 36.0355 23.568C36.0355 25.2853 35.7582 26.8053 35.2035 28.128C34.6488 29.4507 33.8328 30.4907 32.7555 31.248C31.6888 31.9947 30.3662 32.368 28.7875 32.368C27.2088 32.368 25.8808 32.0053 24.8035 31.28C23.7262 30.5547 22.9102 29.536 22.3555 28.224C21.8115 26.9013 21.5395 25.36 21.5395 23.6C21.5395 21.8613 21.8168 20.3307 22.3715 19.008C22.9262 17.6853 23.7422 16.656 24.8195 15.92C25.9075 15.1733 27.2408 14.8 28.8195 14.8ZM28.8195 16.992C27.3688 16.992 26.2702 17.5307 25.5235 18.608C24.7875 19.6747 24.4195 21.3387 24.4195 23.6C24.4195 25.8187 24.7822 27.4667 25.5075 28.544C26.2435 29.6213 27.3368 30.16 28.7875 30.16C30.2382 30.16 31.3262 29.6213 32.0515 28.544C32.7875 27.4667 33.1555 25.808 33.1555 23.568C33.1555 21.328 32.7928 19.6747 32.0675 18.608C31.3422 17.5307 30.2595 16.992 28.8195 16.992ZM41.591 32V15.152H43.879L44.087 17.488C44.7697 16.624 45.623 15.9627 46.647 15.504C47.6817 15.0347 48.6843 14.8 49.655 14.8C51.3083 14.8 52.5083 15.2373 53.255 16.112C54.0123 16.9867 54.391 18.2027 54.391 19.76V32H51.703V21.744C51.703 20.592 51.639 19.664 51.511 18.96C51.383 18.2453 51.1163 17.728 50.711 17.408C50.3057 17.0773 49.6763 16.912 48.823 16.912C48.1617 16.912 47.5377 17.056 46.951 17.344C46.375 17.632 45.8577 17.9947 45.399 18.432C44.951 18.8587 44.5777 19.2907 44.279 19.728V32H41.591ZM66.5065 30.144C67.7972 30.144 68.8158 29.904 69.5625 29.424C70.3198 28.9333 70.6985 28.2827 70.6985 27.472C70.6985 26.96 70.6025 26.5173 70.4105 26.144C70.2292 25.7707 69.8505 25.4347 69.2745 25.136C68.6985 24.8373 67.8132 24.5387 66.6185 24.24C65.4558 23.952 64.4425 23.6213 63.5785 23.248C62.7252 22.864 62.0585 22.368 61.5785 21.76C61.1092 21.152 60.8745 20.3627 60.8745 19.392C60.8745 18.4427 61.1412 17.6267 61.6745 16.944C62.2185 16.2507 62.9705 15.7227 63.9305 15.36C64.8905 14.9867 66.0052 14.8 67.2745 14.8C68.6292 14.8 69.8078 14.9813 70.8105 15.344C71.8238 15.696 72.6825 16.1333 73.3865 16.656L72.2025 18.48C71.5625 18.0427 70.8585 17.6853 70.0905 17.408C69.3225 17.12 68.3945 16.976 67.3065 16.976C65.9838 16.976 65.0452 17.184 64.4905 17.6C63.9358 18.0053 63.6585 18.5333 63.6585 19.184C63.6585 19.6747 63.7918 20.0853 64.0585 20.416C64.3358 20.736 64.7998 21.0293 65.4505 21.296C66.1012 21.552 66.9972 21.8347 68.1385 22.144C69.2372 22.432 70.1918 22.7787 71.0025 23.184C71.8238 23.5893 72.4638 24.1227 72.9225 24.784C73.3812 25.4453 73.6105 26.2987 73.6105 27.344C73.6105 28.5387 73.2692 29.5093 72.5865 30.256C71.9038 30.992 71.0185 31.5307 69.9305 31.872C68.8532 32.2027 67.7118 32.368 66.5065 32.368C64.9812 32.368 63.6798 32.1493 62.6025 31.712C61.5358 31.264 60.6398 30.7253 59.9145 30.096L61.4505 28.32C62.1118 28.864 62.8692 29.3067 63.7225 29.648C64.5865 29.9787 65.5145 30.144 66.5065 30.144ZM86.382 14.8C87.9713 14.8 89.2993 15.1627 90.366 15.888C91.4433 16.6027 92.2487 17.616 92.782 18.928C93.326 20.24 93.598 21.7867 93.598 23.568C93.598 25.2853 93.3207 26.8053 92.766 28.128C92.2113 29.4507 91.3953 30.4907 90.318 31.248C89.2513 31.9947 87.9287 32.368 86.35 32.368C84.7713 32.368 83.4433 32.0053 82.366 31.28C81.2887 30.5547 80.4727 29.536 79.918 28.224C79.374 26.9013 79.102 25.36 79.102 23.6C79.102 21.8613 79.3793 20.3307 79.934 19.008C80.4887 17.6853 81.3047 16.656 82.382 15.92C83.47 15.1733 84.8033 14.8 86.382 14.8ZM86.382 16.992C84.9313 16.992 83.8327 17.5307 83.086 18.608C82.35 19.6747 81.982 21.3387 81.982 23.6C81.982 25.8187 82.3447 27.4667 83.07 28.544C83.806 29.6213 84.8993 30.16 86.35 30.16C87.8007 30.16 88.8887 29.6213 89.614 28.544C90.35 27.4667 90.718 25.808 90.718 23.568C90.718 21.328 90.3553 19.6747 89.63 18.608C88.9047 17.5307 87.822 16.992 86.382 16.992ZM105.714 8.368V27.84C105.714 28.672 105.97 29.264 106.482 29.616C107.004 29.9573 107.676 30.128 108.498 30.128C109.01 30.128 109.495 30.0747 109.954 29.968C110.412 29.8613 110.871 29.7173 111.33 29.536L112.05 31.504C111.591 31.728 111.02 31.9253 110.338 32.096C109.666 32.2773 108.903 32.368 108.05 32.368C106.556 32.368 105.346 31.9573 104.418 31.136C103.49 30.304 103.026 29.1573 103.026 27.696V10.496H97.8575V8.368H105.714ZM120.453 24.528C120.506 25.8293 120.757 26.896 121.205 27.728C121.653 28.5493 122.245 29.1573 122.981 29.552C123.717 29.936 124.517 30.128 125.381 30.128C126.245 30.128 127.024 30 127.717 29.744C128.421 29.488 129.141 29.1093 129.877 28.608L131.141 30.384C130.352 31.0027 129.45 31.488 128.437 31.84C127.434 32.192 126.405 32.368 125.349 32.368C123.717 32.368 122.325 32 121.173 31.264C120.021 30.528 119.141 29.504 118.533 28.192C117.936 26.8693 117.637 25.3387 117.637 23.6C117.637 21.8933 117.941 20.3787 118.549 19.056C119.157 17.7333 120.01 16.6933 121.109 15.936C122.208 15.1787 123.504 14.8 124.997 14.8C126.416 14.8 127.637 15.136 128.661 15.808C129.685 16.4693 130.469 17.4187 131.013 18.656C131.568 19.8827 131.845 21.3493 131.845 23.056C131.845 23.344 131.84 23.616 131.829 23.872C131.818 24.1173 131.802 24.336 131.781 24.528H120.453ZM125.029 17.008C123.781 17.008 122.736 17.4507 121.893 18.336C121.061 19.2213 120.586 20.592 120.469 22.448H129.253C129.221 20.6453 128.826 19.2907 128.069 18.384C127.312 17.4667 126.298 17.008 125.029 17.008Z" fill="#977EFA"/>
<path d="M141.081 29.536C141.081 29.0133 141.203 28.544 141.449 28.128C141.694 27.7013 142.025 27.3653 142.441 27.12C142.867 26.864 143.347 26.736 143.881 26.736C144.425 26.736 144.91 26.864 145.337 27.12C145.763 27.3653 146.099 27.7013 146.345 28.128C146.59 28.544 146.713 29.0133 146.713 29.536C146.713 30.0587 146.59 30.5387 146.345 30.976C146.099 31.4027 145.763 31.744 145.337 32C144.91 32.2453 144.425 32.368 143.881 32.368C143.347 32.368 142.867 32.2453 142.441 32C142.025 31.744 141.694 31.4027 141.449 30.976C141.203 30.5387 141.081 30.0587 141.081 29.536Z" fill="white"/>
<path d="M163.276 8.368V27.84C163.276 28.672 163.532 29.264 164.044 29.616C164.567 29.9573 165.239 30.128 166.06 30.128C166.572 30.128 167.057 30.0747 167.516 29.968C167.975 29.8613 168.433 29.7173 168.892 29.536L169.612 31.504C169.153 31.728 168.583 31.9253 167.9 32.096C167.228 32.2773 166.465 32.368 165.612 32.368C164.119 32.368 162.908 31.9573 161.98 31.136C161.052 30.304 160.588 29.1573 160.588 27.696V10.496H155.42V8.368H163.276ZM182.32 14.8C183.909 14.8 185.237 15.1627 186.304 15.888C187.381 16.6027 188.186 17.616 188.72 18.928C189.264 20.24 189.536 21.7867 189.536 23.568C189.536 25.2853 189.258 26.8053 188.704 28.128C188.149 29.4507 187.333 30.4907 186.256 31.248C185.189 31.9947 183.866 32.368 182.288 32.368C180.709 32.368 179.381 32.0053 178.304 31.28C177.226 30.5547 176.41 29.536 175.856 28.224C175.312 26.9013 175.039 25.36 175.039 23.6C175.039 21.8613 175.317 20.3307 175.872 19.008C176.426 17.6853 177.242 16.656 178.32 15.92C179.408 15.1733 180.741 14.8 182.32 14.8ZM182.32 16.992C180.869 16.992 179.77 17.5307 179.024 18.608C178.288 19.6747 177.92 21.3387 177.92 23.6C177.92 25.8187 178.282 27.4667 179.008 28.544C179.744 29.6213 180.837 30.16 182.288 30.16C183.738 30.16 184.826 29.6213 185.552 28.544C186.288 27.4667 186.656 25.808 186.656 23.568C186.656 21.328 186.293 19.6747 185.568 18.608C184.842 17.5307 183.76 16.992 182.32 16.992ZM208.787 13.36L209.619 15.888C208.904 16.112 208.142 16.2507 207.331 16.304C206.52 16.3573 205.64 16.384 204.691 16.384C205.662 16.832 206.392 17.4133 206.883 18.128C207.374 18.832 207.619 19.664 207.619 20.624C207.619 21.7333 207.368 22.72 206.867 23.584C206.366 24.448 205.64 25.1253 204.691 25.616C203.752 26.1067 202.616 26.352 201.283 26.352C200.718 26.352 200.243 26.3253 199.859 26.272C199.486 26.2187 199.123 26.1387 198.771 26.032C198.515 26.2027 198.302 26.4373 198.131 26.736C197.971 27.0347 197.891 27.344 197.891 27.664C197.891 28.0693 198.051 28.4053 198.371 28.672C198.691 28.9387 199.283 29.072 200.147 29.072H203.187C204.318 29.072 205.331 29.2747 206.227 29.68C207.134 30.0853 207.843 30.6293 208.355 31.312C208.878 31.9947 209.139 32.7733 209.139 33.648C209.139 35.3013 208.435 36.5707 207.027 37.456C205.63 38.3413 203.651 38.784 201.091 38.784C199.299 38.784 197.886 38.5973 196.851 38.224C195.816 37.8613 195.075 37.3013 194.627 36.544C194.19 35.7973 193.971 34.8533 193.971 33.712H196.403C196.403 34.3627 196.531 34.9013 196.787 35.328C197.043 35.7547 197.507 36.0693 198.179 36.272C198.851 36.4853 199.816 36.592 201.075 36.592C202.312 36.592 203.32 36.4853 204.099 36.272C204.888 36.0693 205.47 35.76 205.843 35.344C206.227 34.9387 206.419 34.432 206.419 33.824C206.419 33.024 206.056 32.4213 205.331 32.016C204.606 31.6107 203.699 31.408 202.611 31.408H199.603C198.152 31.408 197.08 31.088 196.387 30.448C195.704 29.808 195.363 29.072 195.363 28.24C195.363 27.696 195.518 27.168 195.827 26.656C196.147 26.144 196.611 25.6907 197.219 25.296C196.248 24.784 195.534 24.1493 195.075 23.392C194.616 22.6347 194.387 21.7173 194.387 20.64C194.387 19.4987 194.67 18.4907 195.235 17.616C195.8 16.7307 196.59 16.0373 197.603 15.536C198.616 15.0347 199.784 14.784 201.107 14.784C202.526 14.7733 203.678 14.7147 204.563 14.608C205.448 14.4907 206.206 14.3253 206.835 14.112C207.475 13.8987 208.126 13.648 208.787 13.36ZM201.107 16.752C199.752 16.752 198.75 17.12 198.099 17.856C197.459 18.5813 197.139 19.5093 197.139 20.64C197.139 21.7813 197.47 22.72 198.131 23.456C198.792 24.192 199.806 24.56 201.171 24.56C202.366 24.56 203.272 24.2133 203.891 23.52C204.52 22.8267 204.835 21.8613 204.835 20.624C204.835 19.3547 204.52 18.3947 203.891 17.744C203.272 17.0827 202.344 16.752 201.107 16.752Z" fill="#2FEC85"/>
<path d="M217.863 20.8C217.863 22.464 218.007 23.9573 218.295 25.28C218.583 26.592 219.009 27.7973 219.575 28.896C220.14 29.984 220.849 31.0187 221.703 32C222.567 32.992 223.569 33.9947 224.711 35.008L223.303 36.48C221.575 35.0613 220.092 33.6107 218.855 32.128C217.628 30.6453 216.684 28.992 216.023 27.168C215.372 25.344 215.047 23.2213 215.047 20.8C215.047 18.368 215.372 16.24 216.023 14.416C216.684 12.592 217.628 10.9387 218.855 9.456C220.092 7.97333 221.575 6.528 223.303 5.12L224.711 6.592C223.559 7.616 222.551 8.624 221.687 9.616C220.833 10.5973 220.124 11.632 219.559 12.72C218.993 13.7973 218.567 14.9973 218.279 16.32C218.001 17.632 217.863 19.1253 217.863 20.8ZM472.9 20.8C472.9 19.1253 472.756 17.632 472.468 16.32C472.191 14.9973 471.769 13.7973 471.204 12.72C470.639 11.632 469.924 10.5973 469.06 9.616C468.207 8.624 467.204 7.616 466.052 6.592L467.46 5.12C469.199 6.528 470.681 7.97333 471.908 9.456C473.135 10.9387 474.073 12.592 474.724 14.416C475.385 16.24 475.716 18.368 475.716 20.8C475.716 23.2213 475.385 25.344 474.724 27.168C474.073 28.992 473.135 30.6453 471.908 32.128C470.681 33.6107 469.199 35.0613 467.46 36.48L466.052 35.008C467.193 33.9947 468.191 32.992 469.044 32C469.908 31.0187 470.623 29.984 471.188 28.896C471.753 27.7973 472.18 26.592 472.468 25.28C472.756 23.9573 472.9 22.464 472.9 20.8Z" fill="#DA68BA"/>
<path d="M238.586 14.384C238.586 15.0453 238.346 15.6 237.866 16.048C237.397 16.496 236.826 16.72 236.154 16.72C235.471 16.72 234.901 16.496 234.442 16.048C233.983 15.6 233.754 15.0453 233.754 14.384C233.754 14.1173 233.786 13.8293 233.85 13.52C233.914 13.2 234.069 12.784 234.314 12.272L236.906 6.752H239.034L237.722 12.624C237.989 12.8053 238.197 13.056 238.346 13.376C238.506 13.6853 238.586 14.0213 238.586 14.384ZM245.498 14.384C245.498 15.0453 245.253 15.6 244.762 16.048C244.282 16.496 243.717 16.72 243.066 16.72C242.405 16.72 241.839 16.496 241.37 16.048C240.901 15.6 240.666 15.0453 240.666 14.384C240.666 14.1173 240.698 13.8293 240.762 13.52C240.826 13.2 240.981 12.784 241.226 12.272L243.866 6.752H245.946L244.65 12.624C244.906 12.8053 245.109 13.056 245.258 13.376C245.418 13.6853 245.498 14.0213 245.498 14.384ZM260.27 30.048C261.112 30.048 261.896 29.9093 262.622 29.632C263.358 29.3547 264.035 29.0027 264.654 28.576L265.965 30.336C265.23 30.9653 264.344 31.4613 263.31 31.824C262.275 32.1867 261.262 32.368 260.27 32.368C258.595 32.368 257.166 32.0107 255.982 31.296C254.808 30.5707 253.912 29.5573 253.294 28.256C252.675 26.944 252.366 25.408 252.366 23.648C252.366 21.9627 252.675 20.4533 253.294 19.12C253.923 17.776 254.824 16.72 255.998 15.952C257.182 15.184 258.616 14.8 260.302 14.8C261.379 14.8 262.387 14.9653 263.326 15.296C264.275 15.616 265.144 16.1013 265.934 16.752L264.622 18.544C263.907 18.0427 263.187 17.6693 262.462 17.424C261.747 17.168 261.016 17.04 260.27 17.04C258.819 17.04 257.624 17.584 256.686 18.672C255.747 19.76 255.278 21.4187 255.278 23.648C255.278 25.1413 255.491 26.3627 255.918 27.312C256.355 28.2507 256.947 28.944 257.694 29.392C258.451 29.8293 259.31 30.048 260.27 30.048ZM278.257 14.8C279.846 14.8 281.174 15.1627 282.241 15.888C283.318 16.6027 284.124 17.616 284.657 18.928C285.201 20.24 285.473 21.7867 285.473 23.568C285.473 25.2853 285.196 26.8053 284.641 28.128C284.086 29.4507 283.27 30.4907 282.193 31.248C281.126 31.9947 279.804 32.368 278.225 32.368C276.646 32.368 275.318 32.0053 274.241 31.28C273.164 30.5547 272.348 29.536 271.793 28.224C271.249 26.9013 270.977 25.36 270.977 23.6C270.977 21.8613 271.254 20.3307 271.809 19.008C272.364 17.6853 273.18 16.656 274.257 15.92C275.345 15.1733 276.678 14.8 278.257 14.8ZM278.257 16.992C276.806 16.992 275.708 17.5307 274.961 18.608C274.225 19.6747 273.857 21.3387 273.857 23.6C273.857 25.8187 274.22 27.4667 274.945 28.544C275.681 29.6213 276.774 30.16 278.225 30.16C279.676 30.16 280.764 29.6213 281.489 28.544C282.225 27.4667 282.593 25.808 282.593 23.568C282.593 21.328 282.23 19.6747 281.505 18.608C280.78 17.5307 279.697 16.992 278.257 16.992ZM291.029 32V15.152H293.317L293.525 17.488C294.207 16.624 295.061 15.9627 296.085 15.504C297.119 15.0347 298.122 14.8 299.093 14.8C300.746 14.8 301.946 15.2373 302.693 16.112C303.45 16.9867 303.829 18.2027 303.829 19.76V32H301.141V21.744C301.141 20.592 301.077 19.664 300.949 18.96C300.821 18.2453 300.554 17.728 300.149 17.408C299.743 17.0773 299.114 16.912 298.261 16.912C297.599 16.912 296.975 17.056 296.389 17.344C295.813 17.632 295.295 17.9947 294.837 18.432C294.389 18.8587 294.015 19.2907 293.717 19.728V32H291.029ZM323.592 31.152C323.016 31.536 322.317 31.8347 321.496 32.048C320.675 32.2613 319.869 32.368 319.08 32.368C317.267 32.368 315.869 31.8933 314.888 30.944C313.907 29.9947 313.416 28.7733 313.416 27.28V17.232H309.544V15.152H313.416V11.328L316.104 11.008V15.152H321.928L321.608 17.232H316.104V27.248C316.104 28.1867 316.349 28.9013 316.84 29.392C317.341 29.8827 318.168 30.128 319.32 30.128C319.949 30.128 320.531 30.0533 321.064 29.904C321.597 29.7547 322.093 29.5627 322.552 29.328L323.592 31.152ZM341.468 28.32C341.468 28.992 341.58 29.4827 341.804 29.792C342.028 30.1013 342.374 30.3307 342.844 30.48L342.188 32.368C341.462 32.272 340.828 32.0427 340.284 31.68C339.74 31.3067 339.345 30.7467 339.1 30C338.492 30.7787 337.734 31.3707 336.828 31.776C335.921 32.1707 334.918 32.368 333.82 32.368C332.134 32.368 330.806 31.8933 329.836 30.944C328.865 29.9947 328.38 28.736 328.38 27.168C328.38 25.4293 329.057 24.096 330.411 23.168C331.766 22.24 333.724 21.776 336.284 21.776H338.764V20.368C338.764 19.152 338.406 18.2933 337.692 17.792C336.988 17.28 336.006 17.024 334.748 17.024C334.193 17.024 333.542 17.0933 332.796 17.232C332.049 17.36 331.238 17.5787 330.364 17.888L329.66 15.856C330.694 15.472 331.665 15.2 332.572 15.04C333.478 14.88 334.342 14.8 335.164 14.8C337.265 14.8 338.838 15.2907 339.884 16.272C340.94 17.2427 341.468 18.5653 341.468 20.24V28.32ZM334.508 30.32C335.34 30.32 336.134 30.112 336.892 29.696C337.649 29.2693 338.273 28.6827 338.764 27.936V23.6H336.332C334.476 23.6 333.164 23.92 332.396 24.56C331.638 25.2 331.26 26.0587 331.26 27.136C331.26 28.1813 331.526 28.976 332.06 29.52C332.604 30.0533 333.42 30.32 334.508 30.32ZM356.207 30.048C357.05 30.048 357.834 29.9093 358.559 29.632C359.295 29.3547 359.972 29.0027 360.591 28.576L361.903 30.336C361.167 30.9653 360.282 31.4613 359.247 31.824C358.212 32.1867 357.199 32.368 356.207 32.368C354.532 32.368 353.103 32.0107 351.919 31.296C350.746 30.5707 349.85 29.5573 349.231 28.256C348.612 26.944 348.303 25.408 348.303 23.648C348.303 21.9627 348.612 20.4533 349.231 19.12C349.86 17.776 350.762 16.72 351.935 15.952C353.119 15.184 354.554 14.8 356.239 14.8C357.316 14.8 358.324 14.9653 359.263 15.296C360.212 15.616 361.082 16.1013 361.871 16.752L360.559 18.544C359.844 18.0427 359.124 17.6693 358.399 17.424C357.684 17.168 356.954 17.04 356.207 17.04C354.756 17.04 353.562 17.584 352.623 18.672C351.684 19.76 351.215 21.4187 351.215 23.648C351.215 25.1413 351.428 26.3627 351.855 27.312C352.292 28.2507 352.884 28.944 353.631 29.392C354.388 29.8293 355.247 30.048 356.207 30.048ZM381.155 31.152C380.579 31.536 379.88 31.8347 379.059 32.048C378.237 32.2613 377.432 32.368 376.643 32.368C374.829 32.368 373.432 31.8933 372.451 30.944C371.469 29.9947 370.979 28.7733 370.979 27.28V17.232H367.107V15.152H370.979V11.328L373.667 11.008V15.152H379.491L379.171 17.232H373.667V27.248C373.667 28.1867 373.912 28.9013 374.403 29.392C374.904 29.8827 375.731 30.128 376.883 30.128C377.512 30.128 378.093 30.0533 378.627 29.904C379.16 29.7547 379.656 29.5627 380.115 29.328L381.155 31.152ZM417.258 14.8C417.802 14.8 418.319 14.9173 418.81 15.152C419.311 15.3867 419.722 15.84 420.042 16.512C420.362 17.184 420.522 18.1653 420.522 19.456V32H418.026V19.888C418.026 18.832 417.962 18.0693 417.834 17.6C417.706 17.1307 417.338 16.896 416.73 16.896C416.228 16.896 415.727 17.056 415.226 17.376C414.735 17.6853 414.255 18.1973 413.786 18.912V32H411.274V19.888C411.274 18.832 411.21 18.0693 411.082 17.6C410.954 17.1307 410.586 16.896 409.978 16.896C409.455 16.896 408.948 17.056 408.458 17.376C407.978 17.6853 407.503 18.1973 407.034 18.912V32H404.554V15.152H406.666L406.826 17.104C407.284 16.4533 407.796 15.9093 408.362 15.472C408.938 15.024 409.647 14.8 410.49 14.8C411.13 14.8 411.732 14.9547 412.298 15.264C412.863 15.5627 413.279 16.1493 413.546 17.024C414.004 16.3627 414.522 15.8293 415.098 15.424C415.674 15.008 416.394 14.8 417.258 14.8ZM427.453 24.528C427.506 25.8293 427.757 26.896 428.205 27.728C428.653 28.5493 429.245 29.1573 429.981 29.552C430.717 29.936 431.517 30.128 432.381 30.128C433.245 30.128 434.024 30 434.717 29.744C435.421 29.488 436.141 29.1093 436.877 28.608L438.141 30.384C437.352 31.0027 436.45 31.488 435.437 31.84C434.434 32.192 433.405 32.368 432.349 32.368C430.717 32.368 429.325 32 428.173 31.264C427.021 30.528 426.141 29.504 425.533 28.192C424.936 26.8693 424.637 25.3387 424.637 23.6C424.637 21.8933 424.941 20.3787 425.549 19.056C426.157 17.7333 427.01 16.6933 428.109 15.936C429.208 15.1787 430.504 14.8 431.997 14.8C433.416 14.8 434.637 15.136 435.661 15.808C436.685 16.4693 437.469 17.4187 438.013 18.656C438.568 19.8827 438.845 21.3493 438.845 23.056C438.845 23.344 438.84 23.616 438.829 23.872C438.818 24.1173 438.802 24.336 438.781 24.528H427.453ZM432.029 17.008C430.781 17.008 429.736 17.4507 428.893 18.336C428.061 19.2213 427.586 20.592 427.469 22.448H436.253C436.221 20.6453 435.826 19.2907 435.069 18.384C434.312 17.4667 433.298 17.008 432.029 17.008ZM445.233 9.136C445.233 8.47467 445.473 7.92 445.953 7.472C446.443 7.01333 447.014 6.784 447.665 6.784C448.326 6.784 448.897 7.01333 449.377 7.472C449.857 7.92 450.097 8.47467 450.097 9.136C450.097 9.424 450.054 9.71733 449.969 10.016C449.883 10.304 449.713 10.7093 449.457 11.232L446.865 16.752H444.785L446.049 10.88C445.803 10.688 445.606 10.4373 445.457 10.128C445.307 9.81867 445.233 9.488 445.233 9.136ZM452.145 9.136C452.145 8.47467 452.385 7.92 452.865 7.472C453.355 7.01333 453.926 6.784 454.577 6.784C455.249 6.784 455.819 7.01333 456.289 7.472C456.769 7.92 457.009 8.47467 457.009 9.136C457.009 9.424 456.971 9.71733 456.897 10.016C456.822 10.304 456.662 10.7093 456.417 11.232L453.793 16.752H451.697L452.993 10.88C452.737 10.688 452.529 10.4373 452.369 10.128C452.219 9.81867 452.145 9.488 452.145 9.136Z" fill="#FFE587"/>
</svg>
