<svg width="875" height="300" viewBox="0 0 875 300" fill="none" xmlns="http://www.w3.org/2000/svg">
<path d="M10.832 30.048C11.6747 30.048 12.4587 29.9093 13.184 29.632C13.92 29.3547 14.5973 29.0027 15.216 28.576L16.528 30.336C15.792 30.9653 14.9067 31.4613 13.872 31.824C12.8373 32.1867 11.824 32.368 10.832 32.368C9.15733 32.368 7.728 32.0107 6.544 31.296C5.37067 30.5707 4.47467 29.5573 3.856 28.256C3.23733 26.944 2.928 25.408 2.928 23.648C2.928 21.9627 3.23733 20.4533 3.856 19.12C4.48533 17.776 5.38667 16.72 6.56 15.952C7.744 15.184 9.17867 14.8 10.864 14.8C11.9413 14.8 12.9493 14.9653 13.888 15.296C14.8373 15.616 15.7067 16.1013 16.496 16.752L15.184 18.544C14.4693 18.0427 13.7493 17.6693 13.024 17.424C12.3093 17.168 11.5787 17.04 10.832 17.04C9.38133 17.04 8.18667 17.584 7.248 18.672C6.30933 19.76 5.84 21.4187 5.84 23.648C5.84 25.1413 6.05333 26.3627 6.48 27.312C6.91733 28.2507 7.50933 28.944 8.256 29.392C9.01333 29.8293 9.872 30.048 10.832 30.048ZM28.8195 14.8C30.4088 14.8 31.7368 15.1627 32.8035 15.888C33.8808 16.6027 34.6862 17.616 35.2195 18.928C35.7635 20.24 36.0355 21.7867 36.0355 23.568C36.0355 25.2853 35.7582 26.8053 35.2035 28.128C34.6488 29.4507 33.8328 30.4907 32.7555 31.248C31.6888 31.9947 30.3662 32.368 28.7875 32.368C27.2088 32.368 25.8808 32.0053 24.8035 31.28C23.7262 30.5547 22.9102 29.536 22.3555 28.224C21.8115 26.9013 21.5395 25.36 21.5395 23.6C21.5395 21.8613 21.8168 20.3307 22.3715 19.008C22.9262 17.6853 23.7422 16.656 24.8195 15.92C25.9075 15.1733 27.2408 14.8 28.8195 14.8ZM28.8195 16.992C27.3688 16.992 26.2702 17.5307 25.5235 18.608C24.7875 19.6747 24.4195 21.3387 24.4195 23.6C24.4195 25.8187 24.7822 27.4667 25.5075 28.544C26.2435 29.6213 27.3368 30.16 28.7875 30.16C30.2382 30.16 31.3262 29.6213 32.0515 28.544C32.7875 27.4667 33.1555 25.808 33.1555 23.568C33.1555 21.328 32.7928 19.6747 32.0675 18.608C31.3422 17.5307 30.2595 16.992 28.8195 16.992ZM41.591 32V15.152H43.879L44.087 17.488C44.7697 16.624 45.623 15.9627 46.647 15.504C47.6817 15.0347 48.6843 14.8 49.655 14.8C51.3083 14.8 52.5083 15.2373 53.255 16.112C54.0123 16.9867 54.391 18.2027 54.391 19.76V32H51.703V21.744C51.703 20.592 51.639 19.664 51.511 18.96C51.383 18.2453 51.1163 17.728 50.711 17.408C50.3057 17.0773 49.6763 16.912 48.823 16.912C48.1617 16.912 47.5377 17.056 46.951 17.344C46.375 17.632 45.8577 17.9947 45.399 18.432C44.951 18.8587 44.5777 19.2907 44.279 19.728V32H41.591ZM66.5065 30.144C67.7972 30.144 68.8158 29.904 69.5625 29.424C70.3198 28.9333 70.6985 28.2827 70.6985 27.472C70.6985 26.96 70.6025 26.5173 70.4105 26.144C70.2292 25.7707 69.8505 25.4347 69.2745 25.136C68.6985 24.8373 67.8132 24.5387 66.6185 24.24C65.4558 23.952 64.4425 23.6213 63.5785 23.248C62.7252 22.864 62.0585 22.368 61.5785 21.76C61.1092 21.152 60.8745 20.3627 60.8745 19.392C60.8745 18.4427 61.1412 17.6267 61.6745 16.944C62.2185 16.2507 62.9705 15.7227 63.9305 15.36C64.8905 14.9867 66.0052 14.8 67.2745 14.8C68.6292 14.8 69.8078 14.9813 70.8105 15.344C71.8238 15.696 72.6825 16.1333 73.3865 16.656L72.2025 18.48C71.5625 18.0427 70.8585 17.6853 70.0905 17.408C69.3225 17.12 68.3945 16.976 67.3065 16.976C65.9838 16.976 65.0452 17.184 64.4905 17.6C63.9358 18.0053 63.6585 18.5333 63.6585 19.184C63.6585 19.6747 63.7918 20.0853 64.0585 20.416C64.3358 20.736 64.7998 21.0293 65.4505 21.296C66.1012 21.552 66.9972 21.8347 68.1385 22.144C69.2372 22.432 70.1918 22.7787 71.0025 23.184C71.8238 23.5893 72.4638 24.1227 72.9225 24.784C73.3812 25.4453 73.6105 26.2987 73.6105 27.344C73.6105 28.5387 73.2692 29.5093 72.5865 30.256C71.9038 30.992 71.0185 31.5307 69.9305 31.872C68.8532 32.2027 67.7118 32.368 66.5065 32.368C64.9812 32.368 63.6798 32.1493 62.6025 31.712C61.5358 31.264 60.6398 30.7253 59.9145 30.096L61.4505 28.32C62.1118 28.864 62.8692 29.3067 63.7225 29.648C64.5865 29.9787 65.5145 30.144 66.5065 30.144ZM93.342 31.152C92.766 31.536 92.0673 31.8347 91.246 32.048C90.4247 32.2613 89.6193 32.368 88.83 32.368C87.0167 32.368 85.6193 31.8933 84.638 30.944C83.6567 29.9947 83.166 28.7733 83.166 27.28V17.232H79.294V15.152H83.166V11.328L85.854 11.008V15.152H91.678L91.358 17.232H85.854V27.248C85.854 28.1867 86.0993 28.9013 86.59 29.392C87.0913 29.8827 87.918 30.128 89.07 30.128C89.6993 30.128 90.2807 30.0533 90.814 29.904C91.3473 29.7547 91.8433 29.5627 92.302 29.328L93.342 31.152Z" fill="#DA68BA"/>
<path d="M207.699 17.856V20.176H195.251V17.856H207.699ZM207.699 23.92V26.256H195.251V23.92H207.699ZM237.05 20.8C237.05 22.464 237.194 23.9573 237.482 25.28C237.77 26.592 238.197 27.7973 238.762 28.896C239.327 29.984 240.037 31.0187 240.89 32C241.754 32.992 242.757 33.9947 243.898 35.008L242.49 36.48C240.762 35.0613 239.279 33.6107 238.042 32.128C236.815 30.6453 235.871 28.992 235.21 27.168C234.559 25.344 234.234 23.2213 234.234 20.8C234.234 18.368 234.559 16.24 235.21 14.416C235.871 12.592 236.815 10.9387 238.042 9.456C239.279 7.97333 240.762 6.528 242.49 5.12L243.898 6.592C242.746 7.616 241.738 8.624 240.874 9.616C240.021 10.5973 239.311 11.632 238.746 12.72C238.181 13.7973 237.754 14.9973 237.466 16.32C237.189 17.632 237.05 19.1253 237.05 20.8ZM261.838 20.8C261.838 19.1253 261.694 17.632 261.406 16.32C261.128 14.9973 260.707 13.7973 260.142 12.72C259.576 11.632 258.862 10.5973 257.998 9.616C257.144 8.624 256.142 7.616 254.99 6.592L256.398 5.12C258.136 6.528 259.619 7.97333 260.846 9.456C262.072 10.9387 263.011 12.592 263.662 14.416C264.323 16.24 264.654 18.368 264.654 20.8C264.654 23.2213 264.323 25.344 263.662 27.168C263.011 28.992 262.072 30.6453 260.846 32.128C259.619 33.6107 258.136 35.0613 256.398 36.48L254.99 35.008C256.131 33.9947 257.128 32.992 257.982 32C258.846 31.0187 259.56 29.984 260.126 28.896C260.691 27.7973 261.118 26.592 261.406 25.28C261.694 23.9573 261.838 22.464 261.838 20.8ZM359.823 5.264V7.376C359.044 7.376 358.335 7.456 357.695 7.616C357.066 7.76533 356.575 8.02667 356.223 8.4C355.882 8.77333 355.738 9.28533 355.791 9.936L356.463 16.496C356.559 17.392 356.506 18.1333 356.303 18.72C356.1 19.3067 355.759 19.7653 355.279 20.096C354.81 20.4267 354.207 20.6613 353.471 20.8C354.218 20.928 354.831 21.152 355.311 21.472C355.791 21.7813 356.127 22.2293 356.319 22.816C356.511 23.392 356.559 24.1547 356.463 25.104L355.791 31.664C355.738 32.3253 355.882 32.8427 356.223 33.216C356.564 33.5893 357.055 33.8507 357.695 34C358.335 34.1493 359.044 34.224 359.823 34.224V36.336C358.927 36.336 358.068 36.256 357.247 36.096C356.426 35.9467 355.7 35.6853 355.071 35.312C354.442 34.9387 353.967 34.4267 353.647 33.776C353.327 33.136 353.22 32.3253 353.327 31.344L353.967 25.264C354.052 24.528 353.983 23.9093 353.759 23.408C353.546 22.9067 353.076 22.528 352.351 22.272C351.636 22.0053 350.564 21.872 349.135 21.872V19.728C350.564 19.728 351.636 19.6 352.351 19.344C353.076 19.088 353.546 18.7093 353.759 18.208C353.983 17.7067 354.052 17.0933 353.967 16.368L353.327 10.256C353.22 9.27467 353.327 8.464 353.647 7.824C353.967 7.17333 354.436 6.66133 355.055 6.288C355.684 5.91467 356.41 5.65333 357.231 5.504C358.063 5.344 358.927 5.264 359.823 5.264ZM179.488 62.8C179.488 64.464 179.632 65.9573 179.92 67.28C180.208 68.592 180.634 69.7973 181.2 70.896C181.765 71.984 182.474 73.0187 183.328 74C184.192 74.992 185.194 75.9947 186.336 77.008L184.928 78.48C183.2 77.0613 181.717 75.6107 180.48 74.128C179.253 72.6453 178.309 70.992 177.648 69.168C176.997 67.344 176.672 65.2213 176.672 62.8C176.672 60.368 176.997 58.24 177.648 56.416C178.309 54.592 179.253 52.9387 180.48 51.456C181.717 49.9733 183.2 48.528 184.928 47.12L186.336 48.592C185.184 49.616 184.176 50.624 183.312 51.616C182.458 52.5973 181.749 53.632 181.184 54.72C180.618 55.7973 180.192 56.9973 179.904 58.32C179.626 59.632 179.488 61.1253 179.488 62.8ZM111.058 96.992L112.354 99.056L101.058 105.984L112.354 112.976L110.914 114.944L98.7535 107.344V104.592L111.058 96.992ZM330.299 96.992L342.604 104.592V107.344L330.46 114.944L329.004 112.96L340.3 105.984L329.004 99.024L330.299 96.992ZM149.433 138.992L150.729 141.056L139.433 147.984L150.729 154.976L149.289 156.944L137.129 149.344V146.592L149.433 138.992ZM306.312 136.016L323.416 146.592V149.344L311.272 156.944L309.816 154.96L321.112 147.984L305.016 138.048L306.312 136.016ZM294.856 161.296L292.68 160.336L306.376 132.096L308.52 133.152L294.856 161.296ZM111.058 180.992L112.354 183.056L101.058 189.984L112.354 196.976L110.914 198.944L98.7535 191.344V188.592L111.058 180.992ZM344.687 178.016L361.791 188.592V191.344L349.647 198.944L348.191 196.96L359.487 189.984L343.391 180.048L344.687 178.016ZM333.231 203.296L331.055 202.336L344.751 174.096L346.895 175.152L333.231 203.296ZM69.9625 230.8C69.9625 229.125 69.8185 227.632 69.5305 226.32C69.2532 224.997 68.8318 223.797 68.2665 222.72C67.7012 221.632 66.9865 220.597 66.1225 219.616C65.2692 218.624 64.2665 217.616 63.1145 216.592L64.5225 215.12C66.2612 216.528 67.7438 217.973 68.9705 219.456C70.1972 220.939 71.1358 222.592 71.7865 224.416C72.4478 226.24 72.7785 228.368 72.7785 230.8C72.7785 233.221 72.4478 235.344 71.7865 237.168C71.1358 238.992 70.1972 240.645 68.9705 242.128C67.7438 243.611 66.2612 245.061 64.5225 246.48L63.1145 245.008C64.2558 243.995 65.2532 242.992 66.1065 242C66.9705 241.019 67.6852 239.984 68.2505 238.896C68.8158 237.797 69.2425 236.592 69.5305 235.28C69.8185 233.957 69.9625 232.464 69.9625 230.8ZM4.752 257.264C5.648 257.264 6.50667 257.344 7.328 257.504C8.14933 257.653 8.87467 257.915 9.504 258.288C10.1333 258.661 10.608 259.173 10.928 259.824C11.2587 260.464 11.3653 261.275 11.248 262.256L10.608 268.368C10.5227 269.093 10.6133 269.707 10.88 270.208C11.1573 270.709 11.6587 271.088 12.384 271.344C13.1093 271.6 14.128 271.728 15.44 271.728V273.872C14.1387 273.872 13.12 274.005 12.384 274.272C11.6587 274.528 11.1573 274.907 10.88 275.408C10.6133 275.909 10.5227 276.528 10.608 277.264L11.248 283.344C11.3547 284.325 11.248 285.136 10.928 285.776C10.608 286.427 10.1333 286.939 9.504 287.312C8.88533 287.685 8.16 287.947 7.328 288.096C6.50667 288.256 5.648 288.336 4.752 288.336V286.224C5.53067 286.224 6.23467 286.149 6.864 286C7.504 285.851 8 285.589 8.352 285.216C8.704 284.843 8.848 284.325 8.784 283.664L8.112 277.104C8.016 276.155 8.06933 275.392 8.272 274.816C8.47467 274.229 8.83733 273.781 9.36 273.472C9.89333 273.163 10.592 272.949 11.456 272.832C10.624 272.693 9.94133 272.453 9.408 272.112C8.88533 271.771 8.51733 271.307 8.304 270.72C8.09067 270.133 8.02667 269.392 8.112 268.496L8.784 261.936C8.848 261.285 8.704 260.773 8.352 260.4C8 260.027 7.50933 259.765 6.88 259.616C6.25067 259.456 5.54133 259.376 4.752 259.376V257.264ZM28.7555 278.704C29.5022 278.704 30.1208 278.96 30.6115 279.472C31.1128 279.973 31.3635 280.571 31.3635 281.264C31.3635 281.659 31.3155 282.053 31.2195 282.448C31.1342 282.843 30.9688 283.296 30.7235 283.808L28.1315 289.76H25.6995L27.2355 283.408C26.5315 282.917 26.1795 282.208 26.1795 281.28C26.1795 280.565 26.4248 279.957 26.9155 279.456C27.4168 278.955 28.0302 278.704 28.7555 278.704ZM28.7555 267.648C29.5022 267.648 30.1208 267.899 30.6115 268.4C31.1128 268.901 31.3635 269.509 31.3635 270.224C31.3635 270.928 31.1128 271.541 30.6115 272.064C30.1208 272.576 29.5022 272.832 28.7555 272.832C28.0302 272.832 27.4168 272.576 26.9155 272.064C26.4248 271.541 26.1795 270.928 26.1795 270.224C26.1795 269.733 26.2915 269.296 26.5155 268.912C26.7395 268.528 27.0488 268.224 27.4435 268C27.8382 267.765 28.2755 267.648 28.7555 267.648Z" fill="white"/>
<path d="M128.997 26.384H120.277L118.517 32H115.781L122.949 9.968H126.501L133.669 32H130.757L128.997 26.384ZM120.997 24.08H128.277L124.661 12.304L120.997 24.08ZM145.065 14.8C146.558 14.8 147.747 15.1627 148.633 15.888C149.529 16.6133 150.174 17.6373 150.569 18.96C150.963 20.272 151.161 21.808 151.161 23.568C151.161 25.264 150.921 26.7787 150.441 28.112C149.971 29.4347 149.257 30.4747 148.297 31.232C147.337 31.9893 146.126 32.368 144.665 32.368C142.819 32.368 141.337 31.7173 140.217 30.416V38.448L137.529 38.784V15.152H139.817L140.041 17.504C140.659 16.64 141.395 15.9733 142.249 15.504C143.113 15.0347 144.051 14.8 145.065 14.8ZM144.425 16.96C143.497 16.96 142.675 17.2427 141.961 17.808C141.257 18.3627 140.675 18.9813 140.217 19.664V28.016C140.654 28.6667 141.203 29.184 141.865 29.568C142.537 29.9413 143.273 30.128 144.073 30.128C145.47 30.128 146.521 29.5947 147.225 28.528C147.929 27.4613 148.281 25.8027 148.281 23.552C148.281 22.08 148.142 20.8587 147.865 19.888C147.587 18.9067 147.166 18.176 146.601 17.696C146.035 17.2053 145.31 16.96 144.425 16.96ZM164.252 14.8C165.745 14.8 166.935 15.1627 167.82 15.888C168.716 16.6133 169.361 17.6373 169.756 18.96C170.151 20.272 170.348 21.808 170.348 23.568C170.348 25.264 170.108 26.7787 169.628 28.112C169.159 29.4347 168.444 30.4747 167.484 31.232C166.524 31.9893 165.313 32.368 163.852 32.368C162.007 32.368 160.524 31.7173 159.404 30.416V38.448L156.716 38.784V15.152H159.004L159.228 17.504C159.847 16.64 160.583 15.9733 161.436 15.504C162.3 15.0347 163.239 14.8 164.252 14.8ZM163.612 16.96C162.684 16.96 161.863 17.2427 161.148 17.808C160.444 18.3627 159.863 18.9813 159.404 19.664V28.016C159.841 28.6667 160.391 29.184 161.052 29.568C161.724 29.9413 162.46 30.128 163.26 30.128C164.657 30.128 165.708 29.5947 166.412 28.528C167.116 27.4613 167.468 25.8027 167.468 23.552C167.468 22.08 167.329 20.8587 167.052 19.888C166.775 18.9067 166.353 18.176 165.788 17.696C165.223 17.2053 164.497 16.96 163.612 16.96Z" fill="#2FEC85"/>
<path d="M291.797 20.112V17.776H307.333V20.112H291.797ZM291.797 26.192V23.856H307.333V26.192H291.797ZM306.68 20.112V17.776H317.88V20.112H306.68ZM306.68 26.192V23.856H317.88V26.192H306.68ZM313.576 12.24L322.28 21.984L313.576 31.728L311.592 30.032L313.592 27.856C313.837 27.568 314.104 27.2853 314.392 27.008C314.691 26.7307 315.08 26.4587 315.56 26.192L317.208 23.856L318.92 21.984L317.208 20.112L315.56 17.776C315.08 17.5093 314.691 17.2373 314.392 16.96C314.104 16.672 313.837 16.3893 313.592 16.112L311.592 13.936L313.576 12.24ZM60.9385 74V71.936H63.5625V59.216H60.9385V57.152H65.6105L66.1065 61.136C66.7572 59.7493 67.5465 58.6773 68.4745 57.92C69.4025 57.1627 70.6292 56.784 72.1545 56.784C72.6238 56.784 73.0398 56.8213 73.4025 56.896C73.7758 56.96 74.1545 57.0453 74.5385 57.152L73.7545 59.552C73.4025 59.456 73.0825 59.3867 72.7945 59.344C72.5065 59.2907 72.1758 59.264 71.8025 59.264C70.5118 59.264 69.4025 59.7227 68.4745 60.64C67.5465 61.5573 66.8052 62.944 66.2505 64.8V71.936H69.6745V74H60.9385ZM71.9465 62.848V59.184L72.2185 57.152H74.5385L74.1545 62.848H71.9465ZM82.078 66.528C82.1313 67.8293 82.382 68.896 82.83 69.728C83.278 70.5493 83.87 71.1573 84.606 71.552C85.342 71.936 86.142 72.128 87.006 72.128C87.87 72.128 88.6487 72 89.342 71.744C90.046 71.488 90.766 71.1093 91.502 70.608L92.766 72.384C91.9767 73.0027 91.0753 73.488 90.062 73.84C89.0593 74.192 88.03 74.368 86.974 74.368C85.342 74.368 83.95 74 82.798 73.264C81.646 72.528 80.766 71.504 80.158 70.192C79.5607 68.8693 79.262 67.3387 79.262 65.6C79.262 63.8933 79.566 62.3787 80.174 61.056C80.782 59.7333 81.6353 58.6933 82.734 57.936C83.8327 57.1787 85.1287 56.8 86.622 56.8C88.0407 56.8 89.262 57.136 90.286 57.808C91.31 58.4693 92.094 59.4187 92.638 60.656C93.1927 61.8827 93.47 63.3493 93.47 65.056C93.47 65.344 93.4647 65.616 93.454 65.872C93.4433 66.1173 93.4273 66.336 93.406 66.528H82.078ZM86.654 59.008C85.406 59.008 84.3607 59.4507 83.518 60.336C82.686 61.2213 82.2113 62.592 82.094 64.448H90.878C90.846 62.6453 90.4513 61.2907 89.694 60.384C88.9367 59.4667 87.9233 59.008 86.654 59.008ZM112.53 73.152C111.954 73.536 111.255 73.8347 110.434 74.048C109.612 74.2613 108.807 74.368 108.018 74.368C106.204 74.368 104.807 73.8933 103.826 72.944C102.844 71.9947 102.354 70.7733 102.354 69.28V59.232H98.4815V57.152H102.354V53.328L105.042 53.008V57.152H110.866L110.546 59.232H105.042V69.248C105.042 70.1867 105.287 70.9013 105.778 71.392C106.279 71.8827 107.106 72.128 108.258 72.128C108.887 72.128 109.468 72.0533 110.002 71.904C110.535 71.7547 111.031 71.5627 111.49 71.328L112.53 73.152ZM121.029 57.152V69.088C121.029 70.1973 121.258 70.9973 121.717 71.488C122.176 71.9787 122.89 72.224 123.861 72.224C124.789 72.224 125.664 71.9627 126.485 71.44C127.317 70.9067 127.962 70.2773 128.421 69.552V57.152H131.109V74H128.821L128.597 71.728C127.936 72.5813 127.12 73.2373 126.149 73.696C125.178 74.144 124.197 74.368 123.205 74.368C121.573 74.368 120.352 73.936 119.541 73.072C118.741 72.1973 118.341 70.976 118.341 69.408V57.152H121.029ZM137.689 74V71.936H140.313V59.216H137.689V57.152H142.361L142.857 61.136C143.507 59.7493 144.297 58.6773 145.225 57.92C146.153 57.1627 147.379 56.784 148.905 56.784C149.374 56.784 149.79 56.8213 150.153 56.896C150.526 56.96 150.905 57.0453 151.289 57.152L150.505 59.552C150.153 59.456 149.833 59.3867 149.545 59.344C149.257 59.2907 148.926 59.264 148.553 59.264C147.262 59.264 146.153 59.7227 145.225 60.64C144.297 61.5573 143.555 62.944 143.001 64.8V71.936H146.425V74H137.689ZM148.697 62.848V59.184L148.969 57.152H151.289L150.905 62.848H148.697ZM156.716 74V57.152H159.004L159.212 59.488C159.895 58.624 160.748 57.9627 161.772 57.504C162.807 57.0347 163.809 56.8 164.78 56.8C166.433 56.8 167.633 57.2373 168.38 58.112C169.137 58.9867 169.516 60.2027 169.516 61.76V74H166.828V63.744C166.828 62.592 166.764 61.664 166.636 60.96C166.508 60.2453 166.241 59.728 165.836 59.408C165.431 59.0773 164.801 58.912 163.948 58.912C163.287 58.912 162.663 59.056 162.076 59.344C161.5 59.632 160.983 59.9947 160.524 60.432C160.076 60.8587 159.703 61.2907 159.404 61.728V74H156.716Z" fill="#DA68BA"/>
<path d="M128.997 110.384H120.277L118.517 116H115.781L122.949 93.968H126.501L133.669 116H130.757L128.997 110.384ZM120.997 108.08H128.277L124.661 96.304L120.997 108.08ZM145.065 98.8C146.558 98.8 147.747 99.1627 148.633 99.888C149.529 100.613 150.174 101.637 150.569 102.96C150.963 104.272 151.161 105.808 151.161 107.568C151.161 109.264 150.921 110.779 150.441 112.112C149.971 113.435 149.257 114.475 148.297 115.232C147.337 115.989 146.126 116.368 144.665 116.368C142.819 116.368 141.337 115.717 140.217 114.416V122.448L137.529 122.784V99.152H139.817L140.041 101.504C140.659 100.64 141.395 99.9733 142.249 99.504C143.113 99.0347 144.051 98.8 145.065 98.8ZM144.425 100.96C143.497 100.96 142.675 101.243 141.961 101.808C141.257 102.363 140.675 102.981 140.217 103.664V112.016C140.654 112.667 141.203 113.184 141.865 113.568C142.537 113.941 143.273 114.128 144.073 114.128C145.47 114.128 146.521 113.595 147.225 112.528C147.929 111.461 148.281 109.803 148.281 107.552C148.281 106.08 148.142 104.859 147.865 103.888C147.587 102.907 147.166 102.176 146.601 101.696C146.035 101.205 145.31 100.96 144.425 100.96ZM164.252 98.8C165.745 98.8 166.935 99.1627 167.82 99.888C168.716 100.613 169.361 101.637 169.756 102.96C170.151 104.272 170.348 105.808 170.348 107.568C170.348 109.264 170.108 110.779 169.628 112.112C169.159 113.435 168.444 114.475 167.484 115.232C166.524 115.989 165.313 116.368 163.852 116.368C162.007 116.368 160.524 115.717 159.404 114.416V122.448L156.716 122.784V99.152H159.004L159.228 101.504C159.847 100.64 160.583 99.9733 161.436 99.504C162.3 99.0347 163.239 98.8 164.252 98.8ZM163.612 100.96C162.684 100.96 161.863 101.243 161.148 101.808C160.444 102.363 159.863 102.981 159.404 103.664V112.016C159.841 112.667 160.391 113.184 161.052 113.568C161.724 113.941 162.46 114.128 163.26 114.128C164.657 114.128 165.708 113.595 166.412 112.528C167.116 111.461 167.468 109.803 167.468 107.552C167.468 106.08 167.329 104.859 167.052 103.888C166.775 102.907 166.353 102.176 165.788 101.696C165.223 101.205 164.497 100.96 163.612 100.96ZM187.536 100.768C187.536 99.6267 187.312 98.7253 186.864 98.064C186.416 97.392 185.802 96.912 185.024 96.624C184.245 96.3253 183.354 96.176 182.352 96.176H179.168V105.584H182.24C183.274 105.584 184.186 105.445 184.976 105.168C185.765 104.88 186.389 104.389 186.848 103.696C187.306 102.992 187.536 102.016 187.536 100.768ZM190.512 100.736C190.512 102.453 190.144 103.829 189.408 104.864C188.682 105.899 187.68 106.651 186.4 107.12C185.12 107.589 183.648 107.824 181.984 107.824H179.168V116H176.384V93.968H182.016C184.64 93.968 186.709 94.5227 188.224 95.632C189.749 96.7307 190.512 98.432 190.512 100.736ZM195.251 116V113.936H197.875V101.216H195.251V99.152H199.923L200.419 103.136C201.07 101.749 201.859 100.677 202.787 99.92C203.715 99.1627 204.942 98.784 206.467 98.784C206.936 98.784 207.352 98.8213 207.715 98.896C208.088 98.96 208.467 99.0453 208.851 99.152L208.067 101.552C207.715 101.456 207.395 101.387 207.107 101.344C206.819 101.291 206.488 101.264 206.115 101.264C204.824 101.264 203.715 101.723 202.787 102.64C201.859 103.557 201.118 104.944 200.563 106.8V113.936H203.987V116H195.251ZM206.259 104.848V101.184L206.531 99.152H208.851L208.467 104.848H206.259ZM220.695 98.8C222.284 98.8 223.612 99.1627 224.679 99.888C225.756 100.603 226.561 101.616 227.095 102.928C227.639 104.24 227.911 105.787 227.911 107.568C227.911 109.285 227.633 110.805 227.079 112.128C226.524 113.451 225.708 114.491 224.631 115.248C223.564 115.995 222.241 116.368 220.663 116.368C219.084 116.368 217.756 116.005 216.679 115.28C215.601 114.555 214.785 113.536 214.231 112.224C213.687 110.901 213.414 109.36 213.414 107.6C213.414 105.861 213.692 104.331 214.247 103.008C214.801 101.685 215.617 100.656 216.695 99.92C217.783 99.1733 219.116 98.8 220.695 98.8ZM220.695 100.992C219.244 100.992 218.145 101.531 217.399 102.608C216.663 103.675 216.295 105.339 216.295 107.6C216.295 109.819 216.657 111.467 217.383 112.544C218.119 113.621 219.212 114.16 220.663 114.16C222.113 114.16 223.201 113.621 223.927 112.544C224.663 111.467 225.031 109.808 225.031 107.568C225.031 105.328 224.668 103.675 223.943 102.608C223.217 101.531 222.135 100.992 220.695 100.992ZM247.514 99.152L241.386 116H238.266L232.186 99.152H235.034L239.914 113.552L244.73 99.152H247.514ZM261.182 99.152V113.872H265.934V116H253.294V113.872H258.494V101.28H253.454V99.152H261.182ZM259.038 91.264C259.635 91.264 260.11 91.4453 260.462 91.808C260.824 92.1707 261.006 92.6133 261.006 93.136C261.006 93.68 260.824 94.1387 260.462 94.512C260.11 94.8747 259.635 95.056 259.038 95.056C258.472 95.056 258.008 94.8747 257.646 94.512C257.283 94.1387 257.102 93.68 257.102 93.136C257.102 92.6133 257.283 92.1707 257.646 91.808C258.008 91.4453 258.472 91.264 259.038 91.264ZM281.921 92.032L284.609 92.368V116H282.257L282.001 113.776C281.372 114.672 280.646 115.328 279.825 115.744C279.014 116.16 278.145 116.368 277.217 116.368C275.756 116.368 274.55 116 273.601 115.264C272.652 114.528 271.948 113.504 271.489 112.192C271.03 110.869 270.801 109.339 270.801 107.6C270.801 105.915 271.062 104.411 271.585 103.088C272.108 101.755 272.86 100.709 273.841 99.952C274.833 99.184 276.022 98.8 277.409 98.8C278.38 98.8 279.233 98.9707 279.969 99.312C280.705 99.6427 281.356 100.133 281.921 100.784V92.032ZM278.113 100.96C276.705 100.96 275.622 101.509 274.865 102.608C274.108 103.707 273.729 105.371 273.729 107.6C273.729 109.051 273.884 110.267 274.193 111.248C274.502 112.229 274.956 112.965 275.553 113.456C276.161 113.947 276.902 114.192 277.777 114.192C278.737 114.192 279.553 113.92 280.225 113.376C280.908 112.832 281.473 112.219 281.921 111.536V103.12C281.462 102.437 280.908 101.909 280.257 101.536C279.606 101.152 278.892 100.96 278.113 100.96ZM293.141 108.528C293.194 109.829 293.445 110.896 293.893 111.728C294.341 112.549 294.933 113.157 295.669 113.552C296.405 113.936 297.205 114.128 298.069 114.128C298.933 114.128 299.711 114 300.405 113.744C301.109 113.488 301.829 113.109 302.565 112.608L303.829 114.384C303.039 115.003 302.138 115.488 301.125 115.84C300.122 116.192 299.093 116.368 298.037 116.368C296.405 116.368 295.013 116 293.861 115.264C292.709 114.528 291.829 113.504 291.221 112.192C290.623 110.869 290.325 109.339 290.325 107.6C290.325 105.893 290.629 104.379 291.237 103.056C291.845 101.733 292.698 100.693 293.797 99.936C294.895 99.1787 296.191 98.8 297.685 98.8C299.103 98.8 300.325 99.136 301.349 99.808C302.373 100.469 303.157 101.419 303.701 102.656C304.255 103.883 304.533 105.349 304.533 107.056C304.533 107.344 304.527 107.616 304.517 107.872C304.506 108.117 304.49 108.336 304.469 108.528H293.141ZM297.717 101.008C296.469 101.008 295.423 101.451 294.581 102.336C293.749 103.221 293.274 104.592 293.157 106.448H301.941C301.909 104.645 301.514 103.291 300.757 102.384C299.999 101.467 298.986 101.008 297.717 101.008ZM310.376 116V113.936H313V101.216H310.376V99.152H315.048L315.544 103.136C316.195 101.749 316.984 100.677 317.912 99.92C318.84 99.1627 320.067 98.784 321.592 98.784C322.061 98.784 322.477 98.8213 322.84 98.896C323.213 98.96 323.592 99.0453 323.976 99.152L323.192 101.552C322.84 101.456 322.52 101.387 322.232 101.344C321.944 101.291 321.613 101.264 321.24 101.264C319.949 101.264 318.84 101.723 317.912 102.64C316.984 103.557 316.243 104.944 315.688 106.8V113.936H319.112V116H310.376ZM321.384 104.848V101.184L321.656 99.152H323.976L323.592 104.848H321.384ZM170.7 142.144C170.7 143.243 170.46 144.203 169.98 145.024C169.511 145.845 168.871 146.523 168.06 147.056C167.249 147.589 166.337 147.979 165.324 148.224L171.852 158H168.524L162.508 148.544H159.532V158H156.748V135.968H162.412C165.132 135.968 167.191 136.491 168.588 137.536C169.996 138.571 170.7 140.107 170.7 142.144ZM167.724 142.144C167.724 140.725 167.319 139.712 166.508 139.104C165.697 138.485 164.439 138.176 162.732 138.176H159.532V146.368H162.732C164.311 146.368 165.537 146.048 166.412 145.408C167.287 144.757 167.724 143.669 167.724 142.144ZM182.32 140.8C183.909 140.8 185.237 141.163 186.304 141.888C187.381 142.603 188.186 143.616 188.72 144.928C189.264 146.24 189.536 147.787 189.536 149.568C189.536 151.285 189.258 152.805 188.704 154.128C188.149 155.451 187.333 156.491 186.256 157.248C185.189 157.995 183.866 158.368 182.288 158.368C180.709 158.368 179.381 158.005 178.304 157.28C177.226 156.555 176.41 155.536 175.856 154.224C175.312 152.901 175.039 151.36 175.039 149.6C175.039 147.861 175.317 146.331 175.872 145.008C176.426 143.685 177.242 142.656 178.32 141.92C179.408 141.173 180.741 140.8 182.32 140.8ZM182.32 142.992C180.869 142.992 179.77 143.531 179.024 144.608C178.288 145.675 177.92 147.339 177.92 149.6C177.92 151.819 178.282 153.467 179.008 154.544C179.744 155.621 180.837 156.16 182.288 156.16C183.738 156.16 184.826 155.621 185.552 154.544C186.288 153.467 186.656 151.808 186.656 149.568C186.656 147.328 186.293 145.675 185.568 144.608C184.842 143.531 183.76 142.992 182.32 142.992ZM197.779 141.152V153.088C197.779 154.197 198.008 154.997 198.467 155.488C198.926 155.979 199.64 156.224 200.611 156.224C201.539 156.224 202.414 155.963 203.235 155.44C204.067 154.907 204.712 154.277 205.171 153.552V141.152H207.859V158H205.571L205.347 155.728C204.686 156.581 203.87 157.237 202.899 157.696C201.928 158.144 200.947 158.368 199.955 158.368C198.323 158.368 197.102 157.936 196.291 157.072C195.491 156.197 195.091 154.976 195.091 153.408V141.152H197.779ZM227.655 157.152C227.079 157.536 226.38 157.835 225.559 158.048C224.737 158.261 223.932 158.368 223.143 158.368C221.329 158.368 219.932 157.893 218.951 156.944C217.969 155.995 217.479 154.773 217.479 153.28V143.232H213.607V141.152H217.479V137.328L220.167 137.008V141.152H225.991L225.671 143.232H220.167V153.248C220.167 154.187 220.412 154.901 220.903 155.392C221.404 155.883 222.231 156.128 223.383 156.128C224.012 156.128 224.593 156.053 225.127 155.904C225.66 155.755 226.156 155.563 226.615 155.328L227.655 157.152ZM235.578 150.528C235.631 151.829 235.882 152.896 236.33 153.728C236.778 154.549 237.37 155.157 238.106 155.552C238.842 155.936 239.642 156.128 240.506 156.128C241.37 156.128 242.149 156 242.842 155.744C243.546 155.488 244.266 155.109 245.002 154.608L246.266 156.384C245.477 157.003 244.575 157.488 243.562 157.84C242.559 158.192 241.53 158.368 240.474 158.368C238.842 158.368 237.45 158 236.298 157.264C235.146 156.528 234.266 155.504 233.658 154.192C233.061 152.869 232.762 151.339 232.762 149.6C232.762 147.893 233.066 146.379 233.674 145.056C234.282 143.733 235.135 142.693 236.234 141.936C237.333 141.179 238.629 140.8 240.122 140.8C241.541 140.8 242.762 141.136 243.786 141.808C244.81 142.469 245.594 143.419 246.138 144.656C246.693 145.883 246.97 147.349 246.97 149.056C246.97 149.344 246.965 149.616 246.954 149.872C246.943 150.117 246.927 150.336 246.906 150.528H235.578ZM240.154 143.008C238.906 143.008 237.861 143.451 237.018 144.336C236.186 145.221 235.711 146.592 235.594 148.448H244.378C244.346 146.645 243.951 145.291 243.194 144.384C242.437 143.467 241.423 143.008 240.154 143.008ZM258.382 156.144C259.672 156.144 260.691 155.904 261.438 155.424C262.195 154.933 262.574 154.283 262.574 153.472C262.574 152.96 262.478 152.517 262.286 152.144C262.104 151.771 261.726 151.435 261.15 151.136C260.574 150.837 259.688 150.539 258.494 150.24C257.331 149.952 256.318 149.621 255.454 149.248C254.6 148.864 253.934 148.368 253.454 147.76C252.984 147.152 252.75 146.363 252.75 145.392C252.75 144.443 253.016 143.627 253.549 142.944C254.094 142.251 254.846 141.723 255.806 141.36C256.766 140.987 257.88 140.8 259.15 140.8C260.504 140.8 261.683 140.981 262.686 141.344C263.699 141.696 264.558 142.133 265.262 142.656L264.078 144.48C263.438 144.043 262.734 143.685 261.966 143.408C261.198 143.12 260.27 142.976 259.182 142.976C257.859 142.976 256.92 143.184 256.366 143.6C255.811 144.005 255.534 144.533 255.534 145.184C255.534 145.675 255.667 146.085 255.934 146.416C256.211 146.736 256.675 147.029 257.326 147.296C257.976 147.552 258.872 147.835 260.014 148.144C261.112 148.432 262.067 148.779 262.878 149.184C263.699 149.589 264.339 150.123 264.798 150.784C265.256 151.445 265.486 152.299 265.486 153.344C265.486 154.539 265.144 155.509 264.462 156.256C263.779 156.992 262.894 157.531 261.806 157.872C260.728 158.203 259.587 158.368 258.382 158.368C256.856 158.368 255.555 158.149 254.478 157.712C253.411 157.264 252.515 156.725 251.789 156.096L253.326 154.32C253.987 154.864 254.744 155.307 255.598 155.648C256.462 155.979 257.39 156.144 258.382 156.144ZM128.997 194.384H120.277L118.517 200H115.781L122.949 177.968H126.501L133.669 200H130.757L128.997 194.384ZM120.997 192.08H128.277L124.661 180.304L120.997 192.08ZM145.065 182.8C146.558 182.8 147.747 183.163 148.633 183.888C149.529 184.613 150.174 185.637 150.569 186.96C150.963 188.272 151.161 189.808 151.161 191.568C151.161 193.264 150.921 194.779 150.441 196.112C149.971 197.435 149.257 198.475 148.297 199.232C147.337 199.989 146.126 200.368 144.665 200.368C142.819 200.368 141.337 199.717 140.217 198.416V206.448L137.529 206.784V183.152H139.817L140.041 185.504C140.659 184.64 141.395 183.973 142.249 183.504C143.113 183.035 144.051 182.8 145.065 182.8ZM144.425 184.96C143.497 184.96 142.675 185.243 141.961 185.808C141.257 186.363 140.675 186.981 140.217 187.664V196.016C140.654 196.667 141.203 197.184 141.865 197.568C142.537 197.941 143.273 198.128 144.073 198.128C145.47 198.128 146.521 197.595 147.225 196.528C147.929 195.461 148.281 193.803 148.281 191.552C148.281 190.08 148.142 188.859 147.865 187.888C147.587 186.907 147.166 186.176 146.601 185.696C146.035 185.205 145.31 184.96 144.425 184.96ZM164.252 182.8C165.745 182.8 166.935 183.163 167.82 183.888C168.716 184.613 169.361 185.637 169.756 186.96C170.151 188.272 170.348 189.808 170.348 191.568C170.348 193.264 170.108 194.779 169.628 196.112C169.159 197.435 168.444 198.475 167.484 199.232C166.524 199.989 165.313 200.368 163.852 200.368C162.007 200.368 160.524 199.717 159.404 198.416V206.448L156.716 206.784V183.152H159.004L159.228 185.504C159.847 184.64 160.583 183.973 161.436 183.504C162.3 183.035 163.239 182.8 164.252 182.8ZM163.612 184.96C162.684 184.96 161.863 185.243 161.148 185.808C160.444 186.363 159.863 186.981 159.404 187.664V196.016C159.841 196.667 160.391 197.184 161.052 197.568C161.724 197.941 162.46 198.128 163.26 198.128C164.657 198.128 165.708 197.595 166.412 196.528C167.116 195.461 167.468 193.803 167.468 191.552C167.468 190.08 167.329 188.859 167.052 187.888C166.775 186.907 166.353 186.176 165.788 185.696C165.223 185.205 164.497 184.96 163.612 184.96ZM187.536 184.768C187.536 183.627 187.312 182.725 186.864 182.064C186.416 181.392 185.802 180.912 185.024 180.624C184.245 180.325 183.354 180.176 182.352 180.176H179.168V189.584H182.24C183.274 189.584 184.186 189.445 184.976 189.168C185.765 188.88 186.389 188.389 186.848 187.696C187.306 186.992 187.536 186.016 187.536 184.768ZM190.512 184.736C190.512 186.453 190.144 187.829 189.408 188.864C188.682 189.899 187.68 190.651 186.4 191.12C185.12 191.589 183.648 191.824 181.984 191.824H179.168V200H176.384V177.968H182.016C184.64 177.968 186.709 178.523 188.224 179.632C189.749 180.731 190.512 182.432 190.512 184.736ZM195.251 200V197.936H197.875V185.216H195.251V183.152H199.923L200.419 187.136C201.07 185.749 201.859 184.677 202.787 183.92C203.715 183.163 204.942 182.784 206.467 182.784C206.936 182.784 207.352 182.821 207.715 182.896C208.088 182.96 208.467 183.045 208.851 183.152L208.067 185.552C207.715 185.456 207.395 185.387 207.107 185.344C206.819 185.291 206.488 185.264 206.115 185.264C204.824 185.264 203.715 185.723 202.787 186.64C201.859 187.557 201.118 188.944 200.563 190.8V197.936H203.987V200H195.251ZM206.259 188.848V185.184L206.531 183.152H208.851L208.467 188.848H206.259ZM220.695 182.8C222.284 182.8 223.612 183.163 224.679 183.888C225.756 184.603 226.561 185.616 227.095 186.928C227.639 188.24 227.911 189.787 227.911 191.568C227.911 193.285 227.633 194.805 227.079 196.128C226.524 197.451 225.708 198.491 224.631 199.248C223.564 199.995 222.241 200.368 220.663 200.368C219.084 200.368 217.756 200.005 216.679 199.28C215.601 198.555 214.785 197.536 214.231 196.224C213.687 194.901 213.414 193.36 213.414 191.6C213.414 189.861 213.692 188.331 214.247 187.008C214.801 185.685 215.617 184.656 216.695 183.92C217.783 183.173 219.116 182.8 220.695 182.8ZM220.695 184.992C219.244 184.992 218.145 185.531 217.399 186.608C216.663 187.675 216.295 189.339 216.295 191.6C216.295 193.819 216.657 195.467 217.383 196.544C218.119 197.621 219.212 198.16 220.663 198.16C222.113 198.16 223.201 197.621 223.927 196.544C224.663 195.467 225.031 193.808 225.031 191.568C225.031 189.328 224.668 187.675 223.943 186.608C223.217 185.531 222.135 184.992 220.695 184.992ZM247.514 183.152L241.386 200H238.266L232.186 183.152H235.034L239.914 197.552L244.73 183.152H247.514ZM261.182 183.152V197.872H265.934V200H253.294V197.872H258.494V185.28H253.454V183.152H261.182ZM259.038 175.264C259.635 175.264 260.11 175.445 260.462 175.808C260.824 176.171 261.006 176.613 261.006 177.136C261.006 177.68 260.824 178.139 260.462 178.512C260.11 178.875 259.635 179.056 259.038 179.056C258.472 179.056 258.008 178.875 257.646 178.512C257.283 178.139 257.102 177.68 257.102 177.136C257.102 176.613 257.283 176.171 257.646 175.808C258.008 175.445 258.472 175.264 259.038 175.264ZM281.921 176.032L284.609 176.368V200H282.257L282.001 197.776C281.372 198.672 280.646 199.328 279.825 199.744C279.014 200.16 278.145 200.368 277.217 200.368C275.756 200.368 274.55 200 273.601 199.264C272.652 198.528 271.948 197.504 271.489 196.192C271.03 194.869 270.801 193.339 270.801 191.6C270.801 189.915 271.062 188.411 271.585 187.088C272.108 185.755 272.86 184.709 273.841 183.952C274.833 183.184 276.022 182.8 277.409 182.8C278.38 182.8 279.233 182.971 279.969 183.312C280.705 183.643 281.356 184.133 281.921 184.784V176.032ZM278.113 184.96C276.705 184.96 275.622 185.509 274.865 186.608C274.108 187.707 273.729 189.371 273.729 191.6C273.729 193.051 273.884 194.267 274.193 195.248C274.502 196.229 274.956 196.965 275.553 197.456C276.161 197.947 276.902 198.192 277.777 198.192C278.737 198.192 279.553 197.92 280.225 197.376C280.908 196.832 281.473 196.219 281.921 195.536V187.12C281.462 186.437 280.908 185.909 280.257 185.536C279.606 185.152 278.892 184.96 278.113 184.96ZM293.141 192.528C293.194 193.829 293.445 194.896 293.893 195.728C294.341 196.549 294.933 197.157 295.669 197.552C296.405 197.936 297.205 198.128 298.069 198.128C298.933 198.128 299.711 198 300.405 197.744C301.109 197.488 301.829 197.109 302.565 196.608L303.829 198.384C303.039 199.003 302.138 199.488 301.125 199.84C300.122 200.192 299.093 200.368 298.037 200.368C296.405 200.368 295.013 200 293.861 199.264C292.709 198.528 291.829 197.504 291.221 196.192C290.623 194.869 290.325 193.339 290.325 191.6C290.325 189.893 290.629 188.379 291.237 187.056C291.845 185.733 292.698 184.693 293.797 183.936C294.895 183.179 296.191 182.8 297.685 182.8C299.103 182.8 300.325 183.136 301.349 183.808C302.373 184.469 303.157 185.419 303.701 186.656C304.255 187.883 304.533 189.349 304.533 191.056C304.533 191.344 304.527 191.616 304.517 191.872C304.506 192.117 304.49 192.336 304.469 192.528H293.141ZM297.717 185.008C296.469 185.008 295.423 185.451 294.581 186.336C293.749 187.221 293.274 188.592 293.157 190.448H301.941C301.909 188.645 301.514 187.291 300.757 186.384C299.999 185.467 298.986 185.008 297.717 185.008ZM310.376 200V197.936H313V185.216H310.376V183.152H315.048L315.544 187.136C316.195 185.749 316.984 184.677 317.912 183.92C318.84 183.163 320.067 182.784 321.592 182.784C322.061 182.784 322.477 182.821 322.84 182.896C323.213 182.96 323.592 183.045 323.976 183.152L323.192 185.552C322.84 185.456 322.52 185.387 322.232 185.344C321.944 185.291 321.613 185.264 321.24 185.264C319.949 185.264 318.84 185.723 317.912 186.64C316.984 187.557 316.243 188.944 315.688 190.8V197.936H319.112V200H310.376ZM321.384 188.848V185.184L321.656 183.152H323.976L323.592 188.848H321.384Z" fill="#51EAFF"/>
</svg>
