<svg width="893" height="205" viewBox="0 0 893 205" fill="none" xmlns="http://www.w3.org/2000/svg">
<path d="M10.832 30.048C11.6747 30.048 12.4587 29.9093 13.184 29.632C13.92 29.3547 14.5973 29.0027 15.216 28.576L16.528 30.336C15.792 30.9653 14.9067 31.4613 13.872 31.824C12.8373 32.1867 11.824 32.368 10.832 32.368C9.15733 32.368 7.728 32.0107 6.544 31.296C5.37067 30.5707 4.47467 29.5573 3.856 28.256C3.23733 26.944 2.928 25.408 2.928 23.648C2.928 21.9627 3.23733 20.4533 3.856 19.12C4.48533 17.776 5.38667 16.72 6.56 15.952C7.744 15.184 9.17867 14.8 10.864 14.8C11.9413 14.8 12.9493 14.9653 13.888 15.296C14.8373 15.616 15.7067 16.1013 16.496 16.752L15.184 18.544C14.4693 18.0427 13.7493 17.6693 13.024 17.424C12.3093 17.168 11.5787 17.04 10.832 17.04C9.38133 17.04 8.18667 17.584 7.248 18.672C6.30933 19.76 5.84 21.4187 5.84 23.648C5.84 25.1413 6.05333 26.3627 6.48 27.312C6.91733 28.2507 7.50933 28.944 8.256 29.392C9.01333 29.8293 9.872 30.048 10.832 30.048ZM28.8195 14.8C30.4088 14.8 31.7368 15.1627 32.8035 15.888C33.8808 16.6027 34.6862 17.616 35.2195 18.928C35.7635 20.24 36.0355 21.7867 36.0355 23.568C36.0355 25.2853 35.7582 26.8053 35.2035 28.128C34.6488 29.4507 33.8328 30.4907 32.7555 31.248C31.6888 31.9947 30.3662 32.368 28.7875 32.368C27.2088 32.368 25.8808 32.0053 24.8035 31.28C23.7262 30.5547 22.9102 29.536 22.3555 28.224C21.8115 26.9013 21.5395 25.36 21.5395 23.6C21.5395 21.8613 21.8168 20.3307 22.3715 19.008C22.9262 17.6853 23.7422 16.656 24.8195 15.92C25.9075 15.1733 27.2408 14.8 28.8195 14.8ZM28.8195 16.992C27.3688 16.992 26.2702 17.5307 25.5235 18.608C24.7875 19.6747 24.4195 21.3387 24.4195 23.6C24.4195 25.8187 24.7822 27.4667 25.5075 28.544C26.2435 29.6213 27.3368 30.16 28.7875 30.16C30.2382 30.16 31.3262 29.6213 32.0515 28.544C32.7875 27.4667 33.1555 25.808 33.1555 23.568C33.1555 21.328 32.7928 19.6747 32.0675 18.608C31.3422 17.5307 30.2595 16.992 28.8195 16.992ZM41.591 32V15.152H43.879L44.087 17.488C44.7697 16.624 45.623 15.9627 46.647 15.504C47.6817 15.0347 48.6843 14.8 49.655 14.8C51.3083 14.8 52.5083 15.2373 53.255 16.112C54.0123 16.9867 54.391 18.2027 54.391 19.76V32H51.703V21.744C51.703 20.592 51.639 19.664 51.511 18.96C51.383 18.2453 51.1163 17.728 50.711 17.408C50.3057 17.0773 49.6763 16.912 48.823 16.912C48.1617 16.912 47.5377 17.056 46.951 17.344C46.375 17.632 45.8577 17.9947 45.399 18.432C44.951 18.8587 44.5777 19.2907 44.279 19.728V32H41.591ZM66.5065 30.144C67.7972 30.144 68.8158 29.904 69.5625 29.424C70.3198 28.9333 70.6985 28.2827 70.6985 27.472C70.6985 26.96 70.6025 26.5173 70.4105 26.144C70.2292 25.7707 69.8505 25.4347 69.2745 25.136C68.6985 24.8373 67.8132 24.5387 66.6185 24.24C65.4558 23.952 64.4425 23.6213 63.5785 23.248C62.7252 22.864 62.0585 22.368 61.5785 21.76C61.1092 21.152 60.8745 20.3627 60.8745 19.392C60.8745 18.4427 61.1412 17.6267 61.6745 16.944C62.2185 16.2507 62.9705 15.7227 63.9305 15.36C64.8905 14.9867 66.0052 14.8 67.2745 14.8C68.6292 14.8 69.8078 14.9813 70.8105 15.344C71.8238 15.696 72.6825 16.1333 73.3865 16.656L72.2025 18.48C71.5625 18.0427 70.8585 17.6853 70.0905 17.408C69.3225 17.12 68.3945 16.976 67.3065 16.976C65.9838 16.976 65.0452 17.184 64.4905 17.6C63.9358 18.0053 63.6585 18.5333 63.6585 19.184C63.6585 19.6747 63.7918 20.0853 64.0585 20.416C64.3358 20.736 64.7998 21.0293 65.4505 21.296C66.1012 21.552 66.9972 21.8347 68.1385 22.144C69.2372 22.432 70.1918 22.7787 71.0025 23.184C71.8238 23.5893 72.4638 24.1227 72.9225 24.784C73.3812 25.4453 73.6105 26.2987 73.6105 27.344C73.6105 28.5387 73.2692 29.5093 72.5865 30.256C71.9038 30.992 71.0185 31.5307 69.9305 31.872C68.8532 32.2027 67.7118 32.368 66.5065 32.368C64.9812 32.368 63.6798 32.1493 62.6025 31.712C61.5358 31.264 60.6398 30.7253 59.9145 30.096L61.4505 28.32C62.1118 28.864 62.8692 29.3067 63.7225 29.648C64.5865 29.9787 65.5145 30.144 66.5065 30.144ZM93.342 31.152C92.766 31.536 92.0673 31.8347 91.246 32.048C90.4247 32.2613 89.6193 32.368 88.83 32.368C87.0167 32.368 85.6193 31.8933 84.638 30.944C83.6567 29.9947 83.166 28.7733 83.166 27.28V17.232H79.294V15.152H83.166V11.328L85.854 11.008V15.152H91.678L91.358 17.232H85.854V27.248C85.854 28.1867 86.0993 28.9013 86.59 29.392C87.0913 29.8827 87.918 30.128 89.07 30.128C89.6993 30.128 90.2807 30.0533 90.814 29.904C91.3473 29.7547 91.8433 29.5627 92.302 29.328L93.342 31.152ZM322.824 17.856V20.176H310.376V17.856H322.824ZM322.824 23.92V26.256H310.376V23.92H322.824ZM122.117 71.76C122.117 71.0667 122.362 70.464 122.853 69.952C123.354 69.44 123.968 69.184 124.693 69.184C125.44 69.184 126.058 69.44 126.549 69.952C127.05 70.464 127.301 71.0667 127.301 71.76C127.301 72.4853 127.05 73.104 126.549 73.616C126.058 74.1173 125.44 74.368 124.693 74.368C123.968 74.368 123.354 74.1173 122.853 73.616C122.362 73.104 122.117 72.4853 122.117 71.76ZM122.117 60.224C122.117 59.7333 122.229 59.296 122.453 58.912C122.677 58.528 122.986 58.224 123.381 58C123.776 57.7653 124.213 57.648 124.693 57.648C125.44 57.648 126.058 57.8987 126.549 58.4C127.05 58.9013 127.301 59.5093 127.301 60.224C127.301 60.928 127.05 61.5413 126.549 62.064C126.058 62.576 125.44 62.832 124.693 62.832C123.968 62.832 123.354 62.576 122.853 62.064C122.362 61.5413 122.117 60.928 122.117 60.224ZM102.93 113.76C102.93 113.067 103.175 112.464 103.666 111.952C104.167 111.44 104.78 111.184 105.506 111.184C106.252 111.184 106.871 111.44 107.362 111.952C107.863 112.464 108.114 113.067 108.114 113.76C108.114 114.485 107.863 115.104 107.362 115.616C106.871 116.117 106.252 116.368 105.506 116.368C104.78 116.368 104.167 116.117 103.666 115.616C103.175 115.104 102.93 114.485 102.93 113.76ZM102.93 102.224C102.93 101.733 103.042 101.296 103.266 100.912C103.49 100.528 103.799 100.224 104.194 100C104.588 99.7653 105.026 99.648 105.506 99.648C106.252 99.648 106.871 99.8987 107.362 100.4C107.863 100.901 108.114 101.509 108.114 102.224C108.114 102.928 107.863 103.541 107.362 104.064C106.871 104.576 106.252 104.832 105.506 104.832C104.78 104.832 104.167 104.576 103.666 104.064C103.175 103.541 102.93 102.928 102.93 102.224ZM160.492 155.76C160.492 155.067 160.737 154.464 161.228 153.952C161.729 153.44 162.343 153.184 163.068 153.184C163.815 153.184 164.433 153.44 164.924 153.952C165.425 154.464 165.676 155.067 165.676 155.76C165.676 156.485 165.425 157.104 164.924 157.616C164.433 158.117 163.815 158.368 163.068 158.368C162.343 158.368 161.729 158.117 161.228 157.616C160.737 157.104 160.492 156.485 160.492 155.76ZM160.492 144.224C160.492 143.733 160.604 143.296 160.828 142.912C161.052 142.528 161.361 142.224 161.756 142C162.151 141.765 162.588 141.648 163.068 141.648C163.815 141.648 164.433 141.899 164.924 142.4C165.425 142.901 165.676 143.509 165.676 144.224C165.676 144.928 165.425 145.541 164.924 146.064C164.433 146.576 163.815 146.832 163.068 146.832C162.343 146.832 161.729 146.576 161.228 146.064C160.737 145.541 160.492 144.928 160.492 144.224ZM197.763 161.696V131.904H205.779V134.224H200.307V159.408H205.779V161.696H197.763ZM819.187 131.904V161.696H811.171V159.424H816.643V134.224H811.171V131.904H819.187Z" fill="#DA68BA"/>
<path d="M359.823 5.264V7.376C359.044 7.376 358.335 7.456 357.695 7.616C357.066 7.76533 356.575 8.02667 356.223 8.4C355.882 8.77333 355.738 9.28533 355.791 9.936L356.463 16.496C356.559 17.392 356.506 18.1333 356.303 18.72C356.1 19.3067 355.759 19.7653 355.279 20.096C354.81 20.4267 354.207 20.6613 353.471 20.8C354.218 20.928 354.831 21.152 355.311 21.472C355.791 21.7813 356.127 22.2293 356.319 22.816C356.511 23.392 356.559 24.1547 356.463 25.104L355.791 31.664C355.738 32.3253 355.882 32.8427 356.223 33.216C356.564 33.5893 357.055 33.8507 357.695 34C358.335 34.1493 359.044 34.224 359.823 34.224V36.336C358.927 36.336 358.068 36.256 357.247 36.096C356.426 35.9467 355.7 35.6853 355.071 35.312C354.442 34.9387 353.967 34.4267 353.647 33.776C353.327 33.136 353.22 32.3253 353.327 31.344L353.967 25.264C354.052 24.528 353.983 23.9093 353.759 23.408C353.546 22.9067 353.076 22.528 352.351 22.272C351.636 22.0053 350.564 21.872 349.135 21.872V19.728C350.564 19.728 351.636 19.6 352.351 19.344C353.076 19.088 353.546 18.7093 353.759 18.208C353.983 17.7067 354.052 17.0933 353.967 16.368L353.327 10.256C353.22 9.27467 353.327 8.464 353.647 7.824C353.967 7.17333 354.436 6.66133 355.055 6.288C355.684 5.91467 356.41 5.65333 357.231 5.504C358.063 5.344 358.927 5.264 359.823 5.264ZM41.591 74V57.152H43.879L44.087 59.488C44.7697 58.624 45.623 57.9627 46.647 57.504C47.6817 57.0347 48.6843 56.8 49.655 56.8C51.3083 56.8 52.5083 57.2373 53.255 58.112C54.0123 58.9867 54.391 60.2027 54.391 61.76V74H51.703V63.744C51.703 62.592 51.639 61.664 51.511 60.96C51.383 60.2453 51.1163 59.728 50.711 59.408C50.3057 59.0773 49.6763 58.912 48.823 58.912C48.1617 58.912 47.5377 59.056 46.951 59.344C46.375 59.632 45.8577 59.9947 45.399 60.432C44.951 60.8587 44.5777 61.2907 44.279 61.728V74H41.591ZM72.8425 70.32C72.8425 70.992 72.9545 71.4827 73.1785 71.792C73.4025 72.1013 73.7492 72.3307 74.2185 72.48L73.5625 74.368C72.8372 74.272 72.2025 74.0427 71.6585 73.68C71.1145 73.3067 70.7198 72.7467 70.4745 72C69.8665 72.7787 69.1092 73.3707 68.2025 73.776C67.2958 74.1707 66.2932 74.368 65.1945 74.368C63.5092 74.368 62.1812 73.8933 61.2105 72.944C60.2398 71.9947 59.7545 70.736 59.7545 69.168C59.7545 67.4293 60.4318 66.096 61.7865 65.168C63.1412 64.24 65.0985 63.776 67.6585 63.776H70.1385V62.368C70.1385 61.152 69.7812 60.2933 69.0665 59.792C68.3625 59.28 67.3812 59.024 66.1225 59.024C65.5678 59.024 64.9172 59.0933 64.1705 59.232C63.4238 59.36 62.6132 59.5787 61.7385 59.888L61.0345 57.856C62.0692 57.472 63.0398 57.2 63.9465 57.04C64.8532 56.88 65.7172 56.8 66.5385 56.8C68.6398 56.8 70.2132 57.2907 71.2585 58.272C72.3145 59.2427 72.8425 60.5653 72.8425 62.24V70.32ZM65.8825 72.32C66.7145 72.32 67.5092 72.112 68.2665 71.696C69.0238 71.2693 69.6478 70.6827 70.1385 69.936V65.6H67.7065C65.8505 65.6 64.5385 65.92 63.7705 66.56C63.0132 67.2 62.6345 68.0587 62.6345 69.136C62.6345 70.1813 62.9012 70.976 63.4345 71.52C63.9785 72.0533 64.7945 72.32 65.8825 72.32ZM91.07 56.8C91.614 56.8 92.1313 56.9173 92.622 57.152C93.1233 57.3867 93.534 57.84 93.854 58.512C94.174 59.184 94.334 60.1653 94.334 61.456V74H91.838V61.888C91.838 60.832 91.774 60.0693 91.646 59.6C91.518 59.1307 91.15 58.896 90.542 58.896C90.0407 58.896 89.5393 59.056 89.038 59.376C88.5473 59.6853 88.0673 60.1973 87.598 60.912V74H85.086V61.888C85.086 60.832 85.022 60.0693 84.894 59.6C84.766 59.1307 84.398 58.896 83.79 58.896C83.2673 58.896 82.7607 59.056 82.27 59.376C81.79 59.6853 81.3153 60.1973 80.846 60.912V74H78.366V57.152H80.478L80.638 59.104C81.0967 58.4533 81.6087 57.9093 82.174 57.472C82.75 57.024 83.4593 56.8 84.302 56.8C84.942 56.8 85.5447 56.9547 86.11 57.264C86.6753 57.5627 87.0913 58.1493 87.358 59.024C87.8167 58.3627 88.334 57.8293 88.91 57.424C89.486 57.008 90.206 56.8 91.07 56.8ZM101.266 66.528C101.319 67.8293 101.57 68.896 102.018 69.728C102.466 70.5493 103.058 71.1573 103.794 71.552C104.53 71.936 105.33 72.128 106.194 72.128C107.058 72.128 107.836 72 108.53 71.744C109.234 71.488 109.954 71.1093 110.69 70.608L111.954 72.384C111.164 73.0027 110.263 73.488 109.25 73.84C108.247 74.192 107.218 74.368 106.162 74.368C104.53 74.368 103.138 74 101.986 73.264C100.834 72.528 99.9535 71.504 99.3455 70.192C98.7482 68.8693 98.4495 67.3387 98.4495 65.6C98.4495 63.8933 98.7535 62.3787 99.3615 61.056C99.9695 59.7333 100.823 58.6933 101.922 57.936C103.02 57.1787 104.316 56.8 105.81 56.8C107.228 56.8 108.45 57.136 109.474 57.808C110.498 58.4693 111.282 59.4187 111.826 60.656C112.38 61.8827 112.658 63.3493 112.658 65.056C112.658 65.344 112.652 65.616 112.642 65.872C112.631 66.1173 112.615 66.336 112.594 66.528H101.266ZM105.842 59.008C104.594 59.008 103.548 59.4507 102.706 60.336C101.874 61.2213 101.399 62.592 101.282 64.448H110.066C110.034 62.6453 109.639 61.2907 108.882 60.384C108.124 59.4667 107.111 59.008 105.842 59.008ZM53.655 112.32C53.655 112.992 53.767 113.483 53.991 113.792C54.215 114.101 54.5617 114.331 55.031 114.48L54.375 116.368C53.6497 116.272 53.015 116.043 52.471 115.68C51.927 115.307 51.5323 114.747 51.287 114C50.679 114.779 49.9217 115.371 49.015 115.776C48.1083 116.171 47.1057 116.368 46.007 116.368C44.3217 116.368 42.9937 115.893 42.023 114.944C41.0523 113.995 40.567 112.736 40.567 111.168C40.567 109.429 41.2443 108.096 42.599 107.168C43.9537 106.24 45.911 105.776 48.471 105.776H50.951V104.368C50.951 103.152 50.5937 102.293 49.879 101.792C49.175 101.28 48.1937 101.024 46.935 101.024C46.3803 101.024 45.7297 101.093 44.983 101.232C44.2363 101.36 43.4257 101.579 42.551 101.888L41.847 99.856C42.8817 99.472 43.8523 99.2 44.759 99.04C45.6657 98.88 46.5297 98.8 47.351 98.8C49.4523 98.8 51.0257 99.2907 52.071 100.272C53.127 101.243 53.655 102.565 53.655 104.24V112.32ZM46.695 114.32C47.527 114.32 48.3217 114.112 49.079 113.696C49.8363 113.269 50.4603 112.683 50.951 111.936V107.6H48.519C46.663 107.6 45.351 107.92 44.583 108.56C43.8257 109.2 43.447 110.059 43.447 111.136C43.447 112.181 43.7137 112.976 44.247 113.52C44.791 114.053 45.607 114.32 46.695 114.32ZM74.4745 97.36L75.3065 99.888C74.5918 100.112 73.8292 100.251 73.0185 100.304C72.2078 100.357 71.3278 100.384 70.3785 100.384C71.3492 100.832 72.0798 101.413 72.5705 102.128C73.0612 102.832 73.3065 103.664 73.3065 104.624C73.3065 105.733 73.0558 106.72 72.5545 107.584C72.0532 108.448 71.3278 109.125 70.3785 109.616C69.4398 110.107 68.3038 110.352 66.9705 110.352C66.4052 110.352 65.9305 110.325 65.5465 110.272C65.1732 110.219 64.8105 110.139 64.4585 110.032C64.2025 110.203 63.9892 110.437 63.8185 110.736C63.6585 111.035 63.5785 111.344 63.5785 111.664C63.5785 112.069 63.7385 112.405 64.0585 112.672C64.3785 112.939 64.9705 113.072 65.8345 113.072H68.8745C70.0052 113.072 71.0185 113.275 71.9145 113.68C72.8212 114.085 73.5305 114.629 74.0425 115.312C74.5652 115.995 74.8265 116.773 74.8265 117.648C74.8265 119.301 74.1225 120.571 72.7145 121.456C71.3172 122.341 69.3385 122.784 66.7785 122.784C64.9865 122.784 63.5732 122.597 62.5385 122.224C61.5038 121.861 60.7625 121.301 60.3145 120.544C59.8772 119.797 59.6585 118.853 59.6585 117.712H62.0905C62.0905 118.363 62.2185 118.901 62.4745 119.328C62.7305 119.755 63.1945 120.069 63.8665 120.272C64.5385 120.485 65.5038 120.592 66.7625 120.592C67.9998 120.592 69.0078 120.485 69.7865 120.272C70.5758 120.069 71.1572 119.76 71.5305 119.344C71.9145 118.939 72.1065 118.432 72.1065 117.824C72.1065 117.024 71.7438 116.421 71.0185 116.016C70.2932 115.611 69.3865 115.408 68.2985 115.408H65.2905C63.8398 115.408 62.7678 115.088 62.0745 114.448C61.3918 113.808 61.0505 113.072 61.0505 112.24C61.0505 111.696 61.2052 111.168 61.5145 110.656C61.8345 110.144 62.2985 109.691 62.9065 109.296C61.9358 108.784 61.2212 108.149 60.7625 107.392C60.3038 106.635 60.0745 105.717 60.0745 104.64C60.0745 103.499 60.3572 102.491 60.9225 101.616C61.4878 100.731 62.2772 100.037 63.2905 99.536C64.3038 99.0347 65.4718 98.784 66.7945 98.784C68.2132 98.7733 69.3652 98.7147 70.2505 98.608C71.1358 98.4907 71.8932 98.3253 72.5225 98.112C73.1625 97.8987 73.8132 97.648 74.4745 97.36ZM66.7945 100.752C65.4398 100.752 64.4372 101.12 63.7865 101.856C63.1465 102.581 62.8265 103.509 62.8265 104.64C62.8265 105.781 63.1572 106.72 63.8185 107.456C64.4798 108.192 65.4932 108.56 66.8585 108.56C68.0532 108.56 68.9598 108.213 69.5785 107.52C70.2078 106.827 70.5225 105.861 70.5225 104.624C70.5225 103.355 70.2078 102.395 69.5785 101.744C68.9598 101.083 68.0318 100.752 66.7945 100.752ZM82.078 108.528C82.1313 109.829 82.382 110.896 82.83 111.728C83.278 112.549 83.87 113.157 84.606 113.552C85.342 113.936 86.142 114.128 87.006 114.128C87.87 114.128 88.6487 114 89.342 113.744C90.046 113.488 90.766 113.109 91.502 112.608L92.766 114.384C91.9767 115.003 91.0753 115.488 90.062 115.84C89.0593 116.192 88.03 116.368 86.974 116.368C85.342 116.368 83.95 116 82.798 115.264C81.646 114.528 80.766 113.504 80.158 112.192C79.5607 110.869 79.262 109.339 79.262 107.6C79.262 105.893 79.566 104.379 80.174 103.056C80.782 101.733 81.6353 100.693 82.734 99.936C83.8327 99.1787 85.1287 98.8 86.622 98.8C88.0407 98.8 89.262 99.136 90.286 99.808C91.31 100.469 92.094 101.419 92.638 102.656C93.1927 103.883 93.47 105.349 93.47 107.056C93.47 107.344 93.4647 107.616 93.454 107.872C93.4433 108.117 93.4273 108.336 93.406 108.528H82.078ZM86.654 101.008C85.406 101.008 84.3607 101.451 83.518 102.336C82.686 103.221 82.2113 104.592 82.094 106.448H90.878C90.846 104.645 90.4513 103.291 89.694 102.384C88.9367 101.467 87.9233 101.008 86.654 101.008ZM182.288 110.736C183.024 110.736 183.637 110.987 184.128 111.488C184.629 111.989 184.88 112.592 184.88 113.296C184.88 113.68 184.832 114.069 184.736 114.464C184.65 114.859 184.49 115.307 184.256 115.808L181.664 121.744H179.232L180.767 115.424C180.448 115.189 180.192 114.885 180 114.512C179.818 114.128 179.728 113.723 179.728 113.296C179.728 112.581 179.973 111.979 180.464 111.488C180.954 110.987 181.562 110.736 182.288 110.736ZM47.319 156.144C48.6097 156.144 49.6283 155.904 50.375 155.424C51.1323 154.933 51.511 154.283 51.511 153.472C51.511 152.96 51.415 152.517 51.223 152.144C51.0417 151.771 50.663 151.435 50.087 151.136C49.511 150.837 48.6257 150.539 47.431 150.24C46.2683 149.952 45.255 149.621 44.391 149.248C43.5377 148.864 42.871 148.368 42.391 147.76C41.9217 147.152 41.687 146.363 41.687 145.392C41.687 144.443 41.9537 143.627 42.487 142.944C43.031 142.251 43.783 141.723 44.743 141.36C45.703 140.987 46.8177 140.8 48.087 140.8C49.4417 140.8 50.6203 140.981 51.623 141.344C52.6363 141.696 53.495 142.133 54.199 142.656L53.015 144.48C52.375 144.043 51.671 143.685 50.903 143.408C50.135 143.12 49.207 142.976 48.119 142.976C46.7963 142.976 45.8577 143.184 45.303 143.6C44.7483 144.005 44.471 144.533 44.471 145.184C44.471 145.675 44.6043 146.085 44.871 146.416C45.1483 146.736 45.6123 147.029 46.263 147.296C46.9137 147.552 47.8097 147.835 48.951 148.144C50.0497 148.432 51.0043 148.779 51.815 149.184C52.6363 149.589 53.2763 150.123 53.735 150.784C54.1937 151.445 54.423 152.299 54.423 153.344C54.423 154.539 54.0817 155.509 53.399 156.256C52.7163 156.992 51.831 157.531 50.743 157.872C49.6657 158.203 48.5243 158.368 47.319 158.368C45.7937 158.368 44.4923 158.149 43.415 157.712C42.3483 157.264 41.4523 156.725 40.727 156.096L42.263 154.32C42.9243 154.864 43.6817 155.307 44.535 155.648C45.399 155.979 46.327 156.144 47.319 156.144ZM74.8905 141.152L67.3065 148.736L75.7705 158H72.2345L63.9465 148.8L71.4025 141.152H74.8905ZM63.6425 134.032V158H60.9545V134.368L63.6425 134.032ZM88.494 141.152V155.872H93.246V158H80.606V155.872H85.806V143.28H80.766V141.152H88.494ZM86.35 133.264C86.9473 133.264 87.422 133.445 87.774 133.808C88.1367 134.171 88.318 134.613 88.318 135.136C88.318 135.68 88.1367 136.139 87.774 136.512C87.422 136.875 86.9473 137.056 86.35 137.056C85.7847 137.056 85.3207 136.875 84.958 136.512C84.5953 136.139 84.414 135.68 84.414 135.136C84.414 134.613 84.5953 134.171 84.958 133.808C85.3207 133.445 85.7847 133.264 86.35 133.264ZM105.714 134.368V153.84C105.714 154.672 105.97 155.264 106.482 155.616C107.004 155.957 107.676 156.128 108.498 156.128C109.01 156.128 109.495 156.075 109.954 155.968C110.412 155.861 110.871 155.717 111.33 155.536L112.05 157.504C111.591 157.728 111.02 157.925 110.338 158.096C109.666 158.277 108.903 158.368 108.05 158.368C106.556 158.368 105.346 157.957 104.418 157.136C103.49 156.304 103.026 155.157 103.026 153.696V136.496H97.8575V134.368H105.714ZM124.901 134.368V153.84C124.901 154.672 125.157 155.264 125.669 155.616C126.192 155.957 126.864 156.128 127.685 156.128C128.197 156.128 128.682 156.075 129.141 155.968C129.6 155.861 130.058 155.717 130.517 155.536L131.237 157.504C130.778 157.728 130.208 157.925 129.525 158.096C128.853 158.277 128.09 158.368 127.237 158.368C125.744 158.368 124.533 157.957 123.605 157.136C122.677 156.304 122.213 155.157 122.213 153.696V136.496H117.045V134.368H124.901ZM143.257 156.144C144.547 156.144 145.566 155.904 146.313 155.424C147.07 154.933 147.449 154.283 147.449 153.472C147.449 152.96 147.353 152.517 147.161 152.144C146.979 151.771 146.601 151.435 146.025 151.136C145.449 150.837 144.563 150.539 143.369 150.24C142.206 149.952 141.193 149.621 140.329 149.248C139.475 148.864 138.809 148.368 138.329 147.76C137.859 147.152 137.625 146.363 137.625 145.392C137.625 144.443 137.891 143.627 138.424 142.944C138.969 142.251 139.721 141.723 140.681 141.36C141.641 140.987 142.755 140.8 144.025 140.8C145.379 140.8 146.558 140.981 147.561 141.344C148.574 141.696 149.433 142.133 150.137 142.656L148.953 144.48C148.313 144.043 147.609 143.685 146.841 143.408C146.073 143.12 145.145 142.976 144.057 142.976C142.734 142.976 141.795 143.184 141.241 143.6C140.686 144.005 140.409 144.533 140.409 145.184C140.409 145.675 140.542 146.085 140.809 146.416C141.086 146.736 141.55 147.029 142.201 147.296C142.851 147.552 143.747 147.835 144.889 148.144C145.987 148.432 146.942 148.779 147.753 149.184C148.574 149.589 149.214 150.123 149.673 150.784C150.131 151.445 150.361 152.299 150.361 153.344C150.361 154.539 150.019 155.509 149.337 156.256C148.654 156.992 147.769 157.531 146.681 157.872C145.603 158.203 144.462 158.368 143.257 158.368C141.731 158.368 140.43 158.149 139.353 157.712C138.286 157.264 137.39 156.725 136.664 156.096L138.201 154.32C138.862 154.864 139.619 155.307 140.473 155.648C141.337 155.979 142.265 156.144 143.257 156.144ZM412.538 152.736C413.274 152.736 413.887 152.987 414.378 153.488C414.879 153.989 415.13 154.592 415.13 155.296C415.13 155.68 415.082 156.069 414.986 156.464C414.9 156.859 414.74 157.307 414.506 157.808L411.914 163.744H409.482L411.017 157.424C410.698 157.189 410.442 156.885 410.25 156.512C410.068 156.128 409.978 155.723 409.978 155.296C409.978 154.581 410.223 153.979 410.714 153.488C411.204 152.987 411.812 152.736 412.538 152.736ZM623.6 152.736C624.336 152.736 624.949 152.987 625.44 153.488C625.941 153.989 626.192 154.592 626.192 155.296C626.192 155.68 626.144 156.069 626.048 156.464C625.963 156.859 625.803 157.307 625.568 157.808L622.976 163.744H620.544L622.08 157.424C621.76 157.189 621.504 156.885 621.312 156.512C621.131 156.128 621.04 155.723 621.04 155.296C621.04 154.581 621.285 153.979 621.776 153.488C622.267 152.987 622.875 152.736 623.6 152.736ZM834.663 152.736C835.399 152.736 836.012 152.987 836.503 153.488C837.004 153.989 837.255 154.592 837.255 155.296C837.255 155.68 837.207 156.069 837.111 156.464C837.025 156.859 836.865 157.307 836.631 157.808L834.039 163.744H831.607L833.142 157.424C832.823 157.189 832.567 156.885 832.375 156.512C832.193 156.128 832.103 155.723 832.103 155.296C832.103 154.581 832.348 153.979 832.839 153.488C833.329 152.987 833.937 152.736 834.663 152.736ZM4.752 173.264C5.648 173.264 6.50667 173.344 7.328 173.504C8.14933 173.653 8.87467 173.915 9.504 174.288C10.1333 174.661 10.608 175.173 10.928 175.824C11.2587 176.464 11.3653 177.275 11.248 178.256L10.608 184.368C10.5227 185.093 10.6133 185.707 10.88 186.208C11.1573 186.709 11.6587 187.088 12.384 187.344C13.1093 187.6 14.128 187.728 15.44 187.728V189.872C14.1387 189.872 13.12 190.005 12.384 190.272C11.6587 190.528 11.1573 190.907 10.88 191.408C10.6133 191.909 10.5227 192.528 10.608 193.264L11.248 199.344C11.3547 200.325 11.248 201.136 10.928 201.776C10.608 202.427 10.1333 202.939 9.504 203.312C8.88533 203.685 8.16 203.947 7.328 204.096C6.50667 204.256 5.648 204.336 4.752 204.336V202.224C5.53067 202.224 6.23467 202.149 6.864 202C7.504 201.851 8 201.589 8.352 201.216C8.704 200.843 8.848 200.325 8.784 199.664L8.112 193.104C8.016 192.155 8.06933 191.392 8.272 190.816C8.47467 190.229 8.83733 189.781 9.36 189.472C9.89333 189.163 10.592 188.949 11.456 188.832C10.624 188.693 9.94133 188.453 9.408 188.112C8.88533 187.771 8.51733 187.307 8.304 186.72C8.09067 186.133 8.02667 185.392 8.112 184.496L8.784 177.936C8.848 177.285 8.704 176.773 8.352 176.4C8 176.027 7.50933 175.765 6.88 175.616C6.25067 175.456 5.54133 175.376 4.752 175.376V173.264Z" fill="white"/>
<path d="M128.421 8.032L131.109 8.368V32H128.757L128.501 29.776C127.872 30.672 127.146 31.328 126.325 31.744C125.514 32.16 124.645 32.368 123.717 32.368C122.256 32.368 121.05 32 120.101 31.264C119.152 30.528 118.448 29.504 117.989 28.192C117.53 26.8693 117.301 25.3387 117.301 23.6C117.301 21.9147 117.562 20.4107 118.085 19.088C118.608 17.7547 119.36 16.7093 120.341 15.952C121.333 15.184 122.522 14.8 123.909 14.8C124.88 14.8 125.733 14.9707 126.469 15.312C127.205 15.6427 127.856 16.1333 128.421 16.784V8.032ZM124.613 16.96C123.205 16.96 122.122 17.5093 121.365 18.608C120.608 19.7067 120.229 21.3707 120.229 23.6C120.229 25.0507 120.384 26.2667 120.693 27.248C121.002 28.2293 121.456 28.9653 122.053 29.456C122.661 29.9467 123.402 30.192 124.277 30.192C125.237 30.192 126.053 29.92 126.725 29.376C127.408 28.832 127.973 28.2187 128.421 27.536V19.12C127.962 18.4373 127.408 17.9093 126.757 17.536C126.106 17.152 125.392 16.96 124.613 16.96ZM139.641 24.528C139.694 25.8293 139.945 26.896 140.393 27.728C140.841 28.5493 141.433 29.1573 142.169 29.552C142.905 29.936 143.705 30.128 144.569 30.128C145.433 30.128 146.211 30 146.905 29.744C147.609 29.488 148.329 29.1093 149.065 28.608L150.329 30.384C149.539 31.0027 148.638 31.488 147.625 31.84C146.622 32.192 145.593 32.368 144.537 32.368C142.905 32.368 141.513 32 140.361 31.264C139.209 30.528 138.329 29.504 137.721 28.192C137.123 26.8693 136.825 25.3387 136.825 23.6C136.825 21.8933 137.129 20.3787 137.737 19.056C138.345 17.7333 139.198 16.6933 140.297 15.936C141.395 15.1787 142.691 14.8 144.185 14.8C145.603 14.8 146.825 15.136 147.849 15.808C148.873 16.4693 149.657 17.4187 150.201 18.656C150.755 19.8827 151.033 21.3493 151.033 23.056C151.033 23.344 151.027 23.616 151.017 23.872C151.006 24.1173 150.99 24.336 150.969 24.528H139.641ZM144.217 17.008C142.969 17.008 141.923 17.4507 141.081 18.336C140.249 19.2213 139.774 20.592 139.657 22.448H148.441C148.409 20.6453 148.014 19.2907 147.257 18.384C146.499 17.4667 145.486 17.008 144.217 17.008ZM170.764 15.152L164.636 32H161.516L155.436 15.152H158.284L163.164 29.552L167.98 15.152H170.764ZM178.016 24.528C178.069 25.8293 178.32 26.896 178.768 27.728C179.216 28.5493 179.808 29.1573 180.544 29.552C181.28 29.936 182.08 30.128 182.944 30.128C183.808 30.128 184.586 30 185.28 29.744C185.984 29.488 186.704 29.1093 187.44 28.608L188.704 30.384C187.914 31.0027 187.013 31.488 186 31.84C184.997 32.192 183.968 32.368 182.912 32.368C181.28 32.368 179.888 32 178.736 31.264C177.584 30.528 176.704 29.504 176.096 28.192C175.498 26.8693 175.2 25.3387 175.2 23.6C175.2 21.8933 175.504 20.3787 176.112 19.056C176.72 17.7333 177.573 16.6933 178.672 15.936C179.77 15.1787 181.066 14.8 182.56 14.8C183.978 14.8 185.2 15.136 186.224 15.808C187.248 16.4693 188.032 17.4187 188.576 18.656C189.13 19.8827 189.408 21.3493 189.408 23.056C189.408 23.344 189.402 23.616 189.392 23.872C189.381 24.1173 189.365 24.336 189.344 24.528H178.016ZM182.592 17.008C181.344 17.008 180.298 17.4507 179.456 18.336C178.624 19.2213 178.149 20.592 178.032 22.448H186.816C186.784 20.6453 186.389 19.2907 185.632 18.384C184.874 17.4667 183.861 17.008 182.592 17.008ZM201.651 8.368V27.84C201.651 28.672 201.907 29.264 202.419 29.616C202.942 29.9573 203.614 30.128 204.435 30.128C204.947 30.128 205.432 30.0747 205.891 29.968C206.35 29.8613 206.808 29.7173 207.267 29.536L207.987 31.504C207.528 31.728 206.958 31.9253 206.275 32.096C205.603 32.2773 204.84 32.368 203.987 32.368C202.494 32.368 201.283 31.9573 200.355 31.136C199.427 30.304 198.963 29.1573 198.963 27.696V10.496H193.795V8.368H201.651ZM220.695 14.8C222.284 14.8 223.612 15.1627 224.679 15.888C225.756 16.6027 226.561 17.616 227.095 18.928C227.639 20.24 227.911 21.7867 227.911 23.568C227.911 25.2853 227.633 26.8053 227.079 28.128C226.524 29.4507 225.708 30.4907 224.631 31.248C223.564 31.9947 222.241 32.368 220.663 32.368C219.084 32.368 217.756 32.0053 216.679 31.28C215.601 30.5547 214.785 29.536 214.231 28.224C213.687 26.9013 213.414 25.36 213.414 23.6C213.414 21.8613 213.692 20.3307 214.247 19.008C214.801 17.6853 215.617 16.656 216.695 15.92C217.783 15.1733 219.116 14.8 220.695 14.8ZM220.695 16.992C219.244 16.992 218.145 17.5307 217.399 18.608C216.663 19.6747 216.295 21.3387 216.295 23.6C216.295 25.8187 216.657 27.4667 217.383 28.544C218.119 29.6213 219.212 30.16 220.663 30.16C222.113 30.16 223.201 29.6213 223.927 28.544C224.663 27.4667 225.031 25.808 225.031 23.568C225.031 21.328 224.668 19.6747 223.943 18.608C223.217 17.5307 222.135 16.992 220.695 16.992ZM241.002 14.8C242.495 14.8 243.685 15.1627 244.57 15.888C245.466 16.6133 246.111 17.6373 246.506 18.96C246.901 20.272 247.098 21.808 247.098 23.568C247.098 25.264 246.858 26.7787 246.378 28.112C245.909 29.4347 245.194 30.4747 244.234 31.232C243.274 31.9893 242.063 32.368 240.602 32.368C238.757 32.368 237.274 31.7173 236.154 30.416V38.448L233.466 38.784V15.152H235.754L235.978 17.504C236.597 16.64 237.333 15.9733 238.186 15.504C239.05 15.0347 239.989 14.8 241.002 14.8ZM240.362 16.96C239.434 16.96 238.613 17.2427 237.898 17.808C237.194 18.3627 236.613 18.9813 236.154 19.664V28.016C236.591 28.6667 237.141 29.184 237.802 29.568C238.474 29.9413 239.21 30.128 240.01 30.128C241.407 30.128 242.458 29.5947 243.162 28.528C243.866 27.4613 244.218 25.8027 244.218 23.552C244.218 22.08 244.079 20.8587 243.802 19.888C243.525 18.9067 243.103 18.176 242.538 17.696C241.973 17.2053 241.247 16.96 240.362 16.96ZM254.766 24.528C254.819 25.8293 255.07 26.896 255.518 27.728C255.966 28.5493 256.558 29.1573 257.294 29.552C258.03 29.936 258.83 30.128 259.694 30.128C260.558 30.128 261.336 30 262.03 29.744C262.734 29.488 263.454 29.1093 264.19 28.608L265.454 30.384C264.664 31.0027 263.763 31.488 262.75 31.84C261.747 32.192 260.718 32.368 259.662 32.368C258.03 32.368 256.638 32 255.486 31.264C254.334 30.528 253.454 29.504 252.846 28.192C252.248 26.8693 251.95 25.3387 251.95 23.6C251.95 21.8933 252.254 20.3787 252.862 19.056C253.47 17.7333 254.323 16.6933 255.422 15.936C256.52 15.1787 257.816 14.8 259.31 14.8C260.728 14.8 261.95 15.136 262.974 15.808C263.998 16.4693 264.782 17.4187 265.326 18.656C265.88 19.8827 266.158 21.3493 266.158 23.056C266.158 23.344 266.152 23.616 266.142 23.872C266.131 24.1173 266.115 24.336 266.094 24.528H254.766ZM259.342 17.008C258.094 17.008 257.048 17.4507 256.206 18.336C255.374 19.2213 254.899 20.592 254.782 22.448H263.566C263.534 20.6453 263.139 19.2907 262.382 18.384C261.624 17.4667 260.611 17.008 259.342 17.008ZM272.001 32V29.936H274.625V17.216H272.001V15.152H276.673L277.169 19.136C277.82 17.7493 278.609 16.6773 279.537 15.92C280.465 15.1627 281.692 14.784 283.217 14.784C283.686 14.784 284.102 14.8213 284.465 14.896C284.838 14.96 285.217 15.0453 285.601 15.152L284.817 17.552C284.465 17.456 284.145 17.3867 283.857 17.344C283.569 17.2907 283.238 17.264 282.865 17.264C281.574 17.264 280.465 17.7227 279.537 18.64C278.609 19.5573 277.868 20.944 277.313 22.8V29.936H280.737V32H272.001ZM283.009 20.848V17.184L283.281 15.152H285.601L285.217 20.848H283.009ZM142.937 93.616C144.323 93.616 145.507 93.8827 146.489 94.416C147.481 94.9493 148.243 95.68 148.777 96.608C149.31 97.536 149.577 98.5867 149.577 99.76C149.577 100.773 149.401 101.765 149.049 102.736C148.697 103.696 148.131 104.709 147.353 105.776C146.585 106.832 145.571 108.005 144.312 109.296C143.065 110.587 141.529 112.059 139.705 113.712H150.089L149.753 116H136.649V113.808C138.313 112.219 139.726 110.827 140.889 109.632C142.062 108.437 143.027 107.392 143.785 106.496C144.553 105.589 145.15 104.768 145.577 104.032C146.014 103.296 146.318 102.597 146.489 101.936C146.659 101.264 146.745 100.571 146.745 99.856C146.745 98.6187 146.393 97.6427 145.689 96.928C144.995 96.2133 144.035 95.856 142.809 95.856C141.721 95.856 140.83 96.0427 140.137 96.416C139.443 96.7893 138.75 97.3867 138.057 98.208L136.201 96.768C137.075 95.7013 138.046 94.912 139.113 94.4C140.179 93.8773 141.454 93.616 142.937 93.616ZM162.764 93.648C164.364 93.648 165.697 94.016 166.764 94.752C167.831 95.488 168.625 96.528 169.148 97.872C169.681 99.216 169.948 100.811 169.948 102.656C169.948 104.875 169.719 106.757 169.26 108.304C168.812 109.84 168.113 111.125 167.164 112.16C166.215 113.195 164.999 114.064 163.516 114.768C162.033 115.472 160.263 116.107 158.204 116.672L157.58 114.624C159.671 114.037 161.409 113.344 162.796 112.544C164.183 111.733 165.233 110.715 165.948 109.488C166.663 108.251 167.047 106.715 167.1 104.88L167.148 103.344C167.159 101.509 167.004 100.043 166.684 98.944C166.375 97.8347 165.895 97.04 165.244 96.56C164.604 96.0693 163.777 95.824 162.764 95.824C161.335 95.824 160.252 96.2613 159.516 97.136C158.78 98.0107 158.412 99.2907 158.412 100.976C158.412 102.651 158.764 103.872 159.468 104.64C160.183 105.397 161.169 105.776 162.428 105.776C163.527 105.776 164.476 105.467 165.276 104.848C166.076 104.229 166.833 103.397 167.548 102.352L167.532 104.688C166.881 105.627 166.097 106.4 165.18 107.008C164.263 107.616 163.18 107.92 161.932 107.92C160.705 107.92 159.617 107.637 158.668 107.072C157.719 106.507 156.972 105.701 156.428 104.656C155.895 103.611 155.628 102.352 155.628 100.88C155.628 99.312 155.948 97.9893 156.588 96.912C157.228 95.8347 158.087 95.024 159.164 94.48C160.241 93.9253 161.441 93.648 162.764 93.648Z" fill="#977EFA"/>
<path d="M161.836 56.384C161.836 57.0453 161.596 57.6 161.116 58.048C160.647 58.496 160.076 58.72 159.404 58.72C158.721 58.72 158.151 58.496 157.692 58.048C157.233 57.6 157.004 57.0453 157.004 56.384C157.004 56.1173 157.036 55.8293 157.1 55.52C157.164 55.2 157.319 54.784 157.564 54.272L160.156 48.752H162.284L160.972 54.624C161.239 54.8053 161.447 55.056 161.596 55.376C161.756 55.6853 161.836 56.0213 161.836 56.384ZM168.748 56.384C168.748 57.0453 168.503 57.6 168.012 58.048C167.532 58.496 166.967 58.72 166.316 58.72C165.655 58.72 165.089 58.496 164.62 58.048C164.151 57.6 163.916 57.0453 163.916 56.384C163.916 56.1173 163.948 55.8293 164.012 55.52C164.076 55.2 164.231 54.784 164.476 54.272L167.116 48.752H169.196L167.9 54.624C168.156 54.8053 168.359 55.056 168.508 55.376C168.668 55.6853 168.748 56.0213 168.748 56.384ZM188.576 51.968V66.688C188.576 67.6053 188.453 68.5227 188.208 69.44C187.973 70.3467 187.568 71.1733 186.992 71.92C186.426 72.656 185.658 73.248 184.688 73.696C183.717 74.144 182.506 74.368 181.056 74.368C179.978 74.368 178.917 74.1973 177.872 73.856C176.837 73.5147 175.882 73.0187 175.008 72.368L176.24 70.528C177.2 71.1253 178.074 71.5307 178.864 71.744C179.653 71.9467 180.373 72.048 181.024 72.048C182.56 72.048 183.738 71.5573 184.56 70.576C185.392 69.5947 185.808 68.2453 185.808 66.528V54.24H179.28V51.968H188.576ZM197.203 66.528C197.256 67.8293 197.507 68.896 197.955 69.728C198.403 70.5493 198.995 71.1573 199.731 71.552C200.467 71.936 201.267 72.128 202.131 72.128C202.995 72.128 203.774 72 204.467 71.744C205.171 71.488 205.891 71.1093 206.627 70.608L207.891 72.384C207.102 73.0027 206.2 73.488 205.187 73.84C204.184 74.192 203.155 74.368 202.099 74.368C200.467 74.368 199.075 74 197.923 73.264C196.771 72.528 195.891 71.504 195.283 70.192C194.686 68.8693 194.387 67.3387 194.387 65.6C194.387 63.8933 194.691 62.3787 195.299 61.056C195.907 59.7333 196.76 58.6933 197.859 57.936C198.958 57.1787 200.254 56.8 201.747 56.8C203.166 56.8 204.387 57.136 205.411 57.808C206.435 58.4693 207.219 59.4187 207.763 60.656C208.318 61.8827 208.595 63.3493 208.595 65.056C208.595 65.344 208.59 65.616 208.579 65.872C208.568 66.1173 208.552 66.336 208.531 66.528H197.203ZM201.779 59.008C200.531 59.008 199.486 59.4507 198.643 60.336C197.811 61.2213 197.336 62.592 197.219 64.448H206.003C205.971 62.6453 205.576 61.2907 204.819 60.384C204.062 59.4667 203.048 59.008 201.779 59.008ZM224.231 50.032C225.137 50.032 225.959 50.112 226.695 50.272C227.431 50.432 228.129 50.656 228.791 50.944L227.927 52.944C227.383 52.7093 226.807 52.5333 226.199 52.416C225.591 52.2987 224.961 52.24 224.311 52.24C223.137 52.24 222.252 52.4693 221.655 52.928C221.068 53.3867 220.775 54.0907 220.775 55.04V58.464H226.487L226.199 60.576H220.775V74H218.087V60.576H214.071V58.464H218.087V55.104C218.087 54.0587 218.353 53.1573 218.887 52.4C219.431 51.6427 220.167 51.0613 221.095 50.656C222.023 50.24 223.068 50.032 224.231 50.032ZM243.418 50.032C244.325 50.032 245.146 50.112 245.882 50.272C246.618 50.432 247.317 50.656 247.978 50.944L247.114 52.944C246.57 52.7093 245.994 52.5333 245.386 52.416C244.778 52.2987 244.149 52.24 243.498 52.24C242.325 52.24 241.439 52.4693 240.842 52.928C240.255 53.3867 239.962 54.0907 239.962 55.04V58.464H245.674L245.386 60.576H239.962V74H237.274V60.576H233.258V58.464H237.274V55.104C237.274 54.0587 237.541 53.1573 238.074 52.4C238.618 51.6427 239.354 51.0613 240.282 50.656C241.21 50.24 242.255 50.032 243.418 50.032ZM254.766 66.528C254.819 67.8293 255.07 68.896 255.518 69.728C255.966 70.5493 256.558 71.1573 257.294 71.552C258.03 71.936 258.83 72.128 259.694 72.128C260.558 72.128 261.336 72 262.03 71.744C262.734 71.488 263.454 71.1093 264.19 70.608L265.454 72.384C264.664 73.0027 263.763 73.488 262.75 73.84C261.747 74.192 260.718 74.368 259.662 74.368C258.03 74.368 256.638 74 255.486 73.264C254.334 72.528 253.454 71.504 252.846 70.192C252.248 68.8693 251.95 67.3387 251.95 65.6C251.95 63.8933 252.254 62.3787 252.862 61.056C253.47 59.7333 254.323 58.6933 255.422 57.936C256.52 57.1787 257.816 56.8 259.31 56.8C260.728 56.8 261.95 57.136 262.974 57.808C263.998 58.4693 264.782 59.4187 265.326 60.656C265.88 61.8827 266.158 63.3493 266.158 65.056C266.158 65.344 266.152 65.616 266.142 65.872C266.131 66.1173 266.115 66.336 266.094 66.528H254.766ZM259.342 59.008C258.094 59.008 257.048 59.4507 256.206 60.336C255.374 61.2213 254.899 62.592 254.782 64.448H263.566C263.534 62.6453 263.139 61.2907 262.382 60.384C261.624 59.4667 260.611 59.008 259.342 59.008ZM272.001 74V71.936H274.625V59.216H272.001V57.152H276.673L277.169 61.136C277.82 59.7493 278.609 58.6773 279.537 57.92C280.465 57.1627 281.692 56.784 283.217 56.784C283.686 56.784 284.102 56.8213 284.465 56.896C284.838 56.96 285.217 57.0453 285.601 57.152L284.817 59.552C284.465 59.456 284.145 59.3867 283.857 59.344C283.569 59.2907 283.238 59.264 282.865 59.264C281.574 59.264 280.465 59.7227 279.537 60.64C278.609 61.5573 277.868 62.944 277.313 64.8V71.936H280.737V74H272.001ZM283.009 62.848V59.184L283.281 57.152H285.601L285.217 62.848H283.009ZM296.757 72.144C298.047 72.144 299.066 71.904 299.813 71.424C300.57 70.9333 300.949 70.2827 300.949 69.472C300.949 68.96 300.853 68.5173 300.661 68.144C300.479 67.7707 300.101 67.4347 299.525 67.136C298.949 66.8373 298.063 66.5387 296.869 66.24C295.706 65.952 294.693 65.6213 293.829 65.248C292.975 64.864 292.309 64.368 291.829 63.76C291.359 63.152 291.125 62.3627 291.125 61.392C291.125 60.4427 291.391 59.6267 291.924 58.944C292.469 58.2507 293.221 57.7227 294.181 57.36C295.141 56.9867 296.255 56.8 297.525 56.8C298.879 56.8 300.058 56.9813 301.061 57.344C302.074 57.696 302.933 58.1333 303.637 58.656L302.453 60.48C301.813 60.0427 301.109 59.6853 300.341 59.408C299.573 59.12 298.645 58.976 297.557 58.976C296.234 58.976 295.295 59.184 294.741 59.6C294.186 60.0053 293.909 60.5333 293.909 61.184C293.909 61.6747 294.042 62.0853 294.309 62.416C294.586 62.736 295.05 63.0293 295.701 63.296C296.351 63.552 297.247 63.8347 298.389 64.144C299.487 64.432 300.442 64.7787 301.253 65.184C302.074 65.5893 302.714 66.1227 303.173 66.784C303.631 67.4453 303.861 68.2987 303.861 69.344C303.861 70.5387 303.519 71.5093 302.837 72.256C302.154 72.992 301.269 73.5307 300.181 73.872C299.103 74.2027 297.962 74.368 296.757 74.368C295.231 74.368 293.93 74.1493 292.853 73.712C291.786 73.264 290.89 72.7253 290.164 72.096L291.701 70.32C292.362 70.864 293.119 71.3067 293.973 71.648C294.837 71.9787 295.765 72.144 296.757 72.144ZM316.632 56.8C318.221 56.8 319.549 57.1627 320.616 57.888C321.693 58.6027 322.499 59.616 323.032 60.928C323.576 62.24 323.848 63.7867 323.848 65.568C323.848 67.2853 323.571 68.8053 323.016 70.128C322.461 71.4507 321.645 72.4907 320.568 73.248C319.501 73.9947 318.179 74.368 316.6 74.368C315.021 74.368 313.693 74.0053 312.616 73.28C311.539 72.5547 310.723 71.536 310.168 70.224C309.624 68.9013 309.352 67.36 309.352 65.6C309.352 63.8613 309.629 62.3307 310.184 61.008C310.739 59.6853 311.555 58.656 312.632 57.92C313.72 57.1733 315.053 56.8 316.632 56.8ZM316.632 58.992C315.181 58.992 314.083 59.5307 313.336 60.608C312.6 61.6747 312.232 63.3387 312.232 65.6C312.232 67.8187 312.595 69.4667 313.32 70.544C314.056 71.6213 315.149 72.16 316.6 72.16C318.051 72.16 319.139 71.6213 319.864 70.544C320.6 69.4667 320.968 67.808 320.968 65.568C320.968 63.328 320.605 61.6747 319.88 60.608C319.155 59.5307 318.072 58.992 316.632 58.992ZM329.404 74V57.152H331.692L331.9 59.488C332.582 58.624 333.436 57.9627 334.46 57.504C335.494 57.0347 336.497 56.8 337.468 56.8C339.121 56.8 340.321 57.2373 341.068 58.112C341.825 58.9867 342.204 60.2027 342.204 61.76V74H339.516V63.744C339.516 62.592 339.452 61.664 339.324 60.96C339.196 60.2453 338.929 59.728 338.524 59.408C338.118 59.0773 337.489 58.912 336.636 58.912C335.974 58.912 335.35 59.056 334.764 59.344C334.188 59.632 333.67 59.9947 333.212 60.432C332.764 60.8587 332.39 61.2907 332.092 61.728V74H329.404ZM349.295 51.136C349.295 50.4747 349.535 49.92 350.015 49.472C350.506 49.0133 351.076 48.784 351.727 48.784C352.388 48.784 352.959 49.0133 353.439 49.472C353.919 49.92 354.159 50.4747 354.159 51.136C354.159 51.424 354.116 51.7173 354.031 52.016C353.946 52.304 353.775 52.7093 353.519 53.232L350.927 58.752H348.847L350.111 52.88C349.866 52.688 349.668 52.4373 349.519 52.128C349.37 51.8187 349.295 51.488 349.295 51.136ZM356.207 51.136C356.207 50.4747 356.447 49.92 356.927 49.472C357.418 49.0133 357.988 48.784 358.639 48.784C359.311 48.784 359.882 49.0133 360.351 49.472C360.831 49.92 361.071 50.4747 361.071 51.136C361.071 51.424 361.034 51.7173 360.959 52.016C360.884 52.304 360.724 52.7093 360.479 53.232L357.855 58.752H355.759L357.055 52.88C356.799 52.688 356.591 52.4373 356.431 52.128C356.282 51.8187 356.207 51.488 356.207 51.136ZM374.163 68.736C374.899 68.736 375.512 68.9867 376.003 69.488C376.504 69.9893 376.755 70.592 376.755 71.296C376.755 71.68 376.707 72.0693 376.611 72.464C376.525 72.8587 376.365 73.3067 376.131 73.808L373.539 79.744H371.107L372.642 73.424C372.323 73.1893 372.067 72.8853 371.875 72.512C371.693 72.128 371.603 71.7227 371.603 71.296C371.603 70.5813 371.848 69.9787 372.339 69.488C372.829 68.9867 373.437 68.736 374.163 68.736ZM219.399 140.384C219.399 141.045 219.159 141.6 218.679 142.048C218.209 142.496 217.639 142.72 216.967 142.72C216.284 142.72 215.713 142.496 215.255 142.048C214.796 141.6 214.567 141.045 214.567 140.384C214.567 140.117 214.599 139.829 214.663 139.52C214.727 139.2 214.881 138.784 215.127 138.272L217.719 132.752H219.847L218.535 138.624C218.801 138.805 219.009 139.056 219.159 139.376C219.319 139.685 219.399 140.021 219.399 140.384ZM226.311 140.384C226.311 141.045 226.065 141.6 225.575 142.048C225.095 142.496 224.529 142.72 223.879 142.72C223.217 142.72 222.652 142.496 222.183 142.048C221.713 141.6 221.479 141.045 221.479 140.384C221.479 140.117 221.511 139.829 221.575 139.52C221.639 139.2 221.793 138.784 222.039 138.272L224.679 132.752H226.759L225.463 138.624C225.719 138.805 225.921 139.056 226.071 139.376C226.231 139.685 226.311 140.021 226.311 140.384ZM243.418 134.032C244.325 134.032 245.146 134.112 245.882 134.272C246.618 134.432 247.317 134.656 247.978 134.944L247.114 136.944C246.57 136.709 245.994 136.533 245.386 136.416C244.778 136.299 244.149 136.24 243.498 136.24C242.325 136.24 241.439 136.469 240.842 136.928C240.255 137.387 239.962 138.091 239.962 139.04V142.464H245.674L245.386 144.576H239.962V158H237.274V144.576H233.258V142.464H237.274V139.104C237.274 138.059 237.541 137.157 238.074 136.4C238.618 135.643 239.354 135.061 240.282 134.656C241.21 134.24 242.255 134.032 243.418 134.032ZM252.814 158V155.936H255.438V143.216H252.814V141.152H257.486L257.982 145.136C258.632 143.749 259.422 142.677 260.35 141.92C261.278 141.163 262.504 140.784 264.03 140.784C264.499 140.784 264.915 140.821 265.278 140.896C265.651 140.96 266.03 141.045 266.414 141.152L265.63 143.552C265.278 143.456 264.958 143.387 264.67 143.344C264.382 143.291 264.051 143.264 263.678 143.264C262.387 143.264 261.278 143.723 260.35 144.64C259.422 145.557 258.68 146.944 258.126 148.8V155.936H261.55V158H252.814ZM263.822 146.848V143.184L264.094 141.152H266.414L266.03 146.848H263.822ZM278.257 140.8C279.846 140.8 281.174 141.163 282.241 141.888C283.318 142.603 284.124 143.616 284.657 144.928C285.201 146.24 285.473 147.787 285.473 149.568C285.473 151.285 285.196 152.805 284.641 154.128C284.086 155.451 283.27 156.491 282.193 157.248C281.126 157.995 279.804 158.368 278.225 158.368C276.646 158.368 275.318 158.005 274.241 157.28C273.164 156.555 272.348 155.536 271.793 154.224C271.249 152.901 270.977 151.36 270.977 149.6C270.977 147.861 271.254 146.331 271.809 145.008C272.364 143.685 273.18 142.656 274.257 141.92C275.345 141.173 276.678 140.8 278.257 140.8ZM278.257 142.992C276.806 142.992 275.708 143.531 274.961 144.608C274.225 145.675 273.857 147.339 273.857 149.6C273.857 151.819 274.22 153.467 274.945 154.544C275.681 155.621 276.774 156.16 278.225 156.16C279.676 156.16 280.764 155.621 281.489 154.544C282.225 153.467 282.593 151.808 282.593 149.568C282.593 147.328 282.23 145.675 281.505 144.608C280.78 143.531 279.697 142.992 278.257 142.992ZM291.029 158V141.152H293.317L293.525 143.488C294.207 142.624 295.061 141.963 296.085 141.504C297.119 141.035 298.122 140.8 299.093 140.8C300.746 140.8 301.946 141.237 302.693 142.112C303.45 142.987 303.829 144.203 303.829 145.76V158H301.141V147.744C301.141 146.592 301.077 145.664 300.949 144.96C300.821 144.245 300.554 143.728 300.149 143.408C299.743 143.077 299.114 142.912 298.261 142.912C297.599 142.912 296.975 143.056 296.389 143.344C295.813 143.632 295.295 143.995 294.837 144.432C294.389 144.859 294.015 145.291 293.717 145.728V158H291.029ZM323.592 157.152C323.016 157.536 322.317 157.835 321.496 158.048C320.675 158.261 319.869 158.368 319.08 158.368C317.267 158.368 315.869 157.893 314.888 156.944C313.907 155.995 313.416 154.773 313.416 153.28V143.232H309.544V141.152H313.416V137.328L316.104 137.008V141.152H321.928L321.608 143.232H316.104V153.248C316.104 154.187 316.349 154.901 316.84 155.392C317.341 155.883 318.168 156.128 319.32 156.128C319.949 156.128 320.531 156.053 321.064 155.904C321.597 155.755 322.093 155.563 322.552 155.328L323.592 157.152ZM331.516 150.528C331.569 151.829 331.82 152.896 332.268 153.728C332.716 154.549 333.308 155.157 334.044 155.552C334.78 155.936 335.58 156.128 336.444 156.128C337.308 156.128 338.086 156 338.78 155.744C339.484 155.488 340.204 155.109 340.94 154.608L342.204 156.384C341.414 157.003 340.513 157.488 339.5 157.84C338.497 158.192 337.468 158.368 336.412 158.368C334.78 158.368 333.388 158 332.236 157.264C331.084 156.528 330.204 155.504 329.596 154.192C328.998 152.869 328.7 151.339 328.7 149.6C328.7 147.893 329.004 146.379 329.612 145.056C330.22 143.733 331.073 142.693 332.172 141.936C333.27 141.179 334.566 140.8 336.06 140.8C337.478 140.8 338.7 141.136 339.724 141.808C340.748 142.469 341.532 143.419 342.076 144.656C342.63 145.883 342.908 147.349 342.908 149.056C342.908 149.344 342.902 149.616 342.892 149.872C342.881 150.117 342.865 150.336 342.844 150.528H331.516ZM336.092 143.008C334.844 143.008 333.798 143.451 332.956 144.336C332.124 145.221 331.649 146.592 331.532 148.448H340.316C340.284 146.645 339.889 145.291 339.132 144.384C338.374 143.467 337.361 143.008 336.092 143.008ZM348.591 158V141.152H350.879L351.087 143.488C351.77 142.624 352.623 141.963 353.647 141.504C354.682 141.035 355.684 140.8 356.655 140.8C358.308 140.8 359.508 141.237 360.255 142.112C361.012 142.987 361.391 144.203 361.391 145.76V158H358.703V147.744C358.703 146.592 358.639 145.664 358.511 144.96C358.383 144.245 358.116 143.728 357.711 143.408C357.306 143.077 356.676 142.912 355.823 142.912C355.162 142.912 354.538 143.056 353.951 143.344C353.375 143.632 352.858 143.995 352.399 144.432C351.951 144.859 351.578 145.291 351.279 145.728V158H348.591ZM377.859 134.032L380.547 134.368V158H378.195L377.939 155.776C377.309 156.672 376.584 157.328 375.763 157.744C374.952 158.16 374.083 158.368 373.155 158.368C371.693 158.368 370.488 158 369.539 157.264C368.589 156.528 367.885 155.504 367.427 154.192C366.968 152.869 366.739 151.339 366.739 149.6C366.739 147.915 367 146.411 367.523 145.088C368.045 143.755 368.797 142.709 369.779 141.952C370.771 141.184 371.96 140.8 373.347 140.8C374.317 140.8 375.171 140.971 375.907 141.312C376.643 141.643 377.293 142.133 377.859 142.784V134.032ZM374.051 142.96C372.643 142.96 371.56 143.509 370.803 144.608C370.045 145.707 369.667 147.371 369.667 149.6C369.667 151.051 369.821 152.267 370.131 153.248C370.44 154.229 370.893 154.965 371.491 155.456C372.099 155.947 372.84 156.192 373.715 156.192C374.675 156.192 375.491 155.92 376.163 155.376C376.845 154.832 377.411 154.219 377.859 153.536V145.12C377.4 144.437 376.845 143.909 376.195 143.536C375.544 143.152 374.829 142.96 374.051 142.96ZM387.67 135.136C387.67 134.475 387.91 133.92 388.39 133.472C388.881 133.013 389.451 132.784 390.102 132.784C390.763 132.784 391.334 133.013 391.814 133.472C392.294 133.92 392.534 134.475 392.534 135.136C392.534 135.424 392.491 135.717 392.406 136.016C392.321 136.304 392.15 136.709 391.894 137.232L389.302 142.752H387.222L388.486 136.88C388.241 136.688 388.043 136.437 387.894 136.128C387.745 135.819 387.67 135.488 387.67 135.136ZM394.582 135.136C394.582 134.475 394.822 133.92 395.302 133.472C395.793 133.013 396.363 132.784 397.014 132.784C397.686 132.784 398.257 133.013 398.726 133.472C399.206 133.92 399.446 134.475 399.446 135.136C399.446 135.424 399.409 135.717 399.334 136.016C399.259 136.304 399.099 136.709 398.854 137.232L396.23 142.752H394.134L395.43 136.88C395.174 136.688 394.966 136.437 394.806 136.128C394.657 135.819 394.582 135.488 394.582 135.136ZM449.649 140.384C449.649 141.045 449.409 141.6 448.929 142.048C448.459 142.496 447.889 142.72 447.217 142.72C446.534 142.72 445.963 142.496 445.505 142.048C445.046 141.6 444.817 141.045 444.817 140.384C444.817 140.117 444.849 139.829 444.913 139.52C444.977 139.2 445.131 138.784 445.377 138.272L447.969 132.752H450.097L448.785 138.624C449.051 138.805 449.259 139.056 449.409 139.376C449.569 139.685 449.649 140.021 449.649 140.384ZM456.561 140.384C456.561 141.045 456.315 141.6 455.825 142.048C455.345 142.496 454.779 142.72 454.129 142.72C453.467 142.72 452.902 142.496 452.433 142.048C451.963 141.6 451.729 141.045 451.729 140.384C451.729 140.117 451.761 139.829 451.825 139.52C451.889 139.2 452.043 138.784 452.289 138.272L454.929 132.752H457.009L455.713 138.624C455.969 138.805 456.171 139.056 456.321 139.376C456.481 139.685 456.561 140.021 456.561 140.384ZM466.404 143.344C467.023 142.533 467.732 141.909 468.532 141.472C469.343 141.024 470.233 140.8 471.204 140.8C472.708 140.8 473.924 141.163 474.852 141.888C475.78 142.613 476.457 143.637 476.884 144.96C477.311 146.272 477.524 147.808 477.524 149.568C477.524 151.264 477.268 152.779 476.756 154.112C476.244 155.435 475.492 156.475 474.5 157.232C473.519 157.989 472.303 158.368 470.852 158.368C468.9 158.368 467.369 157.664 466.26 156.256L466.068 158H463.716V134.368L466.404 134.032V143.344ZM470.212 156.192C471.62 156.192 472.703 155.648 473.46 154.56C474.217 153.472 474.596 151.803 474.596 149.552C474.596 148.08 474.447 146.859 474.148 145.888C473.849 144.907 473.401 144.176 472.804 143.696C472.217 143.205 471.492 142.96 470.628 142.96C469.689 142.96 468.863 143.243 468.148 143.808C467.444 144.363 466.863 144.981 466.404 145.664V154.016C466.841 154.677 467.391 155.205 468.052 155.6C468.724 155.995 469.444 156.192 470.212 156.192ZM494.968 154.32C494.968 154.992 495.08 155.483 495.304 155.792C495.528 156.101 495.874 156.331 496.344 156.48L495.688 158.368C494.962 158.272 494.328 158.043 493.784 157.68C493.24 157.307 492.845 156.747 492.6 156C491.992 156.779 491.234 157.371 490.328 157.776C489.421 158.171 488.418 158.368 487.32 158.368C485.634 158.368 484.306 157.893 483.336 156.944C482.365 155.995 481.88 154.736 481.88 153.168C481.88 151.429 482.557 150.096 483.911 149.168C485.266 148.24 487.224 147.776 489.784 147.776H492.264V146.368C492.264 145.152 491.906 144.293 491.192 143.792C490.488 143.28 489.506 143.024 488.248 143.024C487.693 143.024 487.042 143.093 486.296 143.232C485.549 143.36 484.738 143.579 483.864 143.888L483.16 141.856C484.194 141.472 485.165 141.2 486.072 141.04C486.978 140.88 487.842 140.8 488.664 140.8C490.765 140.8 492.338 141.291 493.384 142.272C494.44 143.243 494.968 144.565 494.968 146.24V154.32ZM488.008 156.32C488.84 156.32 489.634 156.112 490.392 155.696C491.149 155.269 491.773 154.683 492.264 153.936V149.6H489.832C487.976 149.6 486.664 149.92 485.896 150.56C485.138 151.2 484.76 152.059 484.76 153.136C484.76 154.181 485.026 154.976 485.56 155.52C486.104 156.053 486.92 156.32 488.008 156.32ZM509.707 156.048C510.55 156.048 511.334 155.909 512.059 155.632C512.795 155.355 513.472 155.003 514.091 154.576L515.403 156.336C514.667 156.965 513.782 157.461 512.747 157.824C511.712 158.187 510.699 158.368 509.707 158.368C508.032 158.368 506.603 158.011 505.419 157.296C504.246 156.571 503.35 155.557 502.731 154.256C502.112 152.944 501.803 151.408 501.803 149.648C501.803 147.963 502.112 146.453 502.731 145.12C503.36 143.776 504.262 142.72 505.435 141.952C506.619 141.184 508.054 140.8 509.739 140.8C510.816 140.8 511.824 140.965 512.763 141.296C513.712 141.616 514.582 142.101 515.371 142.752L514.059 144.544C513.344 144.043 512.624 143.669 511.899 143.424C511.184 143.168 510.454 143.04 509.707 143.04C508.256 143.04 507.062 143.584 506.123 144.672C505.184 145.76 504.715 147.419 504.715 149.648C504.715 151.141 504.928 152.363 505.355 153.312C505.792 154.251 506.384 154.944 507.131 155.392C507.888 155.829 508.747 156.048 509.707 156.048ZM535.391 141.152L527.807 148.736L536.271 158H532.735L524.447 148.8L531.903 141.152H535.391ZM524.143 134.032V158H521.455V134.368L524.143 134.032ZM542.578 150.528C542.631 151.829 542.882 152.896 543.33 153.728C543.778 154.549 544.37 155.157 545.106 155.552C545.842 155.936 546.642 156.128 547.506 156.128C548.37 156.128 549.149 156 549.842 155.744C550.546 155.488 551.266 155.109 552.002 154.608L553.266 156.384C552.477 157.003 551.575 157.488 550.562 157.84C549.559 158.192 548.53 158.368 547.474 158.368C545.842 158.368 544.45 158 543.298 157.264C542.146 156.528 541.266 155.504 540.658 154.192C540.061 152.869 539.762 151.339 539.762 149.6C539.762 147.893 540.066 146.379 540.674 145.056C541.282 143.733 542.135 142.693 543.234 141.936C544.333 141.179 545.629 140.8 547.122 140.8C548.541 140.8 549.762 141.136 550.786 141.808C551.81 142.469 552.594 143.419 553.138 144.656C553.693 145.883 553.97 147.349 553.97 149.056C553.97 149.344 553.965 149.616 553.954 149.872C553.943 150.117 553.927 150.336 553.906 150.528H542.578ZM547.154 143.008C545.906 143.008 544.861 143.451 544.018 144.336C543.186 145.221 542.711 146.592 542.594 148.448H551.378C551.346 146.645 550.951 145.291 550.194 144.384C549.437 143.467 548.423 143.008 547.154 143.008ZM559.654 158V141.152H561.942L562.15 143.488C562.832 142.624 563.686 141.963 564.71 141.504C565.744 141.035 566.747 140.8 567.718 140.8C569.371 140.8 570.571 141.237 571.318 142.112C572.075 142.987 572.454 144.203 572.454 145.76V158H569.766V147.744C569.766 146.592 569.702 145.664 569.574 144.96C569.446 144.245 569.179 143.728 568.774 143.408C568.368 143.077 567.739 142.912 566.886 142.912C566.224 142.912 565.6 143.056 565.014 143.344C564.438 143.632 563.92 143.995 563.462 144.432C563.014 144.859 562.64 145.291 562.342 145.728V158H559.654ZM588.921 134.032L591.609 134.368V158H589.257L589.001 155.776C588.372 156.672 587.646 157.328 586.825 157.744C586.014 158.16 585.145 158.368 584.217 158.368C582.756 158.368 581.55 158 580.601 157.264C579.652 156.528 578.948 155.504 578.489 154.192C578.03 152.869 577.801 151.339 577.801 149.6C577.801 147.915 578.062 146.411 578.585 145.088C579.108 143.755 579.86 142.709 580.841 141.952C581.833 141.184 583.022 140.8 584.409 140.8C585.38 140.8 586.233 140.971 586.969 141.312C587.705 141.643 588.356 142.133 588.921 142.784V134.032ZM585.113 142.96C583.705 142.96 582.622 143.509 581.865 144.608C581.108 145.707 580.729 147.371 580.729 149.6C580.729 151.051 580.884 152.267 581.193 153.248C581.502 154.229 581.956 154.965 582.553 155.456C583.161 155.947 583.902 156.192 584.777 156.192C585.737 156.192 586.553 155.92 587.225 155.376C587.908 154.832 588.473 154.219 588.921 153.536V145.12C588.462 144.437 587.908 143.909 587.257 143.536C586.606 143.152 585.892 142.96 585.113 142.96ZM598.733 135.136C598.733 134.475 598.973 133.92 599.453 133.472C599.943 133.013 600.514 132.784 601.165 132.784C601.826 132.784 602.397 133.013 602.877 133.472C603.357 133.92 603.597 134.475 603.597 135.136C603.597 135.424 603.554 135.717 603.469 136.016C603.383 136.304 603.213 136.709 602.957 137.232L600.365 142.752H598.285L599.549 136.88C599.303 136.688 599.106 136.437 598.957 136.128C598.807 135.819 598.733 135.488 598.733 135.136ZM605.645 135.136C605.645 134.475 605.885 133.92 606.365 133.472C606.855 133.013 607.426 132.784 608.077 132.784C608.749 132.784 609.319 133.013 609.789 133.472C610.269 133.92 610.509 134.475 610.509 135.136C610.509 135.424 610.471 135.717 610.397 136.016C610.322 136.304 610.162 136.709 609.917 137.232L607.293 142.752H605.197L606.493 136.88C606.237 136.688 606.029 136.437 605.869 136.128C605.719 135.819 605.645 135.488 605.645 135.136ZM660.711 140.384C660.711 141.045 660.471 141.6 659.991 142.048C659.522 142.496 658.951 142.72 658.279 142.72C657.596 142.72 657.026 142.496 656.567 142.048C656.108 141.6 655.879 141.045 655.879 140.384C655.879 140.117 655.911 139.829 655.975 139.52C656.039 139.2 656.194 138.784 656.439 138.272L659.031 132.752H661.159L659.847 138.624C660.114 138.805 660.322 139.056 660.471 139.376C660.631 139.685 660.711 140.021 660.711 140.384ZM667.623 140.384C667.623 141.045 667.378 141.6 666.887 142.048C666.407 142.496 665.842 142.72 665.191 142.72C664.53 142.72 663.964 142.496 663.495 142.048C663.026 141.6 662.791 141.045 662.791 140.384C662.791 140.117 662.823 139.829 662.887 139.52C662.951 139.2 663.106 138.784 663.351 138.272L665.991 132.752H668.071L666.775 138.624C667.031 138.805 667.234 139.056 667.383 139.376C667.543 139.685 667.623 140.021 667.623 140.384ZM685.883 140.8C686.427 140.8 686.944 140.917 687.435 141.152C687.936 141.387 688.347 141.84 688.667 142.512C688.987 143.184 689.147 144.165 689.147 145.456V158H686.651V145.888C686.651 144.832 686.587 144.069 686.459 143.6C686.331 143.131 685.963 142.896 685.355 142.896C684.853 142.896 684.352 143.056 683.851 143.376C683.36 143.685 682.88 144.197 682.411 144.912V158H679.899V145.888C679.899 144.832 679.835 144.069 679.707 143.6C679.579 143.131 679.211 142.896 678.603 142.896C678.08 142.896 677.573 143.056 677.083 143.376C676.603 143.685 676.128 144.197 675.659 144.912V158H673.179V141.152H675.291L675.451 143.104C675.909 142.453 676.421 141.909 676.987 141.472C677.563 141.024 678.272 140.8 679.115 140.8C679.755 140.8 680.357 140.955 680.923 141.264C681.488 141.563 681.904 142.149 682.171 143.024C682.629 142.363 683.147 141.829 683.723 141.424C684.299 141.008 685.019 140.8 685.883 140.8ZM700.382 140.8C701.971 140.8 703.299 141.163 704.366 141.888C705.443 142.603 706.249 143.616 706.782 144.928C707.326 146.24 707.598 147.787 707.598 149.568C707.598 151.285 707.321 152.805 706.766 154.128C706.211 155.451 705.395 156.491 704.318 157.248C703.251 157.995 701.929 158.368 700.35 158.368C698.771 158.368 697.443 158.005 696.366 157.28C695.289 156.555 694.473 155.536 693.918 154.224C693.374 152.901 693.102 151.36 693.102 149.6C693.102 147.861 693.379 146.331 693.934 145.008C694.489 143.685 695.305 142.656 696.382 141.92C697.47 141.173 698.803 140.8 700.382 140.8ZM700.382 142.992C698.931 142.992 697.833 143.531 697.086 144.608C696.35 145.675 695.982 147.339 695.982 149.6C695.982 151.819 696.345 153.467 697.07 154.544C697.806 155.621 698.899 156.16 700.35 156.16C701.801 156.16 702.889 155.621 703.614 154.544C704.35 153.467 704.718 151.808 704.718 149.568C704.718 147.328 704.355 145.675 703.63 144.608C702.905 143.531 701.822 142.992 700.382 142.992ZM715.842 143.344C716.46 142.533 717.17 141.909 717.97 141.472C718.78 141.024 719.671 140.8 720.642 140.8C722.146 140.8 723.362 141.163 724.29 141.888C725.218 142.613 725.895 143.637 726.322 144.96C726.748 146.272 726.962 147.808 726.962 149.568C726.962 151.264 726.706 152.779 726.194 154.112C725.682 155.435 724.93 156.475 723.938 157.232C722.956 157.989 721.74 158.368 720.29 158.368C718.338 158.368 716.807 157.664 715.698 156.256L715.506 158H713.154V134.368L715.842 134.032V143.344ZM719.65 156.192C721.058 156.192 722.14 155.648 722.898 154.56C723.655 153.472 724.034 151.803 724.034 149.552C724.034 148.08 723.884 146.859 723.586 145.888C723.287 144.907 722.839 144.176 722.242 143.696C721.655 143.205 720.93 142.96 720.066 142.96C719.127 142.96 718.3 143.243 717.586 143.808C716.882 144.363 716.3 144.981 715.842 145.664V154.016C716.279 154.677 716.828 155.205 717.49 155.6C718.162 155.995 718.882 156.192 719.65 156.192ZM740.869 141.152V155.872H745.621V158H732.981V155.872H738.181V143.28H733.141V141.152H740.869ZM738.725 133.264C739.322 133.264 739.797 133.445 740.149 133.808C740.512 134.171 740.693 134.613 740.693 135.136C740.693 135.68 740.512 136.139 740.149 136.512C739.797 136.875 739.322 137.056 738.725 137.056C738.16 137.056 737.696 136.875 737.333 136.512C736.97 136.139 736.789 135.68 736.789 135.136C736.789 134.613 736.97 134.171 737.333 133.808C737.696 133.445 738.16 133.264 738.725 133.264ZM758.089 134.368V153.84C758.089 154.672 758.345 155.264 758.857 155.616C759.379 155.957 760.051 156.128 760.873 156.128C761.385 156.128 761.87 156.075 762.329 155.968C762.787 155.861 763.246 155.717 763.705 155.536L764.425 157.504C763.966 157.728 763.395 157.925 762.713 158.096C762.041 158.277 761.278 158.368 760.425 158.368C758.931 158.368 757.721 157.957 756.793 157.136C755.865 156.304 755.401 155.157 755.401 153.696V136.496H750.233V134.368H758.089ZM772.828 150.528C772.881 151.829 773.132 152.896 773.58 153.728C774.028 154.549 774.62 155.157 775.356 155.552C776.092 155.936 776.892 156.128 777.756 156.128C778.62 156.128 779.399 156 780.092 155.744C780.796 155.488 781.516 155.109 782.252 154.608L783.516 156.384C782.727 157.003 781.825 157.488 780.812 157.84C779.809 158.192 778.78 158.368 777.724 158.368C776.092 158.368 774.7 158 773.548 157.264C772.396 156.528 771.516 155.504 770.908 154.192C770.311 152.869 770.012 151.339 770.012 149.6C770.012 147.893 770.316 146.379 770.924 145.056C771.532 143.733 772.385 142.693 773.484 141.936C774.583 141.179 775.879 140.8 777.372 140.8C778.791 140.8 780.012 141.136 781.036 141.808C782.06 142.469 782.844 143.419 783.388 144.656C783.943 145.883 784.22 147.349 784.22 149.056C784.22 149.344 784.215 149.616 784.204 149.872C784.193 150.117 784.177 150.336 784.156 150.528H772.828ZM777.404 143.008C776.156 143.008 775.111 143.451 774.268 144.336C773.436 145.221 772.961 146.592 772.844 148.448H781.628C781.596 146.645 781.201 145.291 780.444 144.384C779.687 143.467 778.673 143.008 777.404 143.008ZM790.608 135.136C790.608 134.475 790.848 133.92 791.328 133.472C791.818 133.013 792.389 132.784 793.04 132.784C793.701 132.784 794.272 133.013 794.752 133.472C795.232 133.92 795.472 134.475 795.472 135.136C795.472 135.424 795.429 135.717 795.344 136.016C795.258 136.304 795.088 136.709 794.832 137.232L792.24 142.752H790.16L791.424 136.88C791.178 136.688 790.981 136.437 790.832 136.128C790.682 135.819 790.608 135.488 790.608 135.136ZM797.52 135.136C797.52 134.475 797.76 133.92 798.24 133.472C798.73 133.013 799.301 132.784 799.952 132.784C800.624 132.784 801.194 133.013 801.664 133.472C802.144 133.92 802.384 134.475 802.384 135.136C802.384 135.424 802.346 135.717 802.272 136.016C802.197 136.304 802.037 136.709 801.792 137.232L799.168 142.752H797.072L798.368 136.88C798.112 136.688 797.904 136.437 797.744 136.128C797.594 135.819 797.52 135.488 797.52 135.136Z" fill="#FFE587"/>
</svg>
