<svg width="875" height="205" viewBox="0 0 875 205" fill="none" xmlns="http://www.w3.org/2000/svg">
<path d="M5.328 24.528C5.38133 25.8293 5.632 26.896 6.08 27.728C6.528 28.5493 7.12 29.1573 7.856 29.552C8.592 29.936 9.392 30.128 10.256 30.128C11.12 30.128 11.8987 30 12.592 29.744C13.296 29.488 14.016 29.1093 14.752 28.608L16.016 30.384C15.2267 31.0027 14.3253 31.488 13.312 31.84C12.3093 32.192 11.28 32.368 10.224 32.368C8.592 32.368 7.2 32 6.048 31.264C4.896 30.528 4.016 29.504 3.408 28.192C2.81067 26.8693 2.512 25.3387 2.512 23.6C2.512 21.8933 2.816 20.3787 3.424 19.056C4.032 17.7333 4.88533 16.6933 5.984 15.936C7.08267 15.1787 8.37867 14.8 9.872 14.8C11.2907 14.8 12.512 15.136 13.536 15.808C14.56 16.4693 15.344 17.4187 15.888 18.656C16.4427 19.8827 16.72 21.3493 16.72 23.056C16.72 23.344 16.7147 23.616 16.704 23.872C16.6933 24.1173 16.6773 24.336 16.656 24.528H5.328ZM9.904 17.008C8.656 17.008 7.61067 17.4507 6.768 18.336C5.936 19.2213 5.46133 20.592 5.344 22.448H14.128C14.096 20.6453 13.7013 19.2907 12.944 18.384C12.1867 17.4667 11.1733 17.008 9.904 17.008ZM24.0355 32H20.9635L27.1875 23.104L21.7315 15.152H24.9155L28.8195 21.424L32.7715 15.152H35.8435L30.4035 22.992L36.6115 32H33.3155L28.7075 24.768L24.0355 32ZM49.127 14.8C50.6203 14.8 51.8097 15.1627 52.695 15.888C53.591 16.6133 54.2363 17.6373 54.631 18.96C55.0257 20.272 55.223 21.808 55.223 23.568C55.223 25.264 54.983 26.7787 54.503 28.112C54.0337 29.4347 53.319 30.4747 52.359 31.232C51.399 31.9893 50.1883 32.368 48.727 32.368C46.8817 32.368 45.399 31.7173 44.279 30.416V38.448L41.591 38.784V15.152H43.879L44.103 17.504C44.7217 16.64 45.4577 15.9733 46.311 15.504C47.175 15.0347 48.1137 14.8 49.127 14.8ZM48.487 16.96C47.559 16.96 46.7377 17.2427 46.023 17.808C45.319 18.3627 44.7377 18.9813 44.279 19.664V28.016C44.7163 28.6667 45.2657 29.184 45.927 29.568C46.599 29.9413 47.335 30.128 48.135 30.128C49.5323 30.128 50.583 29.5947 51.287 28.528C51.991 27.4613 52.343 25.8027 52.343 23.552C52.343 22.08 52.2043 20.8587 51.927 19.888C51.6497 18.9067 51.2283 18.176 50.663 17.696C50.0977 17.2053 49.3723 16.96 48.487 16.96ZM67.1945 14.8C68.7838 14.8 70.1118 15.1627 71.1785 15.888C72.2558 16.6027 73.0612 17.616 73.5945 18.928C74.1385 20.24 74.4105 21.7867 74.4105 23.568C74.4105 25.2853 74.1332 26.8053 73.5785 28.128C73.0238 29.4507 72.2078 30.4907 71.1305 31.248C70.0638 31.9947 68.7412 32.368 67.1625 32.368C65.5838 32.368 64.2558 32.0053 63.1785 31.28C62.1012 30.5547 61.2852 29.536 60.7305 28.224C60.1865 26.9013 59.9145 25.36 59.9145 23.6C59.9145 21.8613 60.1918 20.3307 60.7465 19.008C61.3012 17.6853 62.1172 16.656 63.1945 15.92C64.2825 15.1733 65.6158 14.8 67.1945 14.8ZM67.1945 16.992C65.7438 16.992 64.6452 17.5307 63.8985 18.608C63.1625 19.6747 62.7945 21.3387 62.7945 23.6C62.7945 25.8187 63.1572 27.4667 63.8825 28.544C64.6185 29.6213 65.7118 30.16 67.1625 30.16C68.6132 30.16 69.7012 29.6213 70.4265 28.544C71.1625 27.4667 71.5305 25.808 71.5305 23.568C71.5305 21.328 71.1678 19.6747 70.4425 18.608C69.7172 17.5307 68.6345 16.992 67.1945 16.992ZM80.126 32V29.936H82.75V17.216H80.126V15.152H84.798L85.294 19.136C85.9447 17.7493 86.734 16.6773 87.662 15.92C88.59 15.1627 89.8167 14.784 91.342 14.784C91.8113 14.784 92.2273 14.8213 92.59 14.896C92.9633 14.96 93.342 15.0453 93.726 15.152L92.942 17.552C92.59 17.456 92.27 17.3867 91.982 17.344C91.694 17.2907 91.3633 17.264 90.99 17.264C89.6993 17.264 88.59 17.7227 87.662 18.64C86.734 19.5573 85.9927 20.944 85.438 22.8V29.936H88.862V32H80.126ZM91.134 20.848V17.184L91.406 15.152H93.726L93.342 20.848H91.134ZM112.53 31.152C111.954 31.536 111.255 31.8347 110.434 32.048C109.612 32.2613 108.807 32.368 108.018 32.368C106.204 32.368 104.807 31.8933 103.826 30.944C102.844 29.9947 102.354 28.7733 102.354 27.28V17.232H98.4815V15.152H102.354V11.328L105.042 11.008V15.152H110.866L110.546 17.232H105.042V27.248C105.042 28.1867 105.287 28.9013 105.778 29.392C106.279 29.8827 107.106 30.128 108.258 30.128C108.887 30.128 109.468 30.0533 110.002 29.904C110.535 29.7547 111.031 29.5627 111.49 29.328L112.53 31.152ZM145.145 30.048C145.987 30.048 146.771 29.9093 147.497 29.632C148.233 29.3547 148.91 29.0027 149.529 28.576L150.84 30.336C150.105 30.9653 149.219 31.4613 148.185 31.824C147.15 32.1867 146.137 32.368 145.145 32.368C143.47 32.368 142.041 32.0107 140.857 31.296C139.683 30.5707 138.787 29.5573 138.169 28.256C137.55 26.944 137.241 25.408 137.241 23.648C137.241 21.9627 137.55 20.4533 138.169 19.12C138.798 17.776 139.699 16.72 140.873 15.952C142.057 15.184 143.491 14.8 145.177 14.8C146.254 14.8 147.262 14.9653 148.201 15.296C149.15 15.616 150.019 16.1013 150.809 16.752L149.497 18.544C148.782 18.0427 148.062 17.6693 147.337 17.424C146.622 17.168 145.891 17.04 145.145 17.04C143.694 17.04 142.499 17.584 141.561 18.672C140.622 19.76 140.153 21.4187 140.153 23.648C140.153 25.1413 140.366 26.3627 140.793 27.312C141.23 28.2507 141.822 28.944 142.569 29.392C143.326 29.8293 144.185 30.048 145.145 30.048ZM163.276 8.368V27.84C163.276 28.672 163.532 29.264 164.044 29.616C164.567 29.9573 165.239 30.128 166.06 30.128C166.572 30.128 167.057 30.0747 167.516 29.968C167.975 29.8613 168.433 29.7173 168.892 29.536L169.612 31.504C169.153 31.728 168.583 31.9253 167.9 32.096C167.228 32.2773 166.465 32.368 165.612 32.368C164.119 32.368 162.908 31.9573 161.98 31.136C161.052 30.304 160.588 29.1573 160.588 27.696V10.496H155.42V8.368H163.276ZM187.968 28.32C187.968 28.992 188.08 29.4827 188.304 29.792C188.528 30.1013 188.874 30.3307 189.344 30.48L188.688 32.368C187.962 32.272 187.328 32.0427 186.784 31.68C186.24 31.3067 185.845 30.7467 185.6 30C184.992 30.7787 184.234 31.3707 183.328 31.776C182.421 32.1707 181.418 32.368 180.32 32.368C178.634 32.368 177.306 31.8933 176.336 30.944C175.365 29.9947 174.88 28.736 174.88 27.168C174.88 25.4293 175.557 24.096 176.911 23.168C178.266 22.24 180.224 21.776 182.784 21.776H185.264V20.368C185.264 19.152 184.906 18.2933 184.192 17.792C183.488 17.28 182.506 17.024 181.248 17.024C180.693 17.024 180.042 17.0933 179.296 17.232C178.549 17.36 177.738 17.5787 176.864 17.888L176.16 15.856C177.194 15.472 178.165 15.2 179.072 15.04C179.978 14.88 180.842 14.8 181.664 14.8C183.765 14.8 185.338 15.2907 186.384 16.272C187.44 17.2427 187.968 18.5653 187.968 20.24V28.32ZM181.008 30.32C181.84 30.32 182.634 30.112 183.392 29.696C184.149 29.2693 184.773 28.6827 185.264 27.936V23.6H182.832C180.976 23.6 179.664 23.92 178.896 24.56C178.138 25.2 177.76 26.0587 177.76 27.136C177.76 28.1813 178.026 28.976 178.56 29.52C179.104 30.0533 179.92 30.32 181.008 30.32ZM200.819 30.144C202.11 30.144 203.128 29.904 203.875 29.424C204.632 28.9333 205.011 28.2827 205.011 27.472C205.011 26.96 204.915 26.5173 204.723 26.144C204.542 25.7707 204.163 25.4347 203.587 25.136C203.011 24.8373 202.126 24.5387 200.931 24.24C199.768 23.952 198.755 23.6213 197.891 23.248C197.038 22.864 196.371 22.368 195.891 21.76C195.422 21.152 195.187 20.3627 195.187 19.392C195.187 18.4427 195.454 17.6267 195.987 16.944C196.531 16.2507 197.283 15.7227 198.243 15.36C199.203 14.9867 200.318 14.8 201.587 14.8C202.942 14.8 204.12 14.9813 205.123 15.344C206.136 15.696 206.995 16.1333 207.699 16.656L206.515 18.48C205.875 18.0427 205.171 17.6853 204.403 17.408C203.635 17.12 202.707 16.976 201.619 16.976C200.296 16.976 199.358 17.184 198.803 17.6C198.248 18.0053 197.971 18.5333 197.971 19.184C197.971 19.6747 198.104 20.0853 198.371 20.416C198.648 20.736 199.112 21.0293 199.763 21.296C200.414 21.552 201.31 21.8347 202.451 22.144C203.55 22.432 204.504 22.7787 205.315 23.184C206.136 23.5893 206.776 24.1227 207.235 24.784C207.694 25.4453 207.923 26.2987 207.923 27.344C207.923 28.5387 207.582 29.5093 206.899 30.256C206.216 30.992 205.331 31.5307 204.243 31.872C203.166 32.2027 202.024 32.368 200.819 32.368C199.294 32.368 197.992 32.1493 196.915 31.712C195.848 31.264 194.952 30.7253 194.227 30.096L195.763 28.32C196.424 28.864 197.182 29.3067 198.035 29.648C198.899 29.9787 199.827 30.144 200.819 30.144ZM220.007 30.144C221.297 30.144 222.316 29.904 223.063 29.424C223.82 28.9333 224.199 28.2827 224.199 27.472C224.199 26.96 224.103 26.5173 223.911 26.144C223.729 25.7707 223.351 25.4347 222.775 25.136C222.199 24.8373 221.313 24.5387 220.119 24.24C218.956 23.952 217.943 23.6213 217.079 23.248C216.225 22.864 215.559 22.368 215.079 21.76C214.609 21.152 214.375 20.3627 214.375 19.392C214.375 18.4427 214.641 17.6267 215.174 16.944C215.719 16.2507 216.471 15.7227 217.431 15.36C218.391 14.9867 219.505 14.8 220.775 14.8C222.129 14.8 223.308 14.9813 224.311 15.344C225.324 15.696 226.183 16.1333 226.887 16.656L225.703 18.48C225.063 18.0427 224.359 17.6853 223.591 17.408C222.823 17.12 221.895 16.976 220.807 16.976C219.484 16.976 218.545 17.184 217.991 17.6C217.436 18.0053 217.159 18.5333 217.159 19.184C217.159 19.6747 217.292 20.0853 217.559 20.416C217.836 20.736 218.3 21.0293 218.951 21.296C219.601 21.552 220.497 21.8347 221.639 22.144C222.737 22.432 223.692 22.7787 224.503 23.184C225.324 23.5893 225.964 24.1227 226.423 24.784C226.881 25.4453 227.111 26.2987 227.111 27.344C227.111 28.5387 226.769 29.5093 226.087 30.256C225.404 30.992 224.519 31.5307 223.431 31.872C222.353 32.2027 221.212 32.368 220.007 32.368C218.481 32.368 217.18 32.1493 216.103 31.712C215.036 31.264 214.14 30.7253 213.414 30.096L214.951 28.32C215.612 28.864 216.369 29.3067 217.223 29.648C218.087 29.9787 219.015 30.144 220.007 30.144ZM49.207 72.048C50.0497 72.048 50.8337 71.9093 51.559 71.632C52.295 71.3547 52.9723 71.0027 53.591 70.576L54.903 72.336C54.167 72.9653 53.2817 73.4613 52.247 73.824C51.2123 74.1867 50.199 74.368 49.207 74.368C47.5323 74.368 46.103 74.0107 44.919 73.296C43.7457 72.5707 42.8497 71.5573 42.231 70.256C41.6123 68.944 41.303 67.408 41.303 65.648C41.303 63.9627 41.6123 62.4533 42.231 61.12C42.8603 59.776 43.7617 58.72 44.935 57.952C46.119 57.184 47.5537 56.8 49.239 56.8C50.3163 56.8 51.3243 56.9653 52.263 57.296C53.2123 57.616 54.0817 58.1013 54.871 58.752L53.559 60.544C52.8443 60.0427 52.1243 59.6693 51.399 59.424C50.6843 59.168 49.9537 59.04 49.207 59.04C47.7563 59.04 46.5617 59.584 45.623 60.672C44.6843 61.76 44.215 63.4187 44.215 65.648C44.215 67.1413 44.4283 68.3627 44.855 69.312C45.2923 70.2507 45.8843 70.944 46.631 71.392C47.3883 71.8293 48.247 72.048 49.207 72.048ZM67.1945 56.8C68.7838 56.8 70.1118 57.1627 71.1785 57.888C72.2558 58.6027 73.0612 59.616 73.5945 60.928C74.1385 62.24 74.4105 63.7867 74.4105 65.568C74.4105 67.2853 74.1332 68.8053 73.5785 70.128C73.0238 71.4507 72.2078 72.4907 71.1305 73.248C70.0638 73.9947 68.7412 74.368 67.1625 74.368C65.5838 74.368 64.2558 74.0053 63.1785 73.28C62.1012 72.5547 61.2852 71.536 60.7305 70.224C60.1865 68.9013 59.9145 67.36 59.9145 65.6C59.9145 63.8613 60.1918 62.3307 60.7465 61.008C61.3012 59.6853 62.1172 58.656 63.1945 57.92C64.2825 57.1733 65.6158 56.8 67.1945 56.8ZM67.1945 58.992C65.7438 58.992 64.6452 59.5307 63.8985 60.608C63.1625 61.6747 62.7945 63.3387 62.7945 65.6C62.7945 67.8187 63.1572 69.4667 63.8825 70.544C64.6185 71.6213 65.7118 72.16 67.1625 72.16C68.6132 72.16 69.7012 71.6213 70.4265 70.544C71.1625 69.4667 71.5305 67.808 71.5305 65.568C71.5305 63.328 71.1678 61.6747 70.4425 60.608C69.7172 59.5307 68.6345 58.992 67.1945 58.992ZM79.966 74V57.152H82.254L82.462 59.488C83.1447 58.624 83.998 57.9627 85.022 57.504C86.0567 57.0347 87.0593 56.8 88.03 56.8C89.6833 56.8 90.8833 57.2373 91.63 58.112C92.3873 58.9867 92.766 60.2027 92.766 61.76V74H90.078V63.744C90.078 62.592 90.014 61.664 89.886 60.96C89.758 60.2453 89.4913 59.728 89.086 59.408C88.6807 59.0773 88.0513 58.912 87.198 58.912C86.5367 58.912 85.9127 59.056 85.326 59.344C84.75 59.632 84.2327 59.9947 83.774 60.432C83.326 60.8587 82.9527 61.2907 82.654 61.728V74H79.966ZM104.882 72.144C106.172 72.144 107.191 71.904 107.938 71.424C108.695 70.9333 109.074 70.2827 109.074 69.472C109.074 68.96 108.978 68.5173 108.786 68.144C108.604 67.7707 108.226 67.4347 107.65 67.136C107.074 66.8373 106.188 66.5387 104.994 66.24C103.831 65.952 102.818 65.6213 101.954 65.248C101.1 64.864 100.434 64.368 99.9535 63.76C99.4842 63.152 99.2495 62.3627 99.2495 61.392C99.2495 60.4427 99.5162 59.6267 100.049 58.944C100.594 58.2507 101.346 57.7227 102.306 57.36C103.266 56.9867 104.38 56.8 105.65 56.8C107.004 56.8 108.183 56.9813 109.186 57.344C110.199 57.696 111.058 58.1333 111.762 58.656L110.578 60.48C109.938 60.0427 109.234 59.6853 108.466 59.408C107.698 59.12 106.77 58.976 105.682 58.976C104.359 58.976 103.42 59.184 102.866 59.6C102.311 60.0053 102.034 60.5333 102.034 61.184C102.034 61.6747 102.167 62.0853 102.434 62.416C102.711 62.736 103.175 63.0293 103.826 63.296C104.476 63.552 105.372 63.8347 106.514 64.144C107.612 64.432 108.567 64.7787 109.378 65.184C110.199 65.5893 110.839 66.1227 111.298 66.784C111.756 67.4453 111.986 68.2987 111.986 69.344C111.986 70.5387 111.644 71.5093 110.962 72.256C110.279 72.992 109.394 73.5307 108.306 73.872C107.228 74.2027 106.087 74.368 104.882 74.368C103.356 74.368 102.055 74.1493 100.978 73.712C99.9108 73.264 99.0148 72.7253 98.2895 72.096L99.8255 70.32C100.487 70.864 101.244 71.3067 102.098 71.648C102.962 71.9787 103.89 72.144 104.882 72.144ZM131.717 73.152C131.141 73.536 130.442 73.8347 129.621 74.048C128.8 74.2613 127.994 74.368 127.205 74.368C125.392 74.368 123.994 73.8933 123.013 72.944C122.032 71.9947 121.541 70.7733 121.541 69.28V59.232H117.669V57.152H121.541V53.328L124.229 53.008V57.152H130.053L129.733 59.232H124.229V69.248C124.229 70.1867 124.474 70.9013 124.965 71.392C125.466 71.8827 126.293 72.128 127.445 72.128C128.074 72.128 128.656 72.0533 129.189 71.904C129.722 71.7547 130.218 71.5627 130.677 71.328L131.717 73.152ZM137.689 74V71.936H140.313V59.216H137.689V57.152H142.361L142.857 61.136C143.507 59.7493 144.297 58.6773 145.225 57.92C146.153 57.1627 147.379 56.784 148.905 56.784C149.374 56.784 149.79 56.8213 150.153 56.896C150.526 56.96 150.905 57.0453 151.289 57.152L150.505 59.552C150.153 59.456 149.833 59.3867 149.545 59.344C149.257 59.2907 148.926 59.264 148.553 59.264C147.262 59.264 146.153 59.7227 145.225 60.64C144.297 61.5573 143.555 62.944 143.001 64.8V71.936H146.425V74H137.689ZM148.697 62.848V59.184L148.969 57.152H151.289L150.905 62.848H148.697ZM159.404 57.152V69.088C159.404 70.1973 159.633 70.9973 160.092 71.488C160.551 71.9787 161.265 72.224 162.236 72.224C163.164 72.224 164.039 71.9627 164.86 71.44C165.692 70.9067 166.337 70.2773 166.796 69.552V57.152H169.484V74H167.196L166.972 71.728C166.311 72.5813 165.495 73.2373 164.524 73.696C163.553 74.144 162.572 74.368 161.58 74.368C159.948 74.368 158.727 73.936 157.916 73.072C157.116 72.1973 156.716 70.976 156.716 69.408V57.152H159.404ZM183.52 72.048C184.362 72.048 185.146 71.9093 185.872 71.632C186.608 71.3547 187.285 71.0027 187.904 70.576L189.215 72.336C188.48 72.9653 187.594 73.4613 186.56 73.824C185.525 74.1867 184.512 74.368 183.52 74.368C181.845 74.368 180.416 74.0107 179.232 73.296C178.058 72.5707 177.162 71.5573 176.544 70.256C175.925 68.944 175.616 67.408 175.616 65.648C175.616 63.9627 175.925 62.4533 176.544 61.12C177.173 59.776 178.074 58.72 179.248 57.952C180.432 57.184 181.866 56.8 183.552 56.8C184.629 56.8 185.637 56.9653 186.576 57.296C187.525 57.616 188.394 58.1013 189.184 58.752L187.872 60.544C187.157 60.0427 186.437 59.6693 185.712 59.424C184.997 59.168 184.266 59.04 183.52 59.04C182.069 59.04 180.874 59.584 179.936 60.672C178.997 61.76 178.528 63.4187 178.528 65.648C178.528 67.1413 178.741 68.3627 179.168 69.312C179.605 70.2507 180.197 70.944 180.944 71.392C181.701 71.8293 182.56 72.048 183.52 72.048ZM208.467 73.152C207.891 73.536 207.192 73.8347 206.371 74.048C205.55 74.2613 204.744 74.368 203.955 74.368C202.142 74.368 200.744 73.8933 199.763 72.944C198.782 71.9947 198.291 70.7733 198.291 69.28V59.232H194.419V57.152H198.291V53.328L200.979 53.008V57.152H206.803L206.483 59.232H200.979V69.248C200.979 70.1867 201.224 70.9013 201.715 71.392C202.216 71.8827 203.043 72.128 204.195 72.128C204.824 72.128 205.406 72.0533 205.939 71.904C206.472 71.7547 206.968 71.5627 207.427 71.328L208.467 73.152ZM220.695 56.8C222.284 56.8 223.612 57.1627 224.679 57.888C225.756 58.6027 226.561 59.616 227.095 60.928C227.639 62.24 227.911 63.7867 227.911 65.568C227.911 67.2853 227.633 68.8053 227.079 70.128C226.524 71.4507 225.708 72.4907 224.631 73.248C223.564 73.9947 222.241 74.368 220.663 74.368C219.084 74.368 217.756 74.0053 216.679 73.28C215.601 72.5547 214.785 71.536 214.231 70.224C213.687 68.9013 213.414 67.36 213.414 65.6C213.414 63.8613 213.692 62.3307 214.247 61.008C214.801 59.6853 215.617 58.656 216.695 57.92C217.783 57.1733 219.116 56.8 220.695 56.8ZM220.695 58.992C219.244 58.992 218.145 59.5307 217.399 60.608C216.663 61.6747 216.295 63.3387 216.295 65.6C216.295 67.8187 216.657 69.4667 217.383 70.544C218.119 71.6213 219.212 72.16 220.663 72.16C222.113 72.16 223.201 71.6213 223.927 70.544C224.663 69.4667 225.031 67.808 225.031 65.568C225.031 63.328 224.668 61.6747 223.943 60.608C223.217 59.5307 222.135 58.992 220.695 58.992ZM233.626 74V71.936H236.25V59.216H233.626V57.152H238.298L238.794 61.136C239.445 59.7493 240.234 58.6773 241.162 57.92C242.09 57.1627 243.317 56.784 244.842 56.784C245.311 56.784 245.727 56.8213 246.09 56.896C246.463 56.96 246.842 57.0453 247.226 57.152L246.442 59.552C246.09 59.456 245.77 59.3867 245.482 59.344C245.194 59.2907 244.863 59.264 244.49 59.264C243.199 59.264 242.09 59.7227 241.162 60.64C240.234 61.5573 239.493 62.944 238.938 64.8V71.936H242.362V74H233.626ZM244.634 62.848V59.184L244.906 57.152H247.226L246.842 62.848H244.634ZM256.238 62.8C256.238 64.464 256.382 65.9573 256.67 67.28C256.958 68.592 257.384 69.7973 257.95 70.896C258.515 71.984 259.224 73.0187 260.078 74C260.942 74.992 261.944 75.9947 263.086 77.008L261.678 78.48C259.95 77.0613 258.467 75.6107 257.23 74.128C256.003 72.6453 255.059 70.992 254.398 69.168C253.747 67.344 253.422 65.2213 253.422 62.8C253.422 60.368 253.747 58.24 254.398 56.416C255.059 54.592 256.003 52.9387 257.23 51.456C258.467 49.9733 259.95 48.528 261.678 47.12L263.086 48.592C261.934 49.616 260.926 50.624 260.062 51.616C259.208 52.5973 258.499 53.632 257.934 54.72C257.368 55.7973 256.942 56.9973 256.654 58.32C256.376 59.632 256.238 61.1253 256.238 62.8ZM106.69 98.8C108.183 98.8 109.372 99.1627 110.258 99.888C111.154 100.613 111.799 101.637 112.194 102.96C112.588 104.272 112.786 105.808 112.786 107.568C112.786 109.264 112.546 110.779 112.066 112.112C111.596 113.435 110.882 114.475 109.922 115.232C108.962 115.989 107.751 116.368 106.29 116.368C104.444 116.368 102.962 115.717 101.842 114.416V122.448L99.1535 122.784V99.152H101.442L101.666 101.504C102.284 100.64 103.02 99.9733 103.874 99.504C104.738 99.0347 105.676 98.8 106.69 98.8ZM106.05 100.96C105.122 100.96 104.3 101.243 103.586 101.808C102.882 102.363 102.3 102.981 101.842 103.664V112.016C102.279 112.667 102.828 113.184 103.49 113.568C104.162 113.941 104.898 114.128 105.698 114.128C107.095 114.128 108.146 113.595 108.85 112.528C109.554 111.461 109.906 109.803 109.906 107.552C109.906 106.08 109.767 104.859 109.49 103.888C109.212 102.907 108.791 102.176 108.226 101.696C107.66 101.205 106.935 100.96 106.05 100.96ZM118.501 116V113.936H121.125V101.216H118.501V99.152H123.173L123.669 103.136C124.32 101.749 125.109 100.677 126.037 99.92C126.965 99.1627 128.192 98.784 129.717 98.784C130.186 98.784 130.602 98.8213 130.965 98.896C131.338 98.96 131.717 99.0453 132.101 99.152L131.317 101.552C130.965 101.456 130.645 101.387 130.357 101.344C130.069 101.291 129.738 101.264 129.365 101.264C128.074 101.264 126.965 101.723 126.037 102.64C125.109 103.557 124.368 104.944 123.813 106.8V113.936H127.237V116H118.501ZM129.509 104.848V101.184L129.781 99.152H132.101L131.717 104.848H129.509ZM146.057 99.152V113.872H150.809V116H138.169V113.872H143.369V101.28H138.329V99.152H146.057ZM143.913 91.264C144.51 91.264 144.985 91.4453 145.337 91.808C145.699 92.1707 145.881 92.6133 145.881 93.136C145.881 93.68 145.699 94.1387 145.337 94.512C144.985 94.8747 144.51 95.056 143.913 95.056C143.347 95.056 142.883 94.8747 142.521 94.512C142.158 94.1387 141.977 93.68 141.977 93.136C141.977 92.6133 142.158 92.1707 142.521 91.808C142.883 91.4453 143.347 91.264 143.913 91.264ZM170.764 99.152L164.636 116H161.516L155.436 99.152H158.284L163.164 113.552L167.98 99.152H170.764ZM187.968 112.32C187.968 112.992 188.08 113.483 188.304 113.792C188.528 114.101 188.874 114.331 189.344 114.48L188.688 116.368C187.962 116.272 187.328 116.043 186.784 115.68C186.24 115.307 185.845 114.747 185.6 114C184.992 114.779 184.234 115.371 183.328 115.776C182.421 116.171 181.418 116.368 180.32 116.368C178.634 116.368 177.306 115.893 176.336 114.944C175.365 113.995 174.88 112.736 174.88 111.168C174.88 109.429 175.557 108.096 176.911 107.168C178.266 106.24 180.224 105.776 182.784 105.776H185.264V104.368C185.264 103.152 184.906 102.293 184.192 101.792C183.488 101.28 182.506 101.024 181.248 101.024C180.693 101.024 180.042 101.093 179.296 101.232C178.549 101.36 177.738 101.579 176.864 101.888L176.16 99.856C177.194 99.472 178.165 99.2 179.072 99.04C179.978 98.88 180.842 98.8 181.664 98.8C183.765 98.8 185.338 99.2907 186.384 100.272C187.44 101.243 187.968 102.565 187.968 104.24V112.32ZM181.008 114.32C181.84 114.32 182.634 114.112 183.392 113.696C184.149 113.269 184.773 112.683 185.264 111.936V107.6H182.832C180.976 107.6 179.664 107.92 178.896 108.56C178.138 109.2 177.76 110.059 177.76 111.136C177.76 112.181 178.026 112.976 178.56 113.52C179.104 114.053 179.92 114.32 181.008 114.32ZM208.467 115.152C207.891 115.536 207.192 115.835 206.371 116.048C205.55 116.261 204.744 116.368 203.955 116.368C202.142 116.368 200.744 115.893 199.763 114.944C198.782 113.995 198.291 112.773 198.291 111.28V101.232H194.419V99.152H198.291V95.328L200.979 95.008V99.152H206.803L206.483 101.232H200.979V111.248C200.979 112.187 201.224 112.901 201.715 113.392C202.216 113.883 203.043 114.128 204.195 114.128C204.824 114.128 205.406 114.053 205.939 113.904C206.472 113.755 206.968 113.563 207.427 113.328L208.467 115.152ZM216.391 108.528C216.444 109.829 216.695 110.896 217.143 111.728C217.591 112.549 218.183 113.157 218.919 113.552C219.655 113.936 220.455 114.128 221.319 114.128C222.183 114.128 222.961 114 223.655 113.744C224.359 113.488 225.079 113.109 225.815 112.608L227.079 114.384C226.289 115.003 225.388 115.488 224.375 115.84C223.372 116.192 222.343 116.368 221.287 116.368C219.655 116.368 218.263 116 217.111 115.264C215.959 114.528 215.079 113.504 214.471 112.192C213.873 110.869 213.575 109.339 213.575 107.6C213.575 105.893 213.879 104.379 214.487 103.056C215.095 101.733 215.948 100.693 217.047 99.936C218.145 99.1787 219.441 98.8 220.935 98.8C222.353 98.8 223.575 99.136 224.599 99.808C225.623 100.469 226.407 101.419 226.951 102.656C227.505 103.883 227.783 105.349 227.783 107.056C227.783 107.344 227.777 107.616 227.767 107.872C227.756 108.117 227.74 108.336 227.719 108.528H216.391ZM220.967 101.008C219.719 101.008 218.673 101.451 217.831 102.336C216.999 103.221 216.524 104.592 216.407 106.448H225.191C225.159 104.645 224.764 103.291 224.007 102.384C223.249 101.467 222.236 101.008 220.967 101.008ZM252.814 116V113.936H255.438V101.216H252.814V99.152H257.486L257.982 103.136C258.632 101.749 259.422 100.677 260.35 99.92C261.278 99.1627 262.504 98.784 264.03 98.784C264.499 98.784 264.915 98.8213 265.278 98.896C265.651 98.96 266.03 99.0453 266.414 99.152L265.63 101.552C265.278 101.456 264.958 101.387 264.67 101.344C264.382 101.291 264.051 101.264 263.678 101.264C262.387 101.264 261.278 101.723 260.35 102.64C259.422 103.557 258.68 104.944 258.126 106.8V113.936H261.55V116H252.814ZM263.822 104.848V101.184L264.094 99.152H266.414L266.03 104.848H263.822ZM273.953 108.528C274.006 109.829 274.257 110.896 274.705 111.728C275.153 112.549 275.745 113.157 276.481 113.552C277.217 113.936 278.017 114.128 278.881 114.128C279.745 114.128 280.524 114 281.217 113.744C281.921 113.488 282.641 113.109 283.377 112.608L284.641 114.384C283.852 115.003 282.95 115.488 281.937 115.84C280.934 116.192 279.905 116.368 278.849 116.368C277.217 116.368 275.825 116 274.673 115.264C273.521 114.528 272.641 113.504 272.033 112.192C271.436 110.869 271.137 109.339 271.137 107.6C271.137 105.893 271.441 104.379 272.049 103.056C272.657 101.733 273.51 100.693 274.609 99.936C275.708 99.1787 277.004 98.8 278.497 98.8C279.916 98.8 281.137 99.136 282.161 99.808C283.185 100.469 283.969 101.419 284.513 102.656C285.068 103.883 285.345 105.349 285.345 107.056C285.345 107.344 285.34 107.616 285.329 107.872C285.318 108.117 285.302 108.336 285.281 108.528H273.953ZM278.529 101.008C277.281 101.008 276.236 101.451 275.393 102.336C274.561 103.221 274.086 104.592 273.969 106.448H282.753C282.721 104.645 282.326 103.291 281.569 102.384C280.812 101.467 279.798 101.008 278.529 101.008ZM303.093 112.32C303.093 112.992 303.205 113.483 303.429 113.792C303.653 114.101 303.999 114.331 304.469 114.48L303.812 116.368C303.087 116.272 302.453 116.043 301.909 115.68C301.365 115.307 300.97 114.747 300.725 114C300.117 114.779 299.359 115.371 298.453 115.776C297.546 116.171 296.543 116.368 295.445 116.368C293.759 116.368 292.431 115.893 291.461 114.944C290.49 113.995 290.005 112.736 290.005 111.168C290.005 109.429 290.682 108.096 292.036 107.168C293.391 106.24 295.349 105.776 297.909 105.776H300.389V104.368C300.389 103.152 300.031 102.293 299.317 101.792C298.613 101.28 297.631 101.024 296.373 101.024C295.818 101.024 295.167 101.093 294.421 101.232C293.674 101.36 292.863 101.579 291.989 101.888L291.285 99.856C292.319 99.472 293.29 99.2 294.197 99.04C295.103 98.88 295.967 98.8 296.789 98.8C298.89 98.8 300.463 99.2907 301.509 100.272C302.565 101.243 303.093 102.565 303.093 104.24V112.32ZM296.133 114.32C296.965 114.32 297.759 114.112 298.517 113.696C299.274 113.269 299.898 112.683 300.389 111.936V107.6H297.957C296.101 107.6 294.789 107.92 294.021 108.56C293.263 109.2 292.885 110.059 292.885 111.136C292.885 112.181 293.151 112.976 293.685 113.52C294.229 114.053 295.045 114.32 296.133 114.32ZM320.296 92.032L322.984 92.368V116H320.632L320.376 113.776C319.747 114.672 319.021 115.328 318.2 115.744C317.389 116.16 316.52 116.368 315.592 116.368C314.131 116.368 312.925 116 311.976 115.264C311.027 114.528 310.323 113.504 309.864 112.192C309.405 110.869 309.176 109.339 309.176 107.6C309.176 105.915 309.437 104.411 309.96 103.088C310.483 101.755 311.235 100.709 312.216 99.952C313.208 99.184 314.397 98.8 315.784 98.8C316.755 98.8 317.608 98.9707 318.344 99.312C319.08 99.6427 319.731 100.133 320.296 100.784V92.032ZM316.488 100.96C315.08 100.96 313.997 101.509 313.24 102.608C312.483 103.707 312.104 105.371 312.104 107.6C312.104 109.051 312.259 110.267 312.568 111.248C312.877 112.229 313.331 112.965 313.928 113.456C314.536 113.947 315.277 114.192 316.152 114.192C317.112 114.192 317.928 113.92 318.6 113.376C319.283 112.832 319.848 112.219 320.296 111.536V103.12C319.837 102.437 319.283 101.909 318.632 101.536C317.981 101.152 317.267 100.96 316.488 100.96ZM335.82 98.8C337.409 98.8 338.737 99.1627 339.804 99.888C340.881 100.603 341.686 101.616 342.22 102.928C342.764 104.24 343.036 105.787 343.036 107.568C343.036 109.285 342.758 110.805 342.204 112.128C341.649 113.451 340.833 114.491 339.756 115.248C338.689 115.995 337.366 116.368 335.788 116.368C334.209 116.368 332.881 116.005 331.804 115.28C330.726 114.555 329.91 113.536 329.356 112.224C328.812 110.901 328.539 109.36 328.539 107.6C328.539 105.861 328.817 104.331 329.372 103.008C329.926 101.685 330.742 100.656 331.82 99.92C332.908 99.1733 334.241 98.8 335.82 98.8ZM335.82 100.992C334.369 100.992 333.27 101.531 332.524 102.608C331.788 103.675 331.42 105.339 331.42 107.6C331.42 109.819 331.782 111.467 332.508 112.544C333.244 113.621 334.337 114.16 335.788 114.16C337.238 114.16 338.326 113.621 339.052 112.544C339.788 111.467 340.156 109.808 340.156 107.568C340.156 105.328 339.793 103.675 339.068 102.608C338.342 101.531 337.26 100.992 335.82 100.992ZM348.591 116V99.152H350.879L351.087 101.488C351.77 100.624 352.623 99.9627 353.647 99.504C354.682 99.0347 355.684 98.8 356.655 98.8C358.308 98.8 359.508 99.2373 360.255 100.112C361.012 100.987 361.391 102.203 361.391 103.76V116H358.703V105.744C358.703 104.592 358.639 103.664 358.511 102.96C358.383 102.245 358.116 101.728 357.711 101.408C357.306 101.077 356.676 100.912 355.823 100.912C355.162 100.912 354.538 101.056 353.951 101.344C353.375 101.632 352.858 101.995 352.399 102.432C351.951 102.859 351.578 103.291 351.279 103.728V116H348.591ZM374.339 92.368V111.84C374.339 112.672 374.595 113.264 375.107 113.616C375.629 113.957 376.301 114.128 377.123 114.128C377.635 114.128 378.12 114.075 378.579 113.968C379.037 113.861 379.496 113.717 379.955 113.536L380.675 115.504C380.216 115.728 379.645 115.925 378.963 116.096C378.291 116.277 377.528 116.368 376.675 116.368C375.181 116.368 373.971 115.957 373.043 115.136C372.115 114.304 371.651 113.157 371.651 111.696V94.496H366.483V92.368H374.339ZM400.982 99.152L395.062 116.112C394.667 117.253 394.166 118.299 393.558 119.248C392.961 120.197 392.177 120.981 391.206 121.6C390.246 122.229 389.025 122.619 387.542 122.768L387.126 120.624C388.289 120.432 389.206 120.139 389.878 119.744C390.55 119.349 391.078 118.843 391.462 118.224C391.857 117.605 392.203 116.864 392.502 116H391.606L385.718 99.152H388.598L393.43 113.952L398.198 99.152H400.982ZM50.775 146.8C50.775 145.125 50.631 143.632 50.343 142.32C50.0657 140.997 49.6443 139.797 49.079 138.72C48.5137 137.632 47.799 136.597 46.935 135.616C46.0817 134.624 45.079 133.616 43.927 132.592L45.335 131.12C47.0737 132.528 48.5563 133.973 49.783 135.456C51.0097 136.939 51.9483 138.592 52.599 140.416C53.2603 142.24 53.591 144.368 53.591 146.8C53.591 149.221 53.2603 151.344 52.599 153.168C51.9483 154.992 51.0097 156.645 49.783 158.128C48.5563 159.611 47.0737 161.061 45.335 162.48L43.927 161.008C45.0683 159.995 46.0657 158.992 46.919 158C47.783 157.019 48.4977 155.984 49.063 154.896C49.6283 153.797 50.055 152.592 50.343 151.28C50.631 149.957 50.775 148.464 50.775 146.8ZM91.198 131.264V133.376C90.4193 133.376 89.71 133.456 89.07 133.616C88.4407 133.765 87.95 134.027 87.598 134.4C87.2567 134.773 87.1127 135.285 87.166 135.936L87.838 142.496C87.934 143.392 87.8807 144.133 87.678 144.72C87.4753 145.307 87.134 145.765 86.654 146.096C86.1847 146.427 85.582 146.661 84.846 146.8C85.5927 146.928 86.206 147.152 86.686 147.472C87.166 147.781 87.502 148.229 87.694 148.816C87.886 149.392 87.934 150.155 87.838 151.104L87.166 157.664C87.1127 158.325 87.2567 158.843 87.598 159.216C87.9393 159.589 88.43 159.851 89.07 160C89.71 160.149 90.4193 160.224 91.198 160.224V162.336C90.302 162.336 89.4433 162.256 88.622 162.096C87.8007 161.947 87.0753 161.685 86.446 161.312C85.8167 160.939 85.342 160.427 85.022 159.776C84.702 159.136 84.5953 158.325 84.702 157.344L85.342 151.264C85.4273 150.528 85.358 149.909 85.134 149.408C84.9207 148.907 84.4513 148.528 83.726 148.272C83.0113 148.005 81.9393 147.872 80.51 147.872V145.728C81.9393 145.728 83.0113 145.6 83.726 145.344C84.4513 145.088 84.9207 144.709 85.134 144.208C85.358 143.707 85.4273 143.093 85.342 142.368L84.702 136.256C84.5953 135.275 84.702 134.464 85.022 133.824C85.342 133.173 85.8113 132.661 86.43 132.288C87.0593 131.915 87.7847 131.653 88.606 131.504C89.438 131.344 90.302 131.264 91.198 131.264ZM100.69 131.264C101.586 131.264 102.444 131.344 103.266 131.504C104.087 131.653 104.812 131.915 105.442 132.288C106.071 132.661 106.546 133.173 106.866 133.824C107.196 134.464 107.303 135.275 107.186 136.256L106.546 142.368C106.46 143.093 106.551 143.707 106.818 144.208C107.095 144.709 107.596 145.088 108.322 145.344C109.047 145.6 110.066 145.728 111.378 145.728V147.872C110.076 147.872 109.058 148.005 108.322 148.272C107.596 148.528 107.095 148.907 106.818 149.408C106.551 149.909 106.46 150.528 106.546 151.264L107.186 157.344C107.292 158.325 107.186 159.136 106.866 159.776C106.546 160.427 106.071 160.939 105.442 161.312C104.823 161.685 104.098 161.947 103.266 162.096C102.444 162.256 101.586 162.336 100.69 162.336V160.224C101.468 160.224 102.172 160.149 102.802 160C103.442 159.851 103.938 159.589 104.29 159.216C104.642 158.843 104.786 158.325 104.722 157.664L104.05 151.104C103.954 150.155 104.007 149.392 104.21 148.816C104.412 148.229 104.775 147.781 105.298 147.472C105.831 147.163 106.53 146.949 107.394 146.832C106.562 146.693 105.879 146.453 105.345 146.112C104.823 145.771 104.455 145.307 104.242 144.72C104.028 144.133 103.964 143.392 104.05 142.496L104.722 135.936C104.786 135.285 104.642 134.773 104.29 134.4C103.938 134.027 103.447 133.765 102.818 133.616C102.188 133.456 101.479 133.376 100.69 133.376V131.264Z" fill="#DA68BA"/>
<path d="M417.386 5.264V7.376C416.607 7.376 415.898 7.456 415.258 7.616C414.628 7.76533 414.138 8.02667 413.786 8.4C413.444 8.77333 413.3 9.28533 413.354 9.936L414.026 16.496C414.122 17.392 414.068 18.1333 413.866 18.72C413.663 19.3067 413.322 19.7653 412.842 20.096C412.372 20.4267 411.77 20.6613 411.034 20.8C411.78 20.928 412.394 21.152 412.874 21.472C413.354 21.7813 413.69 22.2293 413.882 22.816C414.074 23.392 414.122 24.1547 414.026 25.104L413.354 31.664C413.3 32.3253 413.444 32.8427 413.786 33.216C414.127 33.5893 414.618 33.8507 415.258 34C415.898 34.1493 416.607 34.224 417.386 34.224V36.336C416.49 36.336 415.631 36.256 414.81 36.096C413.988 35.9467 413.263 35.6853 412.634 35.312C412.004 34.9387 411.53 34.4267 411.21 33.776C410.89 33.136 410.783 32.3253 410.89 31.344L411.53 25.264C411.615 24.528 411.546 23.9093 411.322 23.408C411.108 22.9067 410.639 22.528 409.914 22.272C409.199 22.0053 408.127 21.872 406.698 21.872V19.728C408.127 19.728 409.199 19.6 409.914 19.344C410.639 19.088 411.108 18.7093 411.322 18.208C411.546 17.7067 411.615 17.0933 411.53 16.368L410.89 10.256C410.783 9.27467 410.89 8.464 411.21 7.824C411.53 7.17333 411.999 6.66133 412.618 6.288C413.247 5.91467 413.972 5.65333 414.794 5.504C415.626 5.344 416.49 5.264 417.386 5.264ZM853.85 110.736C854.586 110.736 855.199 110.987 855.69 111.488C856.191 111.989 856.442 112.592 856.442 113.296C856.442 113.68 856.394 114.069 856.298 114.464C856.213 114.859 856.053 115.307 855.818 115.808L853.226 121.744H850.794L852.33 115.424C852.01 115.189 851.754 114.885 851.562 114.512C851.381 114.128 851.29 113.723 851.29 113.296C851.29 112.581 851.535 111.979 852.026 111.488C852.517 110.987 853.125 110.736 853.85 110.736ZM4.752 173.264C5.648 173.264 6.50667 173.344 7.328 173.504C8.14933 173.653 8.87467 173.915 9.504 174.288C10.1333 174.661 10.608 175.173 10.928 175.824C11.2587 176.464 11.3653 177.275 11.248 178.256L10.608 184.368C10.5227 185.093 10.6133 185.707 10.88 186.208C11.1573 186.709 11.6587 187.088 12.384 187.344C13.1093 187.6 14.128 187.728 15.44 187.728V189.872C14.1387 189.872 13.12 190.005 12.384 190.272C11.6587 190.528 11.1573 190.907 10.88 191.408C10.6133 191.909 10.5227 192.528 10.608 193.264L11.248 199.344C11.3547 200.325 11.248 201.136 10.928 201.776C10.608 202.427 10.1333 202.939 9.504 203.312C8.88533 203.685 8.16 203.947 7.328 204.096C6.50667 204.256 5.648 204.336 4.752 204.336V202.224C5.53067 202.224 6.23467 202.149 6.864 202C7.504 201.851 8 201.589 8.352 201.216C8.704 200.843 8.848 200.325 8.784 199.664L8.112 193.104C8.016 192.155 8.06933 191.392 8.272 190.816C8.47467 190.229 8.83733 189.781 9.36 189.472C9.89333 189.163 10.592 188.949 11.456 188.832C10.624 188.693 9.94133 188.453 9.408 188.112C8.88533 187.771 8.51733 187.307 8.304 186.72C8.09067 186.133 8.02667 185.392 8.112 184.496L8.784 177.936C8.848 177.285 8.704 176.773 8.352 176.4C8 176.027 7.50933 175.765 6.88 175.616C6.25067 175.456 5.54133 175.376 4.752 175.376V173.264Z" fill="white"/>
<path d="M266.606 25.904C266.606 27.1627 266.291 28.2827 265.662 29.264C265.032 30.2347 264.12 30.9973 262.926 31.552C261.731 32.096 260.275 32.368 258.558 32.368C256.947 32.368 255.486 32.1227 254.174 31.632C252.872 31.1413 251.758 30.448 250.83 29.552L252.478 27.696C253.246 28.4107 254.126 28.9813 255.118 29.408C256.11 29.824 257.272 30.032 258.606 30.032C259.502 30.032 260.339 29.888 261.118 29.6C261.896 29.3013 262.526 28.8533 263.006 28.256C263.486 27.648 263.726 26.88 263.726 25.952C263.726 25.2373 263.587 24.6293 263.31 24.128C263.032 23.6267 262.542 23.184 261.838 22.8C261.134 22.4053 260.152 22.0213 258.894 21.648C257.443 21.2213 256.184 20.7413 255.118 20.208C254.062 19.664 253.24 18.9973 252.654 18.208C252.078 17.4187 251.789 16.4427 251.789 15.28C251.789 14.1813 252.094 13.2053 252.702 12.352C253.31 11.4987 254.147 10.832 255.214 10.352C256.291 9.86133 257.528 9.616 258.926 9.616C260.451 9.616 261.774 9.83467 262.894 10.272C264.024 10.6987 265.048 11.3173 265.965 12.128L264.334 13.936C263.544 13.232 262.696 12.7253 261.79 12.416C260.883 12.096 259.96 11.936 259.022 11.936C258.222 11.936 257.486 12.0587 256.814 12.304C256.152 12.5387 255.619 12.896 255.214 13.376C254.819 13.8453 254.622 14.448 254.622 15.184C254.622 15.8133 254.792 16.3573 255.134 16.816C255.475 17.2747 256.051 17.696 256.862 18.08C257.672 18.4533 258.776 18.848 260.174 19.264C261.315 19.5947 262.371 20.0107 263.342 20.512C264.323 21.0027 265.112 21.6747 265.71 22.528C266.307 23.3707 266.606 24.496 266.606 25.904ZM273.953 24.528C274.006 25.8293 274.257 26.896 274.705 27.728C275.153 28.5493 275.745 29.1573 276.481 29.552C277.217 29.936 278.017 30.128 278.881 30.128C279.745 30.128 280.524 30 281.217 29.744C281.921 29.488 282.641 29.1093 283.377 28.608L284.641 30.384C283.852 31.0027 282.95 31.488 281.937 31.84C280.934 32.192 279.905 32.368 278.849 32.368C277.217 32.368 275.825 32 274.673 31.264C273.521 30.528 272.641 29.504 272.033 28.192C271.436 26.8693 271.137 25.3387 271.137 23.6C271.137 21.8933 271.441 20.3787 272.049 19.056C272.657 17.7333 273.51 16.6933 274.609 15.936C275.708 15.1787 277.004 14.8 278.497 14.8C279.916 14.8 281.137 15.136 282.161 15.808C283.185 16.4693 283.969 17.4187 284.513 18.656C285.068 19.8827 285.345 21.3493 285.345 23.056C285.345 23.344 285.34 23.616 285.329 23.872C285.318 24.1173 285.302 24.336 285.281 24.528H273.953ZM278.529 17.008C277.281 17.008 276.236 17.4507 275.393 18.336C274.561 19.2213 274.086 20.592 273.969 22.448H282.753C282.721 20.6453 282.326 19.2907 281.569 18.384C280.812 17.4667 279.798 17.008 278.529 17.008ZM291.189 32V29.936H293.813V17.216H291.189V15.152H295.861L296.357 19.136C297.007 17.7493 297.797 16.6773 298.725 15.92C299.653 15.1627 300.879 14.784 302.405 14.784C302.874 14.784 303.29 14.8213 303.653 14.896C304.026 14.96 304.405 15.0453 304.789 15.152L304.005 17.552C303.653 17.456 303.333 17.3867 303.045 17.344C302.757 17.2907 302.426 17.264 302.053 17.264C300.762 17.264 299.653 17.7227 298.725 18.64C297.797 19.5573 297.055 20.944 296.501 22.8V29.936H299.925V32H291.189ZM302.197 20.848V17.184L302.469 15.152H304.789L304.405 20.848H302.197ZM324.264 15.152L318.136 32H315.016L308.936 15.152H311.784L316.664 29.552L321.48 15.152H324.264ZM337.932 15.152V29.872H342.684V32H330.044V29.872H335.244V17.28H330.204V15.152H337.932ZM335.788 7.264C336.385 7.264 336.86 7.44533 337.212 7.808C337.574 8.17067 337.756 8.61333 337.756 9.136C337.756 9.68 337.574 10.1387 337.212 10.512C336.86 10.8747 336.385 11.056 335.788 11.056C335.222 11.056 334.758 10.8747 334.396 10.512C334.033 10.1387 333.852 9.68 333.852 9.136C333.852 8.61333 334.033 8.17067 334.396 7.808C334.758 7.44533 335.222 7.264 335.788 7.264ZM356.207 30.048C357.05 30.048 357.834 29.9093 358.559 29.632C359.295 29.3547 359.972 29.0027 360.591 28.576L361.903 30.336C361.167 30.9653 360.282 31.4613 359.247 31.824C358.212 32.1867 357.199 32.368 356.207 32.368C354.532 32.368 353.103 32.0107 351.919 31.296C350.746 30.5707 349.85 29.5573 349.231 28.256C348.612 26.944 348.303 25.408 348.303 23.648C348.303 21.9627 348.612 20.4533 349.231 19.12C349.86 17.776 350.762 16.72 351.935 15.952C353.119 15.184 354.554 14.8 356.239 14.8C357.316 14.8 358.324 14.9653 359.263 15.296C360.212 15.616 361.082 16.1013 361.871 16.752L360.559 18.544C359.844 18.0427 359.124 17.6693 358.399 17.424C357.684 17.168 356.954 17.04 356.207 17.04C354.756 17.04 353.562 17.584 352.623 18.672C351.684 19.76 351.215 21.4187 351.215 23.648C351.215 25.1413 351.428 26.3627 351.855 27.312C352.292 28.2507 352.884 28.944 353.631 29.392C354.388 29.8293 355.247 30.048 356.207 30.048ZM369.891 24.528C369.944 25.8293 370.195 26.896 370.643 27.728C371.091 28.5493 371.683 29.1573 372.419 29.552C373.155 29.936 373.955 30.128 374.819 30.128C375.683 30.128 376.461 30 377.155 29.744C377.859 29.488 378.579 29.1093 379.315 28.608L380.579 30.384C379.789 31.0027 378.888 31.488 377.875 31.84C376.872 32.192 375.843 32.368 374.787 32.368C373.155 32.368 371.763 32 370.611 31.264C369.459 30.528 368.579 29.504 367.971 28.192C367.373 26.8693 367.075 25.3387 367.075 23.6C367.075 21.8933 367.379 20.3787 367.987 19.056C368.595 17.7333 369.448 16.6933 370.547 15.936C371.645 15.1787 372.941 14.8 374.435 14.8C375.853 14.8 377.075 15.136 378.099 15.808C379.123 16.4693 379.907 17.4187 380.451 18.656C381.005 19.8827 381.283 21.3493 381.283 23.056C381.283 23.344 381.277 23.616 381.267 23.872C381.256 24.1173 381.24 24.336 381.219 24.528H369.891ZM374.467 17.008C373.219 17.008 372.173 17.4507 371.331 18.336C370.499 19.2213 370.024 20.592 369.907 22.448H378.691C378.659 20.6453 378.264 19.2907 377.507 18.384C376.749 17.4667 375.736 17.008 374.467 17.008ZM669.575 100.144C669.575 101.243 669.335 102.203 668.855 103.024C668.386 103.845 667.746 104.523 666.935 105.056C666.124 105.589 665.212 105.979 664.199 106.224L670.727 116H667.399L661.383 106.544H658.407V116H655.623V93.968H661.287C664.007 93.968 666.066 94.4907 667.463 95.536C668.871 96.5707 669.575 98.1067 669.575 100.144ZM666.599 100.144C666.599 98.7253 666.194 97.712 665.383 97.104C664.572 96.4853 663.314 96.176 661.607 96.176H658.407V104.368H661.607C663.186 104.368 664.412 104.048 665.287 103.408C666.162 102.757 666.599 101.669 666.599 100.144ZM676.891 108.528C676.944 109.829 677.195 110.896 677.643 111.728C678.091 112.549 678.683 113.157 679.419 113.552C680.155 113.936 680.955 114.128 681.819 114.128C682.683 114.128 683.461 114 684.155 113.744C684.859 113.488 685.579 113.109 686.315 112.608L687.579 114.384C686.789 115.003 685.888 115.488 684.875 115.84C683.872 116.192 682.843 116.368 681.787 116.368C680.155 116.368 678.763 116 677.611 115.264C676.459 114.528 675.579 113.504 674.971 112.192C674.373 110.869 674.075 109.339 674.075 107.6C674.075 105.893 674.379 104.379 674.987 103.056C675.595 101.733 676.448 100.693 677.547 99.936C678.645 99.1787 679.941 98.8 681.435 98.8C682.853 98.8 684.075 99.136 685.099 99.808C686.123 100.469 686.907 101.419 687.451 102.656C688.005 103.883 688.283 105.349 688.283 107.056C688.283 107.344 688.277 107.616 688.267 107.872C688.256 108.117 688.24 108.336 688.219 108.528H676.891ZM681.467 101.008C680.219 101.008 679.173 101.451 678.331 102.336C677.499 103.221 677.024 104.592 676.907 106.448H685.691C685.659 104.645 685.264 103.291 684.507 102.384C683.749 101.467 682.736 101.008 681.467 101.008ZM701.502 98.8C702.995 98.8 704.185 99.1627 705.07 99.888C705.966 100.613 706.611 101.637 707.006 102.96C707.401 104.272 707.598 105.808 707.598 107.568C707.598 109.264 707.358 110.779 706.878 112.112C706.409 113.435 705.694 114.475 704.734 115.232C703.774 115.989 702.563 116.368 701.102 116.368C699.257 116.368 697.774 115.717 696.654 114.416V122.448L693.966 122.784V99.152H696.254L696.478 101.504C697.097 100.64 697.833 99.9733 698.686 99.504C699.55 99.0347 700.489 98.8 701.502 98.8ZM700.862 100.96C699.934 100.96 699.113 101.243 698.398 101.808C697.694 102.363 697.113 102.981 696.654 103.664V112.016C697.091 112.667 697.641 113.184 698.302 113.568C698.974 113.941 699.71 114.128 700.51 114.128C701.907 114.128 702.958 113.595 703.662 112.528C704.366 111.461 704.718 109.803 704.718 107.552C704.718 106.08 704.579 104.859 704.302 103.888C704.025 102.907 703.603 102.176 703.038 101.696C702.473 101.205 701.747 100.96 700.862 100.96ZM719.57 98.8C721.159 98.8 722.487 99.1627 723.554 99.888C724.631 100.603 725.436 101.616 725.97 102.928C726.514 104.24 726.786 105.787 726.786 107.568C726.786 109.285 726.508 110.805 725.954 112.128C725.399 113.451 724.583 114.491 723.506 115.248C722.439 115.995 721.116 116.368 719.538 116.368C717.959 116.368 716.631 116.005 715.554 115.28C714.476 114.555 713.66 113.536 713.106 112.224C712.562 110.901 712.289 109.36 712.289 107.6C712.289 105.861 712.567 104.331 713.122 103.008C713.676 101.685 714.492 100.656 715.57 99.92C716.658 99.1733 717.991 98.8 719.57 98.8ZM719.57 100.992C718.119 100.992 717.02 101.531 716.274 102.608C715.538 103.675 715.17 105.339 715.17 107.6C715.17 109.819 715.532 111.467 716.258 112.544C716.994 113.621 718.087 114.16 719.538 114.16C720.988 114.16 722.076 113.621 722.802 112.544C723.538 111.467 723.906 109.808 723.906 107.568C723.906 105.328 723.543 103.675 722.818 102.608C722.092 101.531 721.01 100.992 719.57 100.992ZM738.069 114.144C739.36 114.144 740.378 113.904 741.125 113.424C741.882 112.933 742.261 112.283 742.261 111.472C742.261 110.96 742.165 110.517 741.973 110.144C741.792 109.771 741.413 109.435 740.837 109.136C740.261 108.837 739.376 108.539 738.181 108.24C737.018 107.952 736.005 107.621 735.141 107.248C734.288 106.864 733.621 106.368 733.141 105.76C732.672 105.152 732.437 104.363 732.437 103.392C732.437 102.443 732.704 101.627 733.237 100.944C733.781 100.251 734.533 99.7227 735.493 99.36C736.453 98.9867 737.568 98.8 738.837 98.8C740.192 98.8 741.37 98.9813 742.373 99.344C743.386 99.696 744.245 100.133 744.949 100.656L743.765 102.48C743.125 102.043 742.421 101.685 741.653 101.408C740.885 101.12 739.957 100.976 738.869 100.976C737.546 100.976 736.608 101.184 736.053 101.6C735.498 102.005 735.221 102.533 735.221 103.184C735.221 103.675 735.354 104.085 735.621 104.416C735.898 104.736 736.362 105.029 737.013 105.296C737.664 105.552 738.56 105.835 739.701 106.144C740.8 106.432 741.754 106.779 742.565 107.184C743.386 107.589 744.026 108.123 744.485 108.784C744.944 109.445 745.173 110.299 745.173 111.344C745.173 112.539 744.832 113.509 744.149 114.256C743.466 114.992 742.581 115.531 741.493 115.872C740.416 116.203 739.274 116.368 738.069 116.368C736.544 116.368 735.242 116.149 734.165 115.712C733.098 115.264 732.202 114.725 731.477 114.096L733.013 112.32C733.674 112.864 734.432 113.307 735.285 113.648C736.149 113.979 737.077 114.144 738.069 114.144ZM760.057 99.152V113.872H764.809V116H752.169V113.872H757.369V101.28H752.329V99.152H760.057ZM757.913 91.264C758.51 91.264 758.985 91.4453 759.337 91.808C759.699 92.1707 759.881 92.6133 759.881 93.136C759.881 93.68 759.699 94.1387 759.337 94.512C758.985 94.8747 758.51 95.056 757.913 95.056C757.347 95.056 756.883 94.8747 756.521 94.512C756.158 94.1387 755.977 93.68 755.977 93.136C755.977 92.6133 756.158 92.1707 756.521 91.808C756.883 91.4453 757.347 91.264 757.913 91.264ZM784.092 115.152C783.516 115.536 782.817 115.835 781.996 116.048C781.175 116.261 780.369 116.368 779.58 116.368C777.767 116.368 776.369 115.893 775.388 114.944C774.407 113.995 773.916 112.773 773.916 111.28V101.232H770.044V99.152H773.916V95.328L776.604 95.008V99.152H782.428L782.108 101.232H776.604V111.248C776.604 112.187 776.849 112.901 777.34 113.392C777.841 113.883 778.668 114.128 779.82 114.128C780.449 114.128 781.031 114.053 781.564 113.904C782.097 113.755 782.593 113.563 783.052 113.328L784.092 115.152ZM796.32 98.8C797.909 98.8 799.237 99.1627 800.304 99.888C801.381 100.603 802.186 101.616 802.72 102.928C803.264 104.24 803.536 105.787 803.536 107.568C803.536 109.285 803.258 110.805 802.704 112.128C802.149 113.451 801.333 114.491 800.256 115.248C799.189 115.995 797.866 116.368 796.288 116.368C794.709 116.368 793.381 116.005 792.304 115.28C791.226 114.555 790.41 113.536 789.856 112.224C789.312 110.901 789.039 109.36 789.039 107.6C789.039 105.861 789.317 104.331 789.872 103.008C790.426 101.685 791.242 100.656 792.32 99.92C793.408 99.1733 794.741 98.8 796.32 98.8ZM796.32 100.992C794.869 100.992 793.77 101.531 793.024 102.608C792.288 103.675 791.92 105.339 791.92 107.6C791.92 109.819 792.282 111.467 793.008 112.544C793.744 113.621 794.837 114.16 796.288 114.16C797.738 114.16 798.826 113.621 799.552 112.544C800.288 111.467 800.656 109.808 800.656 107.568C800.656 105.328 800.293 103.675 799.568 102.608C798.842 101.531 797.76 100.992 796.32 100.992ZM809.251 116V113.936H811.875V101.216H809.251V99.152H813.923L814.419 103.136C815.07 101.749 815.859 100.677 816.787 99.92C817.715 99.1627 818.942 98.784 820.467 98.784C820.936 98.784 821.352 98.8213 821.715 98.896C822.088 98.96 822.467 99.0453 822.851 99.152L822.067 101.552C821.715 101.456 821.395 101.387 821.107 101.344C820.819 101.291 820.488 101.264 820.115 101.264C818.824 101.264 817.715 101.723 816.787 102.64C815.859 103.557 815.118 104.944 814.563 106.8V113.936H817.987V116H809.251ZM820.259 104.848V101.184L820.531 99.152H822.851L822.467 104.848H820.259ZM842.295 99.152L836.375 116.112C835.98 117.253 835.479 118.299 834.871 119.248C834.273 120.197 833.489 120.981 832.519 121.6C831.559 122.229 830.337 122.619 828.855 122.768L828.439 120.624C829.601 120.432 830.519 120.139 831.191 119.744C831.863 119.349 832.391 118.843 832.775 118.224C833.169 117.605 833.516 116.864 833.815 116H832.919L827.031 99.152H829.911L834.743 113.952L839.511 99.152H842.295Z" fill="#51EAFF"/>
<path d="M425.501 116V113.936H428.125V101.216H425.501V99.152H430.173L430.669 103.136C431.32 101.749 432.109 100.677 433.037 99.92C433.965 99.1627 435.192 98.784 436.717 98.784C437.186 98.784 437.602 98.8213 437.965 98.896C438.338 98.96 438.717 99.0453 439.101 99.152L438.317 101.552C437.965 101.456 437.645 101.387 437.357 101.344C437.069 101.291 436.738 101.264 436.365 101.264C435.074 101.264 433.965 101.723 433.037 102.64C432.109 103.557 431.368 104.944 430.813 106.8V113.936H434.237V116H425.501ZM436.509 104.848V101.184L436.781 99.152H439.101L438.717 104.848H436.509ZM446.641 108.528C446.694 109.829 446.945 110.896 447.393 111.728C447.841 112.549 448.433 113.157 449.169 113.552C449.905 113.936 450.705 114.128 451.569 114.128C452.433 114.128 453.211 114 453.905 113.744C454.609 113.488 455.329 113.109 456.065 112.608L457.329 114.384C456.539 115.003 455.638 115.488 454.625 115.84C453.622 116.192 452.593 116.368 451.537 116.368C449.905 116.368 448.513 116 447.361 115.264C446.209 114.528 445.329 113.504 444.721 112.192C444.123 110.869 443.825 109.339 443.825 107.6C443.825 105.893 444.129 104.379 444.737 103.056C445.345 101.733 446.198 100.693 447.297 99.936C448.395 99.1787 449.691 98.8 451.185 98.8C452.603 98.8 453.825 99.136 454.849 99.808C455.873 100.469 456.657 101.419 457.201 102.656C457.755 103.883 458.033 105.349 458.033 107.056C458.033 107.344 458.027 107.616 458.017 107.872C458.006 108.117 457.99 108.336 457.969 108.528H446.641ZM451.217 101.008C449.969 101.008 448.923 101.451 448.081 102.336C447.249 103.221 446.774 104.592 446.657 106.448H455.441C455.409 104.645 455.014 103.291 454.257 102.384C453.499 101.467 452.486 101.008 451.217 101.008ZM471.252 98.8C472.745 98.8 473.935 99.1627 474.82 99.888C475.716 100.613 476.361 101.637 476.756 102.96C477.151 104.272 477.348 105.808 477.348 107.568C477.348 109.264 477.108 110.779 476.628 112.112C476.159 113.435 475.444 114.475 474.484 115.232C473.524 115.989 472.313 116.368 470.852 116.368C469.007 116.368 467.524 115.717 466.404 114.416V122.448L463.716 122.784V99.152H466.004L466.228 101.504C466.847 100.64 467.583 99.9733 468.436 99.504C469.3 99.0347 470.239 98.8 471.252 98.8ZM470.612 100.96C469.684 100.96 468.863 101.243 468.148 101.808C467.444 102.363 466.863 102.981 466.404 103.664V112.016C466.841 112.667 467.391 113.184 468.052 113.568C468.724 113.941 469.46 114.128 470.26 114.128C471.657 114.128 472.708 113.595 473.412 112.528C474.116 111.461 474.468 109.803 474.468 107.552C474.468 106.08 474.329 104.859 474.052 103.888C473.775 102.907 473.353 102.176 472.788 101.696C472.223 101.205 471.497 100.96 470.612 100.96ZM489.32 98.8C490.909 98.8 492.237 99.1627 493.304 99.888C494.381 100.603 495.186 101.616 495.72 102.928C496.264 104.24 496.536 105.787 496.536 107.568C496.536 109.285 496.258 110.805 495.704 112.128C495.149 113.451 494.333 114.491 493.256 115.248C492.189 115.995 490.866 116.368 489.288 116.368C487.709 116.368 486.381 116.005 485.304 115.28C484.226 114.555 483.41 113.536 482.856 112.224C482.312 110.901 482.039 109.36 482.039 107.6C482.039 105.861 482.317 104.331 482.872 103.008C483.426 101.685 484.242 100.656 485.32 99.92C486.408 99.1733 487.741 98.8 489.32 98.8ZM489.32 100.992C487.869 100.992 486.77 101.531 486.024 102.608C485.288 103.675 484.92 105.339 484.92 107.6C484.92 109.819 485.282 111.467 486.008 112.544C486.744 113.621 487.837 114.16 489.288 114.16C490.738 114.16 491.826 113.621 492.552 112.544C493.288 111.467 493.656 109.808 493.656 107.568C493.656 105.328 493.293 103.675 492.568 102.608C491.842 101.531 490.76 100.992 489.32 100.992ZM507.819 114.144C509.11 114.144 510.128 113.904 510.875 113.424C511.632 112.933 512.011 112.283 512.011 111.472C512.011 110.96 511.915 110.517 511.723 110.144C511.542 109.771 511.163 109.435 510.587 109.136C510.011 108.837 509.126 108.539 507.931 108.24C506.768 107.952 505.755 107.621 504.891 107.248C504.038 106.864 503.371 106.368 502.891 105.76C502.422 105.152 502.187 104.363 502.187 103.392C502.187 102.443 502.454 101.627 502.987 100.944C503.531 100.251 504.283 99.7227 505.243 99.36C506.203 98.9867 507.318 98.8 508.587 98.8C509.942 98.8 511.12 98.9813 512.123 99.344C513.136 99.696 513.995 100.133 514.699 100.656L513.515 102.48C512.875 102.043 512.171 101.685 511.403 101.408C510.635 101.12 509.707 100.976 508.619 100.976C507.296 100.976 506.358 101.184 505.803 101.6C505.248 102.005 504.971 102.533 504.971 103.184C504.971 103.675 505.104 104.085 505.371 104.416C505.648 104.736 506.112 105.029 506.763 105.296C507.414 105.552 508.31 105.835 509.451 106.144C510.55 106.432 511.504 106.779 512.315 107.184C513.136 107.589 513.776 108.123 514.235 108.784C514.694 109.445 514.923 110.299 514.923 111.344C514.923 112.539 514.582 113.509 513.899 114.256C513.216 114.992 512.331 115.531 511.243 115.872C510.166 116.203 509.024 116.368 507.819 116.368C506.294 116.368 504.992 116.149 503.915 115.712C502.848 115.264 501.952 114.725 501.227 114.096L502.763 112.32C503.424 112.864 504.182 113.307 505.035 113.648C505.899 113.979 506.827 114.144 507.819 114.144ZM529.807 99.152V113.872H534.559V116H521.919V113.872H527.119V101.28H522.079V99.152H529.807ZM527.663 91.264C528.26 91.264 528.735 91.4453 529.087 91.808C529.449 92.1707 529.631 92.6133 529.631 93.136C529.631 93.68 529.449 94.1387 529.087 94.512C528.735 94.8747 528.26 95.056 527.663 95.056C527.097 95.056 526.633 94.8747 526.271 94.512C525.908 94.1387 525.727 93.68 525.727 93.136C525.727 92.6133 525.908 92.1707 526.271 91.808C526.633 91.4453 527.097 91.264 527.663 91.264ZM553.842 115.152C553.266 115.536 552.567 115.835 551.746 116.048C550.925 116.261 550.119 116.368 549.33 116.368C547.517 116.368 546.119 115.893 545.138 114.944C544.157 113.995 543.666 112.773 543.666 111.28V101.232H539.794V99.152H543.666V95.328L546.354 95.008V99.152H552.178L551.858 101.232H546.354V111.248C546.354 112.187 546.599 112.901 547.09 113.392C547.591 113.883 548.418 114.128 549.57 114.128C550.199 114.128 550.781 114.053 551.314 113.904C551.847 113.755 552.343 113.563 552.802 113.328L553.842 115.152ZM566.07 98.8C567.659 98.8 568.987 99.1627 570.054 99.888C571.131 100.603 571.936 101.616 572.47 102.928C573.014 104.24 573.286 105.787 573.286 107.568C573.286 109.285 573.008 110.805 572.454 112.128C571.899 113.451 571.083 114.491 570.006 115.248C568.939 115.995 567.616 116.368 566.038 116.368C564.459 116.368 563.131 116.005 562.054 115.28C560.976 114.555 560.16 113.536 559.606 112.224C559.062 110.901 558.789 109.36 558.789 107.6C558.789 105.861 559.067 104.331 559.622 103.008C560.176 101.685 560.992 100.656 562.07 99.92C563.158 99.1733 564.491 98.8 566.07 98.8ZM566.07 100.992C564.619 100.992 563.52 101.531 562.774 102.608C562.038 103.675 561.67 105.339 561.67 107.6C561.67 109.819 562.032 111.467 562.758 112.544C563.494 113.621 564.587 114.16 566.038 114.16C567.488 114.16 568.576 113.621 569.302 112.544C570.038 111.467 570.406 109.808 570.406 107.568C570.406 105.328 570.043 103.675 569.318 102.608C568.592 101.531 567.51 100.992 566.07 100.992ZM579.001 116V113.936H581.625V101.216H579.001V99.152H583.673L584.169 103.136C584.82 101.749 585.609 100.677 586.537 99.92C587.465 99.1627 588.692 98.784 590.217 98.784C590.686 98.784 591.102 98.8213 591.465 98.896C591.838 98.96 592.217 99.0453 592.601 99.152L591.817 101.552C591.465 101.456 591.145 101.387 590.857 101.344C590.569 101.291 590.238 101.264 589.865 101.264C588.574 101.264 587.465 101.723 586.537 102.64C585.609 103.557 584.868 104.944 584.313 106.8V113.936H587.737V116H579.001ZM590.009 104.848V101.184L590.281 99.152H592.601L592.217 104.848H590.009ZM612.045 99.152L606.125 116.112C605.73 117.253 605.229 118.299 604.621 119.248C604.023 120.197 603.239 120.981 602.269 121.6C601.309 122.229 600.087 122.619 598.605 122.768L598.189 120.624C599.351 120.432 600.269 120.139 600.941 119.744C601.613 119.349 602.141 118.843 602.525 118.224C602.919 117.605 603.266 116.864 603.565 116H602.669L596.781 99.152H599.661L604.493 113.952L609.261 99.152H612.045ZM620.992 113.76C620.992 113.067 621.237 112.464 621.728 111.952C622.229 111.44 622.843 111.184 623.568 111.184C624.315 111.184 624.933 111.44 625.424 111.952C625.925 112.464 626.176 113.067 626.176 113.76C626.176 114.485 625.925 115.104 625.424 115.616C624.933 116.117 624.315 116.368 623.568 116.368C622.843 116.368 622.229 116.117 621.728 115.616C621.237 115.104 620.992 114.485 620.992 113.76ZM620.992 102.224C620.992 101.733 621.104 101.296 621.328 100.912C621.552 100.528 621.861 100.224 622.256 100C622.651 99.7653 623.088 99.648 623.568 99.648C624.315 99.648 624.933 99.8987 625.424 100.4C625.925 100.901 626.176 101.509 626.176 102.224C626.176 102.928 625.925 103.541 625.424 104.064C624.933 104.576 624.315 104.832 623.568 104.832C622.843 104.832 622.229 104.576 621.728 104.064C621.237 103.541 620.992 102.928 620.992 102.224Z" fill="#C17B12"/>
</svg>
