<svg width="923" height="163" viewBox="0 0 923 163" fill="none" xmlns="http://www.w3.org/2000/svg">
<path d="M11.744 15.152V29.872H16.496V32H3.856V29.872H9.056V17.28H4.016V15.152H11.744ZM9.6 7.264C10.1973 7.264 10.672 7.44533 11.024 7.808C11.3867 8.17067 11.568 8.61333 11.568 9.136C11.568 9.68 11.3867 10.1387 11.024 10.512C10.672 10.8747 10.1973 11.056 9.6 11.056C9.03467 11.056 8.57067 10.8747 8.208 10.512C7.84533 10.1387 7.664 9.68 7.664 9.136C7.664 8.61333 7.84533 8.17067 8.208 7.808C8.57067 7.44533 9.03467 7.264 9.6 7.264ZM35.7795 31.152C35.2035 31.536 34.5048 31.8347 33.6835 32.048C32.8622 32.2613 32.0568 32.368 31.2675 32.368C29.4542 32.368 28.0568 31.8933 27.0755 30.944C26.0942 29.9947 25.6035 28.7733 25.6035 27.28V17.232H21.7315V15.152H25.6035V11.328L28.2915 11.008V15.152H34.1155L33.7955 17.232H28.2915V27.248C28.2915 28.1867 28.5368 28.9013 29.0275 29.392C29.5288 29.8827 30.3555 30.128 31.5075 30.128C32.1368 30.128 32.7182 30.0533 33.2515 29.904C33.7848 29.7547 34.2808 29.5627 34.7395 29.328L35.7795 31.152ZM644.02 72.048C644.862 72.048 645.646 71.9093 646.372 71.632C647.108 71.3547 647.785 71.0027 648.404 70.576L649.715 72.336C648.98 72.9653 648.094 73.4613 647.06 73.824C646.025 74.1867 645.012 74.368 644.02 74.368C642.345 74.368 640.916 74.0107 639.732 73.296C638.558 72.5707 637.662 71.5573 637.044 70.256C636.425 68.944 636.116 67.408 636.116 65.648C636.116 63.9627 636.425 62.4533 637.044 61.12C637.673 59.776 638.574 58.72 639.748 57.952C640.932 57.184 642.366 56.8 644.052 56.8C645.129 56.8 646.137 56.9653 647.076 57.296C648.025 57.616 648.894 58.1013 649.684 58.752L648.372 60.544C647.657 60.0427 646.937 59.6693 646.212 59.424C645.497 59.168 644.766 59.04 644.02 59.04C642.569 59.04 641.374 59.584 640.436 60.672C639.497 61.76 639.028 63.4187 639.028 65.648C639.028 67.1413 639.241 68.3627 639.668 69.312C640.105 70.2507 640.697 70.944 641.444 71.392C642.201 71.8293 643.06 72.048 644.02 72.048ZM662.007 56.8C663.596 56.8 664.924 57.1627 665.991 57.888C667.068 58.6027 667.874 59.616 668.407 60.928C668.951 62.24 669.223 63.7867 669.223 65.568C669.223 67.2853 668.946 68.8053 668.391 70.128C667.836 71.4507 667.02 72.4907 665.943 73.248C664.876 73.9947 663.554 74.368 661.975 74.368C660.396 74.368 659.068 74.0053 657.991 73.28C656.914 72.5547 656.098 71.536 655.543 70.224C654.999 68.9013 654.727 67.36 654.727 65.6C654.727 63.8613 655.004 62.3307 655.559 61.008C656.114 59.6853 656.93 58.656 658.007 57.92C659.095 57.1733 660.428 56.8 662.007 56.8ZM662.007 58.992C660.556 58.992 659.458 59.5307 658.711 60.608C657.975 61.6747 657.607 63.3387 657.607 65.6C657.607 67.8187 657.97 69.4667 658.695 70.544C659.431 71.6213 660.524 72.16 661.975 72.16C663.426 72.16 664.514 71.6213 665.239 70.544C665.975 69.4667 666.343 67.808 666.343 65.568C666.343 63.328 665.98 61.6747 665.255 60.608C664.53 59.5307 663.447 58.992 662.007 58.992ZM674.779 74V57.152H677.067L677.275 59.488C677.957 58.624 678.811 57.9627 679.835 57.504C680.869 57.0347 681.872 56.8 682.843 56.8C684.496 56.8 685.696 57.2373 686.443 58.112C687.2 58.9867 687.579 60.2027 687.579 61.76V74H684.891V63.744C684.891 62.592 684.827 61.664 684.699 60.96C684.571 60.2453 684.304 59.728 683.899 59.408C683.493 59.0773 682.864 58.912 682.011 58.912C681.349 58.912 680.725 59.056 680.139 59.344C679.563 59.632 679.045 59.9947 678.587 60.432C678.139 60.8587 677.765 61.2907 677.467 61.728V74H674.779ZM707.342 73.152C706.766 73.536 706.067 73.8347 705.246 74.048C704.425 74.2613 703.619 74.368 702.83 74.368C701.017 74.368 699.619 73.8933 698.638 72.944C697.657 71.9947 697.166 70.7733 697.166 69.28V59.232H693.294V57.152H697.166V53.328L699.854 53.008V57.152H705.678L705.358 59.232H699.854V69.248C699.854 70.1867 700.099 70.9013 700.59 71.392C701.091 71.8827 701.918 72.128 703.07 72.128C703.699 72.128 704.281 72.0533 704.814 71.904C705.347 71.7547 705.843 71.5627 706.302 71.328L707.342 73.152ZM725.218 70.32C725.218 70.992 725.33 71.4827 725.554 71.792C725.778 72.1013 726.124 72.3307 726.594 72.48L725.938 74.368C725.212 74.272 724.578 74.0427 724.034 73.68C723.49 73.3067 723.095 72.7467 722.85 72C722.242 72.7787 721.484 73.3707 720.578 73.776C719.671 74.1707 718.668 74.368 717.57 74.368C715.884 74.368 714.556 73.8933 713.586 72.944C712.615 71.9947 712.13 70.736 712.13 69.168C712.13 67.4293 712.807 66.096 714.161 65.168C715.516 64.24 717.474 63.776 720.034 63.776H722.514V62.368C722.514 61.152 722.156 60.2933 721.442 59.792C720.738 59.28 719.756 59.024 718.498 59.024C717.943 59.024 717.292 59.0933 716.546 59.232C715.799 59.36 714.988 59.5787 714.114 59.888L713.41 57.856C714.444 57.472 715.415 57.2 716.322 57.04C717.228 56.88 718.092 56.8 718.914 56.8C721.015 56.8 722.588 57.2907 723.634 58.272C724.69 59.2427 725.218 60.5653 725.218 62.24V70.32ZM718.258 72.32C719.09 72.32 719.884 72.112 720.642 71.696C721.399 71.2693 722.023 70.6827 722.514 69.936V65.6H720.082C718.226 65.6 716.914 65.92 716.146 66.56C715.388 67.2 715.01 68.0587 715.01 69.136C715.01 70.1813 715.276 70.976 715.81 71.52C716.354 72.0533 717.17 72.32 718.258 72.32ZM739.957 72.048C740.8 72.048 741.584 71.9093 742.309 71.632C743.045 71.3547 743.722 71.0027 744.341 70.576L745.653 72.336C744.917 72.9653 744.032 73.4613 742.997 73.824C741.962 74.1867 740.949 74.368 739.957 74.368C738.282 74.368 736.853 74.0107 735.669 73.296C734.496 72.5707 733.6 71.5573 732.981 70.256C732.362 68.944 732.053 67.408 732.053 65.648C732.053 63.9627 732.362 62.4533 732.981 61.12C733.61 59.776 734.512 58.72 735.685 57.952C736.869 57.184 738.304 56.8 739.989 56.8C741.066 56.8 742.074 56.9653 743.013 57.296C743.962 57.616 744.832 58.1013 745.621 58.752L744.309 60.544C743.594 60.0427 742.874 59.6693 742.149 59.424C741.434 59.168 740.704 59.04 739.957 59.04C738.506 59.04 737.312 59.584 736.373 60.672C735.434 61.76 734.965 63.4187 734.965 65.648C734.965 67.1413 735.178 68.3627 735.605 69.312C736.042 70.2507 736.634 70.944 737.381 71.392C738.138 71.8293 738.997 72.048 739.957 72.048ZM764.905 73.152C764.329 73.536 763.63 73.8347 762.809 74.048C761.987 74.2613 761.182 74.368 760.393 74.368C758.579 74.368 757.182 73.8933 756.201 72.944C755.219 71.9947 754.729 70.7733 754.729 69.28V59.232H750.857V57.152H754.729V53.328L757.417 53.008V57.152H763.241L762.921 59.232H757.417V69.248C757.417 70.1867 757.662 70.9013 758.153 71.392C758.654 71.8827 759.481 72.128 760.633 72.128C761.262 72.128 761.843 72.0533 762.377 71.904C762.91 71.7547 763.406 71.5627 763.865 71.328L764.905 73.152ZM784.476 51.968L785.724 74H783.052L782.364 62.496C782.332 61.7173 782.3 60.928 782.268 60.128C782.236 59.328 782.215 58.56 782.204 57.824C782.193 57.088 782.188 56.432 782.188 55.856C782.188 55.28 782.188 54.832 782.188 54.512L778.476 70.048H775.692L771.708 54.512C771.719 54.8213 771.729 55.28 771.74 55.888C771.751 56.4853 771.756 57.1627 771.756 57.92C771.767 58.6773 771.761 59.456 771.74 60.256C771.729 61.0453 771.708 61.7813 771.676 62.464L771.084 74H768.476L769.724 51.968H773.596L777.164 67.056L780.572 51.968H784.476ZM792.016 66.528C792.069 67.8293 792.32 68.896 792.768 69.728C793.216 70.5493 793.808 71.1573 794.544 71.552C795.28 71.936 796.08 72.128 796.944 72.128C797.808 72.128 798.586 72 799.28 71.744C799.984 71.488 800.704 71.1093 801.44 70.608L802.704 72.384C801.914 73.0027 801.013 73.488 800 73.84C798.997 74.192 797.968 74.368 796.912 74.368C795.28 74.368 793.888 74 792.736 73.264C791.584 72.528 790.704 71.504 790.096 70.192C789.498 68.8693 789.2 67.3387 789.2 65.6C789.2 63.8933 789.504 62.3787 790.112 61.056C790.72 59.7333 791.573 58.6933 792.672 57.936C793.77 57.1787 795.066 56.8 796.56 56.8C797.978 56.8 799.2 57.136 800.224 57.808C801.248 58.4693 802.032 59.4187 802.576 60.656C803.13 61.8827 803.408 63.3493 803.408 65.056C803.408 65.344 803.402 65.616 803.392 65.872C803.381 66.1173 803.365 66.336 803.344 66.528H792.016ZM796.592 59.008C795.344 59.008 794.298 59.4507 793.456 60.336C792.624 61.2213 792.149 62.592 792.032 64.448H800.816C800.784 62.6453 800.389 61.2907 799.632 60.384C798.874 59.4667 797.861 59.008 796.592 59.008ZM43.703 108.528C43.7563 109.829 44.007 110.896 44.455 111.728C44.903 112.549 45.495 113.157 46.231 113.552C46.967 113.936 47.767 114.128 48.631 114.128C49.495 114.128 50.2737 114 50.967 113.744C51.671 113.488 52.391 113.109 53.127 112.608L54.391 114.384C53.6017 115.003 52.7003 115.488 51.687 115.84C50.6843 116.192 49.655 116.368 48.599 116.368C46.967 116.368 45.575 116 44.423 115.264C43.271 114.528 42.391 113.504 41.783 112.192C41.1857 110.869 40.887 109.339 40.887 107.6C40.887 105.893 41.191 104.379 41.799 103.056C42.407 101.733 43.2603 100.693 44.359 99.936C45.4577 99.1787 46.7537 98.8 48.247 98.8C49.6657 98.8 50.887 99.136 51.911 99.808C52.935 100.469 53.719 101.419 54.263 102.656C54.8177 103.883 55.095 105.349 55.095 107.056C55.095 107.344 55.0897 107.616 55.079 107.872C55.0683 108.117 55.0523 108.336 55.031 108.528H43.703ZM48.279 101.008C47.031 101.008 45.9857 101.451 45.143 102.336C44.311 103.221 43.8363 104.592 43.719 106.448H52.503C52.471 104.645 52.0763 103.291 51.319 102.384C50.5617 101.467 49.5483 101.008 48.279 101.008ZM62.4105 116H59.3385L65.5625 107.104L60.1065 99.152H63.2905L67.1945 105.424L71.1465 99.152H74.2185L68.7785 106.992L74.9865 116H71.6905L67.0825 108.768L62.4105 116ZM87.502 98.8C88.9953 98.8 90.1847 99.1627 91.07 99.888C91.966 100.613 92.6113 101.637 93.006 102.96C93.4007 104.272 93.598 105.808 93.598 107.568C93.598 109.264 93.358 110.779 92.878 112.112C92.4087 113.435 91.694 114.475 90.734 115.232C89.774 115.989 88.5633 116.368 87.102 116.368C85.2567 116.368 83.774 115.717 82.654 114.416V122.448L79.966 122.784V99.152H82.254L82.478 101.504C83.0967 100.64 83.8327 99.9733 84.686 99.504C85.55 99.0347 86.4887 98.8 87.502 98.8ZM86.862 100.96C85.934 100.96 85.1127 101.243 84.398 101.808C83.694 102.363 83.1127 102.981 82.654 103.664V112.016C83.0913 112.667 83.6407 113.184 84.302 113.568C84.974 113.941 85.71 114.128 86.51 114.128C87.9073 114.128 88.958 113.595 89.662 112.528C90.366 111.461 90.718 109.803 90.718 107.552C90.718 106.08 90.5793 104.859 90.302 103.888C90.0247 102.907 89.6033 102.176 89.038 101.696C88.4727 101.205 87.7473 100.96 86.862 100.96ZM101.266 108.528C101.319 109.829 101.57 110.896 102.018 111.728C102.466 112.549 103.058 113.157 103.794 113.552C104.53 113.936 105.33 114.128 106.194 114.128C107.058 114.128 107.836 114 108.53 113.744C109.234 113.488 109.954 113.109 110.69 112.608L111.954 114.384C111.164 115.003 110.263 115.488 109.25 115.84C108.247 116.192 107.218 116.368 106.162 116.368C104.53 116.368 103.138 116 101.986 115.264C100.834 114.528 99.9535 113.504 99.3455 112.192C98.7482 110.869 98.4495 109.339 98.4495 107.6C98.4495 105.893 98.7535 104.379 99.3615 103.056C99.9695 101.733 100.823 100.693 101.922 99.936C103.02 99.1787 104.316 98.8 105.81 98.8C107.228 98.8 108.45 99.136 109.474 99.808C110.498 100.469 111.282 101.419 111.826 102.656C112.38 103.883 112.658 105.349 112.658 107.056C112.658 107.344 112.652 107.616 112.642 107.872C112.631 108.117 112.615 108.336 112.594 108.528H101.266ZM105.842 101.008C104.594 101.008 103.548 101.451 102.706 102.336C101.874 103.221 101.399 104.592 101.282 106.448H110.066C110.034 104.645 109.639 103.291 108.882 102.384C108.124 101.467 107.111 101.008 105.842 101.008ZM125.957 114.048C126.8 114.048 127.584 113.909 128.309 113.632C129.045 113.355 129.722 113.003 130.341 112.576L131.653 114.336C130.917 114.965 130.032 115.461 128.997 115.824C127.962 116.187 126.949 116.368 125.957 116.368C124.282 116.368 122.853 116.011 121.669 115.296C120.496 114.571 119.6 113.557 118.981 112.256C118.362 110.944 118.053 109.408 118.053 107.648C118.053 105.963 118.362 104.453 118.981 103.12C119.61 101.776 120.512 100.72 121.685 99.952C122.869 99.184 124.304 98.8 125.989 98.8C127.066 98.8 128.074 98.9653 129.013 99.296C129.962 99.616 130.832 100.101 131.621 100.752L130.309 102.544C129.594 102.043 128.874 101.669 128.149 101.424C127.434 101.168 126.704 101.04 125.957 101.04C124.506 101.04 123.312 101.584 122.373 102.672C121.434 103.76 120.965 105.419 120.965 107.648C120.965 109.141 121.178 110.363 121.605 111.312C122.042 112.251 122.634 112.944 123.381 113.392C124.138 113.829 124.997 114.048 125.957 114.048ZM150.905 115.152C150.329 115.536 149.63 115.835 148.809 116.048C147.987 116.261 147.182 116.368 146.393 116.368C144.579 116.368 143.182 115.893 142.201 114.944C141.219 113.995 140.729 112.773 140.729 111.28V101.232H136.857V99.152H140.729V95.328L143.417 95.008V99.152H149.241L148.921 101.232H143.417V111.248C143.417 112.187 143.662 112.901 144.153 113.392C144.654 113.883 145.481 114.128 146.633 114.128C147.262 114.128 147.843 114.053 148.377 113.904C148.91 113.755 149.406 113.563 149.865 113.328L150.905 115.152ZM381.155 115.152C380.579 115.536 379.88 115.835 379.059 116.048C378.237 116.261 377.432 116.368 376.643 116.368C374.829 116.368 373.432 115.893 372.451 114.944C371.469 113.995 370.979 112.773 370.979 111.28V101.232H367.107V99.152H370.979V95.328L373.667 95.008V99.152H379.491L379.171 101.232H373.667V111.248C373.667 112.187 373.912 112.901 374.403 113.392C374.904 113.883 375.731 114.128 376.883 114.128C377.512 114.128 378.093 114.053 378.627 113.904C379.16 113.755 379.656 113.563 380.115 113.328L381.155 115.152ZM393.382 98.8C394.971 98.8 396.299 99.1627 397.366 99.888C398.443 100.603 399.249 101.616 399.782 102.928C400.326 104.24 400.598 105.787 400.598 107.568C400.598 109.285 400.321 110.805 399.766 112.128C399.211 113.451 398.395 114.491 397.318 115.248C396.251 115.995 394.929 116.368 393.35 116.368C391.771 116.368 390.443 116.005 389.366 115.28C388.289 114.555 387.473 113.536 386.918 112.224C386.374 110.901 386.102 109.36 386.102 107.6C386.102 105.861 386.379 104.331 386.934 103.008C387.489 101.685 388.305 100.656 389.382 99.92C390.47 99.1733 391.803 98.8 393.382 98.8ZM393.382 100.992C391.931 100.992 390.833 101.531 390.086 102.608C389.35 103.675 388.982 105.339 388.982 107.6C388.982 109.819 389.345 111.467 390.07 112.544C390.806 113.621 391.899 114.16 393.35 114.16C394.801 114.16 395.889 113.621 396.614 112.544C397.35 111.467 397.718 109.808 397.718 107.568C397.718 105.328 397.355 103.675 396.63 102.608C395.905 101.531 394.822 100.992 393.382 100.992ZM417.274 109.808C417.274 108.699 417.055 107.845 416.618 107.248C416.191 106.64 415.62 106.219 414.906 105.984C414.191 105.749 413.407 105.632 412.554 105.632H408.794V113.712H412.426C412.97 113.712 413.524 113.659 414.09 113.552C414.655 113.445 415.178 113.253 415.658 112.976C416.148 112.699 416.538 112.309 416.826 111.808C417.124 111.296 417.274 110.629 417.274 109.808ZM416.394 99.664C416.394 98.416 416.004 97.5307 415.226 97.008C414.458 96.4747 413.407 96.208 412.074 96.208H408.794V103.344H412.345C413.647 103.344 414.644 103.056 415.338 102.48C416.042 101.893 416.394 100.955 416.394 99.664ZM420.201 109.712C420.201 110.907 419.962 111.909 419.482 112.72C419.012 113.531 418.378 114.176 417.578 114.656C416.788 115.136 415.903 115.483 414.922 115.696C413.951 115.899 412.959 116 411.946 116H406.026V93.968H411.45C412.42 93.968 413.364 94.0587 414.282 94.24C415.21 94.4107 416.042 94.7093 416.778 95.136C417.524 95.552 418.122 96.1173 418.57 96.832C419.018 97.5467 419.242 98.4427 419.242 99.52C419.242 100.469 419.044 101.275 418.65 101.936C418.266 102.587 417.759 103.109 417.13 103.504C416.511 103.899 415.85 104.176 415.146 104.336C415.967 104.464 416.762 104.715 417.53 105.088C418.308 105.451 418.948 106.005 419.45 106.752C419.951 107.488 420.201 108.475 420.201 109.712ZM427.453 108.528C427.506 109.829 427.757 110.896 428.205 111.728C428.653 112.549 429.245 113.157 429.981 113.552C430.717 113.936 431.517 114.128 432.381 114.128C433.245 114.128 434.024 114 434.717 113.744C435.421 113.488 436.141 113.109 436.877 112.608L438.141 114.384C437.352 115.003 436.45 115.488 435.437 115.84C434.434 116.192 433.405 116.368 432.349 116.368C430.717 116.368 429.325 116 428.173 115.264C427.021 114.528 426.141 113.504 425.533 112.192C424.936 110.869 424.637 109.339 424.637 107.6C424.637 105.893 424.941 104.379 425.549 103.056C426.157 101.733 427.01 100.693 428.109 99.936C429.208 99.1787 430.504 98.8 431.997 98.8C433.416 98.8 434.637 99.136 435.661 99.808C436.685 100.469 437.469 101.419 438.013 102.656C438.568 103.883 438.845 105.349 438.845 107.056C438.845 107.344 438.84 107.616 438.829 107.872C438.818 108.117 438.802 108.336 438.781 108.528H427.453ZM432.029 101.008C430.781 101.008 429.736 101.451 428.893 102.336C428.061 103.221 427.586 104.592 427.469 106.448H436.253C436.221 104.645 435.826 103.291 435.069 102.384C434.312 101.467 433.298 101.008 432.029 101.008Z" fill="#2FEC85"/>
<path d="M45.175 20.8C45.175 22.464 45.319 23.9573 45.607 25.28C45.895 26.592 46.3217 27.7973 46.887 28.896C47.4523 29.984 48.1617 31.0187 49.015 32C49.879 32.992 50.8817 33.9947 52.023 35.008L50.615 36.48C48.887 35.0613 47.4043 33.6107 46.167 32.128C44.9403 30.6453 43.9963 28.992 43.335 27.168C42.6843 25.344 42.359 23.2213 42.359 20.8C42.359 18.368 42.6843 16.24 43.335 14.416C43.9963 12.592 44.9403 10.9387 46.167 9.456C47.4043 7.97333 48.887 6.528 50.615 5.12L52.023 6.592C50.871 7.616 49.863 8.624 48.999 9.616C48.1457 10.5973 47.4363 11.632 46.871 12.72C46.3057 13.7973 45.879 14.9973 45.591 16.32C45.3137 17.632 45.175 19.1253 45.175 20.8ZM642.788 26.736C643.524 26.736 644.137 26.9867 644.628 27.488C645.129 27.9893 645.38 28.592 645.38 29.296C645.38 29.68 645.332 30.0693 645.236 30.464C645.15 30.8587 644.99 31.3067 644.756 31.808L642.164 37.744H639.732L641.267 31.424C640.948 31.1893 640.692 30.8853 640.5 30.512C640.318 30.128 640.228 29.7227 640.228 29.296C640.228 28.5813 640.473 27.9787 640.964 27.488C641.454 26.9867 642.062 26.736 642.788 26.736ZM488.632 72.144C489.922 72.144 490.941 71.904 491.688 71.424C492.445 70.9333 492.824 70.2827 492.824 69.472C492.824 68.96 492.728 68.5173 492.536 68.144C492.354 67.7707 491.976 67.4347 491.4 67.136C490.824 66.8373 489.938 66.5387 488.744 66.24C487.581 65.952 486.568 65.6213 485.704 65.248C484.85 64.864 484.184 64.368 483.704 63.76C483.234 63.152 483 62.3627 483 61.392C483 60.4427 483.266 59.6267 483.799 58.944C484.344 58.2507 485.096 57.7227 486.056 57.36C487.016 56.9867 488.13 56.8 489.4 56.8C490.754 56.8 491.933 56.9813 492.936 57.344C493.949 57.696 494.808 58.1333 495.512 58.656L494.328 60.48C493.688 60.0427 492.984 59.6853 492.216 59.408C491.448 59.12 490.52 58.976 489.432 58.976C488.109 58.976 487.17 59.184 486.616 59.6C486.061 60.0053 485.784 60.5333 485.784 61.184C485.784 61.6747 485.917 62.0853 486.184 62.416C486.461 62.736 486.925 63.0293 487.576 63.296C488.226 63.552 489.122 63.8347 490.264 64.144C491.362 64.432 492.317 64.7787 493.128 65.184C493.949 65.5893 494.589 66.1227 495.048 66.784C495.506 67.4453 495.736 68.2987 495.736 69.344C495.736 70.5387 495.394 71.5093 494.712 72.256C494.029 72.992 493.144 73.5307 492.056 73.872C490.978 74.2027 489.837 74.368 488.632 74.368C487.106 74.368 485.805 74.1493 484.728 73.712C483.661 73.264 482.765 72.7253 482.039 72.096L483.576 70.32C484.237 70.864 484.994 71.3067 485.848 71.648C486.712 71.9787 487.64 72.144 488.632 72.144ZM504.203 66.528C504.256 67.8293 504.507 68.896 504.955 69.728C505.403 70.5493 505.995 71.1573 506.731 71.552C507.467 71.936 508.267 72.128 509.131 72.128C509.995 72.128 510.774 72 511.467 71.744C512.171 71.488 512.891 71.1093 513.627 70.608L514.891 72.384C514.102 73.0027 513.2 73.488 512.187 73.84C511.184 74.192 510.155 74.368 509.099 74.368C507.467 74.368 506.075 74 504.923 73.264C503.771 72.528 502.891 71.504 502.283 70.192C501.686 68.8693 501.387 67.3387 501.387 65.6C501.387 63.8933 501.691 62.3787 502.299 61.056C502.907 59.7333 503.76 58.6933 504.859 57.936C505.958 57.1787 507.254 56.8 508.747 56.8C510.166 56.8 511.387 57.136 512.411 57.808C513.435 58.4693 514.219 59.4187 514.763 60.656C515.318 61.8827 515.595 63.3493 515.595 65.056C515.595 65.344 515.59 65.616 515.579 65.872C515.568 66.1173 515.552 66.336 515.531 66.528H504.203ZM508.779 59.008C507.531 59.008 506.486 59.4507 505.643 60.336C504.811 61.2213 504.336 62.592 504.219 64.448H513.003C512.971 62.6453 512.576 61.2907 511.819 60.384C511.062 59.4667 510.048 59.008 508.779 59.008ZM521.439 74V71.936H524.063V59.216H521.439V57.152H526.111L526.607 61.136C527.257 59.7493 528.047 58.6773 528.975 57.92C529.903 57.1627 531.129 56.784 532.655 56.784C533.124 56.784 533.54 56.8213 533.903 56.896C534.276 56.96 534.655 57.0453 535.039 57.152L534.255 59.552C533.903 59.456 533.583 59.3867 533.295 59.344C533.007 59.2907 532.676 59.264 532.303 59.264C531.012 59.264 529.903 59.7227 528.975 60.64C528.047 61.5573 527.305 62.944 526.751 64.8V71.936H530.175V74H521.439ZM532.447 62.848V59.184L532.719 57.152H535.039L534.655 62.848H532.447ZM554.514 57.152L548.386 74H545.266L539.186 57.152H542.034L546.914 71.552L551.73 57.152H554.514ZM568.182 57.152V71.872H572.934V74H560.294V71.872H565.494V59.28H560.454V57.152H568.182ZM566.038 49.264C566.635 49.264 567.11 49.4453 567.462 49.808C567.824 50.1707 568.006 50.6133 568.006 51.136C568.006 51.68 567.824 52.1387 567.462 52.512C567.11 52.8747 566.635 53.056 566.038 53.056C565.472 53.056 565.008 52.8747 564.646 52.512C564.283 52.1387 564.102 51.68 564.102 51.136C564.102 50.6133 564.283 50.1707 564.646 49.808C565.008 49.4453 565.472 49.264 566.038 49.264ZM586.457 72.048C587.3 72.048 588.084 71.9093 588.809 71.632C589.545 71.3547 590.222 71.0027 590.841 70.576L592.153 72.336C591.417 72.9653 590.532 73.4613 589.497 73.824C588.462 74.1867 587.449 74.368 586.457 74.368C584.782 74.368 583.353 74.0107 582.169 73.296C580.996 72.5707 580.1 71.5573 579.481 70.256C578.862 68.944 578.553 67.408 578.553 65.648C578.553 63.9627 578.862 62.4533 579.481 61.12C580.11 59.776 581.012 58.72 582.185 57.952C583.369 57.184 584.804 56.8 586.489 56.8C587.566 56.8 588.574 56.9653 589.513 57.296C590.462 57.616 591.332 58.1013 592.121 58.752L590.809 60.544C590.094 60.0427 589.374 59.6693 588.649 59.424C587.934 59.168 587.204 59.04 586.457 59.04C585.006 59.04 583.812 59.584 582.873 60.672C581.934 61.76 581.465 63.4187 581.465 65.648C581.465 67.1413 581.678 68.3627 582.105 69.312C582.542 70.2507 583.134 70.944 583.881 71.392C584.638 71.8293 585.497 72.048 586.457 72.048ZM600.141 66.528C600.194 67.8293 600.445 68.896 600.893 69.728C601.341 70.5493 601.933 71.1573 602.669 71.552C603.405 71.936 604.205 72.128 605.069 72.128C605.933 72.128 606.711 72 607.405 71.744C608.109 71.488 608.829 71.1093 609.565 70.608L610.829 72.384C610.039 73.0027 609.138 73.488 608.125 73.84C607.122 74.192 606.093 74.368 605.037 74.368C603.405 74.368 602.013 74 600.861 73.264C599.709 72.528 598.829 71.504 598.221 70.192C597.623 68.8693 597.325 67.3387 597.325 65.6C597.325 63.8933 597.629 62.3787 598.237 61.056C598.845 59.7333 599.698 58.6933 600.797 57.936C601.895 57.1787 603.191 56.8 604.685 56.8C606.103 56.8 607.325 57.136 608.349 57.808C609.373 58.4693 610.157 59.4187 610.701 60.656C611.255 61.8827 611.533 63.3493 611.533 65.056C611.533 65.344 611.527 65.616 611.517 65.872C611.506 66.1173 611.49 66.336 611.469 66.528H600.141ZM604.717 59.008C603.469 59.008 602.423 59.4507 601.581 60.336C600.749 61.2213 600.274 62.592 600.157 64.448H608.941C608.909 62.6453 608.514 61.2907 607.757 60.384C606.999 59.4667 605.986 59.008 604.717 59.008ZM620.768 71.536C620.768 71.0133 620.891 70.544 621.136 70.128C621.381 69.7013 621.712 69.3653 622.128 69.12C622.555 68.864 623.035 68.736 623.568 68.736C624.112 68.736 624.597 68.864 625.024 69.12C625.451 69.3653 625.787 69.7013 626.032 70.128C626.277 70.544 626.4 71.0133 626.4 71.536C626.4 72.0587 626.277 72.5387 626.032 72.976C625.787 73.4027 625.451 73.744 625.024 74C624.597 74.2453 624.112 74.368 623.568 74.368C623.035 74.368 622.555 74.2453 622.128 74C621.712 73.744 621.381 73.4027 621.136 72.976C620.891 72.5387 620.768 72.0587 620.768 71.536ZM812.675 62.8C812.675 64.464 812.819 65.9573 813.107 67.28C813.395 68.592 813.822 69.7973 814.387 70.896C814.952 71.984 815.662 73.0187 816.515 74C817.379 74.992 818.382 75.9947 819.523 77.008L818.115 78.48C816.387 77.0613 814.904 75.6107 813.667 74.128C812.44 72.6453 811.496 70.992 810.835 69.168C810.184 67.344 809.859 65.2213 809.859 62.8C809.859 60.368 810.184 58.24 810.835 56.416C811.496 54.592 812.44 52.9387 813.667 51.456C814.904 49.9733 816.387 48.528 818.115 47.12L819.523 48.592C818.371 49.616 817.363 50.624 816.499 51.616C815.646 52.5973 814.936 53.632 814.371 54.72C813.806 55.7973 813.379 56.9973 813.091 58.32C812.814 59.632 812.675 61.1253 812.675 62.8ZM837.463 62.8C837.463 61.1253 837.319 59.632 837.031 58.32C836.753 56.9973 836.332 55.7973 835.767 54.72C835.201 53.632 834.487 52.5973 833.623 51.616C832.769 50.624 831.767 49.616 830.615 48.592L832.023 47.12C833.761 48.528 835.244 49.9733 836.471 51.456C837.697 52.9387 838.636 54.592 839.287 56.416C839.948 58.24 840.279 60.368 840.279 62.8C840.279 65.2213 839.948 67.344 839.287 69.168C838.636 70.992 837.697 72.6453 836.471 74.128C835.244 75.6107 833.761 77.0613 832.023 78.48L830.615 77.008C831.756 75.9947 832.753 74.992 833.607 74C834.471 73.0187 835.185 71.984 835.751 70.896C836.316 69.7973 836.743 68.592 837.031 67.28C837.319 65.9573 837.463 64.464 837.463 62.8ZM853.818 68.704C854.565 68.704 855.183 68.96 855.674 69.472C856.175 69.9733 856.426 70.5707 856.426 71.264C856.426 71.6587 856.378 72.0533 856.282 72.448C856.197 72.8427 856.031 73.296 855.786 73.808L853.194 79.76H850.762L852.298 73.408C851.594 72.9173 851.242 72.208 851.242 71.28C851.242 70.5653 851.487 69.9573 851.978 69.456C852.479 68.9547 853.093 68.704 853.818 68.704ZM853.818 57.648C854.565 57.648 855.183 57.8987 855.674 58.4C856.175 58.9013 856.426 59.5093 856.426 60.224C856.426 60.928 856.175 61.5413 855.674 62.064C855.183 62.576 854.565 62.832 853.818 62.832C853.093 62.832 852.479 62.576 851.978 62.064C851.487 61.5413 851.242 60.928 851.242 60.224C851.242 59.7333 851.354 59.296 851.578 58.912C851.802 58.528 852.111 58.224 852.506 58C852.901 57.7653 853.338 57.648 853.818 57.648ZM160.3 104.8C160.3 106.464 160.444 107.957 160.732 109.28C161.02 110.592 161.447 111.797 162.012 112.896C162.577 113.984 163.287 115.019 164.14 116C165.004 116.992 166.007 117.995 167.148 119.008L165.74 120.48C164.012 119.061 162.529 117.611 161.292 116.128C160.065 114.645 159.121 112.992 158.46 111.168C157.809 109.344 157.484 107.221 157.484 104.8C157.484 102.368 157.809 100.24 158.46 98.416C159.121 96.592 160.065 94.9387 161.292 93.456C162.529 91.9733 164.012 90.528 165.74 89.12L167.148 90.592C165.996 91.616 164.988 92.624 164.124 93.616C163.271 94.5973 162.561 95.632 161.996 96.72C161.431 97.7973 161.004 98.9973 160.716 100.32C160.439 101.632 160.3 103.125 160.3 104.8ZM338.588 104.8C338.588 103.125 338.444 101.632 338.156 100.32C337.878 98.9973 337.457 97.7973 336.892 96.72C336.326 95.632 335.612 94.5973 334.748 93.616C333.894 92.624 332.892 91.616 331.74 90.592L333.148 89.12C334.886 90.528 336.369 91.9733 337.596 93.456C338.822 94.9387 339.761 96.592 340.412 98.416C341.073 100.24 341.404 102.368 341.404 104.8C341.404 107.221 341.073 109.344 340.412 111.168C339.761 112.992 338.822 114.645 337.596 116.128C336.369 117.611 334.886 119.061 333.148 120.48L331.74 119.008C332.881 117.995 333.878 116.992 334.732 116C335.596 115.019 336.31 113.984 336.876 112.896C337.441 111.797 337.868 110.592 338.156 109.28C338.444 107.957 338.588 106.464 338.588 104.8ZM352.143 113.536C352.143 113.013 352.266 112.544 352.511 112.128C352.756 111.701 353.087 111.365 353.503 111.12C353.93 110.864 354.41 110.736 354.943 110.736C355.487 110.736 355.972 110.864 356.399 111.12C356.826 111.365 357.162 111.701 357.407 112.128C357.652 112.544 357.775 113.013 357.775 113.536C357.775 114.059 357.652 114.539 357.407 114.976C357.162 115.403 356.826 115.744 356.399 116C355.972 116.245 355.487 116.368 354.943 116.368C354.41 116.368 353.93 116.245 353.503 116C353.087 115.744 352.756 115.403 352.511 114.976C352.266 114.539 352.143 114.059 352.143 113.536ZM448.113 104.8C448.113 106.464 448.257 107.957 448.545 109.28C448.833 110.592 449.259 111.797 449.825 112.896C450.39 113.984 451.099 115.019 451.953 116C452.817 116.992 453.819 117.995 454.961 119.008L453.553 120.48C451.825 119.061 450.342 117.611 449.105 116.128C447.878 114.645 446.934 112.992 446.273 111.168C445.622 109.344 445.297 107.221 445.297 104.8C445.297 102.368 445.622 100.24 446.273 98.416C446.934 96.592 447.878 94.9387 449.105 93.456C450.342 91.9733 451.825 90.528 453.553 89.12L454.961 90.592C453.809 91.616 452.801 92.624 451.937 93.616C451.083 94.5973 450.374 95.632 449.809 96.72C449.243 97.7973 448.817 98.9973 448.529 100.32C448.251 101.632 448.113 103.125 448.113 104.8ZM549.65 104.8C549.65 103.125 549.506 101.632 549.218 100.32C548.941 98.9973 548.519 97.7973 547.954 96.72C547.389 95.632 546.674 94.5973 545.81 93.616C544.957 92.624 543.954 91.616 542.802 90.592L544.21 89.12C545.949 90.528 547.431 91.9733 548.658 93.456C549.885 94.9387 550.823 96.592 551.474 98.416C552.135 100.24 552.466 102.368 552.466 104.8C552.466 107.221 552.135 109.344 551.474 111.168C550.823 112.992 549.885 114.645 548.658 116.128C547.431 117.611 545.949 119.061 544.21 120.48L542.802 119.008C543.943 117.995 544.941 116.992 545.794 116C546.658 115.019 547.373 113.984 547.938 112.896C548.503 111.797 548.93 110.592 549.218 109.28C549.506 107.957 549.65 106.464 549.65 104.8ZM566.006 110.704C566.752 110.704 567.371 110.96 567.862 111.472C568.363 111.973 568.614 112.571 568.614 113.264C568.614 113.659 568.566 114.053 568.47 114.448C568.384 114.843 568.219 115.296 567.974 115.808L565.382 121.76H562.95L564.486 115.408C563.782 114.917 563.43 114.208 563.43 113.28C563.43 112.565 563.675 111.957 564.166 111.456C564.667 110.955 565.28 110.704 566.006 110.704ZM566.006 99.648C566.752 99.648 567.371 99.8987 567.862 100.4C568.363 100.901 568.614 101.509 568.614 102.224C568.614 102.928 568.363 103.541 567.862 104.064C567.371 104.576 566.752 104.832 566.006 104.832C565.28 104.832 564.667 104.576 564.166 104.064C563.675 103.541 563.43 102.928 563.43 102.224C563.43 101.733 563.542 101.296 563.766 100.912C563.99 100.528 564.299 100.224 564.694 100C565.088 99.7653 565.526 99.648 566.006 99.648ZM31.5875 146.8C31.5875 145.125 31.4435 143.632 31.1555 142.32C30.8782 140.997 30.4568 139.797 29.8915 138.72C29.3262 137.632 28.6115 136.597 27.7475 135.616C26.8942 134.624 25.8915 133.616 24.7395 132.592L26.1475 131.12C27.8862 132.528 29.3688 133.973 30.5955 135.456C31.8222 136.939 32.7608 138.592 33.4115 140.416C34.0728 142.24 34.4035 144.368 34.4035 146.8C34.4035 149.221 34.0728 151.344 33.4115 153.168C32.7608 154.992 31.8222 156.645 30.5955 158.128C29.3688 159.611 27.8862 161.061 26.1475 162.48L24.7395 161.008C25.8808 159.995 26.8782 158.992 27.7315 158C28.5955 157.019 29.3102 155.984 29.8755 154.896C30.4408 153.797 30.8675 152.592 31.1555 151.28C31.4435 149.957 31.5875 148.464 31.5875 146.8Z" fill="white"/>
<path d="M65.8985 14.384C65.8985 15.0453 65.6585 15.6 65.1785 16.048C64.7092 16.496 64.1385 16.72 63.4665 16.72C62.7838 16.72 62.2132 16.496 61.7545 16.048C61.2958 15.6 61.0665 15.0453 61.0665 14.384C61.0665 14.1173 61.0985 13.8293 61.1625 13.52C61.2265 13.2 61.3812 12.784 61.6265 12.272L64.2185 6.752H66.3465L65.0345 12.624C65.3012 12.8053 65.5092 13.056 65.6585 13.376C65.8185 13.6853 65.8985 14.0213 65.8985 14.384ZM72.8105 14.384C72.8105 15.0453 72.5652 15.6 72.0745 16.048C71.5945 16.496 71.0292 16.72 70.3785 16.72C69.7172 16.72 69.1518 16.496 68.6825 16.048C68.2132 15.6 67.9785 15.0453 67.9785 14.384C67.9785 14.1173 68.0105 13.8293 68.0745 13.52C68.1385 13.2 68.2932 12.784 68.5385 12.272L71.1785 6.752H73.2585L71.9625 12.624C72.2185 12.8053 72.4212 13.056 72.5705 13.376C72.7305 13.6853 72.8105 14.0213 72.8105 14.384ZM85.694 30.144C86.9847 30.144 88.0033 29.904 88.75 29.424C89.5073 28.9333 89.886 28.2827 89.886 27.472C89.886 26.96 89.79 26.5173 89.598 26.144C89.4167 25.7707 89.038 25.4347 88.462 25.136C87.886 24.8373 87.0007 24.5387 85.806 24.24C84.6433 23.952 83.63 23.6213 82.766 23.248C81.9127 22.864 81.246 22.368 80.766 21.76C80.2967 21.152 80.062 20.3627 80.062 19.392C80.062 18.4427 80.3287 17.6267 80.862 16.944C81.406 16.2507 82.158 15.7227 83.118 15.36C84.078 14.9867 85.1927 14.8 86.462 14.8C87.8167 14.8 88.9953 14.9813 89.998 15.344C91.0113 15.696 91.87 16.1333 92.574 16.656L91.39 18.48C90.75 18.0427 90.046 17.6853 89.278 17.408C88.51 17.12 87.582 16.976 86.494 16.976C85.1713 16.976 84.2327 17.184 83.678 17.6C83.1233 18.0053 82.846 18.5333 82.846 19.184C82.846 19.6747 82.9793 20.0853 83.246 20.416C83.5233 20.736 83.9873 21.0293 84.638 21.296C85.2887 21.552 86.1847 21.8347 87.326 22.144C88.4247 22.432 89.3793 22.7787 90.19 23.184C91.0113 23.5893 91.6513 24.1227 92.11 24.784C92.5687 25.4453 92.798 26.2987 92.798 27.344C92.798 28.5387 92.4567 29.5093 91.774 30.256C91.0913 30.992 90.206 31.5307 89.118 31.872C88.0407 32.2027 86.8993 32.368 85.694 32.368C84.1687 32.368 82.8673 32.1493 81.79 31.712C80.7233 31.264 79.8273 30.7253 79.102 30.096L80.638 28.32C81.2993 28.864 82.0567 29.3067 82.91 29.648C83.774 29.9787 84.702 30.144 85.694 30.144ZM101.842 8.112V17.456C102.503 16.5707 103.314 15.9093 104.274 15.472C105.244 15.024 106.226 14.8 107.218 14.8C108.86 14.8 110.06 15.2373 110.818 16.112C111.575 16.9867 111.954 18.2027 111.954 19.76V32H109.266V19.824C109.266 18.8107 109.031 18.0747 108.562 17.616C108.092 17.1467 107.356 16.912 106.354 16.912C105.714 16.912 105.106 17.056 104.53 17.344C103.954 17.632 103.436 17.9893 102.978 18.416C102.519 18.8427 102.14 19.28 101.842 19.728V32H99.1535V8.4L101.842 8.112ZM124.757 14.8C126.346 14.8 127.674 15.1627 128.741 15.888C129.818 16.6027 130.624 17.616 131.157 18.928C131.701 20.24 131.973 21.7867 131.973 23.568C131.973 25.2853 131.696 26.8053 131.141 28.128C130.586 29.4507 129.77 30.4907 128.693 31.248C127.626 31.9947 126.304 32.368 124.725 32.368C123.146 32.368 121.818 32.0053 120.741 31.28C119.664 30.5547 118.848 29.536 118.293 28.224C117.749 26.9013 117.477 25.36 117.477 23.6C117.477 21.8613 117.754 20.3307 118.309 19.008C118.864 17.6853 119.68 16.656 120.757 15.92C121.845 15.1733 123.178 14.8 124.757 14.8ZM124.757 16.992C123.306 16.992 122.208 17.5307 121.461 18.608C120.725 19.6747 120.357 21.3387 120.357 23.6C120.357 25.8187 120.72 27.4667 121.445 28.544C122.181 29.6213 123.274 30.16 124.725 30.16C126.176 30.16 127.264 29.6213 127.989 28.544C128.725 27.4667 129.093 25.808 129.093 23.568C129.093 21.328 128.73 19.6747 128.005 18.608C127.28 17.5307 126.197 16.992 124.757 16.992ZM140.217 15.152V27.088C140.217 28.1973 140.446 28.9973 140.905 29.488C141.363 29.9787 142.078 30.224 143.049 30.224C143.977 30.224 144.851 29.9627 145.673 29.44C146.505 28.9067 147.15 28.2773 147.609 27.552V15.152H150.297V32H148.009L147.785 29.728C147.123 30.5813 146.307 31.2373 145.337 31.696C144.366 32.144 143.385 32.368 142.392 32.368C140.761 32.368 139.539 31.936 138.729 31.072C137.929 30.1973 137.529 28.976 137.529 27.408V15.152H140.217ZM163.276 8.368V27.84C163.276 28.672 163.532 29.264 164.044 29.616C164.567 29.9573 165.239 30.128 166.06 30.128C166.572 30.128 167.057 30.0747 167.516 29.968C167.975 29.8613 168.433 29.7173 168.892 29.536L169.612 31.504C169.153 31.728 168.583 31.9253 167.9 32.096C167.228 32.2773 166.465 32.368 165.612 32.368C164.119 32.368 162.908 31.9573 161.98 31.136C161.052 30.304 160.588 29.1573 160.588 27.696V10.496H155.42V8.368H163.276ZM185.984 8.032L188.672 8.368V32H186.32L186.064 29.776C185.434 30.672 184.709 31.328 183.888 31.744C183.077 32.16 182.208 32.368 181.28 32.368C179.818 32.368 178.613 32 177.664 31.264C176.714 30.528 176.01 29.504 175.552 28.192C175.093 26.8693 174.864 25.3387 174.864 23.6C174.864 21.9147 175.125 20.4107 175.648 19.088C176.17 17.7547 176.922 16.7093 177.904 15.952C178.896 15.184 180.085 14.8 181.472 14.8C182.442 14.8 183.296 14.9707 184.032 15.312C184.768 15.6427 185.418 16.1333 185.984 16.784V8.032ZM182.176 16.96C180.768 16.96 179.685 17.5093 178.928 18.608C178.17 19.7067 177.792 21.3707 177.792 23.6C177.792 25.0507 177.946 26.2667 178.256 27.248C178.565 28.2293 179.018 28.9653 179.616 29.456C180.224 29.9467 180.965 30.192 181.84 30.192C182.8 30.192 183.616 29.92 184.288 29.376C184.97 28.832 185.536 28.2187 185.984 27.536V19.12C185.525 18.4373 184.97 17.9093 184.32 17.536C183.669 17.152 182.954 16.96 182.176 16.96ZM216.967 17.344C217.585 16.5333 218.295 15.9093 219.095 15.472C219.905 15.024 220.796 14.8 221.767 14.8C223.271 14.8 224.487 15.1627 225.415 15.888C226.343 16.6133 227.02 17.6373 227.447 18.96C227.873 20.272 228.087 21.808 228.087 23.568C228.087 25.264 227.831 26.7787 227.319 28.112C226.807 29.4347 226.055 30.4747 225.063 31.232C224.081 31.9893 222.865 32.368 221.415 32.368C219.463 32.368 217.932 31.664 216.823 30.256L216.631 32H214.279V8.368L216.967 8.032V17.344ZM220.775 30.192C222.183 30.192 223.265 29.648 224.023 28.56C224.78 27.472 225.159 25.8027 225.159 23.552C225.159 22.08 225.009 20.8587 224.711 19.888C224.412 18.9067 223.964 18.176 223.367 17.696C222.78 17.2053 222.055 16.96 221.191 16.96C220.252 16.96 219.425 17.2427 218.711 17.808C218.007 18.3627 217.425 18.9813 216.967 19.664V28.016C217.404 28.6773 217.953 29.2053 218.615 29.6C219.287 29.9947 220.007 30.192 220.775 30.192ZM235.578 24.528C235.631 25.8293 235.882 26.896 236.33 27.728C236.778 28.5493 237.37 29.1573 238.106 29.552C238.842 29.936 239.642 30.128 240.506 30.128C241.37 30.128 242.149 30 242.842 29.744C243.546 29.488 244.266 29.1093 245.002 28.608L246.266 30.384C245.477 31.0027 244.575 31.488 243.562 31.84C242.559 32.192 241.53 32.368 240.474 32.368C238.842 32.368 237.45 32 236.298 31.264C235.146 30.528 234.266 29.504 233.658 28.192C233.061 26.8693 232.762 25.3387 232.762 23.6C232.762 21.8933 233.066 20.3787 233.674 19.056C234.282 17.7333 235.135 16.6933 236.234 15.936C237.333 15.1787 238.629 14.8 240.122 14.8C241.541 14.8 242.762 15.136 243.786 15.808C244.81 16.4693 245.594 17.4187 246.138 18.656C246.693 19.8827 246.97 21.3493 246.97 23.056C246.97 23.344 246.965 23.616 246.954 23.872C246.943 24.1173 246.927 24.336 246.906 24.528H235.578ZM240.154 17.008C238.906 17.008 237.861 17.4507 237.018 18.336C236.186 19.2213 235.711 20.592 235.594 22.448H244.378C244.346 20.6453 243.951 19.2907 243.194 18.384C242.437 17.4667 241.423 17.008 240.154 17.008ZM283.905 28.32C283.905 28.992 284.017 29.4827 284.241 29.792C284.465 30.1013 284.812 30.3307 285.281 30.48L284.625 32.368C283.9 32.272 283.265 32.0427 282.721 31.68C282.177 31.3067 281.782 30.7467 281.537 30C280.929 30.7787 280.172 31.3707 279.265 31.776C278.358 32.1707 277.356 32.368 276.257 32.368C274.572 32.368 273.244 31.8933 272.273 30.944C271.302 29.9947 270.817 28.736 270.817 27.168C270.817 25.4293 271.494 24.096 272.849 23.168C274.204 22.24 276.161 21.776 278.721 21.776H281.201V20.368C281.201 19.152 280.844 18.2933 280.129 17.792C279.425 17.28 278.444 17.024 277.185 17.024C276.63 17.024 275.98 17.0933 275.233 17.232C274.486 17.36 273.676 17.5787 272.801 17.888L272.097 15.856C273.132 15.472 274.102 15.2 275.009 15.04C275.916 14.88 276.78 14.8 277.601 14.8C279.702 14.8 281.276 15.2907 282.321 16.272C283.377 17.2427 283.905 18.5653 283.905 20.24V28.32ZM276.945 30.32C277.777 30.32 278.572 30.112 279.329 29.696C280.086 29.2693 280.71 28.6827 281.201 27.936V23.6H278.769C276.913 23.6 275.601 23.92 274.833 24.56C274.076 25.2 273.697 26.0587 273.697 27.136C273.697 28.1813 273.964 28.976 274.497 29.52C275.041 30.0533 275.857 30.32 276.945 30.32ZM293.717 17.344C294.335 16.5333 295.045 15.9093 295.845 15.472C296.655 15.024 297.546 14.8 298.517 14.8C300.021 14.8 301.237 15.1627 302.165 15.888C303.093 16.6133 303.77 17.6373 304.197 18.96C304.623 20.272 304.837 21.808 304.837 23.568C304.837 25.264 304.581 26.7787 304.069 28.112C303.557 29.4347 302.805 30.4747 301.813 31.232C300.831 31.9893 299.615 32.368 298.165 32.368C296.213 32.368 294.682 31.664 293.573 30.256L293.381 32H291.029V8.368L293.717 8.032V17.344ZM297.525 30.192C298.933 30.192 300.015 29.648 300.773 28.56C301.53 27.472 301.909 25.8027 301.909 23.552C301.909 22.08 301.759 20.8587 301.461 19.888C301.162 18.9067 300.714 18.176 300.117 17.696C299.53 17.2053 298.805 16.96 297.941 16.96C297.002 16.96 296.175 17.2427 295.461 17.808C294.757 18.3627 294.175 18.9813 293.717 19.664V28.016C294.154 28.6773 294.703 29.2053 295.365 29.6C296.037 29.9947 296.757 30.192 297.525 30.192ZM316.776 8.368V27.84C316.776 28.672 317.032 29.264 317.544 29.616C318.067 29.9573 318.739 30.128 319.56 30.128C320.072 30.128 320.557 30.0747 321.016 29.968C321.475 29.8613 321.933 29.7173 322.392 29.536L323.112 31.504C322.653 31.728 322.083 31.9253 321.4 32.096C320.728 32.2773 319.965 32.368 319.112 32.368C317.619 32.368 316.408 31.9573 315.48 31.136C314.552 30.304 314.088 29.1573 314.088 27.696V10.496H308.92V8.368H316.776ZM331.516 24.528C331.569 25.8293 331.82 26.896 332.268 27.728C332.716 28.5493 333.308 29.1573 334.044 29.552C334.78 29.936 335.58 30.128 336.444 30.128C337.308 30.128 338.086 30 338.78 29.744C339.484 29.488 340.204 29.1093 340.94 28.608L342.204 30.384C341.414 31.0027 340.513 31.488 339.5 31.84C338.497 32.192 337.468 32.368 336.412 32.368C334.78 32.368 333.388 32 332.236 31.264C331.084 30.528 330.204 29.504 329.596 28.192C328.998 26.8693 328.7 25.3387 328.7 23.6C328.7 21.8933 329.004 20.3787 329.612 19.056C330.22 17.7333 331.073 16.6933 332.172 15.936C333.27 15.1787 334.566 14.8 336.06 14.8C337.478 14.8 338.7 15.136 339.724 15.808C340.748 16.4693 341.532 17.4187 342.076 18.656C342.63 19.8827 342.908 21.3493 342.908 23.056C342.908 23.344 342.902 23.616 342.892 23.872C342.881 24.1173 342.865 24.336 342.844 24.528H331.516ZM336.092 17.008C334.844 17.008 333.798 17.4507 332.956 18.336C332.124 19.2213 331.649 20.592 331.532 22.448H340.316C340.284 20.6453 339.889 19.2907 339.132 18.384C338.374 17.4667 337.361 17.008 336.092 17.008ZM381.155 31.152C380.579 31.536 379.88 31.8347 379.059 32.048C378.237 32.2613 377.432 32.368 376.643 32.368C374.829 32.368 373.432 31.8933 372.451 30.944C371.469 29.9947 370.979 28.7733 370.979 27.28V17.232H367.107V15.152H370.979V11.328L373.667 11.008V15.152H379.491L379.171 17.232H373.667V27.248C373.667 28.1867 373.912 28.9013 374.403 29.392C374.904 29.8827 375.731 30.128 376.883 30.128C377.512 30.128 378.093 30.0533 378.627 29.904C379.16 29.7547 379.656 29.5627 380.115 29.328L381.155 31.152ZM393.382 14.8C394.971 14.8 396.299 15.1627 397.366 15.888C398.443 16.6027 399.249 17.616 399.782 18.928C400.326 20.24 400.598 21.7867 400.598 23.568C400.598 25.2853 400.321 26.8053 399.766 28.128C399.211 29.4507 398.395 30.4907 397.318 31.248C396.251 31.9947 394.929 32.368 393.35 32.368C391.771 32.368 390.443 32.0053 389.366 31.28C388.289 30.5547 387.473 29.536 386.918 28.224C386.374 26.9013 386.102 25.36 386.102 23.6C386.102 21.8613 386.379 20.3307 386.934 19.008C387.489 17.6853 388.305 16.656 389.382 15.92C390.47 15.1733 391.803 14.8 393.382 14.8ZM393.382 16.992C391.931 16.992 390.833 17.5307 390.086 18.608C389.35 19.6747 388.982 21.3387 388.982 23.6C388.982 25.8187 389.345 27.4667 390.07 28.544C390.806 29.6213 391.899 30.16 393.35 30.16C394.801 30.16 395.889 29.6213 396.614 28.544C397.35 27.4667 397.718 25.808 397.718 23.568C397.718 21.328 397.355 19.6747 396.63 18.608C395.905 17.5307 394.822 16.992 393.382 16.992ZM432.957 30.048C433.8 30.048 434.584 29.9093 435.309 29.632C436.045 29.3547 436.722 29.0027 437.341 28.576L438.653 30.336C437.917 30.9653 437.032 31.4613 435.997 31.824C434.962 32.1867 433.949 32.368 432.957 32.368C431.282 32.368 429.853 32.0107 428.669 31.296C427.496 30.5707 426.6 29.5573 425.981 28.256C425.362 26.944 425.053 25.408 425.053 23.648C425.053 21.9627 425.362 20.4533 425.981 19.12C426.61 17.776 427.512 16.72 428.685 15.952C429.869 15.184 431.304 14.8 432.989 14.8C434.066 14.8 435.074 14.9653 436.013 15.296C436.962 15.616 437.832 16.1013 438.621 16.752L437.309 18.544C436.594 18.0427 435.874 17.6693 435.149 17.424C434.434 17.168 433.704 17.04 432.957 17.04C431.506 17.04 430.312 17.584 429.373 18.672C428.434 19.76 427.965 21.4187 427.965 23.648C427.965 25.1413 428.178 26.3627 428.605 27.312C429.042 28.2507 429.634 28.944 430.381 29.392C431.138 29.8293 431.997 30.048 432.957 30.048ZM450.945 14.8C452.534 14.8 453.862 15.1627 454.929 15.888C456.006 16.6027 456.811 17.616 457.345 18.928C457.889 20.24 458.161 21.7867 458.161 23.568C458.161 25.2853 457.883 26.8053 457.329 28.128C456.774 29.4507 455.958 30.4907 454.881 31.248C453.814 31.9947 452.491 32.368 450.913 32.368C449.334 32.368 448.006 32.0053 446.929 31.28C445.851 30.5547 445.035 29.536 444.481 28.224C443.937 26.9013 443.664 25.36 443.664 23.6C443.664 21.8613 443.942 20.3307 444.497 19.008C445.051 17.6853 445.867 16.656 446.945 15.92C448.033 15.1733 449.366 14.8 450.945 14.8ZM450.945 16.992C449.494 16.992 448.395 17.5307 447.649 18.608C446.913 19.6747 446.545 21.3387 446.545 23.6C446.545 25.8187 446.907 27.4667 447.633 28.544C448.369 29.6213 449.462 30.16 450.913 30.16C452.363 30.16 453.451 29.6213 454.177 28.544C454.913 27.4667 455.281 25.808 455.281 23.568C455.281 21.328 454.918 19.6747 454.193 18.608C453.467 17.5307 452.385 16.992 450.945 16.992ZM463.716 32V15.152H466.004L466.212 17.488C466.895 16.624 467.748 15.9627 468.772 15.504C469.807 15.0347 470.809 14.8 471.78 14.8C473.433 14.8 474.633 15.2373 475.38 16.112C476.137 16.9867 476.516 18.2027 476.516 19.76V32H473.828V21.744C473.828 20.592 473.764 19.664 473.636 18.96C473.508 18.2453 473.241 17.728 472.836 17.408C472.431 17.0773 471.801 16.912 470.948 16.912C470.287 16.912 469.663 17.056 469.076 17.344C468.5 17.632 467.983 17.9947 467.524 18.432C467.076 18.8587 466.703 19.2907 466.404 19.728V32H463.716ZM496.28 31.152C495.704 31.536 495.005 31.8347 494.184 32.048C493.362 32.2613 492.557 32.368 491.768 32.368C489.954 32.368 488.557 31.8933 487.576 30.944C486.594 29.9947 486.104 28.7733 486.104 27.28V17.232H482.232V15.152H486.104V11.328L488.792 11.008V15.152H494.616L494.296 17.232H488.792V27.248C488.792 28.1867 489.037 28.9013 489.528 29.392C490.029 29.8827 490.856 30.128 492.008 30.128C492.637 30.128 493.218 30.0533 493.752 29.904C494.285 29.7547 494.781 29.5627 495.24 29.328L496.28 31.152ZM514.155 28.32C514.155 28.992 514.267 29.4827 514.491 29.792C514.715 30.1013 515.062 30.3307 515.531 30.48L514.875 32.368C514.15 32.272 513.515 32.0427 512.971 31.68C512.427 31.3067 512.032 30.7467 511.787 30C511.179 30.7787 510.422 31.3707 509.515 31.776C508.608 32.1707 507.606 32.368 506.507 32.368C504.822 32.368 503.494 31.8933 502.523 30.944C501.552 29.9947 501.067 28.736 501.067 27.168C501.067 25.4293 501.744 24.096 503.099 23.168C504.454 22.24 506.411 21.776 508.971 21.776H511.451V20.368C511.451 19.152 511.094 18.2933 510.379 17.792C509.675 17.28 508.694 17.024 507.435 17.024C506.88 17.024 506.23 17.0933 505.483 17.232C504.736 17.36 503.926 17.5787 503.051 17.888L502.347 15.856C503.382 15.472 504.352 15.2 505.259 15.04C506.166 14.88 507.03 14.8 507.851 14.8C509.952 14.8 511.526 15.2907 512.571 16.272C513.627 17.2427 514.155 18.5653 514.155 20.24V28.32ZM507.195 30.32C508.027 30.32 508.822 30.112 509.579 29.696C510.336 29.2693 510.96 28.6827 511.451 27.936V23.6H509.019C507.163 23.6 505.851 23.92 505.083 24.56C504.326 25.2 503.947 26.0587 503.947 27.136C503.947 28.1813 504.214 28.976 504.747 29.52C505.291 30.0533 506.107 30.32 507.195 30.32ZM528.895 30.048C529.737 30.048 530.521 29.9093 531.247 29.632C531.983 29.3547 532.66 29.0027 533.279 28.576L534.59 30.336C533.855 30.9653 532.969 31.4613 531.935 31.824C530.9 32.1867 529.887 32.368 528.895 32.368C527.22 32.368 525.791 32.0107 524.607 31.296C523.433 30.5707 522.537 29.5573 521.919 28.256C521.3 26.944 520.991 25.408 520.991 23.648C520.991 21.9627 521.3 20.4533 521.919 19.12C522.548 17.776 523.449 16.72 524.623 15.952C525.807 15.184 527.241 14.8 528.927 14.8C530.004 14.8 531.012 14.9653 531.951 15.296C532.9 15.616 533.769 16.1013 534.559 16.752L533.247 18.544C532.532 18.0427 531.812 17.6693 531.087 17.424C530.372 17.168 529.641 17.04 528.895 17.04C527.444 17.04 526.249 17.584 525.311 18.672C524.372 19.76 523.903 21.4187 523.903 23.648C523.903 25.1413 524.116 26.3627 524.543 27.312C524.98 28.2507 525.572 28.944 526.319 29.392C527.076 29.8293 527.935 30.048 528.895 30.048ZM553.842 31.152C553.266 31.536 552.567 31.8347 551.746 32.048C550.925 32.2613 550.119 32.368 549.33 32.368C547.517 32.368 546.119 31.8933 545.138 30.944C544.157 29.9947 543.666 28.7733 543.666 27.28V17.232H539.794V15.152H543.666V11.328L546.354 11.008V15.152H552.178L551.858 17.232H546.354V27.248C546.354 28.1867 546.599 28.9013 547.09 29.392C547.591 29.8827 548.418 30.128 549.57 30.128C550.199 30.128 550.781 30.0533 551.314 29.904C551.847 29.7547 552.343 29.5627 552.802 29.328L553.842 31.152ZM589.945 14.8C590.489 14.8 591.006 14.9173 591.497 15.152C591.998 15.3867 592.409 15.84 592.729 16.512C593.049 17.184 593.209 18.1653 593.209 19.456V32H590.713V19.888C590.713 18.832 590.649 18.0693 590.521 17.6C590.393 17.1307 590.025 16.896 589.417 16.896C588.916 16.896 588.414 17.056 587.913 17.376C587.422 17.6853 586.942 18.1973 586.473 18.912V32H583.961V19.888C583.961 18.832 583.897 18.0693 583.769 17.6C583.641 17.1307 583.273 16.896 582.665 16.896C582.142 16.896 581.636 17.056 581.145 17.376C580.665 17.6853 580.19 18.1973 579.721 18.912V32H577.241V15.152H579.353L579.513 17.104C579.972 16.4533 580.484 15.9093 581.049 15.472C581.625 15.024 582.334 14.8 583.177 14.8C583.817 14.8 584.42 14.9547 584.985 15.264C585.55 15.5627 585.966 16.1493 586.233 17.024C586.692 16.3627 587.209 15.8293 587.785 15.424C588.361 15.008 589.081 14.8 589.945 14.8ZM600.141 24.528C600.194 25.8293 600.445 26.896 600.893 27.728C601.341 28.5493 601.933 29.1573 602.669 29.552C603.405 29.936 604.205 30.128 605.069 30.128C605.933 30.128 606.711 30 607.405 29.744C608.109 29.488 608.829 29.1093 609.565 28.608L610.829 30.384C610.039 31.0027 609.138 31.488 608.125 31.84C607.122 32.192 606.093 32.368 605.037 32.368C603.405 32.368 602.013 32 600.861 31.264C599.709 30.528 598.829 29.504 598.221 28.192C597.623 26.8693 597.325 25.3387 597.325 23.6C597.325 21.8933 597.629 20.3787 598.237 19.056C598.845 17.7333 599.698 16.6933 600.797 15.936C601.895 15.1787 603.191 14.8 604.685 14.8C606.103 14.8 607.325 15.136 608.349 15.808C609.373 16.4693 610.157 17.4187 610.701 18.656C611.255 19.8827 611.533 21.3493 611.533 23.056C611.533 23.344 611.527 23.616 611.517 23.872C611.506 24.1173 611.49 24.336 611.469 24.528H600.141ZM604.717 17.008C603.469 17.008 602.423 17.4507 601.581 18.336C600.749 19.2213 600.274 20.592 600.157 22.448H608.941C608.909 20.6453 608.514 19.2907 607.757 18.384C606.999 17.4667 605.986 17.008 604.717 17.008ZM617.92 9.136C617.92 8.47467 618.16 7.92 618.64 7.472C619.131 7.01333 619.701 6.784 620.352 6.784C621.013 6.784 621.584 7.01333 622.064 7.472C622.544 7.92 622.784 8.47467 622.784 9.136C622.784 9.424 622.741 9.71733 622.656 10.016C622.571 10.304 622.4 10.7093 622.144 11.232L619.552 16.752H617.472L618.736 10.88C618.491 10.688 618.293 10.4373 618.144 10.128C617.995 9.81867 617.92 9.488 617.92 9.136ZM624.832 9.136C624.832 8.47467 625.072 7.92 625.552 7.472C626.043 7.01333 626.613 6.784 627.264 6.784C627.936 6.784 628.507 7.01333 628.976 7.472C629.456 7.92 629.696 8.47467 629.696 9.136C629.696 9.424 629.659 9.71733 629.584 10.016C629.509 10.304 629.349 10.7093 629.104 11.232L626.48 16.752H624.384L625.68 10.88C625.424 10.688 625.216 10.4373 625.056 10.128C624.907 9.81867 624.832 9.488 624.832 9.136Z" fill="#FFE587"/>
<path d="M686.843 28.32C686.843 28.992 686.955 29.4827 687.179 29.792C687.403 30.1013 687.749 30.3307 688.219 30.48L687.562 32.368C686.837 32.272 686.203 32.0427 685.659 31.68C685.115 31.3067 684.72 30.7467 684.475 30C683.867 30.7787 683.109 31.3707 682.203 31.776C681.296 32.1707 680.293 32.368 679.195 32.368C677.509 32.368 676.181 31.8933 675.211 30.944C674.24 29.9947 673.755 28.736 673.755 27.168C673.755 25.4293 674.432 24.096 675.786 23.168C677.141 22.24 679.099 21.776 681.659 21.776H684.139V20.368C684.139 19.152 683.781 18.2933 683.067 17.792C682.363 17.28 681.381 17.024 680.123 17.024C679.568 17.024 678.917 17.0933 678.171 17.232C677.424 17.36 676.613 17.5787 675.739 17.888L675.035 15.856C676.069 15.472 677.04 15.2 677.947 15.04C678.853 14.88 679.717 14.8 680.539 14.8C682.64 14.8 684.213 15.2907 685.259 16.272C686.315 17.2427 686.843 18.5653 686.843 20.24V28.32ZM679.883 30.32C680.715 30.32 681.509 30.112 682.267 29.696C683.024 29.2693 683.648 28.6827 684.139 27.936V23.6H681.707C679.851 23.6 678.539 23.92 677.771 24.56C677.013 25.2 676.635 26.0587 676.635 27.136C676.635 28.1813 676.901 28.976 677.435 29.52C677.979 30.0533 678.795 30.32 679.883 30.32ZM699.694 30.144C700.985 30.144 702.003 29.904 702.75 29.424C703.507 28.9333 703.886 28.2827 703.886 27.472C703.886 26.96 703.79 26.5173 703.598 26.144C703.417 25.7707 703.038 25.4347 702.462 25.136C701.886 24.8373 701.001 24.5387 699.806 24.24C698.643 23.952 697.63 23.6213 696.766 23.248C695.913 22.864 695.246 22.368 694.766 21.76C694.297 21.152 694.062 20.3627 694.062 19.392C694.062 18.4427 694.329 17.6267 694.862 16.944C695.406 16.2507 696.158 15.7227 697.118 15.36C698.078 14.9867 699.193 14.8 700.462 14.8C701.817 14.8 702.995 14.9813 703.998 15.344C705.011 15.696 705.87 16.1333 706.574 16.656L705.39 18.48C704.75 18.0427 704.046 17.6853 703.278 17.408C702.51 17.12 701.582 16.976 700.494 16.976C699.171 16.976 698.233 17.184 697.678 17.6C697.123 18.0053 696.846 18.5333 696.846 19.184C696.846 19.6747 696.979 20.0853 697.246 20.416C697.523 20.736 697.987 21.0293 698.638 21.296C699.289 21.552 700.185 21.8347 701.326 22.144C702.425 22.432 703.379 22.7787 704.19 23.184C705.011 23.5893 705.651 24.1227 706.11 24.784C706.569 25.4453 706.798 26.2987 706.798 27.344C706.798 28.5387 706.457 29.5093 705.774 30.256C705.091 30.992 704.206 31.5307 703.118 31.872C702.041 32.2027 700.899 32.368 699.694 32.368C698.169 32.368 696.867 32.1493 695.79 31.712C694.723 31.264 693.827 30.7253 693.102 30.096L694.638 28.32C695.299 28.864 696.057 29.3067 696.91 29.648C697.774 29.9787 698.702 30.144 699.694 30.144ZM727.17 15.152L721.25 32.112C720.855 33.2533 720.354 34.2987 719.746 35.248C719.148 36.1973 718.364 36.9813 717.394 37.6C716.434 38.2293 715.212 38.6187 713.73 38.768L713.314 36.624C714.476 36.432 715.394 36.1387 716.066 35.744C716.738 35.3493 717.266 34.8427 717.65 34.224C718.044 33.6053 718.391 32.864 718.69 32H717.794L711.906 15.152H714.786L719.618 29.952L724.386 15.152H727.17ZM732.341 32V15.152H734.629L734.837 17.488C735.52 16.624 736.373 15.9627 737.397 15.504C738.432 15.0347 739.434 14.8 740.405 14.8C742.058 14.8 743.258 15.2373 744.005 16.112C744.762 16.9867 745.141 18.2027 745.141 19.76V32H742.453V21.744C742.453 20.592 742.389 19.664 742.261 18.96C742.133 18.2453 741.866 17.728 741.461 17.408C741.056 17.0773 740.426 16.912 739.573 16.912C738.912 16.912 738.288 17.056 737.701 17.344C737.125 17.632 736.608 17.9947 736.149 18.432C735.701 18.8587 735.328 19.2907 735.029 19.728V32H732.341ZM759.145 30.048C759.987 30.048 760.771 29.9093 761.497 29.632C762.233 29.3547 762.91 29.0027 763.529 28.576L764.84 30.336C764.105 30.9653 763.219 31.4613 762.185 31.824C761.15 32.1867 760.137 32.368 759.145 32.368C757.47 32.368 756.041 32.0107 754.857 31.296C753.683 30.5707 752.787 29.5573 752.169 28.256C751.55 26.944 751.241 25.408 751.241 23.648C751.241 21.9627 751.55 20.4533 752.169 19.12C752.798 17.776 753.699 16.72 754.873 15.952C756.057 15.184 757.491 14.8 759.177 14.8C760.254 14.8 761.262 14.9653 762.201 15.296C763.15 15.616 764.019 16.1013 764.809 16.752L763.497 18.544C762.782 18.0427 762.062 17.6693 761.337 17.424C760.622 17.168 759.891 17.04 759.145 17.04C757.694 17.04 756.499 17.584 755.561 18.672C754.622 19.76 754.153 21.4187 754.153 23.648C754.153 25.1413 754.366 26.3627 754.793 27.312C755.23 28.2507 755.822 28.944 756.569 29.392C757.326 29.8293 758.185 30.048 759.145 30.048ZM793.488 20.8C793.488 22.464 793.632 23.9573 793.92 25.28C794.208 26.592 794.634 27.7973 795.2 28.896C795.765 29.984 796.474 31.0187 797.328 32C798.192 32.992 799.194 33.9947 800.336 35.008L798.928 36.48C797.2 35.0613 795.717 33.6107 794.48 32.128C793.253 30.6453 792.309 28.992 791.648 27.168C790.997 25.344 790.672 23.2213 790.672 20.8C790.672 18.368 790.997 16.24 791.648 14.416C792.309 12.592 793.253 10.9387 794.48 9.456C795.717 7.97333 797.2 6.528 798.928 5.12L800.336 6.592C799.184 7.616 798.176 8.624 797.312 9.616C796.458 10.5973 795.749 11.632 795.184 12.72C794.618 13.7973 794.192 14.9973 793.904 16.32C793.626 17.632 793.488 19.1253 793.488 20.8ZM818.275 20.8C818.275 19.1253 818.131 17.632 817.843 16.32C817.566 14.9973 817.144 13.7973 816.579 12.72C816.014 11.632 815.299 10.5973 814.435 9.616C813.582 8.624 812.579 7.616 811.427 6.592L812.835 5.12C814.574 6.528 816.056 7.97333 817.283 9.456C818.51 10.9387 819.448 12.592 820.099 14.416C820.76 16.24 821.091 18.368 821.091 20.8C821.091 23.2213 820.76 25.344 820.099 27.168C819.448 28.992 818.51 30.6453 817.283 32.128C816.056 33.6107 814.574 35.0613 812.835 36.48L811.427 35.008C812.568 33.9947 813.566 32.992 814.419 32C815.283 31.0187 815.998 29.984 816.563 28.896C817.128 27.7973 817.555 26.592 817.843 25.28C818.131 23.9573 818.275 22.464 818.275 20.8ZM848.234 20.112V17.776H863.77V20.112H848.234ZM848.234 26.192V23.856H863.77V26.192H848.234ZM863.117 20.112V17.776H874.318V20.112H863.117ZM863.117 26.192V23.856H874.318V26.192H863.117ZM870.014 12.24L878.718 21.984L870.014 31.728L868.03 30.032L870.03 27.856C870.275 27.568 870.542 27.2853 870.83 27.008C871.128 26.7307 871.518 26.4587 871.998 26.192L873.646 23.856L875.358 21.984L873.646 20.112L871.998 17.776C871.518 17.5093 871.128 17.2373 870.83 16.96C870.542 16.672 870.275 16.3893 870.03 16.112L868.03 13.936L870.014 12.24ZM916.261 5.264V7.376C915.482 7.376 914.773 7.456 914.133 7.616C913.503 7.76533 913.013 8.02667 912.661 8.4C912.319 8.77333 912.175 9.28533 912.229 9.936L912.901 16.496C912.997 17.392 912.943 18.1333 912.741 18.72C912.538 19.3067 912.197 19.7653 911.717 20.096C911.247 20.4267 910.645 20.6613 909.909 20.8C910.655 20.928 911.269 21.152 911.749 21.472C912.229 21.7813 912.565 22.2293 912.757 22.816C912.949 23.392 912.997 24.1547 912.901 25.104L912.229 31.664C912.175 32.3253 912.319 32.8427 912.661 33.216C913.002 33.5893 913.493 33.8507 914.133 34C914.773 34.1493 915.482 34.224 916.261 34.224V36.336C915.365 36.336 914.506 36.256 913.685 36.096C912.863 35.9467 912.138 35.6853 911.509 35.312C910.879 34.9387 910.405 34.4267 910.085 33.776C909.765 33.136 909.658 32.3253 909.765 31.344L910.405 25.264C910.49 24.528 910.421 23.9093 910.197 23.408C909.983 22.9067 909.514 22.528 908.789 22.272C908.074 22.0053 907.002 21.872 905.573 21.872V19.728C907.002 19.728 908.074 19.6 908.789 19.344C909.514 19.088 909.983 18.7093 910.197 18.208C910.421 17.7067 910.49 17.0933 910.405 16.368L909.765 10.256C909.658 9.27467 909.765 8.464 910.085 7.824C910.405 7.17333 910.874 6.66133 911.493 6.288C912.122 5.91467 912.847 5.65333 913.669 5.504C914.501 5.344 915.365 5.264 916.261 5.264ZM49.207 72.048C50.0497 72.048 50.8337 71.9093 51.559 71.632C52.295 71.3547 52.9723 71.0027 53.591 70.576L54.903 72.336C54.167 72.9653 53.2817 73.4613 52.247 73.824C51.2123 74.1867 50.199 74.368 49.207 74.368C47.5323 74.368 46.103 74.0107 44.919 73.296C43.7457 72.5707 42.8497 71.5573 42.231 70.256C41.6123 68.944 41.303 67.408 41.303 65.648C41.303 63.9627 41.6123 62.4533 42.231 61.12C42.8603 59.776 43.7617 58.72 44.935 57.952C46.119 57.184 47.5537 56.8 49.239 56.8C50.3163 56.8 51.3243 56.9653 52.263 57.296C53.2123 57.616 54.0817 58.1013 54.871 58.752L53.559 60.544C52.8443 60.0427 52.1243 59.6693 51.399 59.424C50.6843 59.168 49.9537 59.04 49.207 59.04C47.7563 59.04 46.5617 59.584 45.623 60.672C44.6843 61.76 44.215 63.4187 44.215 65.648C44.215 67.1413 44.4283 68.3627 44.855 69.312C45.2923 70.2507 45.8843 70.944 46.631 71.392C47.3883 71.8293 48.247 72.048 49.207 72.048ZM67.1945 56.8C68.7838 56.8 70.1118 57.1627 71.1785 57.888C72.2558 58.6027 73.0612 59.616 73.5945 60.928C74.1385 62.24 74.4105 63.7867 74.4105 65.568C74.4105 67.2853 74.1332 68.8053 73.5785 70.128C73.0238 71.4507 72.2078 72.4907 71.1305 73.248C70.0638 73.9947 68.7412 74.368 67.1625 74.368C65.5838 74.368 64.2558 74.0053 63.1785 73.28C62.1012 72.5547 61.2852 71.536 60.7305 70.224C60.1865 68.9013 59.9145 67.36 59.9145 65.6C59.9145 63.8613 60.1918 62.3307 60.7465 61.008C61.3012 59.6853 62.1172 58.656 63.1945 57.92C64.2825 57.1733 65.6158 56.8 67.1945 56.8ZM67.1945 58.992C65.7438 58.992 64.6452 59.5307 63.8985 60.608C63.1625 61.6747 62.7945 63.3387 62.7945 65.6C62.7945 67.8187 63.1572 69.4667 63.8825 70.544C64.6185 71.6213 65.7118 72.16 67.1625 72.16C68.6132 72.16 69.7012 71.6213 70.4265 70.544C71.1625 69.4667 71.5305 67.808 71.5305 65.568C71.5305 63.328 71.1678 61.6747 70.4425 60.608C69.7172 59.5307 68.6345 58.992 67.1945 58.992ZM79.966 74V57.152H82.254L82.462 59.488C83.1447 58.624 83.998 57.9627 85.022 57.504C86.0567 57.0347 87.0593 56.8 88.03 56.8C89.6833 56.8 90.8833 57.2373 91.63 58.112C92.3873 58.9867 92.766 60.2027 92.766 61.76V74H90.078V63.744C90.078 62.592 90.014 61.664 89.886 60.96C89.758 60.2453 89.4913 59.728 89.086 59.408C88.6807 59.0773 88.0513 58.912 87.198 58.912C86.5367 58.912 85.9127 59.056 85.326 59.344C84.75 59.632 84.2327 59.9947 83.774 60.432C83.326 60.8587 82.9527 61.2907 82.654 61.728V74H79.966ZM104.882 72.144C106.172 72.144 107.191 71.904 107.938 71.424C108.695 70.9333 109.074 70.2827 109.074 69.472C109.074 68.96 108.978 68.5173 108.786 68.144C108.604 67.7707 108.226 67.4347 107.65 67.136C107.074 66.8373 106.188 66.5387 104.994 66.24C103.831 65.952 102.818 65.6213 101.954 65.248C101.1 64.864 100.434 64.368 99.9535 63.76C99.4842 63.152 99.2495 62.3627 99.2495 61.392C99.2495 60.4427 99.5162 59.6267 100.049 58.944C100.594 58.2507 101.346 57.7227 102.306 57.36C103.266 56.9867 104.38 56.8 105.65 56.8C107.004 56.8 108.183 56.9813 109.186 57.344C110.199 57.696 111.058 58.1333 111.762 58.656L110.578 60.48C109.938 60.0427 109.234 59.6853 108.466 59.408C107.698 59.12 106.77 58.976 105.682 58.976C104.359 58.976 103.42 59.184 102.866 59.6C102.311 60.0053 102.034 60.5333 102.034 61.184C102.034 61.6747 102.167 62.0853 102.434 62.416C102.711 62.736 103.175 63.0293 103.826 63.296C104.476 63.552 105.372 63.8347 106.514 64.144C107.612 64.432 108.567 64.7787 109.378 65.184C110.199 65.5893 110.839 66.1227 111.298 66.784C111.756 67.4453 111.986 68.2987 111.986 69.344C111.986 70.5387 111.644 71.5093 110.962 72.256C110.279 72.992 109.394 73.5307 108.306 73.872C107.228 74.2027 106.087 74.368 104.882 74.368C103.356 74.368 102.055 74.1493 100.978 73.712C99.9108 73.264 99.0148 72.7253 98.2895 72.096L99.8255 70.32C100.487 70.864 101.244 71.3067 102.098 71.648C102.962 71.9787 103.89 72.144 104.882 72.144ZM131.717 73.152C131.141 73.536 130.442 73.8347 129.621 74.048C128.8 74.2613 127.994 74.368 127.205 74.368C125.392 74.368 123.994 73.8933 123.013 72.944C122.032 71.9947 121.541 70.7733 121.541 69.28V59.232H117.669V57.152H121.541V53.328L124.229 53.008V57.152H130.053L129.733 59.232H124.229V69.248C124.229 70.1867 124.474 70.9013 124.965 71.392C125.466 71.8827 126.293 72.128 127.445 72.128C128.074 72.128 128.656 72.0533 129.189 71.904C129.722 71.7547 130.218 71.5627 130.677 71.328L131.717 73.152ZM342.012 59.856V62.176H329.564V59.856H342.012ZM342.012 65.92V68.256H329.564V65.92H342.012ZM379.843 70.32C379.843 70.992 379.955 71.4827 380.179 71.792C380.403 72.1013 380.749 72.3307 381.219 72.48L380.562 74.368C379.837 74.272 379.203 74.0427 378.659 73.68C378.115 73.3067 377.72 72.7467 377.475 72C376.867 72.7787 376.109 73.3707 375.203 73.776C374.296 74.1707 373.293 74.368 372.195 74.368C370.509 74.368 369.181 73.8933 368.211 72.944C367.24 71.9947 366.755 70.736 366.755 69.168C366.755 67.4293 367.432 66.096 368.786 65.168C370.141 64.24 372.099 63.776 374.659 63.776H377.139V62.368C377.139 61.152 376.781 60.2933 376.067 59.792C375.363 59.28 374.381 59.024 373.123 59.024C372.568 59.024 371.917 59.0933 371.171 59.232C370.424 59.36 369.613 59.5787 368.739 59.888L368.035 57.856C369.069 57.472 370.04 57.2 370.947 57.04C371.853 56.88 372.717 56.8 373.539 56.8C375.64 56.8 377.213 57.2907 378.259 58.272C379.315 59.2427 379.843 60.5653 379.843 62.24V70.32ZM372.883 72.32C373.715 72.32 374.509 72.112 375.267 71.696C376.024 71.2693 376.648 70.6827 377.139 69.936V65.6H374.707C372.851 65.6 371.539 65.92 370.771 66.56C370.013 67.2 369.635 68.0587 369.635 69.136C369.635 70.1813 369.901 70.976 370.435 71.52C370.979 72.0533 371.795 72.32 372.883 72.32ZM399.446 74H395.638L393.462 61.632L391.094 74H387.382L384.31 57.152H387.062L389.206 72.336L391.894 59.296H395.078L397.622 72.336L399.766 57.152H402.39L399.446 74ZM418.218 70.32C418.218 70.992 418.33 71.4827 418.554 71.792C418.778 72.1013 419.124 72.3307 419.594 72.48L418.938 74.368C418.212 74.272 417.578 74.0427 417.034 73.68C416.49 73.3067 416.095 72.7467 415.85 72C415.242 72.7787 414.484 73.3707 413.578 73.776C412.671 74.1707 411.668 74.368 410.57 74.368C408.884 74.368 407.556 73.8933 406.586 72.944C405.615 71.9947 405.13 70.736 405.13 69.168C405.13 67.4293 405.807 66.096 407.161 65.168C408.516 64.24 410.474 63.776 413.034 63.776H415.514V62.368C415.514 61.152 415.156 60.2933 414.442 59.792C413.738 59.28 412.756 59.024 411.498 59.024C410.943 59.024 410.292 59.0933 409.546 59.232C408.799 59.36 407.988 59.5787 407.114 59.888L406.41 57.856C407.444 57.472 408.415 57.2 409.322 57.04C410.228 56.88 411.092 56.8 411.914 56.8C414.015 56.8 415.588 57.2907 416.634 58.272C417.69 59.2427 418.218 60.5653 418.218 62.24V70.32ZM411.258 72.32C412.09 72.32 412.884 72.112 413.642 71.696C414.399 71.2693 415.023 70.6827 415.514 69.936V65.6H413.082C411.226 65.6 409.914 65.92 409.146 66.56C408.388 67.2 408.01 68.0587 408.01 69.136C408.01 70.1813 408.276 70.976 408.81 71.52C409.354 72.0533 410.17 72.32 411.258 72.32ZM433.869 57.152V71.872H438.621V74H425.981V71.872H431.181V59.28H426.141V57.152H433.869ZM431.725 49.264C432.322 49.264 432.797 49.4453 433.149 49.808C433.512 50.1707 433.693 50.6133 433.693 51.136C433.693 51.68 433.512 52.1387 433.149 52.512C432.797 52.8747 432.322 53.056 431.725 53.056C431.16 53.056 430.696 52.8747 430.333 52.512C429.97 52.1387 429.789 51.68 429.789 51.136C429.789 50.6133 429.97 50.1707 430.333 49.808C430.696 49.4453 431.16 49.264 431.725 49.264ZM457.905 73.152C457.329 73.536 456.63 73.8347 455.809 74.048C454.987 74.2613 454.182 74.368 453.393 74.368C451.579 74.368 450.182 73.8933 449.201 72.944C448.219 71.9947 447.729 70.7733 447.729 69.28V59.232H443.857V57.152H447.729V53.328L450.417 53.008V57.152H456.241L455.921 59.232H450.417V69.248C450.417 70.1867 450.662 70.9013 451.153 71.392C451.654 71.8827 452.481 72.128 453.633 72.128C454.262 72.128 454.843 72.0533 455.377 71.904C455.91 71.7547 456.406 71.5627 456.865 71.328L457.905 73.152ZM4.752 131.264C5.648 131.264 6.50667 131.344 7.328 131.504C8.14933 131.653 8.87467 131.915 9.504 132.288C10.1333 132.661 10.608 133.173 10.928 133.824C11.2587 134.464 11.3653 135.275 11.248 136.256L10.608 142.368C10.5227 143.093 10.6133 143.707 10.88 144.208C11.1573 144.709 11.6587 145.088 12.384 145.344C13.1093 145.6 14.128 145.728 15.44 145.728V147.872C14.1387 147.872 13.12 148.005 12.384 148.272C11.6587 148.528 11.1573 148.907 10.88 149.408C10.6133 149.909 10.5227 150.528 10.608 151.264L11.248 157.344C11.3547 158.325 11.248 159.136 10.928 159.776C10.608 160.427 10.1333 160.939 9.504 161.312C8.88533 161.685 8.16 161.947 7.328 162.096C6.50667 162.256 5.648 162.336 4.752 162.336V160.224C5.53067 160.224 6.23467 160.149 6.864 160C7.504 159.851 8 159.589 8.352 159.216C8.704 158.843 8.848 158.325 8.784 157.664L8.112 151.104C8.016 150.155 8.06933 149.392 8.272 148.816C8.47467 148.229 8.83733 147.781 9.36 147.472C9.89333 147.163 10.592 146.949 11.456 146.832C10.624 146.693 9.94133 146.453 9.408 146.112C8.88533 145.771 8.51733 145.307 8.304 144.72C8.09067 144.133 8.02667 143.392 8.112 142.496L8.784 135.936C8.848 135.285 8.704 134.773 8.352 134.4C8 134.027 7.50933 133.765 6.88 133.616C6.25067 133.456 5.54133 133.376 4.752 133.376V131.264Z" fill="#DA68BA"/>
<path d="M156.876 74V71.936H159.5V59.216H156.876V57.152H161.548L162.044 61.136C162.695 59.7493 163.484 58.6773 164.412 57.92C165.34 57.1627 166.567 56.784 168.092 56.784C168.561 56.784 168.977 56.8213 169.34 56.896C169.713 56.96 170.092 57.0453 170.476 57.152L169.692 59.552C169.34 59.456 169.02 59.3867 168.732 59.344C168.444 59.2907 168.113 59.264 167.74 59.264C166.449 59.264 165.34 59.7227 164.412 60.64C163.484 61.5573 162.743 62.944 162.188 64.8V71.936H165.612V74H156.876ZM167.884 62.848V59.184L168.156 57.152H170.476L170.092 62.848H167.884ZM178.016 66.528C178.069 67.8293 178.32 68.896 178.768 69.728C179.216 70.5493 179.808 71.1573 180.544 71.552C181.28 71.936 182.08 72.128 182.944 72.128C183.808 72.128 184.586 72 185.28 71.744C185.984 71.488 186.704 71.1093 187.44 70.608L188.704 72.384C187.914 73.0027 187.013 73.488 186 73.84C184.997 74.192 183.968 74.368 182.912 74.368C181.28 74.368 179.888 74 178.736 73.264C177.584 72.528 176.704 71.504 176.096 70.192C175.498 68.8693 175.2 67.3387 175.2 65.6C175.2 63.8933 175.504 62.3787 176.112 61.056C176.72 59.7333 177.573 58.6933 178.672 57.936C179.77 57.1787 181.066 56.8 182.56 56.8C183.978 56.8 185.2 57.136 186.224 57.808C187.248 58.4693 188.032 59.4187 188.576 60.656C189.13 61.8827 189.408 63.3493 189.408 65.056C189.408 65.344 189.402 65.616 189.392 65.872C189.381 66.1173 189.365 66.336 189.344 66.528H178.016ZM182.592 59.008C181.344 59.008 180.298 59.4507 179.456 60.336C178.624 61.2213 178.149 62.592 178.032 64.448H186.816C186.784 62.6453 186.389 61.2907 185.632 60.384C184.874 59.4667 183.861 59.008 182.592 59.008ZM200.819 72.144C202.11 72.144 203.128 71.904 203.875 71.424C204.632 70.9333 205.011 70.2827 205.011 69.472C205.011 68.96 204.915 68.5173 204.723 68.144C204.542 67.7707 204.163 67.4347 203.587 67.136C203.011 66.8373 202.126 66.5387 200.931 66.24C199.768 65.952 198.755 65.6213 197.891 65.248C197.038 64.864 196.371 64.368 195.891 63.76C195.422 63.152 195.187 62.3627 195.187 61.392C195.187 60.4427 195.454 59.6267 195.987 58.944C196.531 58.2507 197.283 57.7227 198.243 57.36C199.203 56.9867 200.318 56.8 201.587 56.8C202.942 56.8 204.12 56.9813 205.123 57.344C206.136 57.696 206.995 58.1333 207.699 58.656L206.515 60.48C205.875 60.0427 205.171 59.6853 204.403 59.408C203.635 59.12 202.707 58.976 201.619 58.976C200.296 58.976 199.358 59.184 198.803 59.6C198.248 60.0053 197.971 60.5333 197.971 61.184C197.971 61.6747 198.104 62.0853 198.371 62.416C198.648 62.736 199.112 63.0293 199.763 63.296C200.414 63.552 201.31 63.8347 202.451 64.144C203.55 64.432 204.504 64.7787 205.315 65.184C206.136 65.5893 206.776 66.1227 207.235 66.784C207.694 67.4453 207.923 68.2987 207.923 69.344C207.923 70.5387 207.582 71.5093 206.899 72.256C206.216 72.992 205.331 73.5307 204.243 73.872C203.166 74.2027 202.024 74.368 200.819 74.368C199.294 74.368 197.992 74.1493 196.915 73.712C195.848 73.264 194.952 72.7253 194.227 72.096L195.763 70.32C196.424 70.864 197.182 71.3067 198.035 71.648C198.899 71.9787 199.827 72.144 200.819 72.144ZM221.815 56.8C223.308 56.8 224.497 57.1627 225.383 57.888C226.279 58.6133 226.924 59.6373 227.319 60.96C227.713 62.272 227.911 63.808 227.911 65.568C227.911 67.264 227.671 68.7787 227.191 70.112C226.721 71.4347 226.007 72.4747 225.047 73.232C224.087 73.9893 222.876 74.368 221.415 74.368C219.569 74.368 218.087 73.7173 216.967 72.416V80.448L214.279 80.784V57.152H216.567L216.791 59.504C217.409 58.64 218.145 57.9733 218.999 57.504C219.863 57.0347 220.801 56.8 221.815 56.8ZM221.175 58.96C220.247 58.96 219.425 59.2427 218.711 59.808C218.007 60.3627 217.425 60.9813 216.967 61.664V70.016C217.404 70.6667 217.953 71.184 218.615 71.568C219.287 71.9413 220.023 72.128 220.823 72.128C222.22 72.128 223.271 71.5947 223.975 70.528C224.679 69.4613 225.031 67.8027 225.031 65.552C225.031 64.08 224.892 62.8587 224.615 61.888C224.337 60.9067 223.916 60.176 223.351 59.696C222.785 59.2053 222.06 58.96 221.175 58.96ZM239.882 56.8C241.471 56.8 242.799 57.1627 243.866 57.888C244.943 58.6027 245.749 59.616 246.282 60.928C246.826 62.24 247.098 63.7867 247.098 65.568C247.098 67.2853 246.821 68.8053 246.266 70.128C245.711 71.4507 244.895 72.4907 243.818 73.248C242.751 73.9947 241.429 74.368 239.85 74.368C238.271 74.368 236.943 74.0053 235.866 73.28C234.789 72.5547 233.973 71.536 233.418 70.224C232.874 68.9013 232.602 67.36 232.602 65.6C232.602 63.8613 232.879 62.3307 233.434 61.008C233.989 59.6853 234.805 58.656 235.882 57.92C236.97 57.1733 238.303 56.8 239.882 56.8ZM239.882 58.992C238.431 58.992 237.333 59.5307 236.586 60.608C235.85 61.6747 235.482 63.3387 235.482 65.6C235.482 67.8187 235.845 69.4667 236.57 70.544C237.306 71.6213 238.399 72.16 239.85 72.16C241.301 72.16 242.389 71.6213 243.114 70.544C243.85 69.4667 244.218 67.808 244.218 65.568C244.218 63.328 243.855 61.6747 243.13 60.608C242.405 59.5307 241.322 58.992 239.882 58.992ZM252.654 74V57.152H254.942L255.15 59.488C255.832 58.624 256.686 57.9627 257.71 57.504C258.744 57.0347 259.747 56.8 260.718 56.8C262.371 56.8 263.571 57.2373 264.318 58.112C265.075 58.9867 265.454 60.2027 265.454 61.76V74H262.766V63.744C262.766 62.592 262.702 61.664 262.574 60.96C262.446 60.2453 262.179 59.728 261.774 59.408C261.368 59.0773 260.739 58.912 259.886 58.912C259.224 58.912 258.6 59.056 258.014 59.344C257.438 59.632 256.92 59.9947 256.462 60.432C256.014 60.8587 255.64 61.2907 255.342 61.728V74H252.654ZM277.569 72.144C278.86 72.144 279.878 71.904 280.625 71.424C281.382 70.9333 281.761 70.2827 281.761 69.472C281.761 68.96 281.665 68.5173 281.473 68.144C281.292 67.7707 280.913 67.4347 280.337 67.136C279.761 66.8373 278.876 66.5387 277.681 66.24C276.518 65.952 275.505 65.6213 274.641 65.248C273.788 64.864 273.121 64.368 272.641 63.76C272.172 63.152 271.937 62.3627 271.937 61.392C271.937 60.4427 272.204 59.6267 272.737 58.944C273.281 58.2507 274.033 57.7227 274.993 57.36C275.953 56.9867 277.068 56.8 278.337 56.8C279.692 56.8 280.87 56.9813 281.873 57.344C282.886 57.696 283.745 58.1333 284.449 58.656L283.265 60.48C282.625 60.0427 281.921 59.6853 281.153 59.408C280.385 59.12 279.457 58.976 278.369 58.976C277.046 58.976 276.108 59.184 275.553 59.6C274.998 60.0053 274.721 60.5333 274.721 61.184C274.721 61.6747 274.854 62.0853 275.121 62.416C275.398 62.736 275.862 63.0293 276.513 63.296C277.164 63.552 278.06 63.8347 279.201 64.144C280.3 64.432 281.254 64.7787 282.065 65.184C282.886 65.5893 283.526 66.1227 283.985 66.784C284.444 67.4453 284.673 68.2987 284.673 69.344C284.673 70.5387 284.332 71.5093 283.649 72.256C282.966 72.992 282.081 73.5307 280.993 73.872C279.916 74.2027 278.774 74.368 277.569 74.368C276.044 74.368 274.742 74.1493 273.665 73.712C272.598 73.264 271.702 72.7253 270.977 72.096L272.513 70.32C273.174 70.864 273.932 71.3067 274.785 71.648C275.649 71.9787 276.577 72.144 277.569 72.144ZM293.141 66.528C293.194 67.8293 293.445 68.896 293.893 69.728C294.341 70.5493 294.933 71.1573 295.669 71.552C296.405 71.936 297.205 72.128 298.069 72.128C298.933 72.128 299.711 72 300.405 71.744C301.109 71.488 301.829 71.1093 302.565 70.608L303.829 72.384C303.039 73.0027 302.138 73.488 301.125 73.84C300.122 74.192 299.093 74.368 298.037 74.368C296.405 74.368 295.013 74 293.861 73.264C292.709 72.528 291.829 71.504 291.221 70.192C290.623 68.8693 290.325 67.3387 290.325 65.6C290.325 63.8933 290.629 62.3787 291.237 61.056C291.845 59.7333 292.698 58.6933 293.797 57.936C294.895 57.1787 296.191 56.8 297.685 56.8C299.103 56.8 300.325 57.136 301.349 57.808C302.373 58.4693 303.157 59.4187 303.701 60.656C304.255 61.8827 304.533 63.3493 304.533 65.056C304.533 65.344 304.527 65.616 304.517 65.872C304.506 66.1173 304.49 66.336 304.469 66.528H293.141ZM297.717 59.008C296.469 59.008 295.423 59.4507 294.581 60.336C293.749 61.2213 293.274 62.592 293.157 64.448H301.941C301.909 62.6453 301.514 61.2907 300.757 60.384C299.999 59.4667 298.986 59.008 297.717 59.008ZM176.064 116V113.936H178.688V101.216H176.064V99.152H180.736L181.232 103.136C181.882 101.749 182.672 100.677 183.6 99.92C184.528 99.1627 185.754 98.784 187.28 98.784C187.749 98.784 188.165 98.8213 188.528 98.896C188.901 98.96 189.28 99.0453 189.664 99.152L188.88 101.552C188.528 101.456 188.208 101.387 187.92 101.344C187.632 101.291 187.301 101.264 186.928 101.264C185.637 101.264 184.528 101.723 183.6 102.64C182.672 103.557 181.93 104.944 181.376 106.8V113.936H184.8V116H176.064ZM187.072 104.848V101.184L187.344 99.152H189.664L189.28 104.848H187.072ZM197.203 108.528C197.256 109.829 197.507 110.896 197.955 111.728C198.403 112.549 198.995 113.157 199.731 113.552C200.467 113.936 201.267 114.128 202.131 114.128C202.995 114.128 203.774 114 204.467 113.744C205.171 113.488 205.891 113.109 206.627 112.608L207.891 114.384C207.102 115.003 206.2 115.488 205.187 115.84C204.184 116.192 203.155 116.368 202.099 116.368C200.467 116.368 199.075 116 197.923 115.264C196.771 114.528 195.891 113.504 195.283 112.192C194.686 110.869 194.387 109.339 194.387 107.6C194.387 105.893 194.691 104.379 195.299 103.056C195.907 101.733 196.76 100.693 197.859 99.936C198.958 99.1787 200.254 98.8 201.747 98.8C203.166 98.8 204.387 99.136 205.411 99.808C206.435 100.469 207.219 101.419 207.763 102.656C208.318 103.883 208.595 105.349 208.595 107.056C208.595 107.344 208.59 107.616 208.579 107.872C208.568 108.117 208.552 108.336 208.531 108.528H197.203ZM201.779 101.008C200.531 101.008 199.486 101.451 198.643 102.336C197.811 103.221 197.336 104.592 197.219 106.448H206.003C205.971 104.645 205.576 103.291 204.819 102.384C204.062 101.467 203.048 101.008 201.779 101.008ZM220.007 114.144C221.297 114.144 222.316 113.904 223.063 113.424C223.82 112.933 224.199 112.283 224.199 111.472C224.199 110.96 224.103 110.517 223.911 110.144C223.729 109.771 223.351 109.435 222.775 109.136C222.199 108.837 221.313 108.539 220.119 108.24C218.956 107.952 217.943 107.621 217.079 107.248C216.225 106.864 215.559 106.368 215.079 105.76C214.609 105.152 214.375 104.363 214.375 103.392C214.375 102.443 214.641 101.627 215.174 100.944C215.719 100.251 216.471 99.7227 217.431 99.36C218.391 98.9867 219.505 98.8 220.775 98.8C222.129 98.8 223.308 98.9813 224.311 99.344C225.324 99.696 226.183 100.133 226.887 100.656L225.703 102.48C225.063 102.043 224.359 101.685 223.591 101.408C222.823 101.12 221.895 100.976 220.807 100.976C219.484 100.976 218.545 101.184 217.991 101.6C217.436 102.005 217.159 102.533 217.159 103.184C217.159 103.675 217.292 104.085 217.559 104.416C217.836 104.736 218.3 105.029 218.951 105.296C219.601 105.552 220.497 105.835 221.639 106.144C222.737 106.432 223.692 106.779 224.503 107.184C225.324 107.589 225.964 108.123 226.423 108.784C226.881 109.445 227.111 110.299 227.111 111.344C227.111 112.539 226.769 113.509 226.087 114.256C225.404 114.992 224.519 115.531 223.431 115.872C222.353 116.203 221.212 116.368 220.007 116.368C218.481 116.368 217.18 116.149 216.103 115.712C215.036 115.264 214.14 114.725 213.414 114.096L214.951 112.32C215.612 112.864 216.369 113.307 217.223 113.648C218.087 113.979 219.015 114.144 220.007 114.144ZM241.002 98.8C242.495 98.8 243.685 99.1627 244.57 99.888C245.466 100.613 246.111 101.637 246.506 102.96C246.901 104.272 247.098 105.808 247.098 107.568C247.098 109.264 246.858 110.779 246.378 112.112C245.909 113.435 245.194 114.475 244.234 115.232C243.274 115.989 242.063 116.368 240.602 116.368C238.757 116.368 237.274 115.717 236.154 114.416V122.448L233.466 122.784V99.152H235.754L235.978 101.504C236.597 100.64 237.333 99.9733 238.186 99.504C239.05 99.0347 239.989 98.8 241.002 98.8ZM240.362 100.96C239.434 100.96 238.613 101.243 237.898 101.808C237.194 102.363 236.613 102.981 236.154 103.664V112.016C236.591 112.667 237.141 113.184 237.802 113.568C238.474 113.941 239.21 114.128 240.01 114.128C241.407 114.128 242.458 113.595 243.162 112.528C243.866 111.461 244.218 109.803 244.218 107.552C244.218 106.08 244.079 104.859 243.802 103.888C243.525 102.907 243.103 102.176 242.538 101.696C241.973 101.205 241.247 100.96 240.362 100.96ZM259.07 98.8C260.659 98.8 261.987 99.1627 263.054 99.888C264.131 100.603 264.936 101.616 265.47 102.928C266.014 104.24 266.286 105.787 266.286 107.568C266.286 109.285 266.008 110.805 265.454 112.128C264.899 113.451 264.083 114.491 263.006 115.248C261.939 115.995 260.616 116.368 259.038 116.368C257.459 116.368 256.131 116.005 255.054 115.28C253.976 114.555 253.16 113.536 252.606 112.224C252.062 110.901 251.789 109.36 251.789 107.6C251.789 105.861 252.067 104.331 252.622 103.008C253.176 101.685 253.992 100.656 255.07 99.92C256.158 99.1733 257.491 98.8 259.07 98.8ZM259.07 100.992C257.619 100.992 256.52 101.531 255.774 102.608C255.038 103.675 254.67 105.339 254.67 107.6C254.67 109.819 255.032 111.467 255.758 112.544C256.494 113.621 257.587 114.16 259.038 114.16C260.488 114.16 261.576 113.621 262.302 112.544C263.038 111.467 263.406 109.808 263.406 107.568C263.406 105.328 263.043 103.675 262.318 102.608C261.592 101.531 260.51 100.992 259.07 100.992ZM271.841 116V99.152H274.129L274.337 101.488C275.02 100.624 275.873 99.9627 276.897 99.504C277.932 99.0347 278.934 98.8 279.905 98.8C281.558 98.8 282.758 99.2373 283.505 100.112C284.262 100.987 284.641 102.203 284.641 103.76V116H281.953V105.744C281.953 104.592 281.889 103.664 281.761 102.96C281.633 102.245 281.366 101.728 280.961 101.408C280.556 101.077 279.926 100.912 279.073 100.912C278.412 100.912 277.788 101.056 277.201 101.344C276.625 101.632 276.108 101.995 275.649 102.432C275.201 102.859 274.828 103.291 274.529 103.728V116H271.841ZM296.757 114.144C298.047 114.144 299.066 113.904 299.813 113.424C300.57 112.933 300.949 112.283 300.949 111.472C300.949 110.96 300.853 110.517 300.661 110.144C300.479 109.771 300.101 109.435 299.525 109.136C298.949 108.837 298.063 108.539 296.869 108.24C295.706 107.952 294.693 107.621 293.829 107.248C292.975 106.864 292.309 106.368 291.829 105.76C291.359 105.152 291.125 104.363 291.125 103.392C291.125 102.443 291.391 101.627 291.924 100.944C292.469 100.251 293.221 99.7227 294.181 99.36C295.141 98.9867 296.255 98.8 297.525 98.8C298.879 98.8 300.058 98.9813 301.061 99.344C302.074 99.696 302.933 100.133 303.637 100.656L302.453 102.48C301.813 102.043 301.109 101.685 300.341 101.408C299.573 101.12 298.645 100.976 297.557 100.976C296.234 100.976 295.295 101.184 294.741 101.6C294.186 102.005 293.909 102.533 293.909 103.184C293.909 103.675 294.042 104.085 294.309 104.416C294.586 104.736 295.05 105.029 295.701 105.296C296.351 105.552 297.247 105.835 298.389 106.144C299.487 106.432 300.442 106.779 301.253 107.184C302.074 107.589 302.714 108.123 303.173 108.784C303.631 109.445 303.861 110.299 303.861 111.344C303.861 112.539 303.519 113.509 302.837 114.256C302.154 114.992 301.269 115.531 300.181 115.872C299.103 116.203 297.962 116.368 296.757 116.368C295.231 116.368 293.93 116.149 292.853 115.712C291.786 115.264 290.89 114.725 290.164 114.096L291.701 112.32C292.362 112.864 293.119 113.307 293.973 113.648C294.837 113.979 295.765 114.144 296.757 114.144ZM312.328 108.528C312.381 109.829 312.632 110.896 313.08 111.728C313.528 112.549 314.12 113.157 314.856 113.552C315.592 113.936 316.392 114.128 317.256 114.128C318.12 114.128 318.899 114 319.592 113.744C320.296 113.488 321.016 113.109 321.752 112.608L323.016 114.384C322.227 115.003 321.325 115.488 320.312 115.84C319.309 116.192 318.28 116.368 317.224 116.368C315.592 116.368 314.2 116 313.048 115.264C311.896 114.528 311.016 113.504 310.408 112.192C309.811 110.869 309.512 109.339 309.512 107.6C309.512 105.893 309.816 104.379 310.424 103.056C311.032 101.733 311.885 100.693 312.984 99.936C314.083 99.1787 315.379 98.8 316.872 98.8C318.291 98.8 319.512 99.136 320.536 99.808C321.56 100.469 322.344 101.419 322.888 102.656C323.443 103.883 323.72 105.349 323.72 107.056C323.72 107.344 323.715 107.616 323.704 107.872C323.693 108.117 323.677 108.336 323.656 108.528H312.328ZM316.904 101.008C315.656 101.008 314.611 101.451 313.768 102.336C312.936 103.221 312.461 104.592 312.344 106.448H321.128C321.096 104.645 320.701 103.291 319.944 102.384C319.187 101.467 318.173 101.008 316.904 101.008ZM477.092 115.152C476.516 115.536 475.817 115.835 474.996 116.048C474.175 116.261 473.369 116.368 472.58 116.368C470.767 116.368 469.369 115.893 468.388 114.944C467.407 113.995 466.916 112.773 466.916 111.28V101.232H463.044V99.152H466.916V95.328L469.604 95.008V99.152H475.428L475.108 101.232H469.604V111.248C469.604 112.187 469.849 112.901 470.34 113.392C470.841 113.883 471.668 114.128 472.82 114.128C473.449 114.128 474.031 114.053 474.564 113.904C475.097 113.755 475.593 113.563 476.052 113.328L477.092 115.152ZM483.064 116V113.936H485.688V101.216H483.064V99.152H487.736L488.232 103.136C488.882 101.749 489.672 100.677 490.6 99.92C491.528 99.1627 492.754 98.784 494.28 98.784C494.749 98.784 495.165 98.8213 495.528 98.896C495.901 98.96 496.28 99.0453 496.664 99.152L495.88 101.552C495.528 101.456 495.208 101.387 494.92 101.344C494.632 101.291 494.301 101.264 493.928 101.264C492.637 101.264 491.528 101.723 490.6 102.64C489.672 103.557 488.93 104.944 488.376 106.8V113.936H491.8V116H483.064ZM494.072 104.848V101.184L494.344 99.152H496.664L496.28 104.848H494.072ZM504.779 99.152V111.088C504.779 112.197 505.008 112.997 505.467 113.488C505.926 113.979 506.64 114.224 507.611 114.224C508.539 114.224 509.414 113.963 510.235 113.44C511.067 112.907 511.712 112.277 512.171 111.552V99.152H514.859V116H512.571L512.347 113.728C511.686 114.581 510.87 115.237 509.899 115.696C508.928 116.144 507.947 116.368 506.955 116.368C505.323 116.368 504.102 115.936 503.291 115.072C502.491 114.197 502.091 112.976 502.091 111.408V99.152H504.779ZM523.391 108.528C523.444 109.829 523.695 110.896 524.143 111.728C524.591 112.549 525.183 113.157 525.919 113.552C526.655 113.936 527.455 114.128 528.319 114.128C529.183 114.128 529.961 114 530.655 113.744C531.359 113.488 532.079 113.109 532.815 112.608L534.079 114.384C533.289 115.003 532.388 115.488 531.375 115.84C530.372 116.192 529.343 116.368 528.287 116.368C526.655 116.368 525.263 116 524.111 115.264C522.959 114.528 522.079 113.504 521.471 112.192C520.873 110.869 520.575 109.339 520.575 107.6C520.575 105.893 520.879 104.379 521.487 103.056C522.095 101.733 522.948 100.693 524.047 99.936C525.145 99.1787 526.441 98.8 527.935 98.8C529.353 98.8 530.575 99.136 531.599 99.808C532.623 100.469 533.407 101.419 533.951 102.656C534.505 103.883 534.783 105.349 534.783 107.056C534.783 107.344 534.777 107.616 534.767 107.872C534.756 108.117 534.74 108.336 534.719 108.528H523.391ZM527.967 101.008C526.719 101.008 525.673 101.451 524.831 102.336C523.999 103.221 523.524 104.592 523.407 106.448H532.191C532.159 104.645 531.764 103.291 531.007 102.384C530.249 101.467 529.236 101.008 527.967 101.008Z" fill="#977EFA"/>
</svg>
