<svg width="875" height="203" viewBox="0 0 875 203" fill="none" xmlns="http://www.w3.org/2000/svg">
<path d="M10.832 30.048C11.6747 30.048 12.4587 29.9093 13.184 29.632C13.92 29.3547 14.5973 29.0027 15.216 28.576L16.528 30.336C15.792 30.9653 14.9067 31.4613 13.872 31.824C12.8373 32.1867 11.824 32.368 10.832 32.368C9.15733 32.368 7.728 32.0107 6.544 31.296C5.37067 30.5707 4.47467 29.5573 3.856 28.256C3.23733 26.944 2.928 25.408 2.928 23.648C2.928 21.9627 3.23733 20.4533 3.856 19.12C4.48533 17.776 5.38667 16.72 6.56 15.952C7.744 15.184 9.17867 14.8 10.864 14.8C11.9413 14.8 12.9493 14.9653 13.888 15.296C14.8373 15.616 15.7067 16.1013 16.496 16.752L15.184 18.544C14.4693 18.0427 13.7493 17.6693 13.024 17.424C12.3093 17.168 11.5787 17.04 10.832 17.04C9.38133 17.04 8.18667 17.584 7.248 18.672C6.30933 19.76 5.84 21.4187 5.84 23.648C5.84 25.1413 6.05333 26.3627 6.48 27.312C6.91733 28.2507 7.50933 28.944 8.256 29.392C9.01333 29.8293 9.872 30.048 10.832 30.048ZM28.8195 14.8C30.4088 14.8 31.7368 15.1627 32.8035 15.888C33.8808 16.6027 34.6862 17.616 35.2195 18.928C35.7635 20.24 36.0355 21.7867 36.0355 23.568C36.0355 25.2853 35.7582 26.8053 35.2035 28.128C34.6488 29.4507 33.8328 30.4907 32.7555 31.248C31.6888 31.9947 30.3662 32.368 28.7875 32.368C27.2088 32.368 25.8808 32.0053 24.8035 31.28C23.7262 30.5547 22.9102 29.536 22.3555 28.224C21.8115 26.9013 21.5395 25.36 21.5395 23.6C21.5395 21.8613 21.8168 20.3307 22.3715 19.008C22.9262 17.6853 23.7422 16.656 24.8195 15.92C25.9075 15.1733 27.2408 14.8 28.8195 14.8ZM28.8195 16.992C27.3688 16.992 26.2702 17.5307 25.5235 18.608C24.7875 19.6747 24.4195 21.3387 24.4195 23.6C24.4195 25.8187 24.7822 27.4667 25.5075 28.544C26.2435 29.6213 27.3368 30.16 28.7875 30.16C30.2382 30.16 31.3262 29.6213 32.0515 28.544C32.7875 27.4667 33.1555 25.808 33.1555 23.568C33.1555 21.328 32.7928 19.6747 32.0675 18.608C31.3422 17.5307 30.2595 16.992 28.8195 16.992ZM41.591 32V15.152H43.879L44.087 17.488C44.7697 16.624 45.623 15.9627 46.647 15.504C47.6817 15.0347 48.6843 14.8 49.655 14.8C51.3083 14.8 52.5083 15.2373 53.255 16.112C54.0123 16.9867 54.391 18.2027 54.391 19.76V32H51.703V21.744C51.703 20.592 51.639 19.664 51.511 18.96C51.383 18.2453 51.1163 17.728 50.711 17.408C50.3057 17.0773 49.6763 16.912 48.823 16.912C48.1617 16.912 47.5377 17.056 46.951 17.344C46.375 17.632 45.8577 17.9947 45.399 18.432C44.951 18.8587 44.5777 19.2907 44.279 19.728V32H41.591ZM66.5065 30.144C67.7972 30.144 68.8158 29.904 69.5625 29.424C70.3198 28.9333 70.6985 28.2827 70.6985 27.472C70.6985 26.96 70.6025 26.5173 70.4105 26.144C70.2292 25.7707 69.8505 25.4347 69.2745 25.136C68.6985 24.8373 67.8132 24.5387 66.6185 24.24C65.4558 23.952 64.4425 23.6213 63.5785 23.248C62.7252 22.864 62.0585 22.368 61.5785 21.76C61.1092 21.152 60.8745 20.3627 60.8745 19.392C60.8745 18.4427 61.1412 17.6267 61.6745 16.944C62.2185 16.2507 62.9705 15.7227 63.9305 15.36C64.8905 14.9867 66.0052 14.8 67.2745 14.8C68.6292 14.8 69.8078 14.9813 70.8105 15.344C71.8238 15.696 72.6825 16.1333 73.3865 16.656L72.2025 18.48C71.5625 18.0427 70.8585 17.6853 70.0905 17.408C69.3225 17.12 68.3945 16.976 67.3065 16.976C65.9838 16.976 65.0452 17.184 64.4905 17.6C63.9358 18.0053 63.6585 18.5333 63.6585 19.184C63.6585 19.6747 63.7918 20.0853 64.0585 20.416C64.3358 20.736 64.7998 21.0293 65.4505 21.296C66.1012 21.552 66.9972 21.8347 68.1385 22.144C69.2372 22.432 70.1918 22.7787 71.0025 23.184C71.8238 23.5893 72.4638 24.1227 72.9225 24.784C73.3812 25.4453 73.6105 26.2987 73.6105 27.344C73.6105 28.5387 73.2692 29.5093 72.5865 30.256C71.9038 30.992 71.0185 31.5307 69.9305 31.872C68.8532 32.2027 67.7118 32.368 66.5065 32.368C64.9812 32.368 63.6798 32.1493 62.6025 31.712C61.5358 31.264 60.6398 30.7253 59.9145 30.096L61.4505 28.32C62.1118 28.864 62.8692 29.3067 63.7225 29.648C64.5865 29.9787 65.5145 30.144 66.5065 30.144ZM93.342 31.152C92.766 31.536 92.0673 31.8347 91.246 32.048C90.4247 32.2613 89.6193 32.368 88.83 32.368C87.0167 32.368 85.6193 31.8933 84.638 30.944C83.6567 29.9947 83.166 28.7733 83.166 27.28V17.232H79.294V15.152H83.166V11.328L85.854 11.008V15.152H91.678L91.358 17.232H85.854V27.248C85.854 28.1867 86.0993 28.9013 86.59 29.392C87.0913 29.8827 87.918 30.128 89.07 30.128C89.6993 30.128 90.2807 30.0533 90.814 29.904C91.3473 29.7547 91.8433 29.5627 92.302 29.328L93.342 31.152ZM371.555 29.76C371.555 29.0667 371.8 28.464 372.291 27.952C372.792 27.44 373.405 27.184 374.131 27.184C374.877 27.184 375.496 27.44 375.987 27.952C376.488 28.464 376.739 29.0667 376.739 29.76C376.739 30.4853 376.488 31.104 375.987 31.616C375.496 32.1173 374.877 32.368 374.131 32.368C373.405 32.368 372.792 32.1173 372.291 31.616C371.8 31.104 371.555 30.4853 371.555 29.76ZM371.555 18.224C371.555 17.7333 371.667 17.296 371.891 16.912C372.115 16.528 372.424 16.224 372.819 16C373.213 15.7653 373.651 15.648 374.131 15.648C374.877 15.648 375.496 15.8987 375.987 16.4C376.488 16.9013 376.739 17.5093 376.739 18.224C376.739 18.928 376.488 19.5413 375.987 20.064C375.496 20.576 374.877 20.832 374.131 20.832C373.405 20.832 372.792 20.576 372.291 20.064C371.8 19.5413 371.555 18.928 371.555 18.224ZM553.074 17.856V20.176H540.626V17.856H553.074ZM553.074 23.92V26.256H540.626V23.92H553.074ZM237.242 71.76C237.242 71.0667 237.487 70.464 237.978 69.952C238.479 69.44 239.093 69.184 239.818 69.184C240.565 69.184 241.183 69.44 241.674 69.952C242.175 70.464 242.426 71.0667 242.426 71.76C242.426 72.4853 242.175 73.104 241.674 73.616C241.183 74.1173 240.565 74.368 239.818 74.368C239.093 74.368 238.479 74.1173 237.978 73.616C237.487 73.104 237.242 72.4853 237.242 71.76ZM237.242 60.224C237.242 59.7333 237.354 59.296 237.578 58.912C237.802 58.528 238.111 58.224 238.506 58C238.901 57.7653 239.338 57.648 239.818 57.648C240.565 57.648 241.183 57.8987 241.674 58.4C242.175 58.9013 242.426 59.5093 242.426 60.224C242.426 60.928 242.175 61.5413 241.674 62.064C241.183 62.576 240.565 62.832 239.818 62.832C239.093 62.832 238.479 62.576 237.978 62.064C237.487 61.5413 237.242 60.928 237.242 60.224ZM274.513 77.696V47.904H282.529V50.224H277.057V75.408H282.529V77.696H274.513ZM301.125 47.904V77.696H293.109V75.424H298.581V50.224H293.109V47.904H301.125ZM198.867 113.76C198.867 113.067 199.112 112.464 199.603 111.952C200.104 111.44 200.718 111.184 201.443 111.184C202.19 111.184 202.808 111.44 203.299 111.952C203.8 112.464 204.051 113.067 204.051 113.76C204.051 114.485 203.8 115.104 203.299 115.616C202.808 116.117 202.19 116.368 201.443 116.368C200.718 116.368 200.104 116.117 199.603 115.616C199.112 115.104 198.867 114.485 198.867 113.76ZM198.867 102.224C198.867 101.733 198.979 101.296 199.203 100.912C199.427 100.528 199.736 100.224 200.131 100C200.526 99.7653 200.963 99.648 201.443 99.648C202.19 99.648 202.808 99.8987 203.299 100.4C203.8 100.901 204.051 101.509 204.051 102.224C204.051 102.928 203.8 103.541 203.299 104.064C202.808 104.576 202.19 104.832 201.443 104.832C200.718 104.832 200.104 104.576 199.603 104.064C199.112 103.541 198.867 102.928 198.867 102.224Z" fill="#DA68BA"/>
<path d="M590.073 5.264V7.376C589.294 7.376 588.585 7.456 587.945 7.616C587.316 7.76533 586.825 8.02667 586.473 8.4C586.132 8.77333 585.988 9.28533 586.041 9.936L586.713 16.496C586.809 17.392 586.756 18.1333 586.553 18.72C586.35 19.3067 586.009 19.7653 585.529 20.096C585.06 20.4267 584.457 20.6613 583.721 20.8C584.468 20.928 585.081 21.152 585.561 21.472C586.041 21.7813 586.377 22.2293 586.569 22.816C586.761 23.392 586.809 24.1547 586.713 25.104L586.041 31.664C585.988 32.3253 586.132 32.8427 586.473 33.216C586.814 33.5893 587.305 33.8507 587.945 34C588.585 34.1493 589.294 34.224 590.073 34.224V36.336C589.177 36.336 588.318 36.256 587.497 36.096C586.676 35.9467 585.95 35.6853 585.321 35.312C584.692 34.9387 584.217 34.4267 583.897 33.776C583.577 33.136 583.47 32.3253 583.577 31.344L584.217 25.264C584.302 24.528 584.233 23.9093 584.009 23.408C583.796 22.9067 583.326 22.528 582.601 22.272C581.886 22.0053 580.814 21.872 579.385 21.872V19.728C580.814 19.728 581.886 19.6 582.601 19.344C583.326 19.088 583.796 18.7093 584.009 18.208C584.233 17.7067 584.302 17.0933 584.217 16.368L583.577 10.256C583.47 9.27467 583.577 8.464 583.897 7.824C584.217 7.17333 584.686 6.66133 585.305 6.288C585.934 5.91467 586.66 5.65333 587.481 5.504C588.313 5.344 589.177 5.264 590.073 5.264ZM66.5065 72.144C67.7972 72.144 68.8158 71.904 69.5625 71.424C70.3198 70.9333 70.6985 70.2827 70.6985 69.472C70.6985 68.96 70.6025 68.5173 70.4105 68.144C70.2292 67.7707 69.8505 67.4347 69.2745 67.136C68.6985 66.8373 67.8132 66.5387 66.6185 66.24C65.4558 65.952 64.4425 65.6213 63.5785 65.248C62.7252 64.864 62.0585 64.368 61.5785 63.76C61.1092 63.152 60.8745 62.3627 60.8745 61.392C60.8745 60.4427 61.1412 59.6267 61.6745 58.944C62.2185 58.2507 62.9705 57.7227 63.9305 57.36C64.8905 56.9867 66.0052 56.8 67.2745 56.8C68.6292 56.8 69.8078 56.9813 70.8105 57.344C71.8238 57.696 72.6825 58.1333 73.3865 58.656L72.2025 60.48C71.5625 60.0427 70.8585 59.6853 70.0905 59.408C69.3225 59.12 68.3945 58.976 67.3065 58.976C65.9838 58.976 65.0452 59.184 64.4905 59.6C63.9358 60.0053 63.6585 60.5333 63.6585 61.184C63.6585 61.6747 63.7918 62.0853 64.0585 62.416C64.3358 62.736 64.7998 63.0293 65.4505 63.296C66.1012 63.552 66.9972 63.8347 68.1385 64.144C69.2372 64.432 70.1918 64.7787 71.0025 65.184C71.8238 65.5893 72.4638 66.1227 72.9225 66.784C73.3812 67.4453 73.6105 68.2987 73.6105 69.344C73.6105 70.5387 73.2692 71.5093 72.5865 72.256C71.9038 72.992 71.0185 73.5307 69.9305 73.872C68.8532 74.2027 67.7118 74.368 66.5065 74.368C64.9812 74.368 63.6798 74.1493 62.6025 73.712C61.5358 73.264 60.6398 72.7253 59.9145 72.096L61.4505 70.32C62.1118 70.864 62.8692 71.3067 63.7225 71.648C64.5865 71.9787 65.5145 72.144 66.5065 72.144ZM86.382 56.8C87.9713 56.8 89.2993 57.1627 90.366 57.888C91.4433 58.6027 92.2487 59.616 92.782 60.928C93.326 62.24 93.598 63.7867 93.598 65.568C93.598 67.2853 93.3207 68.8053 92.766 70.128C92.2113 71.4507 91.3953 72.4907 90.318 73.248C89.2513 73.9947 87.9287 74.368 86.35 74.368C84.7713 74.368 83.4433 74.0053 82.366 73.28C81.2887 72.5547 80.4727 71.536 79.918 70.224C79.374 68.9013 79.102 67.36 79.102 65.6C79.102 63.8613 79.3793 62.3307 79.934 61.008C80.4887 59.6853 81.3047 58.656 82.382 57.92C83.47 57.1733 84.8033 56.8 86.382 56.8ZM86.382 58.992C84.9313 58.992 83.8327 59.5307 83.086 60.608C82.35 61.6747 81.982 63.3387 81.982 65.6C81.982 67.8187 82.3447 69.4667 83.07 70.544C83.806 71.6213 84.8993 72.16 86.35 72.16C87.8007 72.16 88.8887 71.6213 89.614 70.544C90.35 69.4667 90.718 67.808 90.718 65.568C90.718 63.328 90.3553 61.6747 89.63 60.608C88.9047 59.5307 87.822 58.992 86.382 58.992ZM110.258 56.8C110.802 56.8 111.319 56.9173 111.81 57.152C112.311 57.3867 112.722 57.84 113.042 58.512C113.362 59.184 113.522 60.1653 113.522 61.456V74H111.026V61.888C111.026 60.832 110.962 60.0693 110.834 59.6C110.706 59.1307 110.338 58.896 109.73 58.896C109.228 58.896 108.727 59.056 108.226 59.376C107.735 59.6853 107.255 60.1973 106.786 60.912V74H104.274V61.888C104.274 60.832 104.21 60.0693 104.082 59.6C103.954 59.1307 103.586 58.896 102.978 58.896C102.455 58.896 101.948 59.056 101.458 59.376C100.978 59.6853 100.503 60.1973 100.034 60.912V74H97.5535V57.152H99.6655L99.8255 59.104C100.284 58.4533 100.796 57.9093 101.362 57.472C101.938 57.024 102.647 56.8 103.49 56.8C104.13 56.8 104.732 56.9547 105.298 57.264C105.863 57.5627 106.279 58.1493 106.546 59.024C107.004 58.3627 107.522 57.8293 108.098 57.424C108.674 57.008 109.394 56.8 110.258 56.8ZM120.453 66.528C120.506 67.8293 120.757 68.896 121.205 69.728C121.653 70.5493 122.245 71.1573 122.981 71.552C123.717 71.936 124.517 72.128 125.381 72.128C126.245 72.128 127.024 72 127.717 71.744C128.421 71.488 129.141 71.1093 129.877 70.608L131.141 72.384C130.352 73.0027 129.45 73.488 128.437 73.84C127.434 74.192 126.405 74.368 125.349 74.368C123.717 74.368 122.325 74 121.173 73.264C120.021 72.528 119.141 71.504 118.533 70.192C117.936 68.8693 117.637 67.3387 117.637 65.6C117.637 63.8933 117.941 62.3787 118.549 61.056C119.157 59.7333 120.01 58.6933 121.109 57.936C122.208 57.1787 123.504 56.8 124.997 56.8C126.416 56.8 127.637 57.136 128.661 57.808C129.685 58.4693 130.469 59.4187 131.013 60.656C131.568 61.8827 131.845 63.3493 131.845 65.056C131.845 65.344 131.84 65.616 131.829 65.872C131.818 66.1173 131.802 66.336 131.781 66.528H120.453ZM125.029 59.008C123.781 59.008 122.736 59.4507 121.893 60.336C121.061 61.2213 120.586 62.592 120.469 64.448H129.253C129.221 62.6453 128.826 61.2907 128.069 60.384C127.312 59.4667 126.298 59.008 125.029 59.008ZM150.905 73.152C150.329 73.536 149.63 73.8347 148.809 74.048C147.987 74.2613 147.182 74.368 146.393 74.368C144.579 74.368 143.182 73.8933 142.201 72.944C141.219 71.9947 140.729 70.7733 140.729 69.28V59.232H136.857V57.152H140.729V53.328L143.417 53.008V57.152H149.241L148.921 59.232H143.417V69.248C143.417 70.1867 143.662 70.9013 144.153 71.392C144.654 71.8827 145.481 72.128 146.633 72.128C147.262 72.128 147.843 72.0533 148.377 71.904C148.91 71.7547 149.406 71.5627 149.865 71.328L150.905 73.152ZM159.404 50.112V59.456C160.065 58.5707 160.876 57.9093 161.836 57.472C162.807 57.024 163.788 56.8 164.78 56.8C166.423 56.8 167.623 57.2373 168.38 58.112C169.137 58.9867 169.516 60.2027 169.516 61.76V74H166.828V61.824C166.828 60.8107 166.593 60.0747 166.124 59.616C165.655 59.1467 164.919 58.912 163.916 58.912C163.276 58.912 162.668 59.056 162.092 59.344C161.516 59.632 160.999 59.9893 160.54 60.416C160.081 60.8427 159.703 61.28 159.404 61.728V74H156.716V50.4L159.404 50.112ZM184.432 57.152V71.872H189.184V74H176.544V71.872H181.744V59.28H176.704V57.152H184.432ZM182.288 49.264C182.885 49.264 183.36 49.4453 183.712 49.808C184.074 50.1707 184.256 50.6133 184.256 51.136C184.256 51.68 184.074 52.1387 183.712 52.512C183.36 52.8747 182.885 53.056 182.288 53.056C181.722 53.056 181.258 52.8747 180.896 52.512C180.533 52.1387 180.352 51.68 180.352 51.136C180.352 50.6133 180.533 50.1707 180.896 49.808C181.258 49.4453 181.722 49.264 182.288 49.264ZM195.091 74V57.152H197.379L197.587 59.488C198.27 58.624 199.123 57.9627 200.147 57.504C201.182 57.0347 202.184 56.8 203.155 56.8C204.808 56.8 206.008 57.2373 206.755 58.112C207.512 58.9867 207.891 60.2027 207.891 61.76V74H205.203V63.744C205.203 62.592 205.139 61.664 205.011 60.96C204.883 60.2453 204.616 59.728 204.211 59.408C203.806 59.0773 203.176 58.912 202.323 58.912C201.662 58.912 201.038 59.056 200.451 59.344C199.875 59.632 199.358 59.9947 198.899 60.432C198.451 60.8587 198.078 61.2907 197.779 61.728V74H195.091ZM227.975 55.36L228.807 57.888C228.092 58.112 227.329 58.2507 226.519 58.304C225.708 58.3573 224.828 58.384 223.879 58.384C224.849 58.832 225.58 59.4133 226.071 60.128C226.561 60.832 226.807 61.664 226.807 62.624C226.807 63.7333 226.556 64.72 226.055 65.584C225.553 66.448 224.828 67.1253 223.879 67.616C222.94 68.1067 221.804 68.352 220.47 68.352C219.905 68.352 219.431 68.3253 219.047 68.272C218.673 68.2187 218.311 68.1387 217.959 68.032C217.703 68.2027 217.489 68.4373 217.319 68.736C217.159 69.0347 217.079 69.344 217.079 69.664C217.079 70.0693 217.239 70.4053 217.559 70.672C217.879 70.9387 218.471 71.072 219.335 71.072H222.375C223.505 71.072 224.519 71.2747 225.415 71.68C226.321 72.0853 227.031 72.6293 227.543 73.312C228.065 73.9947 228.326 74.7733 228.326 75.648C228.326 77.3013 227.623 78.5707 226.215 79.456C224.817 80.3413 222.839 80.784 220.279 80.784C218.487 80.784 217.073 80.5973 216.039 80.224C215.004 79.8613 214.263 79.3013 213.815 78.544C213.377 77.7973 213.159 76.8533 213.159 75.712H215.591C215.591 76.3627 215.719 76.9013 215.975 77.328C216.231 77.7547 216.695 78.0693 217.367 78.272C218.039 78.4853 219.004 78.592 220.263 78.592C221.5 78.592 222.508 78.4853 223.287 78.272C224.076 78.0693 224.657 77.76 225.031 77.344C225.415 76.9387 225.607 76.432 225.607 75.824C225.607 75.024 225.244 74.4213 224.519 74.016C223.793 73.6107 222.887 73.408 221.799 73.408H218.791C217.34 73.408 216.268 73.088 215.575 72.448C214.892 71.808 214.551 71.072 214.551 70.24C214.551 69.696 214.705 69.168 215.015 68.656C215.335 68.144 215.799 67.6907 216.407 67.296C215.436 66.784 214.721 66.1493 214.263 65.392C213.804 64.6347 213.575 63.7173 213.575 62.64C213.575 61.4987 213.857 60.4907 214.423 59.616C214.988 58.7307 215.777 58.0373 216.791 57.536C217.804 57.0347 218.972 56.784 220.295 56.784C221.713 56.7733 222.865 56.7147 223.751 56.608C224.636 56.4907 225.393 56.3253 226.023 56.112C226.663 55.8987 227.313 55.648 227.975 55.36ZM220.295 58.752C218.94 58.752 217.937 59.12 217.287 59.856C216.647 60.5813 216.327 61.5093 216.327 62.64C216.327 63.7813 216.657 64.72 217.319 65.456C217.98 66.192 218.993 66.56 220.359 66.56C221.553 66.56 222.46 66.2133 223.079 65.52C223.708 64.8267 224.023 63.8613 224.023 62.624C224.023 61.3547 223.708 60.3947 223.079 59.744C222.46 59.0827 221.532 58.752 220.295 58.752ZM316.6 68.736C317.336 68.736 317.949 68.9867 318.44 69.488C318.941 69.9893 319.192 70.592 319.192 71.296C319.192 71.68 319.144 72.0693 319.048 72.464C318.963 72.8587 318.803 73.3067 318.568 73.808L315.976 79.744H313.544L315.08 73.424C314.76 73.1893 314.504 72.8853 314.312 72.512C314.131 72.128 314.04 71.7227 314.04 71.296C314.04 70.5813 314.285 69.9787 314.776 69.488C315.267 68.9867 315.875 68.736 316.6 68.736ZM67.3385 92.368V111.84C67.3385 112.672 67.5945 113.264 68.1065 113.616C68.6292 113.957 69.3012 114.128 70.1225 114.128C70.6345 114.128 71.1198 114.075 71.5785 113.968C72.0372 113.861 72.4958 113.717 72.9545 113.536L73.6745 115.504C73.2158 115.728 72.6452 115.925 71.9625 116.096C71.2905 116.277 70.5278 116.368 69.6745 116.368C68.1812 116.368 66.9705 115.957 66.0425 115.136C65.1145 114.304 64.6505 113.157 64.6505 111.696V94.496H59.4825V92.368H67.3385ZM86.382 98.8C87.9713 98.8 89.2993 99.1627 90.366 99.888C91.4433 100.603 92.2487 101.616 92.782 102.928C93.326 104.24 93.598 105.787 93.598 107.568C93.598 109.285 93.3207 110.805 92.766 112.128C92.2113 113.451 91.3953 114.491 90.318 115.248C89.2513 115.995 87.9287 116.368 86.35 116.368C84.7713 116.368 83.4433 116.005 82.366 115.28C81.2887 114.555 80.4727 113.536 79.918 112.224C79.374 110.901 79.102 109.36 79.102 107.6C79.102 105.861 79.3793 104.331 79.934 103.008C80.4887 101.685 81.3047 100.656 82.382 99.92C83.47 99.1733 84.8033 98.8 86.382 98.8ZM86.382 100.992C84.9313 100.992 83.8327 101.531 83.086 102.608C82.35 103.675 81.982 105.339 81.982 107.6C81.982 109.819 82.3447 111.467 83.07 112.544C83.806 113.621 84.8993 114.16 86.35 114.16C87.8007 114.16 88.8887 113.621 89.614 112.544C90.35 111.467 90.718 109.808 90.718 107.568C90.718 105.328 90.3553 103.675 89.63 102.608C88.9047 101.531 87.822 100.992 86.382 100.992ZM111.218 112.32C111.218 112.992 111.33 113.483 111.554 113.792C111.778 114.101 112.124 114.331 112.594 114.48L111.938 116.368C111.212 116.272 110.578 116.043 110.034 115.68C109.49 115.307 109.095 114.747 108.85 114C108.242 114.779 107.484 115.371 106.578 115.776C105.671 116.171 104.668 116.368 103.57 116.368C101.884 116.368 100.556 115.893 99.5855 114.944C98.6148 113.995 98.1295 112.736 98.1295 111.168C98.1295 109.429 98.8068 108.096 100.161 107.168C101.516 106.24 103.474 105.776 106.034 105.776H108.514V104.368C108.514 103.152 108.156 102.293 107.442 101.792C106.738 101.28 105.756 101.024 104.498 101.024C103.943 101.024 103.292 101.093 102.546 101.232C101.799 101.36 100.988 101.579 100.114 101.888L99.4095 99.856C100.444 99.472 101.415 99.2 102.322 99.04C103.228 98.88 104.092 98.8 104.914 98.8C107.015 98.8 108.588 99.2907 109.634 100.272C110.69 101.243 111.218 102.565 111.218 104.24V112.32ZM104.258 114.32C105.09 114.32 105.884 114.112 106.642 113.696C107.399 113.269 108.023 112.683 108.514 111.936V107.6H106.082C104.226 107.6 102.914 107.92 102.146 108.56C101.388 109.2 101.01 110.059 101.01 111.136C101.01 112.181 101.276 112.976 101.81 113.52C102.354 114.053 103.17 114.32 104.258 114.32ZM128.421 92.032L131.109 92.368V116H128.757L128.501 113.776C127.872 114.672 127.146 115.328 126.325 115.744C125.514 116.16 124.645 116.368 123.717 116.368C122.256 116.368 121.05 116 120.101 115.264C119.152 114.528 118.448 113.504 117.989 112.192C117.53 110.869 117.301 109.339 117.301 107.6C117.301 105.915 117.562 104.411 118.085 103.088C118.608 101.755 119.36 100.709 120.341 99.952C121.333 99.184 122.522 98.8 123.909 98.8C124.88 98.8 125.733 98.9707 126.469 99.312C127.205 99.6427 127.856 100.133 128.421 100.784V92.032ZM124.613 100.96C123.205 100.96 122.122 101.509 121.365 102.608C120.608 103.707 120.229 105.371 120.229 107.6C120.229 109.051 120.384 110.267 120.693 111.248C121.002 112.229 121.456 112.965 122.053 113.456C122.661 113.947 123.402 114.192 124.277 114.192C125.237 114.192 126.053 113.92 126.725 113.376C127.408 112.832 127.973 112.219 128.421 111.536V103.12C127.962 102.437 127.408 101.909 126.757 101.536C126.106 101.152 125.392 100.96 124.613 100.96ZM146.057 99.152V113.872H150.809V116H138.169V113.872H143.369V101.28H138.329V99.152H146.057ZM143.913 91.264C144.51 91.264 144.985 91.4453 145.337 91.808C145.699 92.1707 145.881 92.6133 145.881 93.136C145.881 93.68 145.699 94.1387 145.337 94.512C144.985 94.8747 144.51 95.056 143.913 95.056C143.347 95.056 142.883 94.8747 142.521 94.512C142.158 94.1387 141.977 93.68 141.977 93.136C141.977 92.6133 142.158 92.1707 142.521 91.808C142.883 91.4453 143.347 91.264 143.913 91.264ZM156.716 116V99.152H159.004L159.212 101.488C159.895 100.624 160.748 99.9627 161.772 99.504C162.807 99.0347 163.809 98.8 164.78 98.8C166.433 98.8 167.633 99.2373 168.38 100.112C169.137 100.987 169.516 102.203 169.516 103.76V116H166.828V105.744C166.828 104.592 166.764 103.664 166.636 102.96C166.508 102.245 166.241 101.728 165.836 101.408C165.431 101.077 164.801 100.912 163.948 100.912C163.287 100.912 162.663 101.056 162.076 101.344C161.5 101.632 160.983 101.995 160.524 102.432C160.076 102.859 159.703 103.291 159.404 103.728V116H156.716ZM189.6 97.36L190.432 99.888C189.717 100.112 188.954 100.251 188.144 100.304C187.333 100.357 186.453 100.384 185.504 100.384C186.474 100.832 187.205 101.413 187.696 102.128C188.186 102.832 188.432 103.664 188.432 104.624C188.432 105.733 188.181 106.72 187.68 107.584C187.178 108.448 186.453 109.125 185.504 109.616C184.565 110.107 183.429 110.352 182.095 110.352C181.53 110.352 181.056 110.325 180.672 110.272C180.298 110.219 179.936 110.139 179.584 110.032C179.328 110.203 179.114 110.437 178.944 110.736C178.784 111.035 178.704 111.344 178.704 111.664C178.704 112.069 178.864 112.405 179.184 112.672C179.504 112.939 180.096 113.072 180.96 113.072H184C185.13 113.072 186.144 113.275 187.04 113.68C187.946 114.085 188.656 114.629 189.168 115.312C189.69 115.995 189.951 116.773 189.951 117.648C189.951 119.301 189.248 120.571 187.84 121.456C186.442 122.341 184.464 122.784 181.904 122.784C180.112 122.784 178.698 122.597 177.664 122.224C176.629 121.861 175.888 121.301 175.44 120.544C175.002 119.797 174.784 118.853 174.784 117.712H177.216C177.216 118.363 177.344 118.901 177.6 119.328C177.856 119.755 178.32 120.069 178.992 120.272C179.664 120.485 180.629 120.592 181.888 120.592C183.125 120.592 184.133 120.485 184.912 120.272C185.701 120.069 186.282 119.76 186.656 119.344C187.04 118.939 187.232 118.432 187.232 117.824C187.232 117.024 186.869 116.421 186.144 116.016C185.418 115.611 184.512 115.408 183.424 115.408H180.416C178.965 115.408 177.893 115.088 177.2 114.448C176.517 113.808 176.176 113.072 176.176 112.24C176.176 111.696 176.33 111.168 176.64 110.656C176.96 110.144 177.424 109.691 178.032 109.296C177.061 108.784 176.346 108.149 175.888 107.392C175.429 106.635 175.2 105.717 175.2 104.64C175.2 103.499 175.482 102.491 176.048 101.616C176.613 100.731 177.402 100.037 178.416 99.536C179.429 99.0347 180.597 98.784 181.92 98.784C183.338 98.7733 184.49 98.7147 185.376 98.608C186.261 98.4907 187.018 98.3253 187.648 98.112C188.288 97.8987 188.938 97.648 189.6 97.36ZM181.92 100.752C180.565 100.752 179.562 101.12 178.912 101.856C178.272 102.581 177.952 103.509 177.952 104.64C177.952 105.781 178.282 106.72 178.944 107.456C179.605 108.192 180.618 108.56 181.984 108.56C183.178 108.56 184.085 108.213 184.704 107.52C185.333 106.827 185.648 105.861 185.648 104.624C185.648 103.355 185.333 102.395 184.704 101.744C184.085 101.083 183.157 100.752 181.92 100.752ZM316.6 110.736C317.336 110.736 317.949 110.987 318.44 111.488C318.941 111.989 319.192 112.592 319.192 113.296C319.192 113.68 319.144 114.069 319.048 114.464C318.963 114.859 318.803 115.307 318.568 115.808L315.976 121.744H313.544L315.08 115.424C314.76 115.189 314.504 114.885 314.312 114.512C314.131 114.128 314.04 113.723 314.04 113.296C314.04 112.581 314.285 111.979 314.776 111.488C315.267 110.987 315.875 110.736 316.6 110.736ZM4.752 131.264C5.648 131.264 6.50667 131.344 7.328 131.504C8.14933 131.653 8.87467 131.915 9.504 132.288C10.1333 132.661 10.608 133.173 10.928 133.824C11.2587 134.464 11.3653 135.275 11.248 136.256L10.608 142.368C10.5227 143.093 10.6133 143.707 10.88 144.208C11.1573 144.709 11.6587 145.088 12.384 145.344C13.1093 145.6 14.128 145.728 15.44 145.728V147.872C14.1387 147.872 13.12 148.005 12.384 148.272C11.6587 148.528 11.1573 148.907 10.88 149.408C10.6133 149.909 10.5227 150.528 10.608 151.264L11.248 157.344C11.3547 158.325 11.248 159.136 10.928 159.776C10.608 160.427 10.1333 160.939 9.504 161.312C8.88533 161.685 8.16 161.947 7.328 162.096C6.50667 162.256 5.648 162.336 4.752 162.336V160.224C5.53067 160.224 6.23467 160.149 6.864 160C7.504 159.851 8 159.589 8.352 159.216C8.704 158.843 8.848 158.325 8.784 157.664L8.112 151.104C8.016 150.155 8.06933 149.392 8.272 148.816C8.47467 148.229 8.83733 147.781 9.36 147.472C9.89333 147.163 10.592 146.949 11.456 146.832C10.624 146.693 9.94133 146.453 9.408 146.112C8.88533 145.771 8.51733 145.307 8.304 144.72C8.09067 144.133 8.02667 143.392 8.112 142.496L8.784 135.936C8.848 135.285 8.704 134.773 8.352 134.4C8 134.027 7.50933 133.765 6.88 133.616C6.25067 133.456 5.54133 133.376 4.752 133.376V131.264Z" fill="white"/>
<path d="M131.029 9.968V12.192H126.133V29.776H131.029V32H118.421V29.776H123.317V12.192H118.421V9.968H131.029ZM146.953 32L139.193 12.624C139.203 12.8693 139.225 13.28 139.257 13.856C139.299 14.4213 139.342 15.0987 139.385 15.888C139.438 16.6667 139.481 17.4933 139.513 18.368C139.545 19.2427 139.561 20.1067 139.561 20.96V32H136.985V9.968H140.745L148.633 29.424C148.622 29.1147 148.585 28.5493 148.521 27.728C148.457 26.896 148.398 25.8933 148.345 24.72C148.291 23.5467 148.265 22.304 148.265 20.992V9.968H150.84V32H146.953ZM169.404 9.968V12.192H164.508V29.776H169.404V32H156.796V29.776H161.692V12.192H156.796V9.968H169.404ZM183.616 12.352V32H180.848V12.352H173.968V9.968H190.592L190.304 12.352H183.616ZM207.779 9.968V12.192H202.883V29.776H207.779V32H195.171V29.776H200.067V12.192H195.171V9.968H207.779ZM224.935 26.384H216.215L214.455 32H211.719L218.887 9.968H222.439L229.607 32H226.695L224.935 26.384ZM216.935 24.08H224.215L220.599 12.304L216.935 24.08ZM234.586 32V9.968H237.37V29.52H247.418L247.098 32H234.586ZM251.038 37.808V35.456H267.038V37.808H251.038ZM285.793 25.904C285.793 27.1627 285.478 28.2827 284.849 29.264C284.22 30.2347 283.308 30.9973 282.113 31.552C280.918 32.096 279.462 32.368 277.745 32.368C276.134 32.368 274.673 32.1227 273.361 31.632C272.06 31.1413 270.945 30.448 270.017 29.552L271.665 27.696C272.433 28.4107 273.313 28.9813 274.305 29.408C275.297 29.824 276.46 30.032 277.793 30.032C278.689 30.032 279.526 29.888 280.305 29.6C281.084 29.3013 281.713 28.8533 282.193 28.256C282.673 27.648 282.913 26.88 282.913 25.952C282.913 25.2373 282.774 24.6293 282.497 24.128C282.22 23.6267 281.729 23.184 281.025 22.8C280.321 22.4053 279.34 22.0213 278.081 21.648C276.63 21.2213 275.372 20.7413 274.305 20.208C273.249 19.664 272.428 18.9973 271.841 18.208C271.265 17.4187 270.977 16.4427 270.977 15.28C270.977 14.1813 271.281 13.2053 271.889 12.352C272.497 11.4987 273.334 10.832 274.401 10.352C275.478 9.86133 276.716 9.616 278.113 9.616C279.638 9.616 280.961 9.83467 282.081 10.272C283.212 10.6987 284.236 11.3173 285.153 12.128L283.521 13.936C282.732 13.232 281.884 12.7253 280.977 12.416C280.07 12.096 279.148 11.936 278.209 11.936C277.409 11.936 276.673 12.0587 276.001 12.304C275.34 12.5387 274.806 12.896 274.401 13.376C274.006 13.8453 273.809 14.448 273.809 15.184C273.809 15.8133 273.98 16.3573 274.321 16.816C274.662 17.2747 275.238 17.696 276.049 18.08C276.86 18.4533 277.964 18.848 279.361 19.264C280.502 19.5947 281.558 20.0107 282.529 20.512C283.51 21.0027 284.3 21.6747 284.897 22.528C285.494 23.3707 285.793 24.496 285.793 25.904ZM298.741 12.352V32H295.973V12.352H289.093V9.968H305.717L305.429 12.352H298.741ZM320.872 26.384H312.152L310.392 32H307.656L314.824 9.968H318.376L325.544 32H322.632L320.872 26.384ZM312.872 24.08H320.152L316.536 12.304L312.872 24.08ZM337.116 12.352V32H334.348V12.352H327.468V9.968H344.092L343.804 12.352H337.116ZM352.175 12.24V19.664H360.335V21.952H352.175V29.776H362.191V32H349.391V9.968H361.903L361.583 12.24H352.175ZM246.842 115.152C246.266 115.536 245.567 115.835 244.746 116.048C243.925 116.261 243.119 116.368 242.33 116.368C240.517 116.368 239.119 115.893 238.138 114.944C237.157 113.995 236.666 112.773 236.666 111.28V101.232H232.794V99.152H236.666V95.328L239.354 95.008V99.152H245.178L244.858 101.232H239.354V111.248C239.354 112.187 239.599 112.901 240.09 113.392C240.591 113.883 241.418 114.128 242.57 114.128C243.199 114.128 243.781 114.053 244.314 113.904C244.847 113.755 245.343 113.563 245.802 113.328L246.842 115.152ZM252.814 116V113.936H255.438V101.216H252.814V99.152H257.486L257.982 103.136C258.632 101.749 259.422 100.677 260.35 99.92C261.278 99.1627 262.504 98.784 264.03 98.784C264.499 98.784 264.915 98.8213 265.278 98.896C265.651 98.96 266.03 99.0453 266.414 99.152L265.63 101.552C265.278 101.456 264.958 101.387 264.67 101.344C264.382 101.291 264.051 101.264 263.678 101.264C262.387 101.264 261.278 101.723 260.35 102.64C259.422 103.557 258.68 104.944 258.126 106.8V113.936H261.55V116H252.814ZM263.822 104.848V101.184L264.094 99.152H266.414L266.03 104.848H263.822ZM274.529 99.152V111.088C274.529 112.197 274.758 112.997 275.217 113.488C275.676 113.979 276.39 114.224 277.361 114.224C278.289 114.224 279.164 113.963 279.985 113.44C280.817 112.907 281.462 112.277 281.921 111.552V99.152H284.609V116H282.321L282.097 113.728C281.436 114.581 280.62 115.237 279.649 115.696C278.678 116.144 277.697 116.368 276.705 116.368C275.073 116.368 273.852 115.936 273.041 115.072C272.241 114.197 271.841 112.976 271.841 111.408V99.152H274.529ZM293.141 108.528C293.194 109.829 293.445 110.896 293.893 111.728C294.341 112.549 294.933 113.157 295.669 113.552C296.405 113.936 297.205 114.128 298.069 114.128C298.933 114.128 299.711 114 300.405 113.744C301.109 113.488 301.829 113.109 302.565 112.608L303.829 114.384C303.039 115.003 302.138 115.488 301.125 115.84C300.122 116.192 299.093 116.368 298.037 116.368C296.405 116.368 295.013 116 293.861 115.264C292.709 114.528 291.829 113.504 291.221 112.192C290.623 110.869 290.325 109.339 290.325 107.6C290.325 105.893 290.629 104.379 291.237 103.056C291.845 101.733 292.698 100.693 293.797 99.936C294.895 99.1787 296.191 98.8 297.685 98.8C299.103 98.8 300.325 99.136 301.349 99.808C302.373 100.469 303.157 101.419 303.701 102.656C304.255 103.883 304.533 105.349 304.533 107.056C304.533 107.344 304.527 107.616 304.517 107.872C304.506 108.117 304.49 108.336 304.469 108.528H293.141ZM297.717 101.008C296.469 101.008 295.423 101.451 294.581 102.336C293.749 103.221 293.274 104.592 293.157 106.448H301.941C301.909 104.645 301.514 103.291 300.757 102.384C299.999 101.467 298.986 101.008 297.717 101.008Z" fill="#977EFA"/>
<path d="M418.842 9.968V12.192H413.946V29.776H418.842V32H406.234V29.776H411.13V12.192H406.234V9.968H418.842ZM439.293 25.904C439.293 27.1627 438.978 28.2827 438.349 29.264C437.72 30.2347 436.808 30.9973 435.613 31.552C434.418 32.096 432.962 32.368 431.245 32.368C429.634 32.368 428.173 32.1227 426.861 31.632C425.56 31.1413 424.445 30.448 423.517 29.552L425.165 27.696C425.933 28.4107 426.813 28.9813 427.805 29.408C428.797 29.824 429.96 30.032 431.293 30.032C432.189 30.032 433.026 29.888 433.805 29.6C434.584 29.3013 435.213 28.8533 435.693 28.256C436.173 27.648 436.413 26.88 436.413 25.952C436.413 25.2373 436.274 24.6293 435.997 24.128C435.72 23.6267 435.229 23.184 434.525 22.8C433.821 22.4053 432.84 22.0213 431.581 21.648C430.13 21.2213 428.872 20.7413 427.805 20.208C426.749 19.664 425.928 18.9973 425.341 18.208C424.765 17.4187 424.477 16.4427 424.477 15.28C424.477 14.1813 424.781 13.2053 425.389 12.352C425.997 11.4987 426.834 10.832 427.901 10.352C428.978 9.86133 430.216 9.616 431.613 9.616C433.138 9.616 434.461 9.83467 435.581 10.272C436.712 10.6987 437.736 11.3173 438.653 12.128L437.021 13.936C436.232 13.232 435.384 12.7253 434.477 12.416C433.57 12.096 432.648 11.936 431.709 11.936C430.909 11.936 430.173 12.0587 429.501 12.304C428.84 12.5387 428.306 12.896 427.901 13.376C427.506 13.8453 427.309 14.448 427.309 15.184C427.309 15.8133 427.48 16.3573 427.821 16.816C428.162 17.2747 428.738 17.696 429.549 18.08C430.36 18.4533 431.464 18.848 432.861 19.264C434.002 19.5947 435.058 20.0107 436.029 20.512C437.01 21.0027 437.8 21.6747 438.397 22.528C438.994 23.3707 439.293 24.496 439.293 25.904ZM457.905 31.152C457.329 31.536 456.63 31.8347 455.809 32.048C454.987 32.2613 454.182 32.368 453.393 32.368C451.579 32.368 450.182 31.8933 449.201 30.944C448.219 29.9947 447.729 28.7733 447.729 27.28V17.232H443.857V15.152H447.729V11.328L450.417 11.008V15.152H456.241L455.921 17.232H450.417V27.248C450.417 28.1867 450.662 28.9013 451.153 29.392C451.654 29.8827 452.481 30.128 453.633 30.128C454.262 30.128 454.843 30.0533 455.377 29.904C455.91 29.7547 456.406 29.5627 456.865 29.328L457.905 31.152ZM475.78 28.32C475.78 28.992 475.892 29.4827 476.116 29.792C476.34 30.1013 476.687 30.3307 477.156 30.48L476.5 32.368C475.775 32.272 475.14 32.0427 474.596 31.68C474.052 31.3067 473.657 30.7467 473.412 30C472.804 30.7787 472.047 31.3707 471.14 31.776C470.233 32.1707 469.231 32.368 468.132 32.368C466.447 32.368 465.119 31.8933 464.148 30.944C463.177 29.9947 462.692 28.736 462.692 27.168C462.692 25.4293 463.369 24.096 464.724 23.168C466.079 22.24 468.036 21.776 470.596 21.776H473.076V20.368C473.076 19.152 472.719 18.2933 472.004 17.792C471.3 17.28 470.319 17.024 469.06 17.024C468.505 17.024 467.855 17.0933 467.108 17.232C466.361 17.36 465.551 17.5787 464.676 17.888L463.972 15.856C465.007 15.472 465.977 15.2 466.884 15.04C467.791 14.88 468.655 14.8 469.476 14.8C471.577 14.8 473.151 15.2907 474.196 16.272C475.252 17.2427 475.78 18.5653 475.78 20.24V28.32ZM468.82 30.32C469.652 30.32 470.447 30.112 471.204 29.696C471.961 29.2693 472.585 28.6827 473.076 27.936V23.6H470.644C468.788 23.6 467.476 23.92 466.708 24.56C465.951 25.2 465.572 26.0587 465.572 27.136C465.572 28.1813 465.839 28.976 466.372 29.52C466.916 30.0533 467.732 30.32 468.82 30.32ZM496.28 31.152C495.704 31.536 495.005 31.8347 494.184 32.048C493.362 32.2613 492.557 32.368 491.768 32.368C489.954 32.368 488.557 31.8933 487.576 30.944C486.594 29.9947 486.104 28.7733 486.104 27.28V17.232H482.232V15.152H486.104V11.328L488.792 11.008V15.152H494.616L494.296 17.232H488.792V27.248C488.792 28.1867 489.037 28.9013 489.528 29.392C490.029 29.8827 490.856 30.128 492.008 30.128C492.637 30.128 493.218 30.0533 493.752 29.904C494.285 29.7547 494.781 29.5627 495.24 29.328L496.28 31.152ZM504.203 24.528C504.256 25.8293 504.507 26.896 504.955 27.728C505.403 28.5493 505.995 29.1573 506.731 29.552C507.467 29.936 508.267 30.128 509.131 30.128C509.995 30.128 510.774 30 511.467 29.744C512.171 29.488 512.891 29.1093 513.627 28.608L514.891 30.384C514.102 31.0027 513.2 31.488 512.187 31.84C511.184 32.192 510.155 32.368 509.099 32.368C507.467 32.368 506.075 32 504.923 31.264C503.771 30.528 502.891 29.504 502.283 28.192C501.686 26.8693 501.387 25.3387 501.387 23.6C501.387 21.8933 501.691 20.3787 502.299 19.056C502.907 17.7333 503.76 16.6933 504.859 15.936C505.958 15.1787 507.254 14.8 508.747 14.8C510.166 14.8 511.387 15.136 512.411 15.808C513.435 16.4693 514.219 17.4187 514.763 18.656C515.318 19.8827 515.595 21.3493 515.595 23.056C515.595 23.344 515.59 23.616 515.579 23.872C515.568 24.1173 515.552 24.336 515.531 24.528H504.203ZM508.779 17.008C507.531 17.008 506.486 17.4507 505.643 18.336C504.811 19.2213 504.336 20.592 504.219 22.448H513.003C512.971 20.6453 512.576 19.2907 511.819 18.384C511.062 17.4667 510.048 17.008 508.779 17.008Z" fill="#51EAFF"/>
</svg>
