<svg width="35" height="35" viewBox="0 0 35 35" fill="none" xmlns="http://www.w3.org/2000/svg">
<path d="M5.67289 22.8564L9.12185 0.672264C9.14682 0.507819 9.22302 0.355441 9.33962 0.236822C9.45622 0.118203 9.60726 0.0393888 9.77125 0.0115992C9.93524 -0.0161905 10.1038 0.00846102 10.253 0.0820442C10.4022 0.155627 10.5243 0.274392 10.6021 0.421431L14.3106 7.37914L5.67289 22.8564ZM30.1656 28.2391L26.8814 7.82393C26.8573 7.68084 26.7943 7.54713 26.6993 7.43741C26.6043 7.32769 26.481 7.24618 26.3429 7.20178C26.2047 7.15738 26.057 7.1518 25.9159 7.18565C25.7748 7.2195 25.6457 7.29148 25.5427 7.39372L4.83435 28.2391L16.2925 34.6966C16.6458 34.8952 17.0443 34.9995 17.4497 34.9995C17.855 34.9995 18.2535 34.8952 18.6069 34.6966L30.1656 28.2391ZM20.8541 10.4241L18.2 5.34622C18.133 5.21852 18.0324 5.11158 17.909 5.03696C17.7856 4.96234 17.6442 4.9229 17.5 4.9229C17.3558 4.9229 17.2143 4.96234 17.091 5.03696C16.9676 5.11158 16.8669 5.21852 16.8 5.34622L5.14789 26.2266L20.8541 10.4241Z" fill="white"/>
</svg>
