<svg width="35" height="35" viewBox="0 0 35 35" fill="none" xmlns="http://www.w3.org/2000/svg">
<g clip-path="url(#clip0_750_222)">
<path d="M34.3399 15.9407L19.0586 0.660166C18.1791 -0.219893 16.7517 -0.219893 15.8711 0.660166L12.6979 3.83341L16.7233 7.85882C17.6587 7.54273 18.7314 7.75478 19.4771 8.50044C20.2263 9.25089 20.4369 10.3327 20.1131 11.2712L23.9925 15.1507C24.9311 14.8274 26.014 15.0366 26.7637 15.7874C27.8113 16.8347 27.8113 18.532 26.7637 19.58C25.7157 20.6281 24.0183 20.6281 22.9698 19.58C22.1818 18.7911 21.9871 17.6338 22.3861 16.663L18.7682 13.0451L18.7678 22.5658C19.0301 22.6955 19.2696 22.8668 19.4771 23.073C20.5248 24.1203 20.5248 25.8178 19.4771 26.8666C18.4291 27.9141 16.731 27.9141 15.6845 26.8666C14.6368 25.8178 14.6368 24.1204 15.6845 23.0732C15.9356 22.822 16.234 22.623 16.5624 22.4879V12.8784C16.2335 12.7442 15.9349 12.5451 15.6845 12.2932C14.8907 11.5005 14.6999 10.3358 15.1066 9.36109L11.1385 5.39255L0.660351 15.87C-0.220117 16.7509 -0.220117 18.1784 0.660351 19.0585L15.942 34.3393C16.8217 35.2195 18.2488 35.2195 19.1297 34.3393L34.3398 19.1295C35.22 18.249 35.22 16.8207 34.3398 15.9407" fill="white"/>
</g>
<defs>
<clipPath id="clip0_750_222">
<rect width="35" height="35" fill="white"/>
</clipPath>
</defs>
</svg>
