<svg width="35" height="35" viewBox="0 0 35 35" fill="none" xmlns="http://www.w3.org/2000/svg">
<path d="M3.18483 26.6745L1.7428 25.9325L17.8253 1.14276L19.2674 1.88477L3.18483 26.6745Z" fill="white"/>
<path d="M1.41125 23.9515H33.579V25.4356H1.41125V23.9515Z" fill="white"/>
<path d="M18.1374 33.054L2.04834 24.7869L2.88209 23.5035L18.9712 31.7707L18.1374 33.054ZM32.1146 11.5053L16.0242 3.23935L16.858 1.95599L32.9471 10.2231L32.1146 11.5053Z" fill="white"/>
<path d="M2.886 11.5007L2.05225 10.2173L18.1558 1.94788L18.9895 3.23123L2.886 11.5007Z" fill="white"/>
<path d="M31.8183 26.6746L15.7332 1.88252L17.1752 1.1405L33.2604 25.9326L31.8183 26.6746ZM2.68677 9.23264H4.35428V25.7669H2.68677V9.23264ZM30.6464 9.23264H32.3139V25.7669H30.6464V9.23264Z" fill="white"/>
<path d="M17.8542 32.4252L17.1266 31.3028L31.1208 24.1125L31.8484 25.2349L17.8542 32.4252Z" fill="white"/>
<path d="M34.5228 26.2499C34.0569 26.9658 33.2912 27.4883 32.3934 27.7028C31.4955 27.9173 30.5387 27.8064 29.7326 27.3944C28.9281 26.9798 28.341 26.2983 28.1 25.4993C27.859 24.7002 27.9836 23.8487 28.4466 23.1313C28.9124 22.4153 29.6781 21.8929 30.576 21.6783C31.4738 21.4638 32.4306 21.5747 33.2367 21.9868C34.9239 22.8536 35.4968 24.7577 34.5215 26.2499H34.5228ZM6.5435 11.8693C6.07765 12.5853 5.31194 13.1077 4.4141 13.3222C3.51626 13.5368 2.55948 13.4259 1.75334 13.0138C0.948492 12.5992 0.361169 11.9175 0.120104 11.1182C-0.120961 10.3189 0.00389825 9.4671 0.467315 8.74956C0.933161 8.03359 1.69887 7.51112 2.59671 7.2966C3.49455 7.08207 4.45133 7.19299 5.25747 7.60504C6.06196 8.01963 6.64903 8.70108 6.89008 9.50013C7.13113 10.2992 7.0065 11.1507 6.5435 11.8681V11.8693ZM0.477803 26.2499C0.0148005 25.5324 -0.109828 24.6809 0.131219 23.8819C0.372265 23.0828 0.959334 22.4014 1.76383 21.9868C2.56996 21.5747 3.52674 21.4638 4.42459 21.6783C5.32243 21.8929 6.08814 22.4153 6.55398 23.1313C7.01698 23.8487 7.14161 24.7002 6.90057 25.4993C6.65952 26.2983 6.07245 26.9798 5.26796 27.3944C3.58078 28.2519 1.44003 27.7444 0.477803 26.251V26.2499ZM28.4571 11.8704C27.9941 11.153 27.8694 10.3015 28.1105 9.50247C28.3515 8.70342 28.9386 8.02196 29.7431 7.60738C30.5492 7.19532 31.506 7.08441 32.4039 7.29893C33.3017 7.51345 34.0674 8.03592 34.5333 8.75189C34.9963 9.46933 35.1209 10.3208 34.8798 11.1199C34.6388 11.9189 34.0517 12.6004 33.2472 13.015C32.4411 13.427 31.4843 13.5379 30.5865 13.3234C29.6886 13.1089 28.9229 12.5864 28.4571 11.8704ZM17.5003 35C16.8069 35 16.1291 34.817 15.5526 34.4742C14.9761 34.1313 14.5268 33.644 14.2616 33.0739C13.9963 32.5038 13.9269 31.8764 14.0623 31.2712C14.1977 30.666 14.5317 30.1101 15.022 29.6739C15.5124 29.2376 16.1371 28.9406 16.8172 28.8204C17.4973 28.7001 18.2022 28.7621 18.8427 28.9984C19.4832 29.2347 20.0306 29.6347 20.4156 30.1479C20.8006 30.6611 21.006 31.2644 21.0057 31.8814C21.0033 32.7081 20.6332 33.5002 19.9762 34.0846C19.3193 34.669 18.4291 34.9981 17.5003 35ZM17.5003 6.23885C17.0397 6.23947 16.5836 6.15919 16.158 6.00263C15.7324 5.84607 15.3457 5.61629 15.02 5.32648C14.6944 5.03666 14.4362 4.69251 14.2603 4.31373C14.0844 3.93495 13.9942 3.529 13.9948 3.11914C13.9948 2.29189 14.3641 1.49852 15.0214 0.913574C15.6786 0.328622 16.5701 0 17.4996 0C18.4292 0 19.3206 0.328622 19.9779 0.913574C20.6352 1.49852 21.0044 2.29189 21.0044 3.11914C21.0049 3.5288 20.9146 3.93453 20.7387 4.3131C20.5628 4.69167 20.3047 5.03563 19.9792 5.32531C19.6537 5.61499 19.2672 5.84468 18.8419 6.00124C18.4165 6.1578 17.9606 6.23815 17.5003 6.23769" fill="white"/>
</svg>
