<svg width="35" height="35" viewBox="0 0 35 35" fill="none" xmlns="http://www.w3.org/2000/svg">
<path d="M0 0H35V35H0V0ZM32.1344 26.6547C31.8784 25.0534 30.835 23.7147 27.7539 22.4623C26.6831 21.9614 25.4866 21.6081 25.1333 20.7987C25.002 20.3197 24.9791 20.0583 25.0644 19.7728C25.2864 18.8267 26.3977 18.5478 27.2748 18.8103C27.8447 18.9864 28.3686 19.4195 28.6989 20.1206C30.2083 19.1352 30.2083 19.1352 31.2572 18.48C30.8645 17.8708 30.6709 17.6028 30.403 17.3469C29.4853 16.3155 28.2614 15.7916 26.273 15.8375L25.2416 15.9688C24.2561 16.2083 23.3166 16.7322 22.7467 17.4333C21.0886 19.3134 21.5677 22.5947 23.578 23.9564C25.5664 25.4428 28.4769 25.7677 28.8531 27.1698C29.2009 28.8794 27.5833 29.4263 25.982 29.2261C24.803 28.9636 24.1478 28.3719 23.4237 27.2781L20.7572 28.8105C21.0591 29.5116 21.4123 29.8134 21.9362 30.4281C24.4716 32.9864 30.8175 32.8552 31.9561 28.9636C31.9955 28.8323 32.3039 27.9322 32.0644 26.5595L32.1344 26.6547ZM19.0323 16.0869H15.7566C15.7566 18.912 15.7391 21.7208 15.7391 24.5525C15.7391 26.3473 15.8298 27.9989 15.54 28.5064C15.0555 29.5094 13.8195 29.3836 13.2552 29.2075C12.6798 28.9231 12.3834 28.5294 12.0477 27.9595C11.9503 27.8053 11.8825 27.6752 11.8595 27.6752L9.19953 29.3158C9.64359 30.2334 10.2933 31.0253 11.1311 31.5262C12.3791 32.2722 14.0536 32.5117 15.808 32.1191C16.9477 31.7887 17.9331 31.1106 18.445 30.0628C19.1909 28.7066 19.0312 27.0441 19.0258 25.1803C19.0433 22.1834 19.0258 19.1877 19.0258 16.1678L19.0323 16.0869Z" fill="white"/>
</svg>
