<svg width="35" height="35" viewBox="0 0 35 35" fill="none" xmlns="http://www.w3.org/2000/svg">
<path d="M17.5 35C27.165 35 35 27.165 35 17.5C35 7.83502 27.165 0 17.5 0C7.83502 0 0 7.83502 0 17.5C0 27.165 7.83502 35 17.5 35Z" fill="white"/>
<path d="M22.1779 15.3617C21.0725 10.4833 18.4602 8.8792 18.1789 8.26636C17.8713 7.83398 17.5595 7.06494 17.5595 7.06494C17.5544 7.05195 17.5462 7.02905 17.5366 7.00684C17.5048 7.43921 17.4884 7.60601 17.0796 8.04214C16.4466 8.53706 13.1989 11.2622 12.9347 16.8048C12.6882 21.9741 16.6688 25.0544 17.2071 25.4471L17.2683 25.4905V25.4868C17.2717 25.5127 17.4392 26.7172 17.5568 27.9935H17.9786C18.0775 27.0913 18.2259 26.1953 18.4229 25.3094L18.4571 25.2872C18.6979 25.1145 18.9275 24.9267 19.1444 24.7249L19.1691 24.7027C20.3134 23.6455 22.3707 21.2003 22.3505 17.3018C22.3462 16.6514 22.2885 16.0026 22.1779 15.3617ZM17.512 22.5285C17.512 22.5285 17.512 15.2783 17.7513 15.2797C17.9379 15.2797 18.1796 24.6316 18.1796 24.6316C17.8473 24.5916 17.512 23.0925 17.512 22.5285Z" fill="#111518"/>
</svg>
