<svg width="35" height="35" viewBox="0 0 35 35" fill="none" xmlns="http://www.w3.org/2000/svg">
<g clip-path="url(#clip0)">
<path fill-rule="evenodd" clip-rule="evenodd" d="M7.96522 5.89069C7.63626 5.88492 7.30791 5.92118 6.98814 5.9986V6.05402H7.04209C7.23168 6.44339 7.56709 6.69569 7.80189 7.0311L8.34439 8.17006L8.3998 8.1161C8.73522 7.87985 8.8898 7.50069 8.88834 6.92173C8.75272 6.78027 8.7323 6.60235 8.61564 6.43319C8.46105 6.2086 8.16064 6.08027 7.96522 5.89069ZM34.24 33.7405C34.4952 33.9286 34.6673 34.2203 34.9998 34.3384V34.283C34.8248 34.0613 34.7811 33.7551 34.6206 33.5232C34.3858 33.2899 34.1481 33.0536 33.9148 32.8174C33.2236 31.9015 32.3486 31.0965 31.4167 30.4286C30.6758 29.8963 29.0119 29.1759 28.7027 28.3126L28.6473 28.2571C29.1738 28.1988 29.7906 28.0078 30.2763 27.878C31.0929 27.6592 31.8221 27.7146 32.665 27.4988C33.0456 27.388 33.4248 27.2801 33.8054 27.1721V26.9534C33.3796 26.5159 33.0763 25.9384 32.6111 25.5432C31.3948 24.5078 30.0692 23.4724 28.7027 22.6119C27.9444 22.1321 27.0081 21.823 26.2046 21.4161C25.9348 21.2805 25.4608 21.209 25.2829 20.983C24.86 20.4434 24.6311 19.7624 24.3058 19.1367C23.6248 17.8242 22.954 16.3907 22.3517 15.0096C21.939 14.069 21.6706 13.1415 21.1558 12.2971C18.6913 8.24298 16.0371 5.79735 11.9275 3.39256C11.0525 2.88214 9.99959 2.67944 8.88834 2.41548L7.09605 2.30756C6.73147 2.15444 6.3523 1.70964 6.01105 1.49235C4.64897 0.631935 1.1548 -1.23911 0.148553 1.2211C-0.488739 2.77423 1.09939 4.28944 1.66814 5.07548C2.06626 5.62819 2.57668 6.24652 2.86251 6.86777C3.04918 7.2761 3.08126 7.68444 3.24168 8.1161C3.63689 9.18069 3.97959 10.3357 4.49001 11.3186C4.74959 11.8159 5.03397 12.3394 5.35918 12.7842C5.56043 13.0569 5.90168 13.178 5.95564 13.5994C5.62022 14.0676 5.60272 14.7953 5.41459 15.3903C4.56584 18.0663 4.88522 21.3913 6.12043 23.3717C6.49814 23.9784 7.38918 25.2821 8.61564 24.7819C9.68897 24.3444 9.4498 22.9911 9.75605 21.7967C9.82459 21.5255 9.78376 21.3257 9.91939 21.1449V21.1988L10.8965 23.153C11.6198 24.3182 12.9031 25.5359 13.9911 26.3569C14.554 26.7828 14.9973 27.5192 15.7279 27.7686V27.7132H15.674C15.5311 27.4944 15.3094 27.4026 15.1315 27.2246C14.6799 26.7863 14.2621 26.3144 13.8817 25.813C12.8929 24.4713 12.0194 23.0013 11.2231 21.4715C10.8425 20.7394 10.5115 19.9344 10.1906 19.1907C10.0667 18.9034 10.0681 18.4703 9.81147 18.3215C9.46001 18.8669 8.9423 19.3074 8.67105 19.9505C8.23647 20.9786 8.17959 22.2328 8.01918 23.5336C7.92439 23.5671 7.96668 23.5438 7.9098 23.5876C7.15439 23.4053 6.88897 22.6265 6.60751 21.9586C5.8973 20.2713 5.76459 17.5515 6.39022 15.6076C6.55209 15.1044 7.28418 13.5207 6.98814 13.0555C6.84522 12.5917 6.38001 12.3249 6.11897 11.9705C5.77765 11.4947 5.48638 10.985 5.2498 10.4494C4.66939 9.13402 4.39668 7.65527 3.78418 6.32381C3.49251 5.68798 2.99668 5.04485 2.5898 4.47902C2.14064 3.85194 1.63605 3.3911 1.28751 2.63277C1.16355 2.36298 0.994386 1.93277 1.17814 1.65569C1.23647 1.46902 1.31959 1.39027 1.5048 1.33048C1.8198 1.08694 2.69626 1.41069 3.02439 1.54631C3.89501 1.90798 4.62126 2.25214 5.35772 2.74214C5.71209 2.97548 6.07084 3.43048 6.49814 3.55589H6.98668C7.7523 3.73089 8.60834 3.60985 9.32147 3.82714C10.5829 4.21069 11.7131 4.80714 12.7413 5.4561C15.8708 7.43214 18.4288 10.2438 20.1788 13.5994C20.4602 14.139 20.5827 14.6553 20.8306 15.2284C21.3308 16.3834 21.9608 17.5719 22.4581 18.7021C22.954 19.8294 23.4396 20.9669 24.1411 21.9046C24.51 22.3976 25.9363 22.663 26.5852 22.9371C27.0388 23.1282 27.7825 23.3294 28.2127 23.5876C29.0352 24.0834 29.8315 24.674 30.6015 25.2165C30.9865 25.4892 32.1721 26.0842 32.2304 26.5728C30.32 26.5232 28.8617 26.6996 27.6163 27.2261C27.2619 27.3749 26.6975 27.3792 26.6392 27.8226C26.8331 28.0267 26.8638 28.333 27.0183 28.5824C27.3158 29.0636 27.819 29.7096 28.2667 30.048C28.7581 30.4184 29.2627 30.8136 29.7877 31.1344C30.7211 31.7032 31.7652 32.0299 32.6636 32.6001C33.1958 32.9369 33.7223 33.3599 34.2386 33.7405H34.24Z" fill="white"/>
</g>
<defs>
<clipPath id="clip0">
<rect width="35" height="35" fill="white"/>
</clipPath>
</defs>
</svg>
