<svg width="35" height="35" viewBox="0 0 35 35" fill="none" xmlns="http://www.w3.org/2000/svg">
<path d="M20.6574 4.98157C20.0205 3.97465 20.2242 3.31059 20.5757 2.62505C20.8903 2.01139 21.0188 0.944938 19.9071 0.105628C20.9307 -0.272803 22.5459 0.396301 22.5737 1.62198C21.9797 2.44292 20.3573 2.76913 20.6574 4.98157ZM28.0065 27.6089C27.5095 29.227 27.7362 30.0879 25.5749 33.4473C29.3962 30.8562 31.1991 27.5106 31.7941 23.7136C32.1677 25.2969 32.203 26.7331 32.0562 28.0901C35.2228 23.9026 37.3925 15.4584 30.0946 6.97015C29.8011 10.7221 26.1885 13.6764 22.0223 12.518C29.1657 11.727 29.6236 2.6029 23.4867 0.496065C23.6066 3.03443 20.1587 2.20323 21.1727 5.59902C17.6608 3.60322 9.98798 3.19303 6.93766 6.22097C5.36516 7.78193 4.29178 9.07291 2.32652 9.15818C0.703819 9.22859 -1.43891 11.8735 1.349 13.2262C1.61528 14.3533 2.55104 14.9951 3.09364 15.1057C2.95869 17.113 3.38377 16.0895 4.00665 15.2147C3.79735 17.752 4.14227 16.8379 5.11851 15.5325C13.3779 13.8546 17.9392 20.6204 17.9908 24.7759C17.9545 24.022 16.7546 23.1451 16.1196 23.3867C15.6906 24.2997 15.2231 25.0746 14.6462 25.4569C14.7065 24.8516 14.6653 24.2462 14.5558 23.6409C14.3656 24.3729 14.0074 25.133 13.4349 25.929C12.2961 25.9929 10.7023 25.1421 11.1659 23.7317C11.8199 22.3601 10.5372 22.0749 9.50374 22.4676C8.72721 22.7626 8.20248 23.5799 8.13068 23.8339C7.87166 24.7505 7.9569 26.7967 9.72866 28.1537C9.26418 28.2396 8.78731 28.3162 8.46314 28.5078C11.477 30.3387 14.5533 29.7201 16.2664 29.0292C19.0712 27.898 21.0057 24.7669 21.3083 22.3516C22.0868 25.7489 20.6921 29.5246 17.5658 31.5496C18.459 31.6446 20.2074 31.0368 21.9952 30.3965C20.6437 32.105 19.0281 33.7251 16.3817 35C21.5943 34.5614 25.4072 31.9324 28.0065 27.6089Z" fill="white"/>
</svg>
