<svg width="35" height="35" viewBox="0 0 35 35" fill="none" xmlns="http://www.w3.org/2000/svg">
<path d="M16.3551 0.0273542C16.2799 0.0341895 16.0407 0.0581129 15.8254 0.0752011C10.8595 0.522911 6.20814 3.20234 3.26213 7.32059C1.62167 9.6104 0.572456 12.2078 0.17601 14.959C0.035887 15.9194 0.0187988 16.203 0.0187988 17.5051C0.0187988 18.8073 0.035887 19.0909 0.17601 20.0513C1.12611 26.6166 5.79802 32.1326 12.1343 34.1764C13.269 34.542 14.4651 34.7915 15.8254 34.9419C16.3551 35 18.6449 35 19.1746 34.9419C21.5226 34.6822 23.5116 34.1012 25.4733 33.0998C25.7741 32.946 25.8322 32.905 25.7912 32.8708C25.7638 32.8503 24.4822 31.1313 22.9443 29.0533L20.1487 25.2768L16.6456 20.0923C14.718 17.242 13.1323 14.9112 13.1186 14.9112C13.1049 14.9077 13.0913 17.2112 13.0844 20.0239C13.0742 24.9487 13.0707 25.147 13.0092 25.2632C12.9204 25.4306 12.852 25.499 12.7085 25.5742C12.5991 25.6289 12.5034 25.6391 11.9874 25.6391H11.3961L11.2389 25.54C11.1364 25.4751 11.0612 25.3896 11.0099 25.2905L10.9381 25.1367L10.945 18.2844L10.9552 11.4286L11.0612 11.2953C11.1159 11.2235 11.2321 11.1313 11.3141 11.0868C11.4542 11.0185 11.5089 11.0116 12.1001 11.0116C12.7973 11.0116 12.9135 11.039 13.0947 11.2372C13.1459 11.2919 15.0427 14.149 17.312 17.5906C19.5813 21.0321 22.6846 25.7314 24.2088 28.0383L26.9771 32.2317L27.1172 32.1395C28.3578 31.3329 29.6702 30.1846 30.7092 28.9884C32.9204 26.4491 34.3455 23.3527 34.824 20.0513C34.9641 19.0909 34.9812 18.8073 34.9812 17.5051C34.9812 16.203 34.9641 15.9194 34.824 14.959C33.8739 8.39372 29.202 2.87766 22.8657 0.833916C21.7481 0.471647 20.5588 0.222159 19.2259 0.0717835C18.8978 0.0376071 16.6388 1.31484e-05 16.3551 0.0273542ZM23.5116 10.6015C23.6757 10.6835 23.809 10.8408 23.8568 11.0048C23.8841 11.0937 23.891 12.9939 23.8841 17.2762L23.8739 23.4211L22.7905 21.7601L21.7037 20.0991V15.6323C21.7037 12.7444 21.7174 11.121 21.7379 11.0424C21.7926 10.851 21.9122 10.7006 22.0762 10.6118C22.2163 10.54 22.2676 10.5332 22.8042 10.5332C23.31 10.5332 23.3988 10.54 23.5116 10.6015Z" fill="white"/>
<path d="M26.8061 32.3069C26.6865 32.3821 26.6489 32.4333 26.7549 32.3752C26.83 32.3308 26.9531 32.2385 26.9326 32.2351C26.9223 32.2351 26.8642 32.2693 26.8061 32.3069ZM26.5703 32.4607C26.5088 32.5085 26.5088 32.5119 26.584 32.4743C26.625 32.4538 26.6592 32.4299 26.6592 32.4231C26.6592 32.3957 26.6421 32.4026 26.5703 32.4607ZM26.3994 32.5632C26.3379 32.611 26.3379 32.6145 26.4131 32.5769C26.4541 32.5564 26.4883 32.5324 26.4883 32.5256C26.4883 32.4983 26.4712 32.5051 26.3994 32.5632ZM26.2285 32.6657C26.167 32.7136 26.167 32.717 26.2422 32.6794C26.2832 32.6589 26.3174 32.635 26.3174 32.6281C26.3174 32.6008 26.3003 32.6076 26.2285 32.6657ZM25.9688 32.8024C25.8389 32.8708 25.8458 32.8981 25.9756 32.8332C26.0337 32.8024 26.0782 32.7717 26.0782 32.7648C26.0782 32.7409 26.0748 32.7443 25.9688 32.8024Z" fill="white"/>
</svg>
