<svg width="35" height="35" viewBox="0 0 35 35" fill="none" xmlns="http://www.w3.org/2000/svg">
<path d="M17.4999 32.0615C17.0989 32.0615 16.7241 31.9536 16.3741 31.7669L12.8172 29.6552C12.2849 29.3592 12.5518 29.2513 12.7122 29.1973C13.4356 28.9567 13.5697 28.9042 14.3179 28.4784C14.3995 28.4244 14.506 28.4492 14.5877 28.5031L17.3147 30.1365C17.4227 30.189 17.5568 30.189 17.637 30.1365L28.3106 23.9575C28.4185 23.905 28.471 23.7971 28.471 23.6629V11.3284C28.471 11.1956 28.4185 11.0877 28.3106 11.0352L17.637 4.88252C17.5306 4.82856 17.3964 4.82856 17.3147 4.88252L6.63828 11.0338C6.53182 11.0863 6.47786 11.2219 6.47786 11.3269V23.66C6.47786 23.7665 6.53182 23.9021 6.63828 23.9546L9.55495 25.6419C11.1329 26.4411 12.1245 25.5034 12.1245 24.57V12.3988C12.1245 12.2384 12.2572 12.0765 12.4454 12.0765H13.8104C13.9679 12.0765 14.1312 12.2106 14.1312 12.3988V24.5715C14.1312 26.6846 12.982 27.9169 10.9754 27.9169C10.3599 27.9169 9.8787 27.9169 8.5137 27.2461L5.70641 25.6434C5.36437 25.4445 5.0805 25.1594 4.88319 24.8165C4.68588 24.4735 4.58204 24.0848 4.58203 23.6892V11.3546C4.58203 10.5525 5.00932 9.80294 5.70641 9.40189L16.3756 3.22294C16.7219 3.03771 17.1086 2.9408 17.5014 2.9408C17.8942 2.9408 18.2809 3.03771 18.6272 3.22294L29.2979 9.40189C29.9964 9.80148 30.4222 10.5525 30.4222 11.3546V23.6892C30.4222 24.4898 29.9949 25.2394 29.2979 25.6434L18.6272 31.8209C18.2758 31.9813 17.8747 32.0615 17.4999 32.0615ZM20.7899 23.5798C16.1087 23.5798 15.1462 21.439 15.1462 19.6219C15.1462 19.4615 15.2804 19.2996 15.467 19.2996H16.8583C17.0187 19.2996 17.1514 19.4061 17.1514 19.5679C17.3658 20.984 17.9797 21.6811 20.8177 21.6811C23.0635 21.6811 24.0289 21.1706 24.0289 19.9675C24.0289 19.2719 23.7591 18.7644 20.2562 18.4173C17.341 18.1256 15.5224 17.4796 15.5224 15.1536C15.5224 12.9879 17.341 11.7031 20.3918 11.7031C23.8145 11.7031 25.5004 12.8829 25.7133 15.4481C25.7107 15.5347 25.6823 15.6185 25.6316 15.6888C25.5777 15.7413 25.4989 15.7952 25.4187 15.7952H24.0289C23.9602 15.7938 23.894 15.7695 23.8406 15.7262C23.7873 15.6828 23.7499 15.623 23.7343 15.5561C23.412 14.0802 22.5837 13.6019 20.3918 13.6019C17.9287 13.6019 17.6341 14.4579 17.6341 15.0996C17.6341 15.874 17.9797 16.1146 21.3004 16.5434C24.5904 16.9706 26.142 17.5861 26.142 19.8888C26.1129 22.244 24.1893 23.5798 20.7899 23.5798Z" fill="white"/>
</svg>
