<svg width="35" height="35" viewBox="0 0 35 35" fill="none" xmlns="http://www.w3.org/2000/svg">
<path d="M24.9801 0C23.619 0.0103566 22.2657 0.207617 20.9583 0.58625L20.8676 0.615781C20.045 0.473269 19.2128 0.393197 18.3782 0.37625C16.6577 0.346719 15.1812 0.762344 13.9912 1.45797C12.8176 1.05437 10.3851 0.346719 7.82131 0.49C6.03959 0.58625 4.09053 1.12766 2.6424 2.65453C1.2074 4.17594 0.445059 6.53406 0.603653 9.7475C0.648496 10.6302 0.900059 12.0706 1.32115 13.9442C1.73678 15.8134 2.32412 18.0009 3.05912 20.0003C3.79412 21.9942 4.59584 23.788 5.85037 25.0064C6.476 25.6156 7.34225 26.1352 8.36162 26.0903C9.07475 26.0608 9.71787 25.748 10.2768 25.2864C10.5491 25.6452 10.8412 25.7983 11.1026 25.9416C11.4394 26.1242 11.7577 26.2489 12.0946 26.3298C12.6983 26.483 13.7297 26.6831 14.9372 26.4775C15.3769 26.3984 15.8055 26.2665 16.2137 26.0848L16.2651 27.5144C16.3274 29.0238 16.369 30.4194 16.8174 31.6444C16.8918 31.8445 17.0919 32.8694 17.8772 33.7805C18.6691 34.6916 20.2058 35.2559 21.9668 34.8797C23.2038 34.6172 24.781 34.1392 25.8299 32.6473C26.8668 31.1773 27.3338 29.0642 27.4257 25.6342C27.4476 25.4461 27.4771 25.293 27.5044 25.1442L27.7494 25.1672H27.779C29.1002 25.2241 30.5363 25.0359 31.7383 24.477C32.7971 23.987 33.601 23.4916 34.1872 22.6089C34.3305 22.3912 34.4946 22.1244 34.5362 21.6683C34.581 21.2188 34.3185 20.5056 33.8854 20.1764C33.0202 19.5158 32.4733 19.7663 31.886 19.892C31.3108 20.016 30.7253 20.0863 30.1371 20.102C31.8226 17.2659 33.0301 14.2472 33.7202 11.5795C34.1304 10.0012 34.359 8.54875 34.3754 7.27891C34.3983 6.00906 34.2912 4.88688 33.5321 3.91344C31.151 0.877188 27.8063 0.0328125 25.2207 0.00546875H24.9812L24.9801 0ZM24.9112 0.935156C27.3557 0.912188 30.4816 1.59578 32.726 4.46578C33.2335 5.11 33.3822 6.04953 33.3647 7.21219C33.3472 8.37484 33.1318 9.75844 32.738 11.2798C31.9812 14.2319 30.5385 17.6597 28.5172 20.743C28.5868 20.7954 28.6634 20.8377 28.7447 20.8687C29.1658 21.0448 30.1283 21.1925 32.0533 20.7998C32.5379 20.6959 32.8922 20.6292 33.2619 20.9081C33.3517 20.9838 33.4225 21.0793 33.4688 21.1872C33.5152 21.295 33.5357 21.4122 33.5288 21.5294C33.5089 21.707 33.4421 21.8761 33.3352 22.0194C32.9644 22.5761 32.2316 23.1077 31.291 23.5462C30.4597 23.9323 29.2621 24.1325 28.2099 24.1445C27.6751 24.15 27.1851 24.1095 26.7672 23.9783L26.7454 23.9739C26.5846 25.5172 26.216 28.5709 25.9754 29.96C25.7829 31.0811 25.446 31.9769 24.8029 32.643C24.1587 33.3156 23.253 33.7137 22.028 33.9762C20.5132 34.3011 19.4129 33.9533 18.7019 33.355C17.991 32.7567 17.6651 31.9594 17.4715 31.4748C17.3358 31.1391 17.2669 30.7059 17.1991 30.1241C17.1247 29.4293 17.0751 28.7322 17.0504 28.0339C17.0055 26.8089 16.988 25.5839 17.0055 24.3534C16.3736 24.9329 15.5885 25.3186 14.7437 25.4647C13.7363 25.6353 12.8416 25.4647 12.3068 25.3334C12.0429 25.2661 11.7883 25.1666 11.5488 25.037C11.2983 24.9058 11.0643 24.7581 10.9057 24.4606C10.8143 24.2903 10.786 24.0931 10.8258 23.9039C10.8731 23.7117 10.9837 23.5411 11.1397 23.4194C11.4296 23.1842 11.8124 23.0552 12.3866 22.9348C13.4355 22.7172 13.8052 22.5706 14.0272 22.3923C14.2154 22.2447 14.433 21.9373 14.8071 21.4867C14.8071 21.4703 14.8071 21.4473 14.8016 21.4298C14.1238 21.4092 13.4604 21.2298 12.8646 20.9059C12.6491 21.1334 11.5258 22.3191 10.1652 23.9597C9.59537 24.6422 8.96318 25.0359 8.29162 25.0655C7.62553 25.0928 7.01959 24.7581 6.50771 24.2616C5.48287 23.2641 4.66147 21.5491 3.94943 19.612C3.2374 17.675 2.66209 15.517 2.24646 13.6828C1.83631 11.842 1.59131 10.3611 1.55631 9.64906C1.40318 6.61281 2.11522 4.56859 3.33365 3.27469C4.55209 1.98078 6.22225 1.49734 7.85193 1.40109C10.7744 1.23594 13.5537 2.25531 14.1126 2.47187C15.1943 1.73687 16.5899 1.28188 18.3333 1.30922C19.1596 1.32137 19.9816 1.42853 20.7833 1.62859L20.8129 1.61109C21.1656 1.48893 21.5249 1.38669 21.8891 1.30484C22.879 1.07254 23.8912 0.948216 24.9079 0.934062L24.9112 0.935156ZM25.1332 1.90859H24.9177C24.0865 1.91844 23.2476 2.01688 22.4338 2.19297C24.2505 2.99688 25.6232 4.23172 26.5912 5.47422C27.2638 6.32844 27.8162 7.26797 28.2372 8.27094C28.4035 8.65922 28.5118 8.98297 28.5687 9.23344C28.6026 9.35922 28.6201 9.46641 28.631 9.57469C28.631 9.63156 28.6365 9.68953 28.608 9.78578C28.608 9.79125 28.6026 9.80328 28.6026 9.80875C28.6496 11.0852 28.3302 11.9492 28.2887 13.1687C28.2613 14.0525 28.4888 15.0894 28.5457 16.2225C28.5971 17.2867 28.4669 18.4548 27.7768 19.6055C27.8337 19.6744 27.8851 19.7422 27.9419 19.8166C29.7707 16.9334 31.0919 13.7495 31.793 11.0316C32.1693 9.56703 32.3672 8.24031 32.3847 7.19359C32.4022 6.14469 32.2087 5.38125 31.9571 5.06297C29.9971 2.56156 27.3491 1.92281 25.1321 1.9075L25.1332 1.90859ZM18.143 2.28375C16.4237 2.28922 15.1866 2.80875 14.2482 3.58859C13.278 4.39797 12.6294 5.49719 12.2083 6.63031C11.7008 7.96906 11.5247 9.26734 11.4558 10.1511L11.4788 10.1391C12.0861 9.79903 12.7381 9.54608 13.4158 9.38766C14.1454 9.21594 14.9372 9.16453 15.6482 9.44453C16.3668 9.71688 16.953 10.372 17.1696 11.3575C18.1966 16.1087 16.8513 17.8752 16.3558 19.2073C16.1677 19.6919 16.0026 20.1819 15.8713 20.6828C15.9337 20.6708 15.9971 20.6533 16.0594 20.6478C16.4127 20.6205 16.6851 20.7342 16.8458 20.802C17.3479 21.012 17.6891 21.4452 17.8772 21.9406C17.9234 22.0759 17.9575 22.215 17.979 22.3563C17.9978 22.4153 18.0078 22.4769 18.0085 22.5389C17.9511 24.3556 17.9565 26.1738 18.0249 27.9902C18.0599 28.7766 18.1113 29.4656 18.1737 30.0125C18.236 30.5539 18.3213 30.9695 18.3793 31.1117C18.5663 31.5787 18.8397 32.188 19.3363 32.6036C19.8263 33.0203 20.5318 33.2938 21.8257 33.0203C22.9468 32.7753 23.6369 32.4439 24.0974 31.9659C24.5601 31.4814 24.8324 30.8153 25.0085 29.7959C25.2765 28.2636 25.8058 23.8197 25.8693 22.9884C25.8419 22.3552 25.9316 21.8717 26.1372 21.5009C26.3418 21.1247 26.6612 20.8917 26.9412 20.7659C27.0768 20.7036 27.208 20.6642 27.3163 20.6292C27.2017 20.4694 27.0839 20.3118 26.963 20.1567C26.5638 19.6723 26.2357 19.1335 25.9885 18.5566C25.8748 18.3146 25.7493 18.0784 25.6122 17.8489C25.4197 17.5022 25.1747 17.0625 24.9177 16.567C24.4047 15.587 23.8469 14.3916 23.556 13.2289C23.2662 12.0663 23.2268 10.8653 23.9672 10.022C24.6224 9.26953 25.7785 8.95781 27.5033 9.13391C27.4519 8.97969 27.4246 8.84844 27.3382 8.64937C26.9459 7.72794 26.4344 6.86196 25.8168 6.07359C24.3522 4.2 21.9766 2.34172 18.3147 2.27938L18.143 2.28375ZM8.46006 2.35812C8.2758 2.35793 8.09159 2.36377 7.90771 2.37562C6.43225 2.46203 5.04209 2.8875 4.04459 3.94188C3.04818 5.00172 2.39412 6.72766 2.53522 9.59328C2.56475 10.1402 2.79772 11.655 3.20131 13.4608C3.60709 15.2677 4.18131 17.3928 4.87147 19.2719C5.55943 21.1455 6.39287 22.7806 7.19021 23.555C7.58834 23.9367 7.93506 24.0964 8.24896 24.0855C8.56287 24.068 8.94459 23.8853 9.41162 23.3275C10.2592 22.3049 11.139 21.3094 12.0497 20.3427C11.4038 19.7804 10.9098 19.0646 10.6131 18.2612C10.3165 17.4579 10.2268 16.5928 10.3522 15.7456C10.4999 14.6694 10.5229 13.6598 10.4999 12.8625C10.4835 12.0881 10.431 11.5762 10.431 11.2514V11.2164L10.4255 11.2066C10.4255 9.52547 10.723 7.86297 11.2918 6.28469C11.7019 5.19531 12.3068 4.09719 13.2168 3.20141C12.3232 2.905 10.7329 2.46203 9.0135 2.37562C8.82962 2.3638 8.64541 2.35796 8.46115 2.35812H8.46006ZM26.5397 10.0592C25.5499 10.0767 24.9965 10.3337 24.7012 10.663C24.2899 11.1366 24.2505 11.9678 24.5076 12.9938C24.7624 14.0186 25.294 15.1637 25.7894 16.1164C26.0344 16.5944 26.274 17.022 26.4665 17.3688C26.6666 17.722 26.8088 17.967 26.8941 18.1836C26.974 18.3772 27.0658 18.5478 27.1566 18.7075C27.5383 17.8981 27.6072 17.1063 27.5668 16.275C27.5154 15.2502 27.2769 14.2012 27.3163 13.1425C27.3568 11.9 27.6018 11.0906 27.6193 10.1336C27.2621 10.0864 26.9022 10.0615 26.5419 10.0592H26.5397ZM14.5326 10.232C14.2307 10.232 13.9288 10.2714 13.6324 10.3403C13.045 10.4816 12.4794 10.702 11.9513 10.9955C11.7736 11.0916 11.6042 11.2025 11.4449 11.3269L11.4099 11.3542C11.4219 11.5719 11.4613 12.0838 11.4788 12.8472C11.4963 13.6784 11.4788 14.7372 11.3202 15.8834C10.9669 18.3783 12.7782 20.4411 14.9033 20.4466C15.0291 19.9336 15.2326 19.4141 15.4382 18.8683C16.0299 17.2725 17.1926 16.1109 16.2126 11.5653C16.054 10.8248 15.7346 10.523 15.2949 10.3523C15.0502 10.2662 14.7918 10.2258 14.5326 10.2331V10.232ZM26.0793 10.5273H26.1537C26.2444 10.5328 26.3363 10.5394 26.4151 10.5613C26.4862 10.5752 26.554 10.6022 26.6152 10.6411C26.6436 10.6581 26.668 10.6812 26.6867 10.7085C26.7054 10.7359 26.718 10.767 26.7235 10.7997V10.8117C26.7232 10.8817 26.7055 10.9504 26.6721 11.0119C26.6291 11.0904 26.5757 11.1629 26.5135 11.2273C26.3664 11.3918 26.167 11.5004 25.9491 11.5347C25.7383 11.5617 25.5249 11.5091 25.3508 11.387C25.2819 11.337 25.2188 11.2794 25.1627 11.2153C25.1135 11.1635 25.0814 11.0978 25.0708 11.0272C25.0644 10.9598 25.0849 10.8926 25.1277 10.8402C25.1784 10.7884 25.2362 10.7442 25.2994 10.7089C25.4405 10.6291 25.6287 10.5722 25.8463 10.5427C25.9251 10.5328 26.0049 10.5263 26.0793 10.5208V10.5273ZM14.6737 10.7723C14.748 10.7723 14.8344 10.7778 14.9143 10.7888C15.1418 10.8238 15.3354 10.8806 15.4885 10.9714C15.5636 11.008 15.6297 11.0606 15.6821 11.1256C15.7389 11.1942 15.7674 11.2818 15.7619 11.3706C15.7464 11.4548 15.7086 11.5334 15.6526 11.5981C15.5926 11.6712 15.5217 11.7346 15.4426 11.7863C15.253 11.9224 15.0188 11.9815 14.7874 11.9514C14.5529 11.9137 14.3382 11.7977 14.1782 11.6222C14.111 11.55 14.0533 11.4695 14.0065 11.3827C13.9554 11.3052 13.9333 11.2123 13.9441 11.1202C13.9671 10.967 14.0983 10.8806 14.2241 10.8358C14.3674 10.7887 14.5205 10.7734 14.6737 10.7789V10.7723ZM27.8851 21.4812H27.8796C27.6696 21.5611 27.4935 21.5906 27.3447 21.6595C27.1942 21.7163 27.0705 21.8276 26.998 21.9712C26.9007 22.1375 26.8274 22.4339 26.8493 22.9392C26.9151 22.9865 26.9888 23.0217 27.0669 23.0431C27.3119 23.1175 27.733 23.1689 28.2001 23.1623C29.1287 23.1503 30.2738 22.9348 30.883 22.6494C31.3809 22.4186 31.8432 22.1177 32.2557 21.7558C30.2224 22.1714 29.0783 22.0631 28.3707 21.7733C28.1968 21.6981 28.0339 21.5998 27.8862 21.4812H27.8851ZM16.1732 21.618H16.1437C16.0649 21.6234 15.9555 21.653 15.7335 21.8925C15.226 22.4613 15.0499 22.82 14.6343 23.1514C14.2132 23.4872 13.6718 23.6644 12.5835 23.8864C12.3514 23.9279 12.1254 23.9985 11.9108 24.0964C11.9502 24.1314 11.9502 24.1434 12.0126 24.1708C12.1733 24.2627 12.3768 24.337 12.543 24.3819C13.0101 24.4956 13.7724 24.6323 14.5763 24.4956C15.3737 24.3589 16.2049 23.9761 16.918 22.9808C17.0438 22.8102 17.0537 22.5531 16.9519 22.2797C16.8502 22.0128 16.6271 21.7733 16.474 21.7109C16.3781 21.6663 16.2765 21.6354 16.1721 21.6191L16.1732 21.618Z" fill="white"/>
</svg>
