<svg width="35" height="35" viewBox="0 0 35 35" fill="none" xmlns="http://www.w3.org/2000/svg">
<path fill-rule="evenodd" clip-rule="evenodd" d="M34.7694 26.6651L20.2346 1.10406C20.054 0.789484 19.7741 0.521195 19.4244 0.327592C19.0747 0.133989 18.6684 0.0222743 18.2483 0.00427342C17.8275 -0.0190746 17.407 0.0535711 17.0326 0.21431C16.6582 0.375048 16.3442 0.617726 16.1247 0.91595L0.360018 22.0604C0.120291 22.3797 -0.00455143 22.7489 0.000126819 23.1248C0.00480507 23.5008 0.13881 23.8678 0.386432 24.183L8.0939 34.067C8.38549 34.4381 8.81412 34.7211 9.31584 34.8739C9.81756 35.0267 10.3655 35.041 10.8779 34.9148L33.2449 29.436C33.5816 29.3545 33.8933 29.214 34.1589 29.0242C34.4245 28.8343 34.6377 28.5994 34.7842 28.3354C34.9287 28.0727 35.0023 27.7872 34.9999 27.4986C34.9976 27.21 34.9193 26.9252 34.7705 26.6643L34.7694 26.6651ZM31.5153 27.7614L12.5356 32.409C11.9566 32.5517 11.4009 32.1361 11.5213 31.6522L18.3022 4.76477C18.429 4.26168 19.2679 4.18206 19.5331 4.64753L32.0858 26.722C32.1413 26.8204 32.1704 26.9275 32.171 27.0361C32.1717 27.1447 32.1439 27.2521 32.0895 27.3509C32.0352 27.4497 31.9556 27.5376 31.8563 27.6084C31.757 27.6793 31.6403 27.7315 31.5142 27.7614H31.5153Z" fill="white"/>
</svg>
