<svg width="35" height="35" viewBox="0 0 35 35" fill="none" xmlns="http://www.w3.org/2000/svg">
<path d="M26.25 22.9688V9.84375H24.0625V25.1562H32.8125V22.9688H26.25Z" fill="white"/>
<path d="M19.6875 9.84375H15.3125C14.7323 9.84375 14.1759 10.0742 13.7657 10.4845C13.3555 10.8947 13.125 11.4511 13.125 12.0312V22.9688C13.125 23.5489 13.3555 24.1053 13.7657 24.5155C14.1759 24.9258 14.7323 25.1562 15.3125 25.1562H16.4062V27.3438C16.4062 27.9239 16.6367 28.4803 17.047 28.8905C17.4572 29.3008 18.0136 29.5312 18.5938 29.5312H20.7812V27.3438H18.5938V25.1562H19.6875C20.2677 25.1562 20.8241 24.9258 21.2343 24.5155C21.6445 24.1053 21.875 23.5489 21.875 22.9688V12.0312C21.875 11.4511 21.6445 10.8947 21.2343 10.4845C20.8241 10.0742 20.2677 9.84375 19.6875 9.84375ZM15.3125 22.9688V12.0312H19.6875V22.9688H15.3125Z" fill="white"/>
<path d="M8.75 25.1562H2.1875V22.9688H8.75V18.5938H4.375C3.79484 18.5938 3.23844 18.3633 2.8282 17.953C2.41797 17.5428 2.1875 16.9864 2.1875 16.4062V12.0312C2.1875 11.4511 2.41797 10.8947 2.8282 10.4845C3.23844 10.0742 3.79484 9.84375 4.375 9.84375H10.9375V12.0312H4.375V16.4062H8.75C9.33016 16.4062 9.88656 16.6367 10.2968 17.047C10.707 17.4572 10.9375 18.0136 10.9375 18.5938V22.9688C10.9375 23.5489 10.707 24.1053 10.2968 24.5155C9.88656 24.9258 9.33016 25.1562 8.75 25.1562Z" fill="white"/>
</svg>
