<svg width="35" height="35" viewBox="0 0 35 35" fill="none" xmlns="http://www.w3.org/2000/svg">
<g clip-path="url(#clip0_401_131)">
<path d="M17.4619 15.9328L16.3594 19.0602C15.7715 21.0016 15.8215 21.614 16.1196 22.0657C16.1932 22.1767 16.3945 22.5401 16.6758 23.5108C17.0842 24.9159 17.4438 27.0373 17.4526 27.1388C17.3935 28.4355 17.4255 29.8095 17.5427 31.125H2.99158C1.34628 31.125 0 29.9207 0 28.449V4.23025C0 2.75847 1.3462 1.55398 2.99158 1.55398H25.383C21.9536 4.80823 18.5557 10.9832 17.4619 15.9328ZM33.2682 0.76142C37.3715 4.03577 33.2969 11.5213 29.5569 16.7905C26.8374 17.5724 23.6677 19.299 23.6677 19.299C23.6677 19.299 23.9314 19.1738 24.9099 18.8067C25.5732 18.5572 27.5539 18.136 28.76 17.89C26.7464 20.6056 25.0234 22.5064 25.0234 22.5064C25.0234 22.5064 21.5104 23.7834 20.424 26.7542C21.0536 23.5853 22.0985 20.2779 23.573 16.7533C24.8899 13.6059 29.2889 5.10641 32.5391 2.48066C28.9731 5.02315 25.0768 10.3469 22.2684 16.9823C20.6062 21.3778 19.7066 25.595 19.5601 29.0921C19.4633 31.3799 19.6844 33.3637 20.2287 34.8775L19.9771 35.0002C19.4431 33.7607 18.9531 31.5824 19.0703 27.1187C19.0528 26.9195 19.0423 26.7901 19.0423 26.7901C19.0423 26.7901 18.7181 24.8372 18.2519 23.2331C18.0454 22.521 17.8103 21.8771 17.5636 21.5039C17.4364 21.3113 17.5773 20.5204 17.9322 19.3487C18.5332 20.2847 19.1815 21.298 19.4306 22.1271C19.4306 22.1271 18.9504 19.917 18.1624 18.6273C18.3351 18.1059 18.5414 17.5296 18.7749 16.9135C19.3561 17.8227 19.9488 18.6878 20.1852 19.5542C19.9266 18.4473 19.5765 17.3449 19.0312 16.252C20.0224 11.638 23.2128 5.59641 26.6499 2.33471C28.4845 0.583549 31.0128 -0.983726 33.2682 0.76142Z" fill="white"/>
</g>
<defs>
<clipPath id="clip0_401_131">
<rect width="35" height="35" fill="white"/>
</clipPath>
</defs>
</svg>
