<svg width="35" height="35" viewBox="0 0 35 35" fill="none" xmlns="http://www.w3.org/2000/svg">
<path d="M23.6454 9.86127L23.536 10.4315C23.3669 11.5121 23.4281 11.8213 23.8919 12.2223L24.3396 12.5927L23.8758 14.6606C23.5988 15.8944 23.259 16.9283 23.0431 17.2681C22.8579 17.5613 22.6421 17.9929 22.5954 18.2248C22.5181 18.5019 22.2556 18.7804 21.8546 19.0269C21.5002 19.2281 20.8046 19.7677 20.3117 20.2009C19.9179 20.5552 19.6467 20.7725 19.4994 20.8659L19.0181 21.2465C18.8635 21.4944 18.776 21.6942 18.7425 21.8458C18.709 22.0019 18.7279 22.1054 18.7775 22.1813C18.8256 22.2542 18.9088 22.3052 19.0225 22.3373C19.1572 22.3689 19.2958 22.3802 19.4338 22.3709C19.7459 22.3495 20.0549 22.2948 20.3554 22.2075C20.4575 22.1798 20.5377 22.1536 20.6077 22.1302C20.7156 21.9975 20.965 21.7467 21.4069 21.3106C22.5794 20.1542 23.0271 19.5213 22.5648 19.6919C22.3942 19.7531 22.4715 19.5986 22.7646 19.2894C23.3829 18.6871 23.7373 17.7771 24.4781 14.9231C25.0644 12.67 25.0644 12.6379 25.496 12.6379C25.6987 12.6379 26.2719 12.6729 26.2719 12.6729V9.86127H24.9565H23.6454ZM29.244 14.4769C29.1506 14.4769 28.996 14.6169 28.9042 14.7715C28.735 15.0486 28.9348 15.2177 31.481 16.8073C32.9933 17.7654 34.2125 18.5821 34.1819 18.6448C34.1512 18.69 32.916 19.4936 31.4358 20.4196C28.7496 22.085 28.735 22.1011 28.9815 22.4409C29.2906 22.8419 28.9815 22.9804 32.4683 20.8046L35 19.1844V17.9652L32.1752 16.2211C30.6483 15.2644 29.3213 14.4929 29.244 14.4769ZM5.78667 14.6475C5.70937 14.6475 4.38229 15.435 2.85542 16.3756L0 18.1198V19.339L2.83938 21.1138C4.41438 22.085 5.74146 22.8886 5.80271 22.8886C5.86396 22.8886 5.98792 22.7486 6.11188 22.5794C6.29708 22.2863 6.14104 22.1623 3.53354 20.5115C1.05 18.9525 0.7875 18.7367 1.03542 18.5675C1.19 18.4596 2.3625 17.7334 3.62833 16.9473C6.51438 15.1725 6.35979 15.295 6.12792 14.9246C6.03604 14.7715 5.88 14.6329 5.78813 14.6475H5.78667ZM18.4508 14.6811C18.025 14.6781 17.1092 15.3271 14.3675 17.5656C14.2494 17.8471 14.2392 18.0411 14.2931 18.1665C14.3281 18.2525 14.3923 18.3123 14.4813 18.3561C14.5688 18.3998 14.6825 18.4261 14.8079 18.4363C15.0573 18.4581 15.3519 18.4188 15.5896 18.3721L15.75 18.3356C15.8049 18.262 15.877 18.2029 15.96 18.1636C16.1292 18.0702 16.8394 17.4227 17.5496 16.7286C18.7994 15.4627 19.0925 14.8911 18.5835 14.7059C18.5418 14.6892 18.4972 14.6808 18.4523 14.6811H18.4508ZM21.6533 15.5604C21.2785 15.5706 20.6033 16.0052 19.4469 16.9283C18.8665 17.3994 18.499 17.6531 18.3021 17.7056L17.5379 18.3094C17.2506 18.8344 17.2083 19.1596 17.2842 19.339C17.3031 19.3832 17.3307 19.4233 17.3652 19.4568C17.3998 19.4904 17.4406 19.5167 17.4854 19.5344C17.5968 19.5784 17.7156 19.6007 17.8354 19.6C18.1217 19.597 18.4062 19.5553 18.6813 19.4761C18.8246 19.4376 18.9662 19.3928 19.1056 19.3419L19.1479 19.3244L19.2252 19.2836C19.371 19.0954 19.7065 18.7411 20.1265 18.3327C21.4535 17.0523 22.1317 16.1423 21.9931 15.8025C21.9304 15.6377 21.8225 15.5546 21.6533 15.5604ZM18.1183 17.1354C18.0104 17.1471 17.7683 17.3338 17.3323 17.7159C16.7023 18.2729 16.0154 18.5938 15.7777 18.4509C15.7225 18.4633 15.667 18.475 15.6115 18.4859C15.3694 18.534 15.0675 18.5733 14.7977 18.5515C14.6706 18.5438 14.546 18.5126 14.4302 18.4596C14.321 18.4097 14.2338 18.3215 14.1852 18.2117C14.1313 18.0804 14.1313 17.9171 14.1925 17.7086L13.2446 18.4873L11.0994 20.2621V23.1394L18.1285 17.6021C18.1272 17.5415 18.135 17.481 18.1519 17.4227C18.2058 17.2273 18.2029 17.1281 18.1183 17.1369V17.1354ZM21.1429 18.0673C21.0365 18.0673 20.8585 18.2175 20.5742 18.5194C20.1877 18.9321 19.5796 19.3317 19.2573 19.4134L19.2077 19.4396C19.1548 19.4615 19.1013 19.4819 19.0473 19.5008C18.9598 19.53 18.846 19.565 18.7148 19.6C18.4523 19.6715 18.1256 19.7371 17.834 19.7298C17.6965 19.7296 17.5603 19.7029 17.4329 19.6511C17.3129 19.6016 17.2167 19.5075 17.1646 19.3886C17.08 19.1859 17.1135 18.9015 17.2988 18.4975L11.0979 23.3815V25.1388H13.8221L19.6 20.6004C19.7502 20.4342 19.9762 20.2067 20.281 19.9223C21.0977 19.1654 21.2829 18.9044 21.2829 18.5179C21.2829 18.2175 21.2494 18.0659 21.1429 18.0659V18.0673ZM22.5181 20.9111L22.0238 21.404C21.7467 21.6665 21.2523 21.9902 20.914 22.1288L20.8469 22.1579L20.8425 22.1652L20.8279 22.1798C20.8148 22.19 20.809 22.1915 20.7987 22.1959C20.6637 22.247 20.5265 22.2922 20.3875 22.3315C20.0785 22.4214 19.7607 22.4776 19.4396 22.4992C19.2878 22.5089 19.1354 22.4956 18.9875 22.4598C18.8592 22.4316 18.7459 22.3567 18.6696 22.2498C18.5996 22.1419 18.5792 21.9975 18.6185 21.8196C18.6499 21.6929 18.6964 21.5705 18.7571 21.455L14.0948 25.1388H20.2956L21.0365 24.29C22.0544 23.1029 22.5181 22.2542 22.5181 21.5279V20.9111Z" fill="white"/>
</svg>
