<svg width="35" height="35" viewBox="0 0 35 35" fill="none" xmlns="http://www.w3.org/2000/svg">
<path d="M0 0V35H35V0H0ZM20.1281 15.1915H15.1505V30.6102H12.4093V15.1915H7.44194V12.6418H20.1281V15.1915H20.1281ZM30.3281 29.0383C28.6572 31.2156 23.8642 31.548 21.0774 29.7365V26.3283C22.5943 27.985 24.1639 28.2218 25.3869 28.3341C29.2075 28.652 29.3182 25.4695 27.7717 24.1573C25.4946 22.3195 20.9597 21.2969 21.1013 17.3256C21.0684 14.4806 23.2771 12.5708 26.564 12.3933C27.8096 12.3261 29.585 12.4036 30.7016 13.1247V16.3285C28.081 13.924 22.6263 14.5689 23.949 18.1379C25.1461 20.3415 29.2628 20.5582 30.9952 24.0478C31.7304 26.0109 31.3212 27.7443 30.3281 29.0383Z" fill="white"/>
</svg>
