<svg width="375" height="812" viewBox="0 0 375 812" fill="none" xmlns="http://www.w3.org/2000/svg">
<g clip-path="url(#clip0)">
<rect x="1" width="377" height="812" fill="url(#paint0_linear)"/>
<mask id="path-2-inside-1" fill="white">
<path fill-rule="evenodd" clip-rule="evenodd" d="M139.25 328C138.007 328 137 329.007 137 330.25V343V371V482.75C137 483.993 138.007 485 139.25 485H151.75C152.993 485 154 483.993 154 482.75V407H163V482.75C163 483.993 164.007 485 165.25 485H177.75C178.993 485 180 483.993 180 482.75V407H243C254.046 407 263 398.046 263 387V379H180V371H243C254.046 371 263 362.046 263 351V343H180V330.25C180 329.007 178.993 328 177.75 328H165.25C164.007 328 163 329.007 163 330.25V343H154V330.25C154 329.007 152.993 328 151.75 328H139.25ZM154 371V379H163V371H154Z"/>
</mask>
<path fill-rule="evenodd" clip-rule="evenodd" d="M139.25 328C138.007 328 137 329.007 137 330.25V343V371V482.75C137 483.993 138.007 485 139.25 485H151.75C152.993 485 154 483.993 154 482.75V407H163V482.75C163 483.993 164.007 485 165.25 485H177.75C178.993 485 180 483.993 180 482.75V407H243C254.046 407 263 398.046 263 387V379H180V371H243C254.046 371 263 362.046 263 351V343H180V330.25C180 329.007 178.993 328 177.75 328H165.25C164.007 328 163 329.007 163 330.25V343H154V330.25C154 329.007 152.993 328 151.75 328H139.25ZM154 371V379H163V371H154Z" fill="#F9C33C"/>
<path d="M154 407V404.5H151.5V407H154ZM163 407H165.5V404.5H163V407ZM180 407V404.5H177.5V407H180ZM263 379H265.5V376.5H263V379ZM180 379H177.5V381.5H180V379ZM180 371V368.5H177.5V371H180ZM263 343H265.5V340.5H263V343ZM180 343H177.5V345.5H180V343ZM163 343V345.5H165.5V343H163ZM154 343H151.5V345.5H154V343ZM154 371V368.5H151.5V371H154ZM154 379H151.5V381.5H154V379ZM163 379V381.5H165.5V379H163ZM163 371H165.5V368.5H163V371ZM139.5 330.25C139.5 330.388 139.388 330.5 139.25 330.5V325.5C136.627 325.5 134.5 327.627 134.5 330.25H139.5ZM139.5 343V330.25H134.5V343H139.5ZM139.5 371V343H134.5V371H139.5ZM139.5 482.75V371H134.5V482.75H139.5ZM139.25 482.5C139.388 482.5 139.5 482.612 139.5 482.75H134.5C134.5 485.373 136.627 487.5 139.25 487.5V482.5ZM151.75 482.5H139.25V487.5H151.75V482.5ZM151.5 482.75C151.5 482.612 151.612 482.5 151.75 482.5V487.5C154.373 487.5 156.5 485.373 156.5 482.75H151.5ZM151.5 407V482.75H156.5V407H151.5ZM163 404.5H154V409.5H163V404.5ZM165.5 482.75V407H160.5V482.75H165.5ZM165.25 482.5C165.388 482.5 165.5 482.612 165.5 482.75H160.5C160.5 485.373 162.627 487.5 165.25 487.5V482.5ZM177.75 482.5H165.25V487.5H177.75V482.5ZM177.5 482.75C177.5 482.612 177.612 482.5 177.75 482.5V487.5C180.373 487.5 182.5 485.373 182.5 482.75H177.5ZM177.5 407V482.75H182.5V407H177.5ZM243 404.5H180V409.5H243V404.5ZM260.5 387C260.5 396.665 252.665 404.5 243 404.5V409.5C255.426 409.5 265.5 399.426 265.5 387H260.5ZM260.5 379V387H265.5V379H260.5ZM180 381.5H263V376.5H180V381.5ZM177.5 371V379H182.5V371H177.5ZM243 368.5H180V373.5H243V368.5ZM260.5 351C260.5 360.665 252.665 368.5 243 368.5V373.5C255.426 373.5 265.5 363.426 265.5 351H260.5ZM260.5 343V351H265.5V343H260.5ZM180 345.5H263V340.5H180V345.5ZM177.5 330.25V343H182.5V330.25H177.5ZM177.75 330.5C177.612 330.5 177.5 330.388 177.5 330.25H182.5C182.5 327.627 180.373 325.5 177.75 325.5V330.5ZM165.25 330.5H177.75V325.5H165.25V330.5ZM165.5 330.25C165.5 330.388 165.388 330.5 165.25 330.5V325.5C162.627 325.5 160.5 327.627 160.5 330.25H165.5ZM165.5 343V330.25H160.5V343H165.5ZM154 345.5H163V340.5H154V345.5ZM151.5 330.25V343H156.5V330.25H151.5ZM151.75 330.5C151.612 330.5 151.5 330.388 151.5 330.25H156.5C156.5 327.627 154.373 325.5 151.75 325.5V330.5ZM139.25 330.5H151.75V325.5H139.25V330.5ZM151.5 371V379H156.5V371H151.5ZM154 381.5H163V376.5H154V381.5ZM165.5 379V371H160.5V379H165.5ZM163 368.5H154V373.5H163V368.5Z" fill="white" mask="url(#path-2-inside-1)"/>
</g>
<defs>
<linearGradient id="paint0_linear" x1="189.5" y1="0" x2="189.5" y2="812" gradientUnits="userSpaceOnUse">
<stop stop-color="#3C93F9"/>
<stop offset="1" stop-color="#2B7BD9"/>
</linearGradient>
<clipPath id="clip0">
<rect width="375" height="812" fill="white"/>
</clipPath>
</defs>
</svg>
